<svg width="34" height="64" viewBox="0 0 34 64" fill="none" xmlns="http://www.w3.org/2000/svg">
<path fill-rule="evenodd" clip-rule="evenodd" d="M7.94396 0.253052L7.83068 1.24475L5.71544 1.28284L4.87267 2.53674L4.83556 2.27502L5.52794 0.795532L7.79454 0.73938L7.85021 0.253052L5.28478 0.364868L3.15099 4.50305L3.09337 18.9962C0.810168 19.858 -0.518934 20.2511 0.192003 21.8424L3.09337 20.7003L2.98302 57.9991L5.62169 61.9698C19.7223 63.3927 13.9166 63.3927 28.0172 61.9698L30.6578 57.9991L30.5445 20.7003L33.4479 21.8424C34.1598 20.2511 32.8287 19.858 30.5445 18.9962L30.4899 4.50305L28.3551 0.364868L25.7887 0.253052L25.8443 0.73938L28.1295 0.795532L28.8219 2.27502L28.7662 2.53674L27.9234 1.28284L25.8082 1.24475L25.6949 0.253052C17.5875 -0.0843506 16.0524 -0.0843506 7.94396 0.253052ZM7.23204 59.255L5.67931 58.5988L6.98888 55.5851L7.88829 56.0714H25.7506L26.649 55.5851L27.9615 58.5988L26.4068 59.255H7.23204ZM7.19591 26.5426L5.13439 20.1764C5.73497 19.2023 6.16466 18.8278 7.17638 18.4156C10.1529 17.1989 23.4859 17.1989 26.4635 18.4156C27.4928 18.8278 27.9234 19.2023 28.5231 20.1764L26.4449 26.5426C24.1227 25.4381 9.5172 25.4381 7.19591 26.5426ZM28.8981 46.3527L26.8942 46.84L26.9303 38.4698L28.7838 37.6085L28.8981 46.3527ZM26.8942 48.0187L28.9156 47.5323L28.9733 52.0079L28.2975 55.5284L26.8561 54.4611L26.8942 48.0187ZM26.9684 37.1027L28.7477 35.8859L28.7662 23.8273L27.193 27.8722L26.9684 37.1027ZM4.74181 46.3527L6.74669 46.84L6.7086 38.4698L4.85509 37.6085L4.74181 46.3527ZM6.74669 48.0187L4.72325 47.5323L4.66759 52.0079L5.34044 55.5284L6.78282 54.4611L6.74669 48.0187ZM6.66954 37.1027L4.89122 35.8859L4.87267 23.8273L6.44591 27.8722L6.66954 37.1027Z" fill="black"/>
</svg>
