<svg width="32" height="32" viewBox="0 0 32 32" fill="none" xmlns="http://www.w3.org/2000/svg">
<path d="M23.5667 14.8666C23.7667 14.9999 23.9165 15.1666 24.016 15.3666C24.1156 15.5666 24.1663 15.7777 24.168 15.9999C24.1698 16.2222 24.1196 16.4333 24.0174 16.6333C23.9152 16.8333 23.7654 16.9999 23.568 17.1333L12.7014 24.0333C12.5903 24.0999 12.4734 24.1497 12.3507 24.1826C12.228 24.2155 12.1112 24.2324 12 24.2333C11.6445 24.2333 11.3334 24.1053 11.0667 23.8493C10.8 23.5933 10.6667 23.2768 10.6667 22.8999L10.6667 9.09994C10.6667 8.72217 10.8 8.40527 11.0667 8.14927C11.3334 7.89327 11.6445 7.76572 12 7.76661C12.1112 7.76661 12.2276 7.7835 12.3494 7.81728C12.4712 7.85105 12.588 7.90083 12.7 7.96661L23.5667 14.8666Z" fill="black"/>
</svg>
