<svg width="32" height="32" viewBox="0 0 32 32" fill="none" xmlns="http://www.w3.org/2000/svg">
<path d="M15.3337 31.3337V26.0003ZM22.667 30.0003L18.0003 24.667L24.0003 25.3337L30.0003 23.3337L24.0003 21.3337L18.0003 22.0283L24.667 17.403L28.5323 10.135L21.8377 14.0283L16.6657 20.695L18.6657 10.0283L15.3337 0.666992L12.0003 10.0297L14.0003 20.6963L8.82833 14.0297L2.13499 10.1363L6.00033 17.4043L12.667 22.0297L6.66699 21.3337L0.666992 23.3337L6.66699 25.3337L12.667 24.667L8.00033 30.0003L15.3337 26.0003L22.667 30.0003Z" fill="#00FF4D"/>
<path d="M15.3337 31.3337V26.0003M15.3337 26.0003L8.00033 30.0003L12.667 24.667L6.66699 25.3337L0.666992 23.3337L6.66699 21.3337L12.667 22.0297L6.00033 17.4043L2.13499 10.1363L8.82833 14.0297L14.0003 20.6963L12.0003 10.0297L15.3337 0.666992L18.6657 10.0283L16.6657 20.695L21.8377 14.0283L28.5323 10.135L24.667 17.403L18.0003 22.0283L24.0003 21.3337L30.0003 23.3337L24.0003 25.3337L18.0003 24.667L22.667 30.0003L15.3337 26.0003Z" stroke="white" stroke-width="0.1" stroke-miterlimit="10" stroke-linecap="round" stroke-linejoin="round"/>
</svg>
