<svg width="512" height="512" viewBox="0 0 512 512" fill="none" xmlns="http://www.w3.org/2000/svg">
<g clip-path="url(#clip0_3_7249)">
<path d="M256 0C114.627 0 0 114.627 0 256C0 397.373 114.627 512 256 512C397.373 512 512 397.394 512 256C512 114.627 397.394 0 256 0ZM256 506.88C117.453 506.88 5.12 394.547 5.12 256C5.12 117.453 117.453 5.12 256 5.12C394.547 5.12 506.88 117.453 506.88 256C506.88 394.547 394.547 506.88 256 506.88Z" fill="black"/>
<path d="M69.7754 177.93L76.1242 162.632L86.4256 166.933L74.752 194.97L27.9962 175.534L33.321 162.775L69.7754 177.93Z" fill="black"/>
<path d="M85.4426 101.396L91.689 107.09L101.909 95.9077L110.141 103.424L99.922 114.626L114.586 128.02L105.267 138.219L67.8912 104.079L88.4736 81.5513L96.7066 89.0469L85.4426 101.396Z" fill="black"/>
<path d="M404.582 63.6108L414.495 72.9292L403.784 100.024L430.653 88.1664L440.668 97.5872L413.778 142.664L403.886 133.018L418.898 106.598L418.796 106.516L389.53 118.968L385.516 115.2L396.616 85.6268L396.513 85.5244L371.487 102.318L361.37 92.9996L404.582 63.6108Z" fill="black"/>
<path d="M469.279 167.24L461.455 170.475L467.436 184.873L457.134 189.133L451.154 174.756L443.105 178.094L449.393 193.27L439.112 197.529L427.52 169.595L474.276 150.2L485.868 178.135L475.566 182.395L469.279 167.24Z" fill="black"/>
<path d="M65.3107 240.824L65.495 226.079L14.6432 245.494L14.4589 260.587L64.8397 281.641L65.024 266.977L56.2585 263.209L56.4838 244.183L65.3107 240.824ZM46.2029 259.277L30.167 253.378V253.235L46.3462 247.787L46.2029 259.277Z" fill="black"/>
<path d="M151.101 38.4409L137.728 45.4451L143.114 99.7785L156.099 92.9792L155.259 83.4969L172.114 74.6496L179.261 80.855L192.307 74.0147L151.101 38.4409ZM153.969 72.7859L151.552 55.8694L151.675 55.808L164.147 67.4611L153.969 72.7859Z" fill="black"/>
<path d="M247.583 44.3595C254.996 42.4958 258.601 36.147 258.048 29.1838C257.208 18.4113 248.873 14.2744 238.408 15.1141L217.825 16.7525L221.839 67.1947L235.622 66.1093L234.086 46.7147H234.23L248.771 65.0853L265.912 63.7131L247.583 44.3595ZM234.721 38.1745L233.39 38.2769L232.387 25.6817L233.718 25.5998C238.203 25.2312 243.343 25.6408 243.773 31.1294C244.204 36.6181 239.206 37.8264 234.721 38.1745Z" fill="black"/>
<path d="M331.202 24.4939C316.641 19.804 299.909 25.7022 295.219 40.284C290.202 55.8897 298.394 70.6558 314.634 75.8782C330.875 81.1006 346.173 73.8917 351.191 58.2859C355.881 43.7246 345.764 29.1838 331.202 24.4939ZM337.49 53.9646C337.449 54.108 337.408 54.2513 337.346 54.3742C334.746 62.1566 326.308 66.3345 318.546 63.7336C318.402 63.6926 318.259 63.6517 318.136 63.5902C310.374 60.9483 306.237 52.5105 308.879 44.7486C311.03 38.0926 319.426 34.099 327.291 36.6385C335.135 39.1576 339.62 47.3086 337.49 53.9646Z" fill="black"/>
<path d="M499.896 247.972C499.364 232.673 488.141 218.972 472.863 219.484C456.479 220.058 445.379 232.796 445.952 249.835C446.546 266.895 458.527 278.835 474.89 278.262C490.189 277.709 500.429 263.25 499.896 247.972ZM474.317 263.864C474.173 263.864 474.01 263.885 473.866 263.885C465.674 264.069 458.895 257.577 458.711 249.385C458.711 249.242 458.691 249.098 458.691 248.955C458.547 240.763 465.08 234.004 473.293 233.861C480.276 233.615 486.892 240.148 487.158 248.402C487.444 256.655 481.3 263.619 474.317 263.864Z" fill="black"/>
<path d="M256 71.5776C154.153 71.5776 71.5776 154.153 71.5776 256C71.5776 357.847 154.153 440.422 256 440.422C357.847 440.422 440.422 357.868 440.422 256C440.422 154.133 357.847 71.5776 256 71.5776ZM199.782 85.3197C217.231 79.5648 235.479 76.5543 253.85 76.3495V224.215H199.741L199.782 85.3197ZM145.224 114.565L145.306 224.236L79.1143 224.215C86.9786 179.835 111.145 141.292 145.224 114.565ZM77.7626 278.692H145.285L145.306 397.517C108.012 368.374 83.7223 325.673 77.7626 278.692ZM253.85 435.651C235.459 435.446 217.19 432.415 199.721 426.639L199.741 278.692H253.85V435.651ZM258.15 435.651H257.802C257.925 435.651 258.048 435.651 258.15 435.651V76.37C356.209 77.353 435.651 157.409 435.651 256.021C435.651 354.509 356.434 434.483 258.15 435.651Z" fill="black"/>
<path d="M308.634 152.105H373.965V145.306H308.634V152.105ZM308.634 139.633H373.965V134.431H308.634V139.633ZM354.673 131.482C357.683 131.482 360.141 129.045 360.141 126.014C360.141 123.003 357.704 120.545 354.673 120.545C351.662 120.545 349.205 122.983 349.205 126.014C349.225 129.024 351.662 131.482 354.673 131.482ZM330.854 397.415C323.4 397.415 317.358 391.844 317.358 384.389C317.358 376.955 323.379 370.463 330.854 370.463H357.151C359.998 370.463 362.291 368.169 362.291 365.322C362.312 362.476 360.018 360.141 357.151 360.1H314.962C301.322 360.1 290.263 349.041 290.263 335.381C290.263 321.741 301.322 311.235 314.962 311.235L366.674 311.194C369.869 311.194 372.449 309.514 372.449 306.34C372.47 303.125 369.889 300.483 366.674 300.442H314.511C293.95 300.892 276.931 284.611 276.48 264.049C276.03 243.487 292.311 226.468 312.873 226.017C313.426 225.997 313.979 225.997 314.532 226.017L364.667 226.058C368.558 226.058 371.712 222.679 371.712 218.767C371.712 214.856 368.558 211.927 364.667 211.927L308.183 211.948C310.907 200.151 318.628 198.328 325.427 198.349H351.744C354.755 198.349 357.192 195.912 357.212 192.901V192.881C357.212 189.87 354.775 187.884 351.744 187.884H325.427C314.102 187.884 308.654 177.91 308.183 172.462H335.401C337.674 165.192 342.2 161.567 347.198 161.567H376.218C386.191 161.567 390.267 155.218 391.189 152.494C397.988 155.669 422.482 175.186 422.482 207.852C422.482 240.517 393.462 257.29 375.296 257.434H314.511C311.317 257.434 308.736 260.014 308.736 263.209C308.736 266.404 311.317 268.984 314.511 268.984L371.671 268.943C389.734 268.943 404.398 284.181 404.398 302.244C404.398 320.307 389.755 334.52 371.671 334.52L317.215 334.459C314.204 334.459 311.767 336.896 311.767 339.907C311.767 342.917 314.204 345.354 317.215 345.354L358.502 345.395C368.251 345.395 376.136 353.301 376.136 363.049C376.136 372.818 368.23 380.58 358.502 380.58L333.537 380.662C331.244 380.662 329.38 382.546 329.38 384.84C329.38 387.134 331.244 388.997 333.537 388.997H352.707C359.404 389.018 366.879 398.889 352.481 404.337C352.604 401.511 352.133 397.415 346.133 397.415C340.152 397.435 330.854 397.415 330.854 397.415Z" fill="black"/>
<path d="M312.832 193.168C302.162 198.165 299.561 213.115 300.114 218.337L285.163 228.659C283.177 230.81 279.839 230.953 277.688 228.967C275.538 226.98 275.395 223.642 277.381 221.491C277.483 221.389 277.586 221.287 277.688 221.184L287.334 214.487C292.086 211.313 291.185 206.09 290.509 201.79C289.833 197.489 285.307 199.516 283.935 201.114C281.907 203.141 279.101 204.411 276.009 204.411C269.803 204.411 264.786 199.598 264.786 193.393C264.786 187.187 269.824 182.17 276.029 182.17C278.999 182.17 281.866 183.358 283.955 185.447C285.327 187.044 289.874 189.092 290.529 184.771C291.205 180.47 292.106 175.248 287.355 172.073L277.709 165.376C275.64 163.308 275.64 159.949 277.709 157.901C279.777 155.832 283.136 155.832 285.184 157.901L300.134 168.223C299.213 172.524 302.162 188.191 312.832 193.168Z" fill="black"/>
</g>
<defs>
<clipPath id="clip0_3_7249">
<rect width="512" height="512" fill="white"/>
</clipPath>
</defs>
</svg>
