<svg width="512" height="512" viewBox="0 0 512 512" fill="none" xmlns="http://www.w3.org/2000/svg">
<path d="M102.046 320.713C137.786 320.713 166.758 291.74 166.758 256C166.758 220.26 137.786 191.287 102.046 191.287C66.3061 191.287 37.3333 220.26 37.3333 256C37.3333 291.74 66.3061 320.713 102.046 320.713Z" stroke="black" stroke-width="16.6667" stroke-linecap="round" stroke-linejoin="round"/>
<path d="M204.682 320.713C240.421 320.713 269.394 291.74 269.394 256C269.394 220.26 240.421 191.287 204.682 191.287C168.942 191.287 139.969 220.26 139.969 256C139.969 291.74 168.942 320.713 204.682 320.713Z" stroke="black" stroke-width="16.6667" stroke-linecap="round" stroke-linejoin="round"/>
<path d="M307.318 320.713C343.058 320.713 372.031 291.74 372.031 256C372.031 220.26 343.058 191.287 307.318 191.287C271.579 191.287 242.606 220.26 242.606 256C242.606 291.74 271.579 320.713 307.318 320.713Z" stroke="black" stroke-width="16.6667" stroke-linecap="round" stroke-linejoin="round"/>
<path d="M409.954 320.713C445.694 320.713 474.667 291.74 474.667 256C474.667 220.26 445.694 191.287 409.954 191.287C374.214 191.287 345.242 220.26 345.242 256C345.242 291.74 374.214 320.713 409.954 320.713Z" stroke="black" stroke-width="16.6667" stroke-linecap="round" stroke-linejoin="round"/>
</svg>
