<svg width="512" height="512" viewBox="0 0 512 512" fill="none" xmlns="http://www.w3.org/2000/svg">
<path d="M193.521 222.434C194.093 215.707 202.538 208.121 201.393 201.25C200.391 195.811 193.664 191.231 186.937 190.229C183.072 189.656 170.333 188.654 167.47 188.511C164.035 188.368 154.874 188.225 151.868 188.225C149.005 188.225 141.419 188.082 139.129 188.082C136.839 188.082 134.119 187.939 130.398 187.366C126.676 186.793 124.099 185.935 120.521 184.933C116.943 183.788 114.08 182.929 111.217 182.356C108.354 181.784 104.776 181.211 102.343 180.925C99.9094 180.639 94.8996 180.352 91.3212 180.209C87.5996 180.209 78.582 180.209 75.5762 180.209C72.7134 180.209 63.5527 180.639 61.2625 180.639C58.8292 180.639 56.3958 180.639 55.2507 180.639C54.1056 180.639 54.3919 181.211 53.8194 181.354C53.2468 181.497 50.5272 181.354 48.9527 181.354C47.3782 181.354 46.2331 181.354 45.6606 181.211C45.088 181.211 44.3724 181.211 44.3724 181.211C44.3724 181.211 44.2292 181.784 44.8018 181.927C45.3743 182.07 46.6625 182.213 47.2351 182.213C47.6645 182.213 51.3861 182.499 52.6743 182.642C53.9625 182.642 56.2527 182.642 57.6841 182.786C59.1154 182.929 61.6919 182.929 63.4095 182.929C65.1272 182.929 71.8546 182.929 74.2879 182.929C76.7213 183.072 81.4448 183.072 83.7349 183.072C86.0251 183.215 91.4643 183.358 95.7584 183.931C100.053 184.503 103.488 184.933 107.782 185.935C111.933 186.937 116.8 188.511 119.09 189.227C121.523 189.942 124.815 190.801 126.39 191.231C128.107 191.66 129.682 191.66 130.111 192.089C130.541 192.376 130.541 192.805 130.254 193.378C129.968 193.95 129.825 194.093 129.539 194.666C129.396 195.238 129.109 195.525 129.109 195.525H127.535C127.535 195.525 127.821 195.238 127.821 194.952C127.821 194.666 126.962 194.093 125.96 193.95C124.958 193.807 120.664 193.378 119.519 193.235C118.374 193.091 114.08 192.662 111.79 192.662C109.5 192.662 100.339 192.662 98.0486 192.662C95.7584 192.805 87.1702 192.519 85.0232 192.662C82.8761 192.805 75.2899 192.662 73.286 192.662C71.2821 192.662 66.5585 192.662 64.5546 192.662C62.6938 192.662 56.2527 192.662 53.9625 192.662C51.6723 192.662 43.9429 192.376 42.5116 192.519C41.0802 192.519 36.7861 192.376 34.6391 192.376C32.492 192.376 25.192 192.089 23.3313 192.089C21.3273 192.089 18.894 191.946 18.1783 191.66C17.4627 191.374 13.3117 189.227 11.5941 188.511C9.87641 187.652 6.7274 186.078 5.86858 185.648C5.00976 185.219 4.15094 184.646 3.86467 184.503C3.5784 184.36 2.4333 185.505 2.14703 185.935C1.86075 186.364 1.28821 185.935 1.28821 185.935C1.28821 185.935 5.29604 181.497 6.15486 180.495C7.01368 179.493 8.01563 178.205 8.44504 178.062C8.87445 177.919 10.5921 177.919 11.7372 178.062C12.7391 178.205 19.6097 178.778 20.8979 178.921C22.1862 179.064 27.9116 179.207 29.4861 179.35C31.0606 179.35 38.2175 179.493 40.6508 179.493C43.0841 179.493 50.6704 179.78 52.8174 179.637C55.1076 179.493 61.4056 178.921 63.2664 178.778C65.2703 178.635 71.2821 178.205 74.1448 178.205C77.0075 178.062 82.8761 178.205 84.7369 178.062C86.5977 177.919 94.0408 177.919 96.4741 177.919C99.0506 177.919 106.207 178.205 108.641 178.348C111.074 178.348 121.523 178.921 124.243 179.064C126.962 179.207 140.56 179.637 143.566 179.78C146.572 179.923 151.009 180.066 153.443 179.923C155.876 179.78 167.184 179.207 170.619 179.207C174.054 179.064 183.215 178.921 186.793 179.064C190.515 179.207 199.389 180.066 202.395 180.352C205.401 180.782 208.407 181.497 209.123 181.497C209.982 181.497 211.27 181.64 211.842 182.07C212.272 182.499 212.701 183.501 213.703 184.074C214.562 184.646 215.85 184.79 216.28 185.362C216.709 185.935 216.709 187.223 216.995 187.652C217.282 188.225 218.283 189.799 218.427 190.944C218.57 192.089 218.427 194.093 217.711 195.238C216.995 196.527 215.707 197.958 214.419 199.389C213.131 200.821 210.983 202.252 209.266 203.827C207.405 205.401 204.399 207.691 202.825 209.838C201.25 211.985 200.248 213.417 199.962 215.564C199.676 217.711 199.819 218.999 199.676 219.429C199.533 219.858 199.246 220.717 198.674 221.289C198.101 221.862 195.954 224.438 195.095 225.44C194.236 226.442 192.948 228.446 192.662 229.019C192.376 229.591 192.089 230.021 192.089 230.021L191.517 229.162C191.517 229.162 192.662 227.874 192.805 227.444C193.378 226.585 193.235 225.011 193.521 222.434Z" fill="black"/>
<path d="M16.3175 197.099L16.6038 195.811C16.6038 195.811 20.3253 195.811 21.4704 195.811C22.6155 195.811 29.3429 196.097 31.7763 196.097C34.2096 196.097 41.5096 196.384 43.3703 196.24C45.088 196.097 55.1076 196.384 57.2546 196.384C59.4017 196.384 69.8506 196.384 71.9977 196.527C74.1447 196.527 86.0251 196.67 87.8859 196.67C89.7466 196.67 99.6231 196.67 101.913 196.67C104.203 196.67 114.08 196.67 116.227 196.67C118.517 196.67 124.099 196.813 125.388 196.67C126.676 196.67 127.678 196.527 127.821 196.384C128.107 196.384 128.823 195.954 129.396 196.24C129.825 196.527 130.111 196.956 130.254 197.242C130.541 197.529 130.97 197.815 131.113 198.101C131.399 198.244 131.829 198.531 132.258 198.96C132.545 199.389 132.545 199.389 133.117 199.819C133.69 200.248 133.69 200.391 133.546 200.678C133.403 200.964 132.545 201.823 132.258 202.395C131.972 202.968 131.829 203.397 131.686 203.54C131.543 203.684 130.397 203.827 130.397 203.827C130.397 203.827 131.113 203.397 130.97 202.968C130.827 202.538 130.111 201.536 128.537 201.393C126.962 201.25 123.097 201.68 121.237 201.823C119.519 201.966 107.925 202.968 105.778 203.254C103.774 203.397 87.5996 204.542 84.88 204.829C82.1604 205.115 69.4212 205.831 66.9879 205.974C64.5546 206.117 54.9644 206.689 52.1017 206.833C49.0958 206.976 42.3684 207.262 39.7919 207.405C37.2155 207.548 32.0625 207.691 31.0606 207.548C30.0586 207.548 28.7704 206.976 28.1979 206.689C27.4822 206.403 23.4743 204.542 22.1861 203.97C21.041 203.397 19.0371 202.682 18.6077 202.109C18.1783 201.68 18.4646 200.821 18.4646 200.248C18.4646 199.676 18.4646 198.96 17.7489 198.388C17.1763 197.815 16.3175 197.099 16.3175 197.099Z" fill="black"/>
<path d="M29.1998 212.988V211.842C29.1998 211.842 30.9175 211.842 31.7763 211.699C32.6351 211.556 36.3567 211.556 38.6469 211.413C41.0802 211.27 50.5272 210.84 53.3899 210.697C56.3958 210.554 69.8507 209.838 72.4271 209.552C75.0036 209.409 92.6094 208.121 95.1859 207.978C97.6192 207.691 112.362 206.546 114.652 206.403C116.943 206.26 124.672 205.401 127.392 205.258C130.111 204.972 130.541 204.686 130.97 204.686C131.399 204.686 131.686 204.399 132.115 204.972C132.545 205.544 133.403 206.546 133.976 206.833C134.548 207.262 136.266 208.264 136.266 208.837C136.266 209.409 135.837 210.125 135.55 210.554C135.264 211.127 135.264 212.129 135.264 212.129L133.546 212.415C133.546 212.415 133.69 211.986 133.69 211.699C133.69 211.413 133.403 210.697 132.688 210.411C131.972 210.125 130.684 209.839 129.539 210.125C128.394 210.411 122.811 211.27 120.664 211.699C118.374 212.129 105.492 214.276 102.343 214.705C99.1937 215.278 86.7408 217.138 83.8781 217.568C80.8722 217.997 69.4212 219.429 65.4134 219.858C61.4056 220.287 56.5389 220.717 53.8193 220.86C51.0997 221.003 48.3802 221.289 46.3762 221.003C44.3723 220.717 40.0782 219.429 38.2174 218.999C36.3567 218.57 33.4939 217.711 33.0645 217.282C32.6351 216.852 32.3488 216.28 32.2057 215.707C32.0626 215.135 31.2037 213.846 30.6312 213.703C30.2018 213.56 29.1998 212.988 29.1998 212.988Z" fill="black"/>
<path d="M45.3743 225.87C45.3743 225.87 46.09 226.013 46.9488 225.87C47.8077 225.727 48.3802 225.44 49.3822 225.297C50.3841 225.297 53.1037 225.154 54.6782 225.011C56.2527 225.011 60.8331 224.438 62.4076 224.295C63.9821 224.152 71.7115 223.436 74.1448 223.007C76.5781 222.721 90.1761 220.717 92.4663 220.43C94.7565 220.144 106.064 218.427 109.213 217.854C112.362 217.281 122.668 215.421 125.388 214.991C128.107 214.419 131.256 213.989 132.401 213.703C133.547 213.417 134.405 212.844 135.121 213.131C135.837 213.274 136.409 213.846 137.268 214.276C138.127 214.705 139.415 215.134 140.131 215.278C140.847 215.564 141.419 215.85 141.562 216.136C141.705 216.423 141.562 217.425 141.276 217.854C140.99 218.427 140.847 218.713 140.703 219.285C140.56 219.858 140.56 220.287 140.56 220.287L138.986 220.86C138.986 220.86 139.272 220.144 138.986 219.715C138.699 219.285 137.841 218.713 137.411 218.713C136.982 218.713 136.266 218.856 135.407 219.142C134.692 219.429 124.815 222.291 123.241 222.864L111.503 226.156C110.072 226.585 100.768 228.876 98.1918 229.448C95.6153 230.021 85.882 232.025 83.4487 232.454C81.0154 232.883 71.8546 234.028 69.5644 234.172C67.2743 234.315 66.8448 234.458 64.9841 234.315C63.1233 234.172 59.5449 233.742 57.3978 233.456C55.1076 233.17 52.8174 232.597 51.9586 232.454C51.0998 232.311 50.3841 232.168 49.9547 231.166C49.5253 230.164 49.6684 229.448 48.9528 228.732C48.3802 228.017 47.5214 227.301 47.092 227.158C46.5194 226.872 45.8038 226.872 45.6606 226.728C45.2312 226.442 45.3743 225.87 45.3743 225.87Z" fill="black"/>
<path d="M64.984 239.182C64.984 239.182 71.5683 238.466 73.1428 238.323C74.5742 238.036 84.88 236.605 87.3133 236.176C89.7467 235.603 100.339 233.313 102.2 232.883C104.06 232.454 115.654 229.448 117.945 228.876C120.235 228.303 127.964 226.013 130.111 225.44C132.258 224.725 138.413 222.864 138.986 222.578C139.701 222.291 140.417 221.719 141.133 221.862C141.848 222.005 143.852 222.578 144.568 222.721C145.284 223.007 147.144 223.293 147.574 223.58C147.86 223.866 148.003 224.152 148.003 224.725C148.003 225.297 148.003 227.874 148.003 228.16C148.003 228.446 148.719 229.019 148.719 229.019L147.001 229.734C146.572 229.878 145.856 230.164 145.856 230.164C145.856 230.164 145.999 229.448 145.999 229.162C145.856 228.876 144.854 228.303 144.568 228.303C144.282 228.16 143.995 228.303 143.137 228.589C142.421 228.876 140.417 229.734 139.415 230.164C138.413 230.593 132.545 232.883 130.827 233.599C129.109 234.315 121.952 237.034 119.662 237.75C117.372 238.609 107.066 242.044 105.205 242.617C103.345 243.189 96.6172 245.05 94.8996 245.48C93.3251 245.909 92.4663 246.195 91.178 246.338C89.8898 246.338 84.7369 245.909 82.5898 245.623C80.4428 245.336 74.5742 244.478 73.7153 244.191C72.8565 243.905 72.4271 243.619 71.8546 243.046C71.4252 242.474 70.9957 242.044 70.1369 241.615C69.2781 241.185 68.4193 240.756 67.7036 240.47C66.9879 240.183 66.7016 240.04 66.2722 239.897C65.8428 239.754 65.4134 239.611 65.1271 239.468C64.984 239.468 64.984 239.182 64.984 239.182Z" fill="black"/>
<path d="M92.4663 250.633C92.4663 250.633 94.6134 250.06 95.1859 249.774C95.7585 249.487 99.3369 248.485 100.339 248.199C101.484 247.913 105.349 246.911 106.923 246.338C108.498 245.766 116.227 243.189 117.802 242.617C119.233 242.044 128.394 238.609 130.254 238.037C132.115 237.321 142.135 233.17 143.709 232.597C145.141 232.025 146.572 231.452 147.145 231.023C147.717 230.737 149.292 229.878 150.007 229.735C150.723 229.591 152.297 229.305 153.013 229.305C153.729 229.305 154.158 229.305 154.445 229.591C154.731 229.878 154.874 230.307 154.874 230.88C154.874 231.452 155.017 232.74 155.59 233.313C156.162 233.742 157.164 234.172 158.166 234.458C159.168 234.744 160.17 234.888 160.599 234.888C161.029 234.888 161.172 234.888 161.172 234.888C161.172 234.888 159.168 236.176 158.595 236.319L155.876 237.607C155.876 237.607 155.733 237.035 155.446 236.891C155.16 236.748 154.158 236.748 153.443 236.891C152.584 236.891 151.868 237.321 151.152 237.75C150.437 238.18 143.423 241.901 141.992 242.617C140.56 243.333 129.825 248.915 128.394 249.631C126.962 250.346 120.092 253.638 118.947 254.211C117.802 254.784 117.086 255.213 116.084 255.213C115.082 255.356 112.649 255.356 110.502 255.356C108.354 255.356 104.06 255.213 102.772 255.213C101.484 255.213 99.6231 255.07 98.4781 254.64C97.4761 254.211 97.333 253.638 96.7604 252.923C96.1879 252.207 94.8996 251.491 94.3271 251.348C93.7545 251.205 92.8957 251.062 92.6094 251.205C92.4663 251.491 92.4663 250.633 92.4663 250.633Z" fill="black"/>
<path d="M117.372 259.507C117.372 259.507 125.674 255.356 126.962 254.783C128.25 254.211 140.703 247.913 142.278 246.911C143.852 246.052 153.013 241.042 155.017 239.897C157.021 238.752 159.741 237.321 160.17 237.035C160.599 236.748 160.886 236.319 161.458 236.176C162.031 236.033 162.317 235.889 162.317 235.889C162.317 235.889 163.033 236.891 163.462 237.464C163.891 238.036 164.893 239.038 166.039 239.182C167.184 239.325 167.613 239.325 168.329 239.325C169.044 239.325 170.19 239.038 170.19 239.038C170.19 239.038 167.184 241.901 166.611 242.331C166.039 242.76 159.454 248.199 158.166 249.344C156.878 250.489 152.011 254.211 150.866 255.213C149.721 256.072 146.286 258.648 145.57 259.078C144.854 259.507 142.85 260.223 141.705 260.509C140.56 260.795 134.978 261.94 132.974 262.37C130.97 262.799 126.676 263.515 125.817 263.515C124.958 263.515 123.813 263.515 123.098 262.799C122.382 262.083 121.952 260.938 120.95 260.366C119.949 259.936 119.376 259.65 118.66 259.65C117.515 259.936 117.372 259.507 117.372 259.507Z" fill="black"/>
<path d="M141.705 264.373C141.705 264.373 146.286 261.081 147.288 260.222C148.29 259.364 152.297 256.215 153.443 255.356C154.588 254.497 159.311 250.632 160.886 249.344C162.317 248.199 166.754 244.477 167.899 243.332C169.044 242.33 171.335 240.183 171.335 240.183C171.335 240.183 171.478 241.042 171.907 241.328C172.337 241.615 172.909 242.33 173.768 242.76C174.77 243.189 176.058 243.189 176.917 243.189C177.919 243.189 178.778 243.046 179.207 243.046C179.637 243.046 180.209 243.189 180.209 243.905C180.209 244.477 180.352 244.907 180.352 245.193C180.352 245.479 180.495 245.766 180.495 245.766L173.768 253.209C172.48 254.64 168.615 258.791 167.47 259.936C166.325 261.224 163.176 264.517 162.89 264.803C162.46 265.089 161.458 264.803 160.743 264.517C159.884 263.944 159.168 264.373 158.166 264.66C157.164 264.946 155.303 265.519 154.158 265.805C153.156 266.091 150.15 266.664 149.435 266.664C148.719 266.664 147.86 266.664 147.288 266.091C146.858 265.519 145.713 264.517 145.141 264.23C144.568 263.944 143.996 263.801 143.709 263.944C142.994 264.23 141.848 264.803 141.705 264.373Z" fill="black"/>
<path d="M163.748 265.805C163.748 265.805 168.186 261.225 169.044 260.223C170.046 259.221 175.342 253.495 176.488 252.207C177.633 250.919 179.493 248.629 180.066 248.056C180.495 247.483 180.925 247.054 181.068 247.054C181.354 247.054 182.499 247.054 183.501 246.768C184.503 246.625 185.935 246.195 186.364 246.338C186.793 246.482 186.793 246.768 186.793 247.054C186.793 247.34 186.937 250.489 186.937 251.491C186.937 252.493 186.937 254.783 186.793 255.499C186.507 256.358 184.217 260.938 183.644 262.227C183.072 263.515 181.497 266.378 181.354 266.95C181.068 267.523 181.068 267.666 180.782 267.809C180.639 267.952 180.209 267.379 179.637 266.664C178.778 265.662 178.062 265.805 177.203 266.091C176.344 266.378 171.621 267.523 170.762 267.666C169.903 267.809 168.472 268.238 167.756 268.095C167.041 267.952 166.611 267.379 166.325 266.807C165.895 266.234 165.466 265.805 165.037 265.805C164.178 265.948 163.748 265.805 163.748 265.805Z" fill="black"/>
<path d="M185.076 262.513C185.076 262.513 186.221 259.936 186.364 259.507C186.65 259.078 186.936 258.219 186.936 258.219C186.936 258.219 187.223 259.507 187.509 260.223C187.795 260.795 188.368 261.511 188.654 262.227C188.797 262.799 189.942 265.519 190.085 265.948C190.229 266.378 190.658 267.093 190.515 267.523C190.372 267.952 190.515 268.238 190.658 268.668C190.801 269.097 190.944 269.383 190.658 269.527C190.229 269.67 189.513 270.242 189.227 270.385C188.94 270.529 188.368 270.529 187.938 269.956C187.652 269.67 186.793 269.527 186.078 268.954C185.362 268.381 185.362 267.952 185.505 267.38C185.505 266.807 185.934 264.66 185.648 264.087C185.505 263.515 185.076 262.513 185.076 262.513Z" fill="black"/>
<path d="M162.89 271.387C162.89 271.387 164.178 273.105 165.18 273.105C166.039 273.105 166.325 272.819 166.754 272.675C167.184 272.532 167.899 272.532 168.186 272.675C168.472 272.819 169.044 273.391 168.901 273.964C168.901 274.536 169.188 275.681 169.617 276.54C170.046 277.542 171.907 281.407 173.052 283.124C174.197 284.985 177.346 289.422 178.635 291.14C180.066 292.715 184.503 297.724 185.648 298.726C186.793 299.728 192.662 304.738 194.809 306.169C196.956 307.601 201.966 310.893 204.972 312.324C207.978 313.899 211.842 315.616 212.844 316.046C213.846 316.475 214.419 316.475 214.705 316.762C214.848 317.048 215.278 317.334 215.278 317.334L214.132 319.195L213.131 320.769L212.272 320.34C212.272 320.34 212.844 319.767 212.701 319.338C212.415 318.909 212.272 318.479 211.556 318.05C210.84 317.62 207.834 316.475 206.546 315.76C205.258 315.187 199.533 312.038 197.385 310.75C195.382 309.462 190.372 306.026 187.938 304.022C185.505 302.162 180.352 297.009 178.778 295.148C177.06 293.287 173.482 288.564 172.337 286.846C171.191 285.128 168.186 279.546 167.47 278.115C166.754 276.683 166.468 275.681 165.895 275.109C165.323 274.536 165.037 274.393 164.893 274.393C164.607 274.393 164.035 274.25 164.035 274.25C164.035 274.25 163.891 273.821 163.462 272.819C163.176 272.246 162.89 271.387 162.89 271.387Z" fill="black"/>
<path d="M169.188 272.532C169.188 272.532 170.476 272.532 171.478 272.103C172.48 271.674 175.199 270.958 176.201 270.672C177.346 270.385 178.635 269.813 179.064 269.67C179.636 269.526 180.066 269.383 180.352 269.383C180.638 269.383 180.925 269.67 181.211 270.099C181.64 270.672 182.07 271.674 182.499 272.103C183.072 272.532 183.787 273.248 184.789 273.105C185.791 272.962 186.793 272.819 187.652 272.532C188.511 272.103 190.085 271.101 190.372 270.958C190.658 270.815 191.231 270.385 191.374 270.528C191.517 270.672 191.803 271.101 192.089 271.101C192.376 271.101 192.662 271.53 192.805 271.817C192.948 272.103 195.238 275.395 196.527 276.97C197.815 278.401 199.533 280.405 200.821 281.693C202.109 282.838 205.687 285.987 207.119 286.989C208.55 287.991 212.701 290.854 214.562 291.713C216.423 292.715 218.713 293.86 220.574 294.718C222.434 295.434 224.295 296.293 224.868 296.436C225.44 296.722 225.583 297.009 225.87 297.295C226.299 297.581 226.442 298.011 226.299 298.297C226.156 298.726 224.152 301.732 223.436 303.164C222.578 304.738 221.003 307.171 220.43 308.173C219.858 309.318 218.14 311.895 217.711 312.754C217.281 313.613 215.993 315.616 215.85 315.903C215.85 316.046 215.421 316.046 215.278 315.903C215.134 315.76 215.707 315.187 215.707 314.471C215.707 313.756 215.278 312.754 214.848 312.324C214.419 311.895 213.274 311.322 212.558 311.036C211.842 310.75 208.693 309.175 207.119 308.316C205.544 307.458 202.252 305.597 200.105 304.166C197.958 302.734 195.095 300.873 193.378 299.442C191.517 298.011 188.94 295.72 187.366 294.146C185.791 292.571 183.072 289.566 181.354 287.419C179.636 285.271 177.489 282.266 176.344 280.262C175.199 278.115 173.911 275.538 173.625 275.109C173.195 274.679 172.623 273.964 171.764 273.677C170.905 273.391 170.476 273.248 170.046 273.248C169.617 273.248 169.044 273.248 168.901 272.962C169.188 272.675 169.188 272.532 169.188 272.532Z" fill="black"/>
<path d="M132.115 192.376C132.115 192.376 138.986 192.376 140.99 192.376C142.994 192.376 148.862 192.376 149.435 192.376C150.007 192.376 150.866 192.662 151.152 192.662L151.725 192.805C151.725 192.805 152.011 193.521 151.725 193.664C151.439 193.95 151.295 194.666 151.009 195.095C150.866 195.525 151.009 195.954 150.723 196.097C150.437 196.24 149.292 196.384 149.292 196.384C149.292 196.384 149.435 195.811 149.148 195.668C148.862 195.525 148.003 195.095 147.288 195.238C146.572 195.238 143.137 195.668 141.992 195.668C140.847 195.811 137.841 196.24 137.125 196.24C136.552 196.384 135.837 196.24 135.407 196.097C134.978 195.954 133.26 195.238 132.831 194.809C132.401 194.38 132.115 194.237 131.972 194.237L131.256 194.093L131.543 193.235C131.829 192.805 132.115 192.376 132.115 192.376Z" fill="black"/>
<path d="M134.119 202.109C134.119 202.109 134.835 201.107 134.978 200.964C135.264 200.821 136.839 200.248 137.554 200.105C138.27 199.962 141.276 199.246 142.707 198.817C144.139 198.531 146.715 197.958 148.003 197.672C149.292 197.385 150.437 196.956 150.723 196.956C151.152 196.956 151.725 197.099 152.154 197.385C152.584 197.672 153.299 198.244 153.729 198.531C154.158 198.817 154.588 199.389 154.444 199.676C154.301 199.962 154.158 200.248 153.872 200.534C153.586 200.821 153.729 200.964 153.586 201.25C153.442 201.536 153.442 202.109 153.442 202.109C153.442 202.109 152.297 202.395 152.154 202.538C152.011 202.538 151.725 202.682 151.725 202.682C151.725 202.682 152.011 201.966 151.868 201.823C151.582 201.68 150.866 201.107 150.007 200.964C149.148 200.964 146.858 201.536 146.143 201.823C145.427 202.109 142.564 202.825 141.419 203.111C140.274 203.397 139.272 203.97 138.413 203.827C137.554 203.683 136.839 203.397 135.98 202.968C135.264 202.538 134.978 202.395 134.835 202.252C134.692 202.395 134.119 202.109 134.119 202.109Z" fill="black"/>
<path d="M137.125 209.839C137.125 209.839 137.125 209.266 137.554 208.98C137.841 208.693 138.699 208.55 139.129 208.264C139.558 207.978 140.847 207.548 142.278 207.119C143.709 206.546 146.429 205.831 147.431 205.544C148.576 205.258 151.009 204.399 151.582 204.256C152.154 203.97 153.013 203.541 153.586 203.541C154.158 203.541 155.303 203.827 156.019 204.113C156.735 204.399 157.307 204.686 157.45 205.115C157.594 205.544 157.307 206.26 157.021 206.546C156.735 206.976 156.735 207.262 156.592 207.548C156.448 207.835 156.448 208.407 156.448 208.407C156.448 208.407 156.019 208.693 155.59 208.837L154.874 208.98C154.874 208.98 154.874 208.407 154.588 208.121C154.301 207.691 153.299 207.405 152.727 207.548C152.154 207.691 149.721 208.693 148.862 209.123C148.003 209.552 145.427 210.697 144.425 211.127C143.566 211.556 142.994 211.842 141.992 211.699C141.133 211.556 140.274 211.413 139.558 211.127C138.843 210.841 137.984 210.268 137.554 210.268C137.698 209.839 137.125 209.839 137.125 209.839Z" fill="black"/>
<path d="M142.85 216.137L145.999 214.705C147.001 214.133 151.009 212.415 152.297 211.842C153.586 211.27 155.59 210.268 156.019 210.125C156.448 209.982 156.878 209.552 157.45 209.552C158.023 209.552 159.168 209.839 159.741 209.982C160.456 210.125 161.315 210.268 161.458 210.697C161.744 211.127 161.744 211.986 161.744 212.129C161.601 212.415 161.315 213.274 161.458 213.56C161.458 213.846 161.601 214.705 161.601 214.705L160.599 215.278C160.17 215.564 159.454 215.85 159.454 215.85C159.454 215.85 159.311 215.278 158.882 214.991C158.452 214.562 157.737 214.419 157.164 214.562C156.735 214.705 154.444 215.993 153.443 216.566C152.584 217.139 150.294 218.57 150.007 218.713C149.578 218.999 149.292 219.429 148.29 219.286C147.145 219.142 146.715 218.999 146.143 218.713C145.57 218.427 144.425 217.711 144.139 217.425C143.852 217.138 142.707 216.852 142.707 216.566C142.707 216.137 142.85 216.137 142.85 216.137Z" fill="black"/>
<path d="M148.576 223.723C148.576 223.723 151.725 221.719 153.013 220.86C154.301 220.001 157.593 218.14 158.882 217.425C160.17 216.709 161.458 215.85 162.031 215.707C162.746 215.564 164.321 215.707 165.18 215.707C166.039 215.707 166.611 215.707 166.611 216.137C166.754 216.566 166.611 216.995 166.468 217.282C166.468 217.711 166.468 218.713 166.468 218.713L160.17 223.723C159.168 224.582 156.735 226.729 156.592 226.729C156.448 226.729 155.59 226.156 154.588 225.727C153.586 225.297 153.013 225.297 152.584 225.154C152.154 225.011 151.582 224.725 151.009 224.439C150.437 224.152 150.15 224.009 149.721 224.009C149.292 224.009 148.433 224.295 148.433 224.295L148.576 223.723Z" fill="black"/>
<path d="M156.162 229.162C156.162 229.162 157.737 227.731 158.882 226.729C160.027 225.727 163.319 223.15 164.178 222.291C165.037 221.576 167.327 219.858 167.613 219.572C167.899 219.286 168.329 219.286 168.758 219.286C169.188 219.286 170.19 218.999 170.619 218.999C171.048 218.999 171.764 218.999 171.907 219.572C172.05 220.144 172.337 221.289 172.193 221.719C172.193 222.148 172.193 222.721 172.337 222.864C172.48 223.15 172.623 223.293 172.623 223.293C172.623 223.293 172.193 223.723 171.621 224.295C171.048 224.868 169.044 226.729 168.329 227.444C167.47 228.303 165.752 229.878 165.18 230.593C164.607 231.309 163.605 232.168 163.605 232.168C163.605 232.168 163.319 231.166 162.746 230.736C162.174 230.307 160.886 230.021 160.027 230.021C159.168 230.021 158.166 229.162 157.737 229.162C157.307 229.019 156.878 229.305 156.878 229.305C156.878 229.305 156.305 229.591 156.162 229.162Z" fill="black"/>
<path d="M164.178 233.885L168.472 229.591C169.331 228.733 172.05 226.156 172.766 225.44C173.482 224.725 173.911 224.152 174.627 223.866C175.342 223.58 176.201 223.15 176.631 223.293C177.06 223.436 177.346 224.009 177.489 224.582C177.633 225.154 178.205 226.013 179.207 226.299C180.209 226.585 180.782 226.729 181.354 226.729C181.784 226.729 182.07 226.585 182.07 226.585C182.07 226.585 181.068 227.587 180.495 228.16C179.923 228.733 178.348 230.307 177.346 231.166C176.344 232.025 173.911 234.458 173.195 235.174C172.48 235.889 171.478 236.605 171.478 236.605C171.478 236.605 171.478 235.889 170.905 235.46C170.189 234.744 169.331 234.887 168.472 234.887C167.613 234.887 167.184 234.744 166.611 234.315C166.182 233.885 165.752 233.456 165.466 233.456C165.18 233.456 164.607 233.742 164.464 233.742C164.893 233.885 164.178 233.885 164.178 233.885Z" fill="black"/>
<path d="M172.766 237.75C172.766 237.75 175.199 235.46 176.344 234.315C177.49 233.17 179.78 231.023 180.782 230.021C181.784 229.019 183.501 227.301 183.501 227.301C183.501 227.301 183.931 227.874 184.646 227.874C185.505 228.017 186.364 228.16 186.937 228.16C187.509 228.16 188.654 228.16 188.94 227.874C189.227 227.588 189.656 227.444 189.656 227.444C189.656 227.444 189.084 228.16 188.511 229.019C187.938 229.878 186.078 232.311 185.219 233.742C184.217 235.174 182.07 238.466 181.64 239.038C181.211 239.611 180.495 241.042 180.209 241.329C179.923 241.758 179.637 242.187 179.637 242.187C179.637 242.187 179.78 241.472 179.064 240.47C178.491 239.468 178.205 239.468 177.633 239.325C177.06 239.182 176.917 239.468 176.201 239.038C175.486 238.609 175.056 237.893 174.627 237.75C174.197 237.607 174.197 237.607 173.768 237.75C173.052 237.893 172.766 237.75 172.766 237.75Z" fill="black"/>
<path d="M190.372 229.162C190.372 229.162 190.658 229.591 190.944 230.021C191.231 230.45 191.66 230.736 191.517 231.023C191.517 231.309 190.086 233.885 189.799 234.601C189.513 235.317 188.511 238.466 188.368 239.325C188.082 240.183 187.795 241.615 187.509 242.33C187.223 243.046 186.937 243.332 186.937 243.619L186.793 244.477C186.793 244.477 186.221 244.907 185.935 244.907L185.076 245.193V244.477C185.076 244.191 184.646 243.619 184.36 243.189C184.074 242.617 183.788 242.044 184.074 241.042C184.36 240.04 184.789 238.895 185.219 238.036C185.648 237.178 185.791 236.319 186.364 235.03C186.937 233.742 187.366 232.597 188.082 231.595C188.797 230.593 189.084 230.021 189.37 229.591C189.942 229.305 190.372 229.162 190.372 229.162Z" fill="black"/>
<path d="M153.443 192.805C153.443 192.805 156.305 192.662 158.309 192.662C160.456 192.662 163.033 192.662 164.464 192.948C165.895 193.092 168.186 193.235 169.044 193.235C169.903 193.235 171.191 193.092 173.339 193.092C175.486 193.235 179.207 193.235 181.784 193.664C184.36 194.093 186.65 194.523 188.654 195.239C190.658 195.954 194.523 197.529 195.668 198.96C196.813 200.391 197.672 201.537 197.529 203.397C197.386 205.258 196.67 207.119 196.097 208.264C195.525 209.409 194.093 211.842 193.807 212.272C193.521 212.701 191.374 214.705 190.515 215.707C189.656 216.709 186.793 219.715 185.648 221.146C184.503 222.435 183.644 223.58 183.215 224.009C182.642 224.582 182.356 225.011 182.356 225.011H181.927C181.927 225.011 182.356 224.438 182.213 223.866C182.07 223.293 181.64 222.291 181.068 222.005C180.495 221.719 180.352 221.576 180.066 221.719C179.637 221.862 179.35 222.005 179.207 222.005C178.921 222.005 178.778 222.148 178.778 222.148C178.778 222.148 180.066 220.717 180.639 220.144C181.211 219.572 182.786 217.997 183.358 217.568C183.931 216.995 184.36 216.709 184.646 216.709C184.933 216.709 185.791 216.995 186.364 216.709C186.937 216.423 188.082 215.278 188.225 214.419C188.225 213.56 187.938 212.844 187.366 212.415C186.793 211.986 186.078 211.699 185.505 211.699C184.933 211.699 184.36 211.842 183.788 212.129C183.501 212.272 183.072 212.415 183.072 212.415C183.072 212.415 183.072 211.986 183.215 211.413C183.358 210.84 182.929 210.125 182.642 209.695C182.356 209.123 181.64 208.837 180.925 208.693C180.066 208.55 179.78 208.837 179.493 208.55C179.207 208.264 179.35 207.835 179.207 207.262C178.921 206.69 178.491 205.831 177.776 205.544C177.06 205.258 176.344 205.115 176.058 205.115C175.629 205.115 175.629 204.829 175.629 204.399C175.629 203.827 175.486 202.539 175.056 202.109C174.627 201.823 173.911 201.107 173.339 201.107C172.766 200.964 172.48 200.964 172.48 200.678C172.48 200.391 172.766 199.819 172.766 199.246C172.766 198.674 172.623 197.815 171.907 197.242C171.191 196.813 170.476 196.527 170.19 196.097C169.903 195.668 169.331 195.095 169.188 195.095C169.044 195.095 168.472 195.095 168.042 195.095C167.613 195.095 166.611 195.382 165.752 195.525C165.037 195.668 164.607 195.811 164.178 195.668C163.748 195.525 162.89 195.239 162.317 195.239C161.744 195.239 160.313 195.382 159.311 195.382C158.309 195.525 157.45 195.668 156.592 195.525C155.876 195.525 155.303 195.239 154.588 194.952C154.015 194.666 153.729 194.523 153.443 194.38C153.013 194.093 152.87 193.95 152.87 193.95C152.87 193.95 152.87 193.664 153.013 193.378C153.156 193.092 153.443 192.805 153.443 192.805Z" fill="black"/>
<path d="M155.303 199.533C155.303 199.533 157.307 198.674 158.739 198.244C160.17 197.815 162.89 197.099 164.035 196.813C165.18 196.527 166.182 196.24 166.611 196.384C167.041 196.527 167.613 196.527 168.043 196.527H168.758C168.758 196.527 169.044 196.813 168.901 196.956C168.758 197.099 168.758 197.242 168.329 197.672C167.899 198.101 167.613 198.531 167.184 198.817C166.754 198.96 165.609 199.246 164.321 199.533C163.033 199.819 161.172 200.534 160.456 200.678C159.741 200.821 159.597 201.107 158.452 200.821C157.307 200.678 157.021 200.534 156.592 200.391C156.162 200.248 156.019 200.391 155.876 200.535C155.59 200.678 155.446 200.535 155.446 200.535V199.962C155.16 199.819 155.303 199.533 155.303 199.533Z" fill="black"/>
<path d="M158.739 204.685C158.739 204.685 160.743 203.684 162.317 202.968C164.035 202.252 167.327 201.107 168.042 200.821C168.758 200.678 169.474 200.391 169.903 200.678C170.333 200.964 170.619 201.107 170.476 201.536C170.333 201.823 169.76 202.682 169.474 202.825C169.044 203.111 166.754 204.256 165.895 204.685C165.037 205.115 163.033 206.117 162.46 206.117C161.888 206.117 161.315 205.974 160.599 205.831C160.027 205.687 159.741 205.544 159.454 205.544C159.168 205.544 158.595 205.544 158.595 205.544C158.595 205.544 158.739 205.401 158.739 205.115C158.739 204.972 158.739 204.685 158.739 204.685Z" fill="black"/>
<path d="M162.46 210.268C162.46 210.268 164.607 208.98 165.323 208.55C166.039 208.121 168.472 206.976 169.474 206.403C170.476 205.831 171.621 205.401 172.193 205.401C172.766 205.401 173.339 205.687 173.339 205.974C173.339 206.26 173.339 206.832 173.052 207.405C172.766 207.834 172.623 208.264 171.764 208.98C170.905 209.838 170.19 210.268 169.617 210.697C169.044 211.127 168.186 211.842 167.756 211.985C167.327 211.985 166.611 211.699 166.325 211.556C165.895 211.556 164.893 210.983 164.607 210.84C164.321 210.697 163.892 210.554 163.605 210.554C163.319 210.554 162.317 210.84 162.317 210.84L162.46 210.268Z" fill="black"/>
<path d="M168.329 214.991C168.329 214.991 169.617 213.846 170.619 212.988C171.478 212.272 173.195 211.127 174.054 210.554C174.913 209.982 175.486 209.552 175.772 209.552C176.058 209.552 176.344 209.552 176.488 209.839C176.631 209.982 177.203 209.982 177.346 210.411C177.489 210.84 177.346 211.27 177.489 211.413C177.633 211.699 178.062 211.556 178.062 211.842C178.205 211.986 178.062 212.558 178.062 212.558C178.062 212.558 176.201 213.989 175.629 214.562C174.913 215.135 173.911 216.137 173.625 216.28C173.339 216.423 172.48 215.85 171.764 215.564C171.191 215.278 169.903 214.848 169.331 214.848C168.615 214.991 168.329 214.991 168.329 214.991Z" fill="black"/>
<path d="M173.482 218.427C173.482 218.427 175.056 216.995 175.772 216.28C176.488 215.564 177.346 214.848 177.919 214.276C178.491 213.703 179.78 212.844 179.78 212.844C179.78 212.844 180.352 212.844 180.209 213.274C180.066 213.56 180.495 213.703 180.782 213.703C181.068 213.703 181.64 213.56 181.784 213.703C181.927 213.703 182.213 213.846 182.213 214.276C182.213 214.705 182.213 214.991 182.356 215.134C182.499 215.134 182.929 215.134 182.929 215.278C182.929 215.421 183.072 215.707 183.072 215.707C183.072 215.707 181.068 217.711 180.209 218.57C179.35 219.429 177.919 220.86 177.776 221.003C177.633 221.146 177.49 221.432 177.49 221.432C177.49 221.432 177.203 220.574 176.488 220.001C175.772 219.285 175.486 219.142 174.77 218.999C174.054 218.427 173.482 218.427 173.482 218.427Z" fill="black"/>
<path d="M185.362 223.58C185.362 223.58 186.507 222.148 187.652 221.003L190.229 218.284C190.658 217.854 190.944 217.425 190.944 217.425C190.944 217.425 190.229 218.999 190.086 219.858C189.942 220.574 189.799 222.005 189.799 222.578C189.799 223.15 189.513 223.866 189.37 224.582C189.227 225.297 189.227 226.013 189.227 226.013C189.227 226.013 188.654 226.299 188.368 226.442C187.939 226.586 187.509 226.872 187.509 226.872C187.509 226.872 187.509 225.727 186.937 225.154C186.507 224.582 186.364 224.439 185.935 224.152C185.505 223.866 184.933 223.866 184.933 223.866L185.362 223.58Z" fill="black"/>
<path d="M212.129 180.925C212.129 180.925 214.132 180.209 215.564 179.637C216.852 179.064 223.579 176.774 225.583 176.201C228.16 175.486 234.028 174.197 237.464 173.625C241.042 173.052 248.056 172.337 254.926 172.337C260.795 172.337 266.234 172.766 269.097 173.195C271.96 173.482 277.685 174.484 279.975 175.199C282.266 175.772 286.273 176.774 288.42 177.49C290.567 178.205 294.003 179.35 295.291 179.923C296.579 180.495 297.438 180.639 297.724 180.925C297.867 181.068 298.011 181.497 298.726 181.784C299.442 182.07 300.444 182.499 300.444 182.499C300.444 182.499 300.014 182.786 299.585 183.072C299.013 183.358 298.297 183.644 297.724 183.931C297.152 184.217 296.579 184.503 296.579 184.503C296.579 184.503 296.579 183.788 296.293 183.501C296.007 183.215 294.289 182.356 292.571 181.784C290.997 181.211 288.42 180.352 285.987 179.637C283.554 178.921 279.26 177.776 276.397 177.203C273.534 176.631 270.385 176.201 267.666 175.915C264.803 175.629 258.362 175.056 255.07 175.199C251.777 175.199 245.336 175.629 242.044 176.058C238.895 176.488 233.599 177.203 230.593 178.062C227.587 178.778 223.436 179.78 221.862 180.352C220.287 180.925 218.283 181.641 217.711 181.784C217.138 181.784 215.707 181.641 215.278 181.641C214.848 181.641 214.419 181.641 214.132 181.641C213.846 181.641 213.13 182.07 212.844 181.927C212.701 181.211 212.129 180.925 212.129 180.925Z" fill="black"/>
<path d="M312.181 222.721C312.181 222.721 311.465 221.862 311.036 221.433C310.607 221.003 310.464 218.999 310.034 217.854C309.605 216.709 307.887 214.419 306.885 213.417C305.883 212.415 304.022 210.411 300.158 207.978C296.579 205.687 292.858 203.684 288.85 202.109C284.842 200.535 282.122 199.533 277.256 198.388C272.532 197.386 266.234 196.24 259.507 195.954C252.779 195.668 246.911 196.24 243.046 196.813C239.181 197.386 233.599 198.388 228.446 200.105C223.293 201.823 222.005 202.395 220.431 203.254C218.856 203.97 214.991 205.974 213.56 206.976C212.129 207.978 209.838 209.552 208.55 210.411C207.119 211.27 206.833 211.985 206.117 211.842C204.972 211.556 204.542 210.411 204.542 210.411C204.542 210.411 205.544 209.123 206.546 208.121C207.548 207.119 209.838 205.115 211.27 203.97C212.701 202.825 215.564 200.391 215.993 199.819C216.423 199.389 217.711 197.815 217.711 197.815C217.711 197.815 218.14 198.674 218.856 198.531C219.572 198.244 220.717 197.386 221.432 196.384C222.148 195.238 223.293 192.662 223.007 190.658C222.721 188.511 222.434 186.937 221.862 186.65C221.289 186.221 220.287 185.505 219.572 185.505C218.856 185.362 218.57 185.505 218.283 185.362C217.854 185.219 217.425 184.79 217.425 184.79C217.425 184.79 219.142 184.074 220.001 183.788C220.717 183.501 224.152 182.213 226.442 181.641C228.732 181.068 231.166 180.352 234.172 179.78C237.034 179.207 241.328 178.492 244.764 178.205C248.199 177.919 252.636 177.49 255.213 177.633C257.789 177.633 263.944 178.062 266.377 178.348C268.811 178.635 273.677 179.207 276.54 179.923C279.403 180.639 284.842 181.927 287.132 182.786C289.566 183.644 292.285 184.503 292.715 184.79C293.001 185.076 293.287 185.362 293.717 185.648C294.146 185.791 294.575 186.078 294.575 186.078C294.575 186.078 293.43 187.366 292.571 188.797C290.281 192.805 293.001 197.815 296.722 200.535C301.589 204.113 310.32 209.552 311.895 217.711C312.324 219.285 312.181 222.721 312.181 222.721Z" fill="black"/>
<path d="M315.473 218.427C315.187 215.564 313.469 212.701 312.181 210.841C310.893 208.98 310.034 206.976 308.603 204.542C307.171 202.109 303.02 199.676 300.444 197.815C298.44 196.384 295.864 193.235 295.864 190.801C295.864 189.656 295.291 187.796 293.86 188.654C294.146 188.082 294.718 187.509 295.434 186.937C296.722 185.792 299.156 184.217 301.589 183.501C303.879 182.643 309.462 181.211 311.609 180.639C313.899 180.066 320.197 179.064 322.916 178.778C325.493 178.635 330.073 178.348 332.363 178.348C334.797 178.348 339.234 178.635 342.669 178.921C346.248 179.35 351.114 180.066 354.406 180.209C357.555 180.352 363.138 180.496 365.571 180.496C368.004 180.352 372.442 180.209 374.875 180.209C377.308 180.209 386.04 179.923 389.045 179.637C391.908 179.494 399.924 178.921 402.787 178.778C405.792 178.635 414.81 178.492 417.387 178.492C419.963 178.492 431.128 179.064 433.99 179.207C436.853 179.35 443.867 179.78 446.443 179.923C449.02 180.066 452.741 180.209 454.888 180.352C457.035 180.496 463.477 180.352 464.765 180.352C466.196 180.352 471.063 180.352 473.639 180.209C476.359 180.066 483.373 179.494 485.949 179.35C488.526 179.064 495.253 178.492 497.257 178.348C499.404 178.205 501.551 177.919 502.41 178.062C503.269 178.205 504.414 178.921 504.7 179.207C504.986 179.494 506.274 180.925 507.133 181.927C507.992 182.929 508.994 184.074 509.137 184.36C509.28 184.79 509.853 185.505 509.71 185.792C509.567 186.078 509.423 186.65 509.137 186.794C508.851 186.937 507.276 187.652 507.276 187.652C507.276 187.652 507.133 186.937 506.704 186.794C506.131 186.507 505.273 186.221 504.7 186.507C503.984 186.794 501.98 187.652 500.692 188.225C499.404 188.797 497.4 189.656 496.398 189.799C495.396 189.943 491.675 190.086 489.241 190.086C486.808 190.086 479.508 190.229 476.359 190.229C473.21 190.372 462.618 190.372 460.328 190.515C458.037 190.515 448.304 190.658 445.298 190.658C442.149 190.658 433.561 190.801 430.698 190.801C427.836 190.801 415.383 190.944 412.663 190.944C409.943 190.944 402.214 190.945 400.067 191.088C397.92 191.088 395.2 191.231 392.481 191.374C389.761 191.517 386.04 191.946 384.895 192.09C383.749 192.09 382.318 191.946 381.889 191.803C381.316 191.66 381.316 191.517 381.03 191.517C380.744 191.517 379.742 191.374 379.742 191.374L379.599 190.944C379.599 190.944 380.744 190.658 381.746 190.515C382.748 190.229 383.606 189.799 385.324 189.513C387.042 189.084 391.479 188.368 393.626 187.939C395.773 187.509 405.649 185.792 408.512 185.505C411.375 185.076 418.818 184.36 421.394 184.074C423.971 183.931 431.414 183.358 433.99 183.215C436.567 183.072 442.436 182.786 443.867 182.786C445.298 182.786 450.308 182.929 452.312 183.072C454.316 183.215 455.318 183.215 455.318 183.215L455.747 181.927C455.747 181.927 453.6 181.784 451.883 181.641C450.165 181.497 445.585 181.497 444.01 181.497C442.436 181.497 436.996 181.497 434.849 181.641C432.845 181.784 429.839 181.354 427.406 181.354C424.543 181.211 417.959 181.354 415.24 181.497C412.52 181.641 404.934 182.499 402.5 182.786C400.067 183.072 391.765 184.217 388.044 184.933C384.179 185.648 378.31 186.794 375.591 187.366C372.871 187.939 369.293 188.654 366.144 188.941C362.995 189.227 356.553 189.37 354.263 189.37C351.973 189.37 344.959 189.227 341.524 189.227C338.089 189.227 332.22 189.227 328.785 189.656C325.35 190.086 322.487 190.658 320.769 191.374C319.052 191.946 317.191 192.662 316.046 193.521C314.901 194.38 314.328 195.382 314.328 195.668C314.328 195.954 314.471 196.241 314.471 196.241L315.33 196.527C315.33 196.527 314.471 197.243 313.899 197.672C313.326 198.101 312.897 199.103 312.611 199.962C312.467 200.821 312.181 202.968 312.038 203.827C312.038 204.686 311.895 205.115 312.181 205.831C312.467 206.546 313.899 208.98 314.471 210.125C315.044 211.127 316.475 213.56 316.905 214.276C317.334 214.991 318.05 215.993 318.622 216.852C319.195 217.711 320.054 219.715 320.197 220.288C320.34 221.003 320.34 221.862 320.34 222.864V227.588C320.34 228.303 320.197 229.019 320.054 229.162C319.911 229.305 319.481 229.735 319.481 230.164C319.481 230.593 319.195 231.452 319.052 231.882C318.909 232.311 318.622 233.313 318.622 233.313C318.622 233.313 318.05 232.168 318.05 232.025C318.05 231.882 318.336 230.88 318.193 229.591C318.05 227.301 315.903 222.864 315.473 218.427Z" fill="black"/>
<path d="M314.185 198.817C314.185 198.817 314.758 197.958 316.332 196.813C317.62 195.954 319.767 194.952 321.056 194.523C322.344 194.093 327.211 193.091 329.358 192.805C331.505 192.662 337.373 192.519 339.377 192.519C341.381 192.519 344.959 192.662 346.248 192.519C347.536 192.519 349.254 192.519 350.542 192.519C351.83 192.519 354.406 192.519 355.122 192.519C355.838 192.519 357.412 192.376 357.842 192.519C358.271 192.662 359.13 192.805 359.13 193.091C359.273 193.378 359.273 193.664 359.13 194.093C358.844 194.523 358.987 194.952 358.987 195.095V195.382C358.987 195.382 358.701 195.525 358.414 195.668C358.128 195.811 356.983 196.527 356.983 196.527C356.983 196.527 356.983 196.24 356.697 195.811C356.41 195.382 355.838 194.952 355.265 194.809C354.693 194.666 352.832 194.523 352.116 194.523C351.257 194.523 349.397 194.38 348.681 194.38C347.965 194.38 347.536 194.237 347.25 194.237C346.82 194.237 346.534 194.237 346.248 194.523C345.961 194.809 345.818 194.952 345.675 194.952C345.532 194.952 345.103 194.952 344.959 194.952C344.816 194.952 344.53 195.095 345.103 195.668C345.818 196.384 346.82 196.384 347.679 196.527C348.538 196.67 349.826 196.956 350.828 197.099C351.83 197.242 353.118 197.529 353.834 197.672C354.693 197.815 355.408 197.815 355.695 197.958C355.981 197.958 356.554 198.244 356.41 198.531C356.41 198.817 356.267 199.103 356.124 199.39C355.981 199.676 355.981 200.105 356.124 200.391C356.124 200.678 356.124 200.821 355.838 200.964C355.552 201.107 354.693 201.393 354.55 201.537C354.406 201.68 353.977 201.537 353.977 201.537C353.977 201.537 354.12 200.964 353.977 200.821C353.834 200.678 353.548 200.391 352.832 200.105C352.116 199.819 350.256 199.389 349.397 199.246C348.538 199.103 346.963 198.674 346.105 198.531C345.103 198.388 344.53 198.101 344.244 198.244C343.957 198.531 343.814 198.674 343.671 198.817C343.528 198.817 343.242 198.674 342.956 198.817C342.812 198.96 342.526 199.246 342.669 199.39C342.812 199.676 343.528 199.962 344.101 200.248C344.816 200.535 346.963 201.107 347.822 201.393C348.824 201.68 350.399 202.395 351.257 202.539C352.116 202.682 353.118 202.968 353.261 203.54C353.405 203.97 353.405 204.542 353.118 204.829C352.832 205.115 352.689 205.544 352.689 205.688C352.546 205.831 352.546 206.403 352.546 206.403C352.546 206.403 351.687 206.976 351.544 206.976L350.685 207.262C350.685 207.262 350.971 206.833 350.685 206.26C350.399 205.688 349.683 205.258 348.824 204.829C347.822 204.399 345.961 203.684 345.246 203.397C344.53 203.111 342.097 202.252 341.667 201.966C341.095 201.823 340.522 201.537 339.95 201.68C339.377 201.823 339.234 202.109 339.377 202.395C339.52 202.682 339.95 202.825 339.95 203.111C339.95 203.397 339.95 203.684 339.807 203.684C339.663 203.684 339.663 203.827 339.663 203.827C339.663 203.827 340.952 204.686 341.81 205.115C342.669 205.544 344.673 206.689 345.246 206.976C345.818 207.262 347.536 208.121 347.965 208.407C348.395 208.693 349.254 209.123 349.11 209.552C348.967 209.982 348.824 210.554 348.681 210.84C348.538 211.127 348.824 211.27 348.395 211.413C347.965 211.556 346.677 211.986 346.677 211.986C346.677 211.986 346.677 211.699 346.534 211.413C346.391 211.27 346.248 210.84 345.532 210.411C344.816 209.982 342.24 208.407 341.524 208.121C340.808 207.835 339.234 206.976 338.805 206.546C338.375 206.26 337.516 205.401 337.23 205.258C336.944 205.115 336.228 204.686 335.799 205.258C335.512 205.544 335.226 206.26 335.512 206.546C335.799 206.833 336.228 207.262 336.228 207.262C336.228 207.262 335.799 207.548 335.799 207.835C335.942 207.978 337.087 208.837 337.946 209.409C338.805 209.982 341.095 211.556 341.667 211.986C342.24 212.415 343.528 213.131 343.957 213.56C344.387 213.989 344.53 214.276 344.101 214.562C343.814 214.848 343.671 215.278 343.671 215.278C343.671 215.278 343.671 215.707 343.671 215.85C343.671 215.993 343.671 216.28 343.671 216.28C343.671 216.28 343.528 216.423 342.956 216.566C342.526 216.709 341.81 216.709 341.81 216.709C341.81 216.709 341.667 216.423 341.667 216.136C341.667 215.85 341.381 215.564 340.952 215.135C340.379 214.562 338.518 213.417 337.659 212.701C336.801 212.129 335.083 210.984 334.654 210.554C334.224 210.125 333.509 209.123 333.079 208.693C332.65 208.407 332.077 207.978 331.648 208.121C331.218 208.264 330.646 208.693 330.646 209.123C330.646 209.552 330.503 209.838 330.789 210.125C331.075 210.411 331.505 210.554 331.505 210.697C331.505 210.84 331.075 210.984 331.075 211.27C331.218 211.556 332.65 212.701 333.365 213.274C334.081 213.846 336.371 215.707 336.944 216.28C337.516 216.852 338.661 217.854 338.805 218.284C338.948 218.713 338.948 219.572 338.661 219.858C338.518 220.144 337.946 220.287 337.516 220.287C337.087 220.431 336.371 220.431 336.371 220.431C336.371 220.431 336.658 219.858 336.514 219.715C336.371 219.429 335.369 218.856 334.654 218.284C333.938 217.711 331.648 215.707 330.789 214.991C329.93 214.276 329.071 213.417 328.785 212.701C328.499 212.129 327.926 211.27 327.211 211.27C326.495 211.27 325.779 211.413 325.35 211.986C324.92 212.558 324.92 213.131 325.207 213.417C325.493 213.703 326.065 213.989 325.922 214.133L325.207 214.562C325.207 214.562 325.922 214.991 326.781 215.707C327.783 216.566 329.501 217.997 330.216 218.57C330.932 219.142 332.22 220.431 332.507 220.717C332.793 221.003 333.079 221.576 333.079 222.005C333.079 222.435 332.936 223.15 332.793 223.293C332.65 223.58 332.793 223.723 332.507 223.866C332.077 224.009 331.505 224.009 331.218 224.009C330.932 224.009 330.789 223.866 330.789 223.866C330.789 223.866 331.361 223.436 331.361 223.15C331.361 223.007 330.503 222.148 330.073 221.719C329.501 221.289 327.067 219.142 326.209 218.284C325.35 217.425 324.061 216.136 323.632 215.278C323.346 214.419 323.346 213.417 322.916 212.844C322.487 212.129 321.342 211.413 320.912 210.697C320.483 209.982 318.909 207.548 318.193 206.117C317.477 204.686 316.762 203.54 316.475 202.252C316.332 200.964 316.475 200.248 316.189 199.819C315.903 199.39 315.473 198.817 315.187 198.817C315.044 198.96 314.185 198.817 314.185 198.817Z" fill="black"/>
<path d="M320.054 216.995C320.054 216.995 322.058 219.286 322.63 219.715C323.203 220.144 324.205 220.86 324.491 221.003C324.777 221.146 326.065 222.435 326.352 222.864C326.638 223.293 327.497 224.009 327.497 224.438C327.497 224.868 327.067 226.156 326.781 226.442C326.495 226.729 326.065 227.158 325.636 227.158C325.35 227.158 324.634 227.015 324.634 227.015C324.634 227.015 325.493 226.872 325.493 226.442C325.493 226.156 325.35 225.87 324.777 225.297C324.205 224.725 323.918 224.438 323.346 223.723C322.773 222.864 322.201 222.005 322.201 222.005L321.771 222.148H321.342C321.342 222.148 321.199 220.717 321.056 220.001C320.913 219.286 320.626 218.57 320.483 218.284C320.197 217.854 320.054 216.995 320.054 216.995Z" fill="black"/>
<path d="M319.767 233.599C319.767 233.599 320.34 232.454 320.34 231.881C320.34 231.452 320.626 230.593 320.769 230.307L320.912 229.734C320.912 229.734 321.914 231.023 322.201 231.309C322.487 231.738 323.489 232.454 323.775 233.027C324.205 233.599 325.779 235.603 326.495 236.605C327.21 237.607 329.214 240.183 329.501 240.756C329.93 241.328 330.932 242.903 330.932 243.332C330.932 243.762 330.789 244.334 330.646 244.764C330.359 245.193 330.216 245.623 329.93 245.766C329.644 245.766 328.642 245.909 328.642 245.909C328.642 245.909 328.928 245.479 328.928 245.193C328.928 244.907 328.499 244.191 327.783 243.762C327.067 243.332 325.779 242.76 325.493 242.33C325.207 242.044 324.348 239.611 323.918 238.752C323.346 237.75 322.487 236.032 321.914 235.317C321.342 234.601 321.056 233.742 320.769 233.742C320.483 233.742 320.626 233.885 320.34 233.885C320.054 233.742 319.767 233.599 319.767 233.599Z" fill="black"/>
<path d="M321.485 228.16C321.485 228.16 322.773 228.589 323.632 228.589C324.348 228.589 324.92 228.589 325.207 228.589C325.35 228.446 325.779 227.874 326.495 227.73C327.21 227.587 327.926 227.73 328.785 228.16C329.501 228.732 333.222 232.311 333.652 232.883C334.224 233.456 336.514 235.746 337.373 236.319C338.089 237.034 339.234 238.179 339.52 238.609C339.806 239.038 339.806 239.468 339.663 239.754C339.52 240.04 339.234 240.183 339.091 240.47C338.948 240.756 338.948 241.472 338.661 241.758C338.518 242.044 338.232 242.187 337.659 242.187C337.087 242.187 336.657 242.187 336.657 242.187C336.657 242.187 337.23 241.901 337.23 241.472C337.23 241.042 337.087 240.613 336.514 240.326C335.942 240.04 335.512 239.754 334.654 239.324C333.938 238.895 333.222 238.323 332.793 237.75C332.22 237.177 330.932 235.46 330.359 234.744C329.787 234.028 328.212 232.168 327.497 231.452C326.781 230.736 326.065 230.164 325.207 230.021C324.348 229.877 324.061 229.734 323.918 229.734C323.775 229.734 323.346 230.307 323.489 230.45C323.632 230.593 323.203 230.164 322.773 229.734C322.344 229.448 321.485 228.16 321.485 228.16Z" fill="black"/>
<path d="M328.499 226.442C328.499 226.442 328.642 226.156 328.642 225.87C328.642 225.44 328.785 225.011 328.928 225.011C329.071 225.011 330.073 225.44 330.646 225.44C331.218 225.44 331.362 225.297 331.362 225.297C331.362 225.297 331.648 224.725 332.507 224.582C333.222 224.438 333.509 224.438 333.795 224.438C334.081 224.438 334.367 224.295 335.226 224.725C336.085 225.011 338.232 226.872 339.091 227.587C339.95 228.303 343.385 230.88 344.244 231.738C345.246 232.454 346.248 233.17 346.534 233.456C346.82 233.742 347.822 234.601 347.536 235.031C347.25 235.46 346.82 235.889 346.677 236.319C346.534 236.748 346.534 237.321 346.534 237.607C346.391 237.893 345.961 238.036 345.675 237.893C345.389 237.893 344.673 237.893 344.673 237.893C344.673 237.893 345.103 237.607 345.246 237.321C345.389 237.034 345.103 236.748 344.673 236.462C344.244 236.176 343.671 235.746 342.812 235.317C342.097 234.887 340.952 234.029 339.95 233.17C338.948 232.454 336.514 230.164 335.942 229.591C335.369 229.019 333.652 227.587 333.222 227.444C332.793 227.301 331.505 227.015 331.075 226.872C330.646 226.729 329.93 226.585 329.93 226.585C329.93 226.585 329.644 227.015 329.501 227.015C329.214 227.015 329.214 227.015 329.214 227.015C329.214 227.015 329.214 227.015 328.928 226.729C328.642 226.729 328.499 226.442 328.499 226.442Z" fill="black"/>
<path d="M334.51 222.721V222.005C334.51 222.005 334.94 221.862 335.656 221.862C336.228 221.862 336.801 221.862 337.516 221.576C338.232 221.289 338.232 221.433 338.661 221.146C339.091 220.86 339.377 220.717 339.807 220.431C340.236 220.144 340.236 219.715 340.522 219.715C340.809 219.715 341.667 219.572 341.954 219.715C342.24 219.858 344.101 221.433 345.103 222.005C346.248 222.721 349.54 224.725 350.685 225.44C351.973 226.156 353.834 227.158 354.407 227.731C354.979 228.303 355.408 228.589 355.408 229.019C355.408 229.591 354.979 229.878 354.693 230.307C354.407 230.737 354.55 231.023 354.407 231.452C354.263 231.738 354.12 232.168 354.12 232.168L352.546 232.454C352.546 232.454 352.975 232.025 352.832 231.738C352.832 231.309 352.546 230.88 351.83 230.593C351.114 230.164 350.256 230.164 349.54 229.878C348.824 229.591 347.536 228.733 346.82 228.16C346.105 227.587 344.101 226.156 343.242 225.44C342.383 224.868 340.952 223.723 340.379 223.437C339.663 223.15 338.518 222.864 337.803 222.864C337.087 222.864 336.228 222.864 336.085 222.864C335.942 222.864 335.656 223.58 335.369 223.437C335.083 223.15 334.94 223.15 334.654 222.864C334.511 222.864 334.51 222.721 334.51 222.721Z" fill="black"/>
<path d="M343.671 217.711C343.671 217.711 344.673 217.568 344.816 217.138C344.959 216.709 344.959 215.707 344.959 215.278C345.103 214.848 344.959 214.562 345.246 214.562C345.389 214.562 345.961 214.848 346.391 214.848C346.82 214.848 347.393 214.848 348.252 215.278C348.967 215.707 352.259 217.425 353.977 218.14C355.695 218.856 359.13 220.717 360.132 221.003C361.134 221.433 362.995 222.005 363.138 222.578C363.424 223.007 363.567 223.58 363.281 224.009C362.995 224.438 362.708 224.725 362.851 225.011C362.995 225.297 363.281 225.727 362.995 225.87C362.708 226.013 362.136 226.156 361.706 226.299C361.277 226.442 360.848 226.442 360.848 226.442C360.848 226.442 361.277 226.156 361.134 225.727C360.991 225.297 360.704 224.725 359.989 224.582C359.273 224.438 358.414 224.295 357.699 224.152C356.983 224.009 356.41 223.723 355.265 223.007C354.263 222.435 352.116 221.146 350.971 220.574C349.826 220.001 347.822 218.856 346.963 218.427C346.248 217.997 345.961 217.711 345.675 217.568C345.246 217.425 344.816 217.425 344.53 217.568C344.53 217.854 343.671 217.711 343.671 217.711Z" fill="black"/>
<path d="M349.826 211.842C349.826 211.842 349.969 211.27 350.112 210.554C350.255 209.838 350.112 209.552 350.255 209.552C350.542 209.409 350.828 209.695 351.257 209.552C351.687 209.552 352.259 209.552 352.546 209.695C352.832 209.838 354.55 210.554 355.265 210.84C356.124 211.127 360.275 212.701 361.563 213.13C362.995 213.703 365.428 214.562 366.573 214.991C367.718 215.421 368.434 215.564 368.863 215.85C369.293 216.28 369.579 216.709 369.579 217.425C369.579 218.14 369.722 218.427 369.436 218.713C369.15 219.142 369.006 219.142 369.006 219.429C369.006 219.572 369.293 220.001 369.006 220.287C368.863 220.574 368.577 220.574 367.861 220.717C367.146 220.86 366.859 220.86 366.859 220.86C366.859 220.86 367.432 220.287 366.859 219.858C366.287 219.429 366.144 219.142 364.999 218.713C363.853 218.283 361.993 217.568 361.134 217.138C360.275 216.852 356.697 215.134 355.695 214.848C354.693 214.419 352.546 213.703 351.83 213.274C351.114 212.844 350.828 212.701 350.542 212.415C350.542 211.842 349.826 211.842 349.826 211.842Z" fill="black"/>
<path d="M354.406 205.687C354.406 205.687 354.406 203.97 354.55 203.827C354.836 203.684 355.552 203.97 355.838 203.97C356.124 203.97 357.126 203.97 357.985 204.113C358.844 204.399 363.424 205.544 365.285 205.831C367.146 206.26 369.579 206.833 371.153 207.119C372.728 207.405 373.73 207.405 374.016 207.978C374.302 208.55 374.302 209.695 374.302 210.268C374.302 210.84 374.446 212.272 374.302 212.415C374.159 212.558 373.444 212.987 372.871 213.131C372.299 213.274 372.155 213.417 372.155 213.417C372.155 213.417 372.442 212.701 372.012 212.272C371.726 211.842 370.295 211.27 369.293 210.984C368.291 210.697 365.571 209.838 364.14 209.409C362.708 208.98 360.132 208.121 359.273 207.978C358.414 207.691 357.412 207.548 356.84 207.119C356.267 206.689 355.695 206.117 355.408 205.974C354.979 205.831 354.406 205.687 354.406 205.687Z" fill="black"/>
<path d="M357.699 199.103V198.388C357.699 198.388 358.557 197.529 358.701 197.529C358.987 197.529 359.559 197.386 360.418 197.529C361.277 197.672 365.285 198.101 366.716 198.388C368.291 198.674 372.299 199.246 373.444 199.389C374.589 199.533 376.45 199.389 377.022 199.533C378.024 199.819 377.881 200.678 377.881 201.25C377.881 201.823 378.024 202.825 378.024 203.111C378.024 203.397 377.451 203.827 376.879 204.256C376.306 204.686 375.734 204.972 375.448 205.258C375.161 205.401 375.591 204.542 375.161 204.113C374.875 203.827 374.302 203.54 373.444 203.397C372.585 203.254 371.01 202.825 370.152 202.682C369.293 202.538 365.857 201.823 364.569 201.537C363.281 201.25 361.706 201.107 360.704 200.678C359.846 200.248 359.273 199.533 358.701 199.246C358.271 199.246 357.699 199.103 357.699 199.103Z" fill="black"/>
<path d="M360.418 194.38C360.418 194.38 360.132 193.664 360.132 193.521C360.132 193.378 360.132 193.092 360.132 193.092C360.132 193.092 361.563 193.235 362.708 192.948C363.71 192.805 366.716 192.233 368.72 191.946C370.581 191.66 374.302 190.944 375.448 190.801C376.593 190.658 378.167 190.372 378.597 190.515C379.169 190.801 379.455 191.231 379.599 191.803C379.742 192.376 380.028 193.378 380.171 193.95C380.314 194.38 380.744 195.095 380.6 195.382C380.6 195.668 379.885 196.384 379.455 196.813C379.026 197.243 377.881 198.244 377.881 198.244C377.881 198.244 378.024 197.386 377.738 196.956C377.451 196.384 376.736 195.811 375.877 195.525C375.018 195.239 371.583 194.952 370.438 195.095C369.293 195.095 366.287 195.095 364.855 195.095C363.424 195.095 362.136 194.809 361.563 194.523C360.991 194.237 361.134 194.38 360.848 194.237C360.705 194.093 360.418 194.38 360.418 194.38Z" fill="black"/>
<path d="M380.028 198.244C380.028 198.244 381.459 196.67 381.746 196.24C382.175 195.811 382.461 195.239 382.748 195.239C383.034 195.239 383.893 195.239 384.465 195.095C385.181 194.809 390.191 194.809 391.479 194.809C392.767 194.809 401.928 194.809 403.789 194.809C405.793 194.809 418.675 194.666 420.679 194.666C422.826 194.666 432.13 194.666 434.42 194.666C436.853 194.523 448.304 194.666 451.024 194.523C453.743 194.38 468.057 194.38 470.347 194.237C472.781 194.237 483.802 193.95 485.806 193.95C487.81 193.95 491.818 193.807 492.963 193.807C494.251 193.664 495.396 193.521 495.826 193.664C496.255 193.807 496.398 194.237 496.541 194.523C496.684 194.809 497.4 197.099 497.686 197.958C497.973 198.96 498.259 200.248 498.259 200.821C498.259 201.393 498.545 202.252 498.402 202.395C498.259 202.538 496.971 203.254 496.684 203.397C496.398 203.397 496.112 203.54 496.112 203.54C496.112 203.54 496.398 203.111 496.255 202.682C496.112 202.395 495.253 201.823 494.824 201.68C494.394 201.537 493.679 201.68 492.677 202.109C491.675 202.538 488.955 203.254 487.38 203.54C485.806 203.827 485.09 204.113 482.514 204.113C479.794 204.113 473.639 204.113 471.063 204.113C468.486 203.97 460.614 203.827 456.892 203.54C453.171 203.397 444.01 202.825 440.861 202.682C437.712 202.539 427.836 201.966 425.545 201.823C423.255 201.68 411.804 200.964 409.371 200.821C406.938 200.678 395.057 199.962 393.197 199.676C391.193 199.533 387.042 199.246 385.897 199.103C384.608 199.103 382.891 198.817 382.175 198.674C381.459 198.531 381.459 198.244 381.03 198.101C380.744 198.244 380.028 198.244 380.028 198.244Z" fill="black"/>
<path d="M375.161 207.405C375.161 207.405 376.879 206.403 377.595 205.831C378.31 205.258 379.169 204.685 379.312 204.256C379.455 203.683 379.455 203.397 379.455 203.397C379.455 203.397 384.608 203.54 385.753 203.683C386.898 203.827 392.624 204.113 394.055 204.256C395.487 204.399 404.647 204.972 407.51 205.258C410.373 205.401 423.112 206.26 425.688 206.403C428.265 206.546 438.428 207.119 441.004 207.262C443.581 207.405 453.314 207.834 456.463 207.978C459.612 208.121 470.777 208.407 472.637 208.407C474.498 208.407 480.796 208.55 481.798 208.407C482.943 208.407 484.231 208.264 484.947 208.264C485.663 208.264 486.522 208.264 486.522 209.123C486.522 209.838 486.378 213.131 486.092 214.132C485.806 215.134 485.09 216.995 484.518 217.425C483.945 217.854 483.086 218.283 483.086 218.283C483.086 218.283 483.373 217.568 483.229 217.138C482.943 216.709 482.228 216.136 481.655 216.136C481.082 216.136 477.79 216.995 476.216 217.138C474.641 217.281 471.922 217.568 469.918 217.568C467.914 217.568 463.333 217.281 460.9 217.138C458.61 216.995 452.169 216.423 449.02 216.136C445.871 215.85 437.139 214.848 433.132 214.419C429.124 213.989 420.965 212.987 418.245 212.558C415.383 212.129 406.079 210.983 403.645 210.554C401.212 210.125 394.485 209.266 392.767 208.98C390.906 208.693 385.181 207.834 383.606 207.691C381.889 207.548 380.887 207.262 380.171 207.262C379.455 207.262 378.883 207.262 377.881 207.262C376.879 207.262 377.022 207.262 376.593 207.262C376.163 207.262 376.02 207.262 375.591 207.262C375.448 207.405 375.161 207.405 375.161 207.405Z" fill="black"/>
<path d="M370.867 215.564C370.867 215.564 372.299 215.135 373.014 214.705C373.73 214.276 375.018 213.989 375.448 213.417C375.877 212.844 375.877 212.701 375.877 212.272C375.877 211.842 375.734 211.556 375.734 211.556C375.734 211.556 378.167 211.699 379.026 211.842C380.028 211.986 384.608 212.558 385.897 212.844C387.328 212.988 394.342 214.133 396.202 214.419C398.063 214.705 410.945 216.423 413.522 216.852C416.098 217.138 427.12 218.57 429.124 218.856C431.128 219.142 443.581 220.431 445.441 220.574C447.445 220.717 454.316 221.433 456.749 221.576C459.183 221.719 464.335 222.005 466.482 222.148C468.773 222.148 470.347 222.148 470.92 222.291C471.492 222.435 471.922 222.864 471.779 223.293C471.635 223.723 471.206 227.158 470.92 227.874C470.633 228.589 470.347 229.878 470.061 230.45C469.775 230.88 469.488 231.452 468.916 231.738C468.343 232.025 468.2 232.168 468.2 232.168C468.2 232.168 468.63 231.452 468.343 231.023C468.057 230.593 467.341 229.878 466.912 229.735C466.483 229.735 464.622 230.021 463.477 230.164C462.332 230.307 460.041 230.593 458.61 230.736C457.179 230.88 455.175 231.023 454.316 231.023C453.314 231.023 451.596 230.736 450.022 230.593C448.447 230.307 442.722 229.591 440.575 229.305C438.571 229.019 431.843 227.874 428.981 227.301C426.118 226.729 416.242 224.725 414.238 224.295C412.234 223.866 404.934 222.291 403.073 221.862C401.212 221.433 393.053 219.572 391.193 218.999C389.332 218.57 384.179 217.282 382.748 216.995C381.316 216.709 378.453 215.993 377.738 215.85C377.022 215.707 376.163 215.421 375.448 215.707C374.732 215.85 373.444 216.28 373.014 216.423C372.585 216.566 372.442 216.709 371.869 216.566C371.153 215.993 370.867 215.564 370.867 215.564Z" fill="black"/>
<path d="M364.569 222.578C364.569 222.578 365.857 222.434 366.573 222.291C367.146 222.148 368.72 221.862 369.436 221.576C370.151 221.289 370.438 221.289 370.438 220.86C370.438 220.431 370.295 219.572 370.438 219.142C370.581 218.713 370.724 218.283 370.724 218.283C370.724 218.283 372.155 218.57 372.871 218.713C373.444 218.713 375.591 219.142 376.449 219.429C377.308 219.715 387.328 222.148 388.902 222.578C390.477 223.007 401.928 225.727 403.932 226.156C405.936 226.585 415.24 228.589 417.243 229.019C419.39 229.448 433.132 232.025 435.422 232.311C437.712 232.74 445.584 233.885 447.445 234.172C449.306 234.315 452.026 234.601 452.598 234.744C453.171 234.887 453.6 235.174 453.6 235.746C453.457 236.605 452.741 238.466 452.312 239.325C451.882 240.183 451.167 241.758 450.451 242.617C449.735 243.476 449.163 244.191 448.59 244.477C448.018 244.764 447.875 244.907 447.875 244.907C447.875 244.907 448.304 244.191 448.161 243.762C448.018 243.332 447.445 242.76 446.73 242.617C446.014 242.474 444.583 242.617 443.294 242.617C441.863 242.617 437.712 242.474 433.99 241.901C430.412 241.328 424.687 240.47 420.965 239.611C417.243 238.752 411.804 237.464 407.94 236.319C404.075 235.174 397.777 233.456 393.769 232.025C389.761 230.736 384.751 229.019 382.461 228.16C380.171 227.301 373.73 225.011 372.728 224.725C371.726 224.295 371.01 224.152 370.295 224.152C369.579 224.152 368.577 224.295 367.718 224.152C366.859 224.009 366 223.723 365.571 223.58C365.142 223.436 364.855 223.293 364.569 223.007C364.426 222.864 364.569 222.578 364.569 222.578Z" fill="black"/>
<path d="M356.983 229.019C356.983 229.019 359.416 228.446 360.704 228.017C361.706 227.587 363.138 227.015 364.283 227.158C365.428 227.301 368.004 228.16 369.436 228.589C370.867 229.162 375.877 230.879 377.308 231.452C378.597 232.025 390.334 235.889 392.195 236.462C394.055 237.034 404.075 240.04 406.222 240.613C408.369 241.185 418.102 243.619 420.392 244.191C422.683 244.621 426.547 245.336 427.692 245.623C428.838 245.766 429.983 246.195 429.983 246.625C430.126 247.197 429.983 248.056 429.839 248.485C429.696 248.915 429.267 250.346 428.981 251.205C428.694 252.064 428.265 253.209 427.692 253.781C427.263 254.354 426.118 254.497 426.118 254.497C426.118 254.497 426.69 254.068 426.547 253.638C426.404 253.066 426.261 252.779 425.832 252.493C425.402 252.207 425.116 251.921 424.543 251.921C423.971 251.921 422.253 252.064 421.108 252.064C419.82 252.207 415.526 252.207 413.951 252.207C412.234 252.207 410.659 252.35 409.371 252.207C408.083 252.064 406.651 251.777 404.647 251.205C402.644 250.632 397.92 248.915 395.773 248.056C393.626 247.197 387.328 244.477 385.61 243.619C383.893 242.903 377.595 239.754 375.591 238.752C373.587 237.75 370.581 236.176 369.006 235.317C367.432 234.458 363.997 232.597 362.995 232.168C362.136 231.738 361.134 231.452 360.275 231.309C359.559 231.166 358.414 230.736 358.128 230.593C357.842 230.45 356.983 230.164 356.983 230.164V229.019Z" fill="black"/>
<path d="M348.967 234.601C348.967 234.601 351.544 234.029 352.259 233.742C352.975 233.456 354.406 233.17 354.836 233.313C355.408 233.456 357.269 234.315 358.414 234.887C359.559 235.46 364.569 238.18 366.144 239.038C367.718 239.897 374.302 243.333 375.877 244.048C377.308 244.764 382.175 247.197 384.036 247.913C385.753 248.629 391.908 251.348 393.626 252.064C395.2 252.78 397.777 253.638 399.208 254.211C400.64 254.783 402.5 255.213 403.359 255.499C404.218 255.785 405.792 256.215 405.936 256.501C406.079 256.931 406.079 257.503 405.792 258.076C405.506 258.648 404.791 260.652 404.504 261.225C404.218 261.797 403.645 263.085 403.216 263.515C402.787 263.944 402.5 264.231 402.214 264.231C401.928 264.231 401.928 264.231 401.928 264.231C401.928 264.231 402.5 263.515 402.5 263.372C402.5 263.085 402.214 262.227 401.785 261.94C401.355 261.654 400.783 261.368 400.353 261.368C399.924 261.368 398.349 261.368 396.918 261.225C395.487 261.081 393.196 260.795 391.479 260.366C389.761 259.936 388.616 259.793 387.185 259.221C385.753 258.648 382.604 256.931 381.03 256.072C379.312 255.07 374.159 251.921 372.585 250.776C371.01 249.774 363.567 244.334 362.422 243.619C361.277 242.76 358.557 240.899 357.555 240.04C356.41 239.182 354.836 237.893 354.263 237.607C353.691 237.321 351.83 236.605 351.114 236.462C350.542 236.176 349.826 236.033 349.683 235.603C348.824 235.174 348.967 234.601 348.967 234.601Z" fill="black"/>
<path d="M340.952 239.325C340.952 239.325 342.383 239.468 342.956 239.325C343.528 239.182 344.816 238.752 345.246 238.752C345.675 238.752 346.391 238.609 347.106 238.895C347.822 239.181 349.683 240.327 350.685 241.042C351.687 241.758 355.552 244.907 356.84 245.766C358.128 246.625 363.997 250.919 365.285 251.778C366.43 252.636 371.869 256.215 373.444 257.074C374.875 257.932 377.595 259.65 378.883 260.366C380.171 261.081 381.602 261.797 382.032 262.227C382.461 262.656 382.891 263.085 382.604 263.944C382.175 264.803 381.03 266.664 380.744 267.093C380.457 267.523 379.599 268.381 379.312 268.668C378.883 268.954 378.74 269.097 378.74 269.097C378.74 269.097 379.312 268.381 379.312 267.952C379.169 267.523 378.883 266.807 378.167 266.377C377.451 265.948 376.02 265.805 374.875 265.519C373.73 265.232 369.722 264.23 368.148 263.801C366.573 263.372 365.285 262.942 364.283 262.227C363.281 261.511 360.704 259.078 359.416 257.932C358.128 256.787 355.552 254.354 353.977 252.923C352.546 251.634 349.397 248.629 348.395 247.627C347.25 246.625 344.244 243.905 343.814 243.332C343.242 242.76 342.097 241.615 341.667 241.185C341.238 240.756 340.952 240.899 340.808 240.47C340.522 240.183 340.665 239.611 340.808 239.468C340.808 239.611 340.952 239.325 340.952 239.325Z" fill="black"/>
<path d="M331.791 245.479L332.077 244.334C332.22 243.905 332.22 243.762 332.22 243.762C332.22 243.762 333.509 243.762 334.51 243.762C335.512 243.619 336.085 243.332 336.944 243.476C337.803 243.619 338.232 243.762 338.661 244.621C339.091 245.479 340.379 246.911 341.381 247.77C342.24 248.628 346.677 252.779 348.108 254.068C349.397 255.356 353.691 259.364 355.265 260.795C356.697 262.083 358.844 263.944 359.416 264.517C359.989 265.089 361.277 266.377 361.563 266.664C361.85 267.093 361.706 267.809 361.42 268.238C361.134 268.811 360.418 269.956 359.846 270.385C359.273 270.815 358.271 271.673 358.271 271.673C358.271 271.673 358.701 270.815 358.557 270.528C358.414 270.099 357.699 269.383 357.126 269.24C356.554 269.097 353.977 268.381 352.975 268.095C351.83 267.809 349.54 266.807 348.824 266.234C348.108 265.662 345.246 262.226 344.673 261.511C343.958 260.652 341.524 257.36 340.665 256.358C339.807 255.213 337.803 252.493 336.801 251.205C335.799 249.917 334.081 247.626 333.652 247.197C333.222 246.768 333.079 246.481 332.793 246.195C331.934 245.623 331.791 245.479 331.791 245.479Z" fill="black"/>
<path d="M322.916 246.625C322.916 246.625 324.491 246.911 325.493 246.911C326.352 246.911 327.21 246.768 327.64 246.911C328.069 247.054 328.499 246.911 328.928 247.483C329.358 247.913 329.501 248.772 329.787 249.344C329.93 249.774 332.936 253.924 333.365 254.64C333.795 255.356 335.942 258.075 336.801 259.221C337.659 260.366 340.236 263.658 340.952 264.517C341.667 265.519 343.099 266.95 343.528 267.522C343.957 268.095 344.816 269.383 344.959 269.67C345.103 269.956 344.816 270.385 344.53 270.671C344.244 270.958 343.814 271.53 343.385 271.96C342.956 272.389 342.24 272.819 342.097 272.962C341.954 272.962 342.24 272.389 342.24 272.103C342.24 271.817 342.097 271.387 341.524 270.958C340.808 270.385 339.663 269.956 338.805 269.67C337.946 269.383 336.228 268.811 335.083 268.381C333.938 267.952 333.365 267.522 332.936 267.093C332.363 266.377 331.075 264.23 330.503 262.942C329.787 261.654 327.783 257.932 327.21 256.787C326.638 255.785 326.495 255.07 326.352 254.497C326.209 253.924 326.209 251.634 326.065 251.062C325.779 250.489 325.207 249.487 324.777 249.058C324.348 248.772 324.205 248.628 324.061 248.628C323.918 248.485 323.203 248.342 323.203 248.342C323.203 248.342 323.203 247.483 323.203 247.34C322.916 246.911 322.916 246.625 322.916 246.625Z" fill="black"/>
<path d="M322.344 258.648C322.344 258.648 323.346 260.366 323.775 260.938C324.205 261.511 325.063 262.799 325.636 263.658C326.065 264.66 327.64 266.95 327.926 267.809C328.356 268.668 328.785 269.383 328.785 270.242C328.642 271.101 328.069 272.103 327.783 272.532C327.497 272.962 327.497 273.391 327.067 273.821C326.495 274.25 325.779 274.393 325.779 274.393C325.779 274.393 326.352 273.821 326.352 273.391C326.352 272.962 325.922 272.246 325.779 271.96C325.493 271.674 324.92 271.101 324.348 270.672C323.632 270.385 322.344 269.67 322.201 269.24C322.058 268.811 322.058 268.381 322.344 267.666C322.773 266.664 322.773 265.519 322.487 264.66C322.344 263.801 322.201 263.515 322.058 263.229C321.914 262.942 321.628 262.799 321.628 262.799C321.628 262.799 322.201 260.938 322.201 260.509L322.344 258.648Z" fill="black"/>
<path d="M283.411 297.438C283.411 297.438 285.844 296.579 286.989 296.007C288.134 295.434 290.281 294.575 291.713 293.86C293.144 293.144 297.152 290.997 298.726 289.995C300.444 288.993 302.591 287.418 304.309 285.987C306.026 284.556 308.889 281.979 310.034 280.834C311.179 279.689 313.899 276.54 314.614 275.395C315.473 274.25 316.762 272.103 316.762 272.103L319.767 273.677C321.056 274.393 322.487 274.966 323.489 275.109C324.491 275.252 325.063 275.395 326.065 275.252C327.067 275.109 327.354 274.966 327.926 274.393C328.499 273.82 329.071 272.819 329.214 272.246C329.501 271.673 329.787 270.958 329.787 270.958C329.787 270.958 330.932 271.53 331.648 271.817L335.226 273.105C336.228 273.391 337.516 273.677 338.089 274.107C338.661 274.536 338.805 274.822 338.805 275.252C338.805 275.681 338.375 276.683 337.946 277.399C337.516 278.115 336.228 281.12 335.656 281.979C335.083 282.981 332.936 286.56 331.791 288.134C330.646 289.709 327.067 294.289 325.636 295.577C324.348 296.866 322.63 298.583 321.628 299.013C320.626 299.585 319.052 299.871 318.05 300.444L312.467 303.879C311.036 304.738 308.889 306.026 307.458 306.742C306.026 307.458 302.305 309.318 301.16 309.891C300.014 310.463 298.44 311.036 297.724 311.465C297.009 311.752 296.436 312.038 295.864 312.038C295.291 312.038 294.862 311.609 294.575 311.179C294.289 310.75 292.571 307.601 291.856 306.456C291.14 305.311 288.707 301.016 288.277 300.158C287.705 299.299 287.562 299.013 286.417 298.583C285.701 298.297 285.415 298.154 285.128 298.154C284.699 298.154 284.556 298.154 283.983 298.011C283.697 297.867 283.411 297.438 283.411 297.438Z" fill="black"/>
<path d="M275.109 299.871C275.109 299.871 277.113 299.299 278.115 299.013C279.116 298.726 280.262 298.297 280.834 298.154C281.55 298.011 281.836 298.011 282.122 298.297C282.552 298.726 282.838 299.299 282.981 299.871C283.124 300.444 285.271 303.879 285.844 305.168C286.56 306.313 288.42 309.748 288.993 310.75C289.565 311.752 291.713 315.187 292.142 315.903C292.571 316.618 293.144 317.62 293.43 318.193C293.86 318.766 294.432 320.054 294.575 320.626C294.862 321.199 295.005 321.628 294.862 322.058C294.718 322.487 293.43 324.634 293.287 325.207C293.001 325.779 291.856 327.783 291.856 327.783C291.856 327.783 291.713 326.065 291.426 325.35C291.14 324.491 290.854 324.062 290.281 323.632C289.709 323.203 288.564 322.916 288.134 322.63C287.705 322.344 287.275 322.058 286.703 320.913C286.13 319.767 284.699 315.903 284.126 314.615C283.554 313.183 281.693 308.603 281.12 307.028C280.548 305.454 279.546 302.877 278.973 302.305C278.544 301.732 277.256 300.73 276.826 300.73C276.397 300.73 275.824 300.587 275.681 300.587C275.538 300.587 275.109 300.73 275.109 300.73V299.871Z" fill="black"/>
<path d="M340.522 274.823C340.522 274.823 341.381 274.966 341.81 274.679C342.24 274.393 343.242 273.677 343.957 272.962C344.673 272.246 345.389 271.387 345.675 270.958C345.961 270.528 346.105 270.385 346.105 270.385C346.105 270.385 346.534 270.528 346.534 270.815C346.534 271.101 345.818 273.534 345.532 274.107C345.246 274.679 344.53 276.826 344.101 277.828C343.528 278.973 341.954 282.122 341.381 283.124C340.808 284.126 338.089 288.42 337.087 289.852C335.942 291.283 332.65 295.434 331.648 296.579C330.646 297.724 326.638 301.589 325.636 302.591C324.634 303.593 317.477 308.316 316.046 309.032C314.614 309.891 310.034 312.467 309.032 313.183C308.03 313.756 304.738 315.33 303.736 315.903C302.591 316.475 299.728 317.764 299.156 317.907C298.44 318.05 297.724 317.907 297.009 317.907C296.436 317.764 296.15 317.764 295.864 317.764C295.577 317.764 294.862 317.907 294.862 317.907L294.575 317.334C294.575 317.334 297.295 316.332 298.583 315.616C299.871 314.901 305.74 312.181 307.314 311.322C308.889 310.32 312.324 308.46 314.185 307.315C315.903 306.169 320.197 303.02 321.628 301.732C323.203 300.444 327.497 296.15 328.356 295.148C329.071 294.146 332.65 290.997 333.365 290.138C334.224 289.279 335.656 287.991 336.657 286.56C337.659 284.985 340.093 281.264 340.522 280.119C340.952 278.973 341.524 278.115 341.381 277.685C341.238 277.256 341.238 276.826 341.095 276.683C340.952 276.683 340.093 276.397 340.093 276.397L340.379 275.395C340.379 274.966 340.522 274.823 340.522 274.823Z" fill="black"/>
<path d="M267.236 301.303C267.236 301.303 268.095 301.303 268.811 301.017C269.526 300.73 271.387 300.015 272.103 300.015C272.819 299.871 273.964 299.871 274.107 300.301C274.25 300.587 274.536 301.303 274.822 302.162C275.109 303.02 277.256 308.603 277.828 310.034C278.401 311.465 280.691 317.334 281.12 318.479C281.55 319.624 282.695 322.344 282.838 322.916C282.981 323.489 283.554 324.92 283.411 325.35C283.268 325.779 282.409 327.211 281.979 327.926C281.407 328.642 279.689 331.075 279.689 331.075C279.689 331.075 279.546 330.073 279.832 329.787C279.975 329.501 280.262 328.928 280.119 328.499C279.975 328.212 279.546 327.211 279.117 326.638C278.544 326.209 277.542 325.779 276.97 325.35C276.397 324.777 276.111 324.634 275.824 323.06C275.395 321.485 274.393 317.191 274.107 315.903C273.82 314.614 272.389 308.603 272.103 307.315C271.817 306.169 271.53 304.452 270.958 303.879C270.528 303.307 269.526 302.448 269.097 302.305C268.668 302.162 268.238 302.305 268.095 302.305C267.952 302.305 267.666 302.305 267.666 302.305L267.236 301.303Z" fill="black"/>
<path d="M259.65 302.018C259.65 302.018 261.081 301.875 261.654 301.732C262.226 301.589 263.658 301.303 264.517 301.303C265.375 301.303 266.234 301.589 266.377 302.018C266.52 302.591 266.807 304.165 266.807 304.881C266.95 305.597 268.524 312.324 268.668 313.326C268.811 314.328 270.671 321.485 270.815 322.63C270.958 323.632 271.673 326.209 271.53 326.781C271.53 327.354 271.53 327.926 271.53 328.069C271.387 328.212 270.385 329.644 269.813 330.216C269.24 330.789 267.379 333.222 267.379 333.222C267.379 333.222 267.236 332.507 267.522 332.22C267.809 331.934 268.381 331.361 268.238 330.932C268.095 330.359 267.666 329.358 267.236 328.928C266.807 328.499 265.662 327.926 265.232 327.497C264.803 326.924 264.517 326.638 264.373 325.35C264.23 324.205 263.801 317.763 263.658 315.76C263.515 313.612 263.085 307.887 262.942 307.028C262.799 306.169 262.656 305.311 262.083 304.738C261.511 304.165 260.938 303.879 260.509 303.736C260.079 303.593 259.793 303.593 259.793 303.593L259.65 302.018Z" fill="black"/>
<path d="M251.777 302.162C251.777 302.162 253.209 302.162 253.495 302.018C253.781 301.875 255.213 301.732 256.215 301.732C257.217 301.732 258.362 302.018 258.362 302.591C258.362 303.164 258.505 304.881 258.505 306.026C258.505 307.171 258.934 312.754 259.077 313.756C259.077 314.614 259.65 320.912 259.65 322.487C259.793 324.062 259.936 326.924 259.936 327.497C259.936 328.069 259.936 328.785 259.936 328.785C259.936 328.785 258.219 330.503 257.646 331.075C257.074 331.505 255.07 333.222 255.07 333.222C255.07 333.222 255.356 332.363 255.642 332.077C255.928 331.648 256.215 331.075 255.928 330.789C255.642 330.36 254.211 328.785 253.781 328.499C253.352 328.212 252.636 327.354 252.636 326.638C252.493 325.922 252.923 320.769 253.209 318.622C253.352 316.475 253.781 311.752 253.925 310.034C254.068 308.316 254.211 306.456 253.925 305.74C253.638 305.024 253.066 304.165 252.636 304.022C252.207 303.879 251.491 303.736 251.491 303.736L251.777 302.162Z" fill="black"/>
<path d="M243.905 301.589C243.905 301.589 244.907 301.589 245.479 301.589C246.052 301.589 246.481 301.446 247.34 301.446C248.199 301.446 248.772 301.446 249.487 301.589C250.06 301.875 250.632 302.162 250.489 303.164C250.346 304.166 250.203 307.744 250.06 308.889C249.917 309.891 249.344 317.334 249.344 317.907C249.344 318.479 249.058 321.771 249.058 322.917C249.058 323.775 248.628 325.779 248.628 326.495C248.485 327.211 248.199 328.499 248.199 328.642C248.199 328.785 248.056 329.071 248.056 329.071C248.056 329.071 246.768 330.217 246.195 330.36C245.766 330.646 245.766 330.073 245.479 329.787C245.193 329.501 244.764 329.501 244.048 329.071C243.332 328.785 242.33 327.783 241.758 326.924C241.328 326.209 241.185 325.493 241.472 324.205C241.758 323.06 242.76 318.766 243.189 317.334C243.475 315.903 244.477 311.752 244.764 310.177C245.05 308.746 245.623 306.456 245.623 305.597C245.623 304.738 245.336 304.023 244.907 303.593C244.477 303.164 244.334 303.164 244.048 303.021C243.762 302.877 243.475 302.877 243.475 302.877L243.905 301.589Z" fill="black"/>
<path d="M236.032 300.301C236.032 300.301 237.034 300.444 237.607 300.444C238.179 300.444 239.038 300.301 240.04 300.587C241.042 300.873 242.187 301.016 242.33 301.446C242.474 301.875 242.76 302.305 242.474 303.307C242.187 304.309 240.47 311.322 240.183 312.611C239.897 313.756 238.609 319.481 238.323 320.483C238.036 321.485 237.321 324.634 237.178 325.35C236.891 326.065 236.462 327.497 236.462 327.64C236.462 327.783 235.317 328.356 235.03 328.499C234.744 328.642 234.458 328.785 234.458 328.785C234.458 328.785 234.887 328.212 234.744 327.783C234.601 327.354 234.172 327.067 233.599 327.067C233.027 327.067 232.454 327.497 232.025 327.354C231.595 327.21 230.88 326.924 230.45 325.779C229.878 324.634 229.878 324.348 230.021 323.489C230.164 322.63 232.454 317.191 232.883 315.903C233.313 314.614 235.46 309.318 235.889 308.03C236.462 306.742 237.034 305.024 237.034 304.595C237.034 304.022 236.605 303.307 236.319 303.02C236.032 302.734 235.746 302.591 235.603 302.591C235.46 302.591 235.317 302.448 235.317 302.448L236.032 300.301Z" fill="black"/>
<path d="M228.16 298.154C228.16 298.154 228.876 298.44 229.734 298.44C230.45 298.44 231.309 298.44 232.168 298.726C233.027 299.013 234.172 299.728 234.458 300.158C234.601 300.587 234.172 301.589 233.742 302.734C233.17 303.879 230.879 310.177 230.307 311.466C229.734 312.754 227.301 318.909 227.015 319.767C226.729 320.626 225.583 323.203 225.297 323.775C225.011 324.491 224.725 325.064 224.725 325.064L223.436 325.493C223.436 325.493 223.866 324.92 223.579 324.634C223.436 324.348 222.721 323.632 222.291 323.632C221.862 323.632 221.289 323.775 220.86 323.918C220.287 324.205 219.572 324.205 219.285 323.632C218.999 323.203 218.283 321.771 218.283 321.485C218.14 321.199 217.997 320.626 218.283 320.054C218.57 319.338 221.003 315.044 221.576 314.185C222.148 313.326 224.868 308.746 225.44 307.601C226.013 306.456 227.587 303.879 227.874 303.307C228.16 302.734 228.303 302.305 228.16 301.875C227.874 301.446 227.874 301.16 227.73 301.16C227.444 301.017 227.015 301.017 227.015 301.017L228.16 298.154Z" fill="black"/>
<path d="M254.783 200.391C216.709 200.391 187.938 223.866 187.938 250.489C187.938 277.113 216.709 300.587 254.783 300.587C292.858 300.587 321.771 277.113 321.771 250.489C321.628 223.866 292.858 200.391 254.783 200.391ZM254.783 298.583C216.28 298.583 190.086 274.536 190.086 250.632C190.086 226.729 216.28 202.682 254.783 202.682C293.287 202.682 319.481 226.729 319.481 250.632C319.481 274.536 293.287 298.583 254.783 298.583Z" fill="black"/>
<path d="M254.64 218.284C263.801 218.427 270.099 222.148 270.099 232.311C270.099 242.903 263.658 246.338 254.64 246.481C246.052 246.481 239.181 243.332 239.181 232.311C239.181 222.578 246.195 218.427 254.64 218.284ZM280.691 247.913C289.852 242.76 291.713 237.464 290.997 231.309C289.709 220.144 274.393 212.129 254.211 212.415C229.877 212.701 215.134 224.868 215.134 228.16C215.134 231.452 220.001 232.168 220.001 233.885V267.379C220.001 269.526 215.421 271.817 215.421 274.107C215.421 276.54 231.166 288.134 257.073 287.991C279.832 287.848 293.001 278.258 293.144 266.807C293.287 260.509 289.709 252.207 280.691 247.913ZM256.358 282.266H255.785C247.77 282.266 238.752 279.975 238.752 267.236C238.752 254.354 247.626 251.778 256.071 251.634C264.087 251.778 272.675 254.64 272.675 267.236C272.675 278.401 264.803 282.266 256.358 282.266Z" fill="black"/>
</svg>
