<svg width="512" height="512" viewBox="0 0 512 512" fill="none" xmlns="http://www.w3.org/2000/svg">
<g clip-path="url(#clip0_3_6892)">
<path d="M255.999 512C324.379 512 388.665 485.37 437.018 437.018C485.37 388.666 512 324.379 512 255.999C512 187.621 485.37 123.334 437.018 74.9816C388.666 26.629 324.379 0 255.999 0C114.84 0 0 114.84 0 255.999C0 324.379 26.629 388.666 74.9816 437.018C123.334 485.37 187.621 512 255.999 512Z" fill="black"/>
<path d="M8.85748 256C8.85748 189.987 34.5652 127.924 81.2447 81.2448C127.924 34.5642 189.986 8.85754 255.999 8.85754C322.013 8.85754 384.076 34.5642 430.754 81.2448C477.434 127.924 503.141 189.986 503.141 256C503.141 392.275 392.274 503.143 255.999 503.143C189.986 503.143 127.924 477.435 81.2447 430.755C34.5652 384.075 8.85748 322.013 8.85748 256Z" fill="white"/>
<path d="M255.999 19.043C125.134 19.043 19.043 125.134 19.043 255.999C19.043 386.865 125.134 492.957 255.999 492.957C386.865 492.957 492.956 386.865 492.956 255.999C492.956 125.134 386.865 19.043 255.999 19.043Z" fill="black"/>
<path d="M255.999 407.359C172.407 407.359 104.639 339.593 104.639 255.999C104.639 172.407 172.407 104.639 255.999 104.639C339.592 104.639 407.359 172.407 407.359 255.999C407.359 339.593 339.593 407.359 255.999 407.359Z" fill="white"/>
<path d="M114.377 256H255.999V114.377C177.785 114.377 114.377 177.786 114.377 256ZM255.999 256V397.623C334.214 397.623 397.622 334.215 397.622 256H255.999Z" fill="black"/>
<path d="M144.768 111.584C139.751 106.708 131.996 105.238 124.715 109.752C126.105 106.148 125.537 102.47 124.799 100.441C121.662 94.7209 120.567 94.005 117.982 91.8359C109.614 84.8137 100.806 90.8088 94.5073 98.3157L64.0731 134.585L111.915 174.73L144.01 136.482C151.344 127.742 152.478 119.078 144.768 111.584ZM263.927 94.3501L280.358 50.8011V94.3501H292.845V31.98H274.083L257.018 76.6362H257.195L240.13 31.98H221.37V94.3501H233.856V50.8011L250.287 94.3501H263.927ZM431.813 120.298L408.303 153.583L444.75 136.279L454.401 148.197L397.034 176.005L385.709 161.906L408.273 128.913L408.139 128.748L371.176 143.959L359.739 129.95L398.868 79.6188L408.518 91.536L384.015 123.589L421.46 107.513L431.813 120.298Z" fill="white"/>
<path d="M101.158 107.292C103.276 104.768 108.062 104.872 111.14 107.454C114.524 110.294 114.532 114.32 112.259 117.027L94.1859 138.566L82.8778 129.077L101.158 107.292ZM133.314 132.701L114.259 155.41L102.31 145.384L121.519 122.49C123.689 119.905 128.525 119.152 131.787 121.89C135.479 124.987 135.845 129.686 133.314 132.701Z" fill="black"/>
</g>
<defs>
<clipPath id="clip0_3_6892">
<rect width="512" height="512" fill="white"/>
</clipPath>
</defs>
</svg>
