<svg width="512" height="512" viewBox="0 0 512 512" fill="none" xmlns="http://www.w3.org/2000/svg">
<path d="M393.605 384.02C424.387 384.02 442.798 362.004 442.798 334.827C442.798 307.65 424.387 285.634 393.605 285.634H293.806V384.02H393.605ZM393.605 212.541C420.7 212.541 437.187 193.044 437.187 168.98C437.187 144.916 420.7 125.399 393.605 125.399H293.806V212.541H393.605ZM153.252 285.614V309.985H91.4227V188.17H153.252V212.541H212.296V125.378H63.5699V156.303H1.74078V125.378V63.5288H393.605C454.922 63.5288 504.648 113.234 504.648 174.571C504.689 201.503 494.899 227.512 477.123 247.746C497.623 268.759 510.259 297.513 510.259 329.195C510.259 393.625 458.035 445.849 393.605 445.849H1.74078V384V353.075H63.5904V384H212.316V285.614H153.252Z" fill="black"/>
</svg>
