<svg width="512" height="512" viewBox="0 0 512 512" fill="none" xmlns="http://www.w3.org/2000/svg">
<path d="M289.391 450.591C284.018 452.894 284.018 449.056 287.088 447.52C303.976 439.844 317.793 426.027 326.237 409.907C312.42 418.351 302.441 416.816 291.694 423.724C280.947 430.633 276.342 444.45 264.06 452.894C277.877 466.711 288.624 470.549 296.3 470.549C302.441 471.317 308.582 470.549 314.723 469.014C330.075 465.943 343.124 458.267 355.406 455.964C328.54 446.753 303.976 445.218 289.391 450.591Z" fill="black"/>
<path d="M230.285 473.619C213.397 478.225 189.601 487.436 165.805 487.436C167.34 489.739 169.643 492.042 171.946 494.345C173.481 495.112 174.249 495.112 175.784 495.112C201.883 489.739 221.841 478.992 244.102 472.852C239.496 472.852 234.123 472.852 230.285 473.619Z" fill="black"/>
<path d="M366.153 433.703C352.336 434.471 339.286 438.309 327.005 442.915C342.357 441.379 362.315 459.035 385.343 443.682C388.414 441.379 399.16 436.774 404.534 433.703C395.322 433.703 382.273 431.4 366.153 433.703Z" fill="black"/>
<path d="M315.49 439.077C340.054 432.936 360.78 415.28 370.759 391.484C358.477 399.928 351.568 397.625 336.984 411.442C331.61 416.816 325.469 432.168 315.49 439.077Z" fill="black"/>
<path d="M208.024 16.1198C180.39 13.0494 166.573 23.0284 155.826 35.3102C161.967 35.3102 168.108 35.3102 173.481 34.5426C186.531 31.4722 198.813 24.5636 208.024 16.1198Z" fill="black"/>
<path d="M146.615 56.036C157.361 54.5008 167.34 49.8951 175.784 42.9865C159.664 39.1485 143.544 44.5218 132.03 56.036C136.636 56.8036 141.241 56.8036 146.615 56.036Z" fill="black"/>
<path d="M89.8111 76.7614C100.558 67.55 108.234 56.0358 112.84 42.9863C93.6492 50.6625 80.5997 67.55 77.5292 88.2757C78.2969 86.7405 85.2054 80.5995 89.8111 76.7614Z" fill="black"/>
<path d="M97.4872 77.5293C102.093 77.5293 106.699 77.5293 112.072 76.7617C122.051 74.4588 131.262 69.8532 138.939 62.177C123.586 59.1065 107.466 65.2475 97.4872 77.5293Z" fill="black"/>
<path d="M113.607 84.438C89.8111 85.2056 80.5997 92.8818 70.6207 109.002C75.2264 107.466 79.8321 105.931 84.4378 104.396C95.1844 100.558 105.163 93.6494 113.607 84.438Z" fill="black"/>
<path d="M155.058 20.7256C131.262 28.4017 122.819 36.8455 116.678 55.2683C138.171 48.3598 146.615 37.6131 155.058 20.7256Z" fill="black"/>
<path d="M64.4798 152.756C45.2894 162.735 33.7751 183.461 36.8456 204.954C39.1485 201.883 40.6837 198.045 42.9865 194.975C52.9655 182.693 59.8741 168.108 64.4798 152.756Z" fill="black"/>
<path d="M6.90857 269.433C8.4438 274.806 9.21142 279.412 9.97903 284.785C13.0495 307.046 36.078 316.258 45.2894 323.934C37.6132 302.441 24.5637 283.25 6.90857 269.433Z" fill="black"/>
<path d="M104.396 387.646C101.325 381.505 99.0225 369.223 93.6492 358.477C88.2759 350.033 82.9026 341.589 76.7616 333.913C72.1559 360.78 91.3464 376.9 104.396 387.646Z" fill="black"/>
<path d="M147.382 416.816C140.474 409.907 135.1 393.02 128.96 386.879C117.445 374.597 114.375 375.364 104.396 363.85C107.466 387.646 124.354 408.372 147.382 416.816Z" fill="black"/>
<path d="M21.4932 319.328C22.2608 321.631 26.0989 328.54 29.1694 334.68C36.8455 351.568 53.7331 360.779 71.3883 366.153C61.4093 346.962 42.2189 331.61 21.4932 319.328Z" fill="black"/>
<path d="M72.9235 402.999C75.2264 404.534 80.5997 409.139 85.973 413.745C102.861 428.33 124.354 421.421 143.544 425.259C116.678 406.837 89.8111 406.069 72.9235 402.999Z" fill="black"/>
<path d="M47.5922 366.153C49.1275 367.688 53.7332 374.597 57.5712 379.202C72.9236 399.16 95.952 396.857 109.002 401.463C92.114 383.808 70.6207 371.526 47.5922 366.153Z" fill="black"/>
<path d="M68.3178 333.145C69.8531 309.349 56.8036 300.138 55.2684 287.856C49.895 307.814 52.1979 325.469 70.6207 349.265C69.0854 343.892 68.3178 338.519 68.3178 333.145Z" fill="black"/>
<path d="M44.5218 301.673C45.2894 295.532 46.057 290.159 46.8246 284.786C50.6627 267.898 48.3598 257.919 46.8246 241.799C32.2399 264.06 33.7751 280.948 44.5218 301.673Z" fill="black"/>
<path d="M16.8876 267.898C20.7257 270.969 24.5637 277.11 27.6342 280.948C28.4018 257.152 20.7257 233.355 6.90857 214.165C9.97903 231.053 1.53526 252.546 16.8876 267.898Z" fill="black"/>
<path d="M33.0075 247.94C34.5427 244.87 36.8456 241.032 39.1484 237.961C52.9655 221.841 50.6627 208.024 55.2684 194.207C41.4513 208.024 30.7047 219.538 33.0075 247.94Z" fill="black"/>
<path d="M30.7046 178.855C40.6836 157.361 45.2893 139.706 40.6836 117.445C36.8456 127.424 26.0989 138.939 26.0989 154.291C26.8666 161.199 31.4723 178.087 30.7046 178.855Z" fill="black"/>
<path d="M24.5637 229.517C27.6342 204.954 32.2399 192.672 20.7256 165.038C17.6552 177.319 6.14092 197.277 16.8875 216.468C19.1904 220.306 22.2609 224.912 24.5637 229.517Z" fill="black"/>
<path d="M87.5083 111.304C67.5502 116.678 52.9655 132.797 47.5922 151.988C48.3598 151.22 56.8036 145.079 61.4093 142.776C72.1559 134.333 81.3673 123.586 87.5083 111.304Z" fill="black"/>
<path d="M49.1274 129.727C61.4093 114.375 69.0855 95.1846 70.6207 75.2266C66.7826 79.8323 62.9445 84.438 59.1065 89.0437C52.9655 96.7198 49.1274 105.931 48.3598 115.91C47.5922 120.516 49.1274 124.354 49.1274 129.727Z" fill="black"/>
<path d="M356.174 35.3102C345.427 23.0284 330.843 13.0494 303.976 16.1198C313.955 25.3312 325.469 31.4722 337.751 34.5426C343.892 35.3102 350.033 35.3102 356.174 35.3102Z" fill="black"/>
<path d="M336.984 42.219C344.66 49.8951 354.639 54.5008 365.385 56.0361C369.991 56.8037 375.364 56.8037 379.97 56.0361C369.223 44.5218 353.103 39.1485 336.984 42.219Z" fill="black"/>
<path d="M422.189 76.7615C426.027 80.5996 433.703 86.7405 434.471 87.5081C431.4 67.5501 418.351 49.8949 399.16 42.2188C404.534 56.0358 412.21 67.5501 422.189 76.7615Z" fill="black"/>
<path d="M414.513 77.5293C404.534 65.2475 389.181 59.8742 373.829 62.177C380.738 69.8532 390.717 74.4589 400.696 76.7617C405.301 77.5293 409.907 77.5293 414.513 77.5293Z" fill="black"/>
<path d="M398.393 84.438C406.837 93.6494 416.816 100.558 427.562 105.164C432.168 106.699 436.774 108.234 441.379 109.769C432.168 92.8818 422.189 85.2056 398.393 84.438Z" fill="black"/>
<path d="M396.09 55.2683C389.181 36.8455 380.738 28.4017 357.709 20.7256C366.153 37.6131 374.597 48.3598 396.09 55.2683Z" fill="black"/>
<path d="M469.781 195.742C472.084 198.813 474.387 201.883 475.922 205.721C478.225 184.228 467.478 162.735 448.288 153.523C452.126 168.108 459.802 182.693 469.781 195.742Z" fill="black"/>
<path d="M466.711 323.166C475.922 315.49 498.951 306.279 502.021 284.018C502.789 278.645 503.556 274.039 505.092 268.666C487.436 283.25 474.387 302.441 466.711 323.166Z" fill="black"/>
<path d="M435.238 333.913C429.098 341.589 423.724 350.033 418.351 358.477C412.978 368.456 410.675 380.738 407.604 387.646C420.654 376.9 439.844 360.78 435.238 333.913Z" fill="black"/>
<path d="M407.604 363.85C397.625 375.364 395.322 373.829 383.04 386.879C376.9 393.787 370.759 410.675 364.618 416.816C388.414 409.139 404.534 388.414 407.604 363.85Z" fill="black"/>
<path d="M441.379 365.385C458.267 359.244 475.922 350.033 483.598 333.913C486.669 327.772 489.739 320.863 491.274 318.561C470.549 331.61 451.358 346.962 441.379 365.385Z" fill="black"/>
<path d="M426.795 413.745C432.168 409.139 437.541 404.534 439.844 402.999C422.957 406.837 396.09 406.837 369.223 426.027C388.414 421.421 409.907 428.33 426.795 413.745Z" fill="black"/>
<path d="M402.999 401.463C416.048 396.09 439.844 398.393 454.429 379.202C458.267 373.829 462.873 367.688 464.408 366.153C449.056 370.759 422.957 378.435 402.999 401.463Z" fill="black"/>
<path d="M457.499 287.856C455.964 300.138 442.915 309.349 444.45 333.145C444.45 338.519 443.682 343.892 442.915 349.265C459.802 325.469 462.873 307.814 457.499 287.856Z" fill="black"/>
<path d="M465.175 284.786C466.711 290.159 467.478 296.3 467.478 302.441C478.225 281.715 479.76 264.828 464.408 242.567C463.64 257.919 461.337 267.131 465.175 284.786Z" fill="black"/>
<path d="M484.366 280.948C487.436 277.11 492.042 271.736 495.112 267.898C510.465 252.546 502.021 231.053 505.091 214.165C491.274 233.355 483.598 257.152 484.366 280.948Z" fill="black"/>
<path d="M456.732 194.207C461.337 208.024 459.035 221.841 472.852 237.961C475.154 241.032 477.457 244.87 478.993 247.94C481.295 219.538 471.316 208.024 456.732 194.207Z" fill="black"/>
<path d="M485.133 154.291C485.133 138.939 475.154 128.192 470.549 117.445C465.943 139.706 470.549 157.361 480.528 178.855C480.528 178.087 485.133 161.199 485.133 154.291Z" fill="black"/>
<path d="M487.436 229.517C489.739 224.912 492.042 220.306 495.112 216.468C505.091 197.277 493.577 177.319 491.274 165.038C480.528 192.672 484.366 204.954 487.436 229.517Z" fill="black"/>
<path d="M450.591 142.776C455.196 145.847 462.873 151.22 463.64 151.988C459.034 132.03 443.682 116.678 424.492 111.304C430.633 123.586 439.844 134.333 450.591 142.776Z" fill="black"/>
<path d="M464.408 115.91C464.408 105.931 460.57 96.7198 454.429 89.0437C450.591 84.438 445.217 79.8323 442.147 75.2266C442.915 95.1846 450.591 114.375 463.64 129.727C462.873 124.354 464.408 120.516 464.408 115.91Z" fill="black"/>
<path d="M221.073 426.027C207.256 416.816 191.904 416.816 184.995 412.21C194.207 427.562 207.256 440.612 223.376 449.056C226.447 450.591 227.982 455.196 222.609 452.894C207.256 446.753 175.784 449.056 156.594 459.035C169.643 462.105 185.763 471.316 203.418 472.852C218.771 474.387 231.052 467.478 249.475 468.246C273.271 469.781 277.109 482.831 333.145 496.648C335.448 497.415 337.751 496.648 339.286 495.113C340.822 493.577 343.124 491.274 344.66 488.972C297.067 485.901 271.736 470.549 251.778 453.661C241.031 443.682 228.75 431.4 221.073 426.027Z" fill="black"/>
<path d="M184.228 442.915C171.946 437.541 158.129 434.471 145.079 433.703C128.959 432.168 116.678 434.471 107.466 433.703C112.84 436.774 123.586 442.147 126.657 443.682C148.918 459.034 168.876 440.612 184.228 442.915Z" fill="black"/>
<path d="M195.742 439.077C186.531 431.4 179.622 416.816 174.249 411.442C158.897 397.625 152.756 399.928 140.474 391.484C150.453 415.28 171.178 432.936 195.742 439.077Z" fill="black"/>
<path d="M177.319 193.439L175.784 194.207C175.016 194.207 174.249 194.207 172.714 194.207C170.411 193.439 168.108 193.439 166.573 194.207L163.502 194.975C161.967 195.742 161.967 194.975 161.967 194.207C161.967 193.439 161.967 193.439 162.735 192.672C163.502 191.136 163.502 189.601 161.967 188.066C160.432 187.298 158.897 188.066 158.129 188.834L155.058 191.136C154.291 191.904 154.291 192.672 155.826 192.672C157.361 192.672 157.361 194.207 157.361 195.742C157.361 197.277 157.361 198.045 156.594 199.58C155.826 201.115 156.594 203.418 158.897 204.186H159.664C162.735 204.186 165.805 204.186 168.108 204.186C171.946 204.186 175.016 201.883 176.552 198.045C176.552 197.277 178.087 195.742 178.087 194.975C178.087 194.207 178.087 192.672 177.319 193.439Z" fill="black"/>
<path d="M235.658 193.439L234.123 194.207C233.355 194.207 232.588 194.207 231.82 194.207C229.517 193.439 227.214 193.439 224.912 194.207L221.841 194.975C220.306 195.742 220.306 194.975 220.306 194.207L221.073 192.672C221.841 191.136 221.841 189.601 221.073 188.066C219.538 187.298 218.003 188.066 217.235 188.834L214.165 191.136C213.397 191.904 213.397 192.672 214.933 192.672C216.468 192.672 216.468 194.207 216.468 195.742C216.468 197.277 215.7 198.045 215.7 199.58C214.933 201.115 215.7 203.418 218.003 204.186C218.771 204.186 218.771 204.186 219.538 204.186C222.609 204.186 225.679 204.186 227.982 204.186C231.82 204.186 234.891 201.883 236.426 198.045C236.426 197.277 237.961 195.742 237.961 194.975C237.961 194.207 236.426 192.672 235.658 193.439Z" fill="black"/>
<path d="M256.384 114.375C260.99 114.375 265.595 110.537 265.595 105.164C265.595 99.7902 261.757 95.9521 256.384 95.9521C251.011 95.9521 247.172 99.7902 247.172 105.164C247.172 110.537 251.011 114.375 256.384 114.375Z" fill="black"/>
<path d="M218.771 117.445C223.376 116.678 227.214 112.072 226.447 107.466C225.679 102.861 221.073 99.0226 216.468 99.7902C211.862 100.558 208.024 105.164 208.792 109.769C209.559 115.143 214.165 118.213 218.771 117.445Z" fill="black"/>
<path d="M177.319 109.769C172.714 111.304 169.643 115.91 171.178 120.516C172.714 125.121 177.319 128.192 181.925 126.657H182.693C187.298 125.121 189.601 119.748 188.066 115.142C186.531 111.304 181.925 108.234 177.319 109.769Z" fill="black"/>
<path d="M140.474 125.122C135.868 127.424 134.333 132.798 136.636 136.636C138.171 141.241 142.777 143.544 147.382 142.009C151.988 140.474 154.291 135.868 152.756 131.262C152.756 130.495 151.988 128.96 151.22 128.192C149.685 125.122 144.312 122.819 140.474 125.122Z" fill="black"/>
<path d="M293.229 117.445C297.835 118.213 302.441 114.375 303.208 109.769C303.976 105.164 300.138 100.558 295.532 99.7902C290.927 99.0226 286.321 102.861 285.553 107.466C284.786 112.072 287.856 116.678 293.229 117.445Z" fill="black"/>
<path d="M329.307 126.657C333.913 128.192 339.286 125.889 340.822 121.283C342.357 116.678 340.054 111.304 335.448 109.769C330.843 108.234 325.469 110.537 323.934 115.142C321.631 119.748 324.702 125.121 329.307 126.657Z" fill="black"/>
<path d="M363.85 140.474C368.456 142.777 373.829 141.241 376.132 136.636C378.435 132.03 376.9 126.657 372.294 125.122C367.688 122.819 362.315 124.354 360.012 128.192C357.709 132.798 359.244 138.171 363.082 140.474C363.082 140.474 363.083 140.474 363.85 140.474Z" fill="black"/>
<path d="M274.807 277.877C276.342 277.877 276.342 279.412 276.342 280.947C276.342 282.483 275.574 283.25 275.574 284.785C274.807 287.088 275.574 288.623 277.877 289.391H278.645C281.715 289.391 284.786 289.391 287.088 289.391C290.927 289.391 293.997 287.088 295.532 283.25C296.3 282.483 296.3 280.947 297.067 280.18C297.835 278.644 296.3 277.877 295.532 278.644C294.765 278.644 293.997 278.644 293.997 278.644C293.229 278.644 292.462 278.644 291.694 278.644C289.391 277.877 287.088 277.877 284.786 278.644C284.018 279.412 283.25 279.412 281.715 279.412C280.18 280.18 280.18 279.412 280.18 278.644L280.948 277.109C281.715 275.574 281.715 274.039 280.948 272.504C279.412 271.736 277.877 272.503 277.109 273.271L274.039 275.574C272.504 276.342 273.271 277.877 274.807 277.877Z" fill="black"/>
<path d="M329.307 277.877C330.843 277.877 330.843 279.412 330.843 280.948C330.843 282.483 330.843 283.251 330.075 284.786C329.307 287.089 330.075 288.624 332.378 289.392H333.145C336.216 289.392 339.286 289.392 341.589 289.392C345.427 289.392 348.498 287.089 350.033 283.251C350.801 282.483 350.801 280.948 351.568 280.18C352.336 278.645 350.801 277.877 350.033 278.645C349.265 278.645 349.265 279.413 348.498 279.413C347.73 279.413 346.962 279.413 345.427 279.413C343.124 278.645 340.822 278.645 339.286 279.413C338.519 280.18 337.751 280.18 336.216 280.18C334.681 280.948 334.681 280.18 334.681 279.413C334.681 278.645 334.681 278.645 335.448 277.877C336.216 276.342 336.216 274.807 334.681 273.272C333.145 272.504 331.61 273.272 330.843 274.039L327.772 276.342C327.772 276.342 328.54 277.877 329.307 277.877Z" fill="black"/>
<path d="M187.298 246.405C188.834 246.405 188.834 247.94 188.834 249.475C188.834 251.01 188.066 251.778 188.066 253.313C187.298 255.616 188.066 257.151 190.369 257.919H191.136C194.207 257.919 197.277 257.919 199.58 257.919C203.418 257.919 206.489 255.616 208.024 251.778C208.024 251.01 209.559 249.475 209.559 248.707C210.327 247.172 208.792 246.405 208.024 247.172C207.256 247.172 207.256 247.94 206.489 247.94C205.721 247.94 204.954 247.94 203.418 247.94C201.115 247.172 198.813 247.172 197.277 247.94L194.207 248.707C192.672 248.707 192.672 248.707 192.672 247.94C192.672 247.172 192.672 247.172 193.439 246.405C194.207 244.869 194.207 243.334 192.672 241.799C191.136 241.031 189.601 241.799 188.834 242.567C188.066 243.334 186.531 244.102 185.763 244.869C185.763 244.869 186.531 246.405 187.298 246.405Z" fill="black"/>
<path d="M299.37 330.843C300.906 330.843 300.906 332.378 300.906 333.913C300.906 335.448 300.138 336.216 300.138 337.751C299.37 340.054 300.138 341.589 302.441 342.357H303.208C306.279 342.357 309.349 342.357 311.652 342.357C315.49 342.357 318.561 340.054 320.096 336.216C320.096 335.448 321.631 333.913 321.631 333.145C321.631 332.378 320.864 330.843 320.096 331.61C319.328 331.61 319.328 332.378 318.561 332.378C317.793 332.378 317.026 332.378 316.258 332.378C313.955 331.61 311.652 331.61 309.349 332.378C308.582 333.145 307.814 333.145 306.279 333.145C304.744 333.913 304.744 333.145 304.744 332.378L305.511 330.843C306.279 329.307 306.279 327.772 305.511 326.237C303.976 325.469 302.441 326.237 301.673 327.005L298.603 329.307C297.835 330.075 297.835 331.61 299.37 330.843Z" fill="black"/>
<path d="M196.51 102.861C188.066 93.6494 174.249 92.8818 165.037 101.326C161.199 105.164 158.897 109.769 158.129 115.143C154.291 112.072 149.685 110.537 144.312 110.537C132.03 110.537 122.051 120.516 122.819 132.798C122.819 142.009 128.96 150.453 138.171 153.523V173.481H97.4872L137.403 215.7V320.096C137.403 337.751 144.312 350.801 166.573 353.104C188.834 355.406 213.397 358.477 224.912 360.012C240.264 361.547 247.94 363.85 257.151 376.9C265.595 364.618 274.039 361.547 289.391 360.012C300.906 358.477 326.237 356.174 347.73 353.104C369.223 350.033 376.9 337.751 376.9 320.096V216.468L416.048 174.249H375.364V154.291C386.879 151.221 393.787 138.939 390.717 126.657C387.646 115.143 375.364 108.234 363.082 111.305C360.012 112.072 357.709 113.607 355.406 115.143C353.871 102.861 343.124 94.417 330.843 95.9522C325.469 96.7198 320.864 99.0227 317.025 102.861C313.955 91.3465 301.673 84.438 289.391 87.5084C284.018 89.0437 280.18 92.1141 277.109 96.7198C271.736 85.9732 258.687 80.5999 247.94 85.9732C243.334 88.2761 239.496 92.1141 237.193 96.7198C230.285 86.7408 216.468 84.438 206.489 91.3465C201.115 93.6494 198.045 98.2551 196.51 102.861ZM143.544 209.559L118.213 182.693H254.081V209.559H143.544ZM198.045 334.681H148.918C147.382 330.843 145.847 327.005 145.847 323.167H198.045V334.681ZM198.045 305.511H145.847V267.131H198.045V305.511ZM254.081 361.547C247.172 356.174 238.729 353.104 230.285 352.336L202.651 349.266V310.117H254.849L254.081 361.547ZM254.081 292.462H202.651V281.715H254.849L254.081 292.462ZM254.081 263.293H145.847V236.426H254.081V263.293ZM254.081 231.82H145.847V214.165H254.081V231.82ZM257.919 182.693H310.117V221.074H257.919V182.693ZM310.117 238.729V250.243H257.919V239.496L310.117 238.729ZM344.66 344.66L281.715 351.568C273.271 352.336 264.828 355.406 257.919 360.78V320.864H366.153C366.153 334.681 361.547 343.125 344.66 344.66ZM366.153 317.026H257.919V298.603H366.153V317.026ZM366.153 294.765H257.919V267.131H366.153V294.765ZM366.153 264.06H314.723V225.679H366.921V264.06H366.153ZM381.505 196.51L370.759 207.257H314.723V195.742L381.505 196.51ZM214.933 92.8818C224.144 91.3465 232.588 97.4875 234.123 106.699C234.123 108.234 234.123 109.769 234.123 112.072L240.264 111.305C239.496 109.769 239.496 108.234 239.496 105.931C238.729 96.7198 245.637 89.0437 254.849 88.2761C264.06 87.5084 271.736 94.417 272.504 103.628C272.504 104.396 272.504 105.164 272.504 105.931C272.504 107.466 272.504 109.002 271.736 111.305L277.877 112.072C277.877 110.537 277.877 109.002 277.877 106.699C278.645 97.4875 287.088 91.3465 296.3 92.1141C305.511 92.8818 311.652 101.326 310.885 110.537C310.885 112.84 310.117 115.143 308.582 116.678L315.49 118.213C315.49 116.678 315.49 115.143 316.258 113.607C319.328 105.164 328.54 100.558 336.984 103.628C345.427 106.699 350.033 115.91 346.963 124.354C346.195 125.889 345.427 127.424 344.66 128.192L350.801 130.495C350.801 128.96 351.568 127.424 352.336 125.889C356.174 117.445 366.153 114.375 374.597 118.981C383.04 122.819 386.111 132.798 381.505 141.242C379.97 144.312 377.667 146.615 374.597 148.15L353.871 159.664L350.801 138.939C346.963 137.403 343.124 135.101 338.519 133.565L323.166 145.847L317.025 125.889C313.187 124.354 308.582 123.586 303.976 122.819L289.391 138.171L280.18 118.981C275.574 118.213 271.736 118.213 267.13 118.213L255.616 135.101L243.334 118.213C238.729 118.213 234.891 118.981 230.285 118.981L221.073 138.171L206.489 122.819C201.883 123.586 198.045 124.354 193.439 125.889L187.298 145.847L170.411 133.565C166.573 135.101 162.735 136.636 158.129 138.939L155.826 159.664L135.1 148.15C127.424 143.544 124.354 133.565 128.192 125.889C132.798 118.213 142.777 115.143 150.453 118.981C153.523 120.516 155.826 122.819 157.361 125.889C158.129 127.424 158.897 128.96 158.897 130.495L165.037 128.192C164.27 126.657 163.502 125.122 162.735 123.586C161.199 114.375 167.34 105.931 176.552 104.396C185.763 102.861 194.207 109.002 195.742 118.213L201.883 116.678C201.115 115.143 200.348 113.607 200.348 112.072C200.348 102.093 205.721 93.6494 214.933 92.8818Z" fill="black"/>
</svg>
