<svg width="512" height="512" viewBox="0 0 512 512" fill="none" xmlns="http://www.w3.org/2000/svg">
<path d="M498.627 202.097L354.591 202.117C350.925 202.117 348.529 201.032 348.529 195.973V174.592C348.529 168.428 345.211 165.171 339.19 165.171H174.285C168.12 165.171 164.946 168.653 164.946 174.531V195.912C164.946 200.417 162.816 202.056 158.863 202.056L64.471 202.076C57.2416 202.076 53.0227 205.517 50.8518 210.043L4.87425 299.868C4.28033 301.015 3.93217 302.346 3.93217 303.698C3.93217 307.241 6.24641 311.849 12.6976 311.849L158.843 311.829C163.348 311.829 164.925 313.877 164.925 317.973V339.333C164.925 345.785 168.653 348.693 174.285 348.693H339.169C344.781 348.693 348.529 345.969 348.529 339.395L348.508 318.034C348.508 313.672 350.351 311.89 354.57 311.89L446.239 311.87C452.547 311.87 457.093 310.211 460.268 304.333L505.713 215.552C506.716 213.627 507.372 212.542 507.372 210.268C507.372 204.206 502.17 202.097 498.627 202.097ZM462.316 237.875L440.402 280.74C439.03 283.239 436.593 283.321 434.872 283.321H326.164C321.659 283.321 320.02 285.348 320.02 289.444V314.102C320.02 318.177 318.218 320.164 313.836 320.164H199.619C195.789 320.164 193.454 318.812 193.454 314.041V289.403C193.454 284.897 191.386 283.3 187.29 283.3H53.9853C50.7085 283.3 48.4557 281.252 48.4557 278.385C48.4557 277.545 48.6605 276.787 49.0291 276.071L70.9427 233.226C71.7824 231.731 73.1546 230.646 76.4518 230.646L187.29 230.666C191.119 230.666 193.495 229.13 193.495 224.481V199.824C193.495 195.461 195.4 193.721 199.619 193.721L313.815 193.7C317.911 193.7 319.959 195.523 319.959 199.885V224.522C319.959 228.762 321.925 230.625 326.164 230.625H457.339C461.517 230.625 462.889 233.37 462.889 235.561C462.889 236.36 462.684 237.159 462.316 237.875Z" fill="black"/>
</svg>
