<svg width="512" height="512" viewBox="0 0 512 512" fill="none" xmlns="http://www.w3.org/2000/svg">
<g clip-path="url(#clip0_3_7303)">
<path d="M512 259.115V259.072C511.893 258.709 510.635 258.56 508.309 258.539L474.283 258.07C422.251 257.622 325.419 256.726 321.024 256.726H319.957C314.871 256.472 309.783 257.181 304.96 258.816L302.997 259.392C297.52 261.32 291.822 262.552 286.037 263.062C280 263.275 256.96 263.254 256 263.254C255.04 263.254 231.979 263.253 225.941 263.083C220.156 262.576 214.458 261.344 208.981 259.413L207.061 258.838C202.217 257.199 197.107 256.49 192 256.747H191.061C186.645 256.747 89.8133 257.174 37.8027 257.664L3.64801 258.091C1.30134 258.091 -0.0426553 258.261 -0.0213219 258.645L1.92001 259.136C9.08801 260.608 16.3627 261.483 23.68 261.781C37.6107 262.059 139.627 264.619 142.08 264.662C147.584 264.512 153.067 265.493 158.187 267.52H190.123C190.123 267.52 177.237 268.267 177.045 269.077H176.235C173.035 269.077 163.307 269.077 157.803 268.821C157.803 268.821 157.397 270.358 163.008 270.358C164.971 271.68 167.04 272.939 168.896 273.984H196.352C196.352 273.984 185.557 274.624 185.344 275.435C184.064 275.435 179.371 275.307 174.891 275.179L168.597 274.987C168.597 274.987 168.277 276.352 173.44 276.373L174.315 276.928C184.619 281.557 195.541 284.672 206.741 286.165C211.008 286.997 215.275 287.552 219.605 287.872C219.605 287.872 224.832 288.341 223.915 288.299C211.71 287.806 199.573 286.229 187.648 283.584C178.006 281.236 168.807 277.346 160.405 272.064C155.73 268.96 150.272 267.244 144.661 267.115C141.035 266.88 24.1707 262.272 23.9147 262.272C16.4104 262.013 8.95018 261.012 1.64268 259.286L1.13931e-05 258.667C1.13931e-05 258.987 0.810678 259.84 1.49334 260.459C5.12001 263.659 18.7733 270.293 26.752 272.256C40.6187 275.605 125.845 286.443 140.992 288.149L149.355 289.088C172.245 291.563 201.024 294.72 215.68 296.214C218.466 296.717 221.331 296.556 224.043 295.744C234.266 291.963 245.101 290.104 256 290.261C266.93 290.177 277.788 292.04 288.064 295.766C290.741 296.567 293.569 296.728 296.32 296.235C310.997 294.763 339.84 291.541 362.539 289.045L371.008 288.107C386.155 286.421 471.381 275.989 485.227 272.64C493.227 270.72 506.88 264.064 510.485 260.864C511.084 260.384 511.59 259.798 511.979 259.136L512 259.115ZM250.347 280.341C233.387 280.341 216.619 280.107 211.733 278.891C200.107 276.011 194.688 270.699 193.771 269.077C192.853 267.477 193.088 267.499 194.517 267.499H317.397C318.848 267.499 318.933 267.648 318.123 269.099C317.312 270.528 311.851 276.011 300.181 278.891C295.296 280.107 278.528 280.299 261.568 280.341H250.347ZM510.357 259.627C503.05 261.36 495.59 262.368 488.085 262.635C487.829 262.635 370.837 266.837 367.317 267.115C361.707 267.244 356.248 268.96 351.573 272.064C343.178 277.344 333.986 281.234 324.352 283.584C312.421 286.237 300.277 287.822 288.064 288.32C287.147 288.32 292.373 287.872 292.373 287.872C296.684 287.555 300.972 286.985 305.216 286.165C316.412 284.658 327.333 281.547 337.643 276.928L338.667 276.373C343.808 276.373 343.531 274.987 343.531 274.987L337.237 275.2C332.587 275.307 327.808 275.413 326.613 275.413C326.4 274.645 315.733 273.984 315.733 273.984H343.147C345.102 272.847 347.023 271.652 348.907 270.4C354.539 270.4 354.155 268.864 354.155 268.864C347.742 269.033 341.327 269.104 334.912 269.077C334.72 268.288 322.752 267.542 322.752 267.542H353.621C358.78 265.516 364.294 264.551 369.835 264.704L488.299 262.272C495.612 261.972 502.889 261.08 510.059 259.605L511.509 259.243L510.357 259.627ZM255.168 270.976H257.088L253.355 273.643V275.755H250.539V273.686L246.507 270.976H249.813L252.544 272.683L255.168 270.976ZM272.427 274.88H278.869V275.734H269.611V270.955H272.427V274.88ZM283.947 274.88H290.624V275.734H281.195V270.955H290.539V271.829H283.947V272.918H290.411V273.792H283.947V274.859V274.88ZM230.144 270.976H232.96V275.755H230.08V273.813H224.149V275.734H221.333V270.976H224.149V272.896H230.08L230.144 270.976ZM242.901 273.664L246.528 275.755H243.328C243.328 275.755 240.427 273.685 239.744 273.152C242.624 273.259 243.093 272.939 243.093 272.47C243.093 272 240.832 271.701 238.272 271.851V275.755H235.285V270.997H241.792C244.992 270.997 245.973 271.659 245.973 272.341C245.973 272.939 244.8 273.493 242.901 273.664ZM300.8 272.47C300.8 271.979 298.539 271.701 295.979 271.851V275.798H292.992V271.04H299.435C302.635 271.04 303.616 271.765 303.616 272.384C303.616 272.981 302.443 273.536 300.544 273.664L304.171 275.755H300.971C300.971 275.755 298.069 273.685 297.387 273.152C300.245 273.259 300.8 272.939 300.8 272.47ZM267.584 274.326C267.584 275.542 264.96 275.947 262.229 275.947C260.745 275.943 259.263 275.843 257.792 275.648L258.091 274.624C259.428 274.861 260.786 274.961 262.144 274.923C264.427 274.923 264.576 274.645 264.576 274.347C264.576 274.048 263.936 273.856 262.912 273.856L260.821 273.622C258.773 273.366 257.941 273.28 257.941 272.064C257.941 270.848 260.587 270.635 262.272 270.635C263.757 270.678 265.239 270.806 266.709 271.019L266.496 271.936C265.338 271.759 264.169 271.667 262.997 271.659C261.184 271.659 260.8 271.744 260.8 272.085C260.8 272.427 261.376 272.576 262.293 272.576L264.704 272.747C266.624 273.024 267.541 273.494 267.584 274.326ZM210.667 273.28C210.667 274.39 213.376 274.859 215.168 274.859C216.96 274.859 218.667 274.645 219.072 274.645L218.773 275.648C218.261 275.691 216.512 275.861 214.592 275.861C211.008 275.861 207.808 275.008 207.808 273.28C207.808 271.552 211.008 270.677 214.592 270.677C216.683 270.677 218.325 270.891 218.773 270.891L219.072 271.893C217.775 271.762 216.472 271.69 215.168 271.68C213.291 271.68 210.667 272.171 210.667 273.28ZM231.936 226.347L220.203 215.744H228.011L232.469 219.52L237.333 223.702L238.229 224.491L239.083 223.723L248.107 215.808H251.136L240.256 226.262L239.851 226.688V235.883H232.384V226.752L231.957 226.347H231.936ZM346.645 235.883H315.221V215.723H322.176V233.387H346.645V235.883ZM393.28 235.755H361.344V215.766H392.875V218.24H368.064V224.47H392.469V227.03H368.064V233.28H393.28V235.755ZM128.448 235.798H121.344V215.68H128.448V224.576H147.947V215.68H155.008V235.798H147.968V226.987H128.427L128.448 235.798ZM182.72 235.734H175.552V215.573H194.389C197.973 215.36 201.579 215.979 204.864 217.387C205.578 217.69 206.193 218.186 206.642 218.819C207.09 219.452 207.354 220.197 207.403 220.971C207.381 223.275 205.696 225.536 199.701 226.176L197.995 226.39L199.296 227.413C201.216 228.971 205.952 233.707 208.171 235.798L208.384 235.861H200.171C198.955 234.517 192.213 228.395 189.291 225.408C192.104 225.311 194.903 224.961 197.653 224.363C198.25 224.17 198.773 223.799 199.15 223.299C199.528 222.799 199.743 222.195 199.765 221.568C199.751 221.176 199.642 220.793 199.449 220.452C199.256 220.11 198.984 219.82 198.656 219.605C196.949 218.176 193.003 218.176 188.395 218.176H182.72V235.734ZM287.36 230.571C287.36 229.355 286.315 228.779 285.269 228.48C283.849 228.102 282.401 227.838 280.939 227.691C278.486 227.394 276.04 227.053 273.6 226.667C271.071 226.436 268.61 225.727 266.347 224.576C265.706 224.206 265.181 223.664 264.831 223.012C264.481 222.361 264.319 221.624 264.363 220.886C264.341 218.774 266.155 217.43 269.099 216.555C272.213 215.787 275.435 215.424 278.635 215.488C283.627 215.552 288.619 215.915 293.568 216.64L293.077 219.072C289.276 218.383 285.421 218.026 281.557 218.005C279.447 217.915 277.334 218.08 275.264 218.496C273.963 218.859 273.173 219.648 273.173 220.587C273.214 221.095 273.42 221.576 273.758 221.957C274.097 222.338 274.551 222.599 275.051 222.699C276.326 223.058 277.634 223.294 278.955 223.403C281.173 223.616 284.267 224.043 287.211 224.47C289.681 224.669 292.084 225.374 294.272 226.539C294.917 226.896 295.453 227.422 295.822 228.061C296.19 228.7 296.377 229.428 296.363 230.165C296.384 232.213 294.528 233.792 291.157 234.88C287.054 235.974 282.816 236.476 278.571 236.373L278.613 236.246C273.8 236.205 268.995 235.827 264.235 235.115L264.853 232.235C269.227 233.195 273.707 233.686 278.187 233.686C280.733 233.861 283.289 233.513 285.696 232.662C286.15 232.518 286.551 232.243 286.848 231.871C287.144 231.498 287.322 231.045 287.36 230.571ZM67.904 225.856C67.904 222.486 70.1013 220.075 73.8347 218.304C78.4044 216.367 83.3373 215.436 88.2987 215.573C92.3733 215.595 96.448 215.894 100.48 216.427L101.056 219.179C97.3666 218.734 93.6569 218.478 89.9413 218.411C86.7388 218.386 83.5583 218.942 80.5547 220.053C77.7173 221.163 75.3707 222.976 75.3707 225.792C75.3707 228.587 77.7173 230.421 80.5547 231.531C83.5413 232.64 86.7413 233.195 89.9413 233.152C93.6494 233.091 97.3519 232.842 101.035 232.406L100.309 235.222C96.2785 235.767 92.2168 236.052 88.1493 236.075C83.2432 236.205 78.3649 235.296 73.8347 233.408C69.9947 231.638 67.904 229.141 67.904 225.856ZM418.197 235.947H411.136V215.766H429.973C433.56 215.552 437.147 216.18 440.448 217.6C441.159 217.902 441.772 218.394 442.22 219.023C442.668 219.652 442.934 220.392 442.987 221.163C442.965 223.488 441.28 225.75 435.285 226.39L433.579 226.56L434.88 227.627C436.8 229.163 441.536 233.792 443.755 235.99L435.669 236.011C434.453 234.667 427.691 228.544 424.789 225.558C427.611 225.465 430.418 225.108 433.173 224.491C433.764 224.299 434.282 223.93 434.656 223.434C435.029 222.937 435.242 222.338 435.264 221.717C435.249 221.325 435.141 220.943 434.948 220.601C434.755 220.26 434.483 219.969 434.155 219.755C432.405 218.304 428.501 218.304 423.893 218.304H418.219L418.197 235.947Z" fill="black"/>
</g>
<defs>
<clipPath id="clip0_3_7303">
<rect width="512" height="512" fill="white"/>
</clipPath>
</defs>
</svg>
