<svg width="512" height="512" viewBox="0 0 512 512" fill="none" xmlns="http://www.w3.org/2000/svg">
<path fill-rule="evenodd" clip-rule="evenodd" d="M496.536 462.112C496.781 456.196 497.006 448.704 497.006 441.12C497.006 424.908 483.714 409.542 483.597 409.41C415.672 334.135 300.9 222.784 258.215 218.919C257.353 218.827 256.002 218.912 256.002 218.912C256.027 270.307 257.736 267.903 227.423 280.708C224.301 282.025 122.649 324.99 25.693 412.812C13.9089 426.135 15.0001 439.454 15.0001 439.454C15.0001 447.515 15.2469 453.023 15.5145 462.076C60.235 423.737 192.934 314.79 256.002 314.79C319.039 314.79 451.836 423.806 496.536 462.112ZM494.709 399.271C495.409 400.059 512 419.016 512 441.12C512 458.326 510.858 475.642 510.85 475.776C510.817 476.608 510.414 483.926 506.36 485.911C505.696 486.23 504.996 486.396 504.259 486.396C502.727 486.396 501.021 485.7 499.135 484.313C497.396 482.769 324.241 329.885 255.999 329.885C187.769 329.885 14.614 482.769 12.7836 484.387C10.9556 485.72 9.27548 486.4 7.76398 486.4C7.02717 486.4 6.31602 486.239 5.65864 485.911C1.59459 483.926 1.19258 476.608 1.15714 475.811C1.1437 475.642 0 458.326 0 441.12C0 419.016 16.591 400.059 17.2973 399.271L17.3058 399.262C24.5114 391.271 194.486 203.724 255.999 203.724C317.523 203.724 487.492 391.271 494.709 399.271ZM496.295 283.73C496.539 277.823 496.765 270.343 496.765 262.763C496.765 246.569 483.485 231.216 483.368 231.082C415.512 155.884 300.856 44.6425 258.215 40.7807C257.351 40.6897 256.003 40.7745 256.003 40.7745C256.027 92.1188 257.734 89.7134 227.451 102.511C224.334 103.825 122.783 146.747 25.9225 234.484C14.1506 247.791 15.2418 261.101 15.2418 261.101C15.2418 269.149 15.4886 274.654 15.7562 283.695C60.4303 245.398 192.998 136.558 256.003 136.558C318.975 136.558 451.639 245.468 496.295 283.73ZM494.472 220.951C495.172 221.739 511.743 240.677 511.743 262.763C511.743 279.95 510.604 297.25 510.596 297.383C510.564 298.215 510.162 305.523 506.11 307.508C505.447 307.827 504.747 307.989 504.01 307.989C502.481 307.989 500.775 307.3 498.894 305.914C497.155 304.365 324.173 151.635 256 151.635C187.837 151.635 14.8544 304.365 13.0289 305.984C11.2022 307.32 9.5245 307.993 8.01301 307.993C7.2762 307.993 6.56749 307.831 5.90766 307.508C1.8485 305.523 1.45016 298.215 1.4135 297.418C1.40128 297.25 0.255134 279.95 0.255134 262.763C0.255134 240.677 16.8303 221.739 17.5378 220.951L17.5463 220.943C24.7433 212.963 194.548 25.6001 256 25.6001C317.464 25.6001 487.257 212.963 494.472 220.951Z" fill="black"/>
</svg>
