<svg width="512" height="512" viewBox="0 0 512 512" fill="none" xmlns="http://www.w3.org/2000/svg">
<path d="M240.904 480.364C193.68 477.865 161.097 468.194 140.64 450.623C105.453 420.375 85.382 377.437 50.9538 258.724C46.3416 242.834 41.2681 225.679 39.6613 220.591C29.0978 187.13 13.8178 122.886 4.38507 72.2556C3.19482 65.9026 1.94505 59.3264 1.5731 57.6154C-0.152777 49.4175 3.37336 42.9158 11.0059 40.2228C29.2317 33.7954 254.562 28.9005 366.743 32.501C377.143 32.8283 394.997 33.3937 406.424 33.7508C451.46 35.1494 494.919 38.0357 501.168 40.0443C507.625 42.1123 511.984 49.6853 510.601 56.3805C510.244 58.0915 508.83 65.7092 507.461 73.3119C486.439 189.481 432.713 365.267 403.686 412.788C390.415 434.525 371.326 453.732 354.454 462.347C330.098 474.785 281.462 482.507 240.919 480.364H240.904ZM282.444 432.367C330.426 428.216 357.192 410.839 380.283 368.823C391.739 347.963 417.285 283.823 436.82 226.87C460.937 156.526 492.955 43.3919 489.399 41.1304C486.944 39.5831 484.951 40.8031 484.251 44.2994C476.768 81.4354 456.266 144.043 442.34 172.311C425.23 207.067 397.482 245.467 375.432 264.898L370.165 269.54L362.057 289.73C325.59 380.621 319.49 386.171 256.094 386.171C193.13 386.171 185.512 379.327 150.727 291.322C147.216 282.455 143.883 273.915 143.303 272.352C142.544 270.314 141.383 268.841 139.256 267.219C125.33 256.596 95.3355 218.285 79.7431 191.222C61.681 159.843 43.5147 109.54 30.7195 55.4581C26.9553 39.5682 27.3124 40.4757 24.9914 40.6989C21.4057 41.0411 22.9828 49.968 32.9661 85.9584C62.3208 191.638 88.6551 269.436 119.379 341.253C136.146 380.442 150.638 400.632 172.211 414.841C188.205 425.375 203.396 429.823 232.84 432.605C238.166 433.111 276.001 432.933 282.429 432.383L282.444 432.367ZM283.678 383.016C309.834 379.654 322.764 369.834 336.065 343.232C341.153 333.055 363.351 279.36 365.821 271.251L366.283 269.749L354.588 270.15C348.161 270.374 334.934 270.894 325.219 271.311C301.8 272.308 211.445 272.308 187.595 271.311C177.538 270.894 164.028 270.374 157.586 270.15L145.877 269.749L146.293 271.415C146.755 273.275 161.722 310.827 167.986 325.839C181.986 359.434 193.546 373.628 211.46 379.237C227.126 384.147 261.079 385.918 283.678 383.016ZM334.83 267.844C347.104 267.323 360.301 266.728 364.155 266.505L371.162 266.104L374.912 262.637C385.386 252.936 404.46 229.756 417.091 211.367C442.994 173.68 462.306 125.639 479.996 54.9374C484.028 38.8243 484.534 40.2824 474.729 39.7467C338.475 32.1589 184.724 31.8018 57.0985 38.735C50.9687 39.0623 42.384 39.5236 38.0395 39.7467C27.9224 40.2674 28.3687 39.2111 32.0734 53.9405C56.8902 152.732 84.7571 208.986 133.424 258.56L140.803 266.074L146.695 266.461C152.215 266.818 195.347 268.484 211.162 268.945C229.061 269.466 314.223 268.707 334.845 267.844H334.83ZM92.9847 163.027C92.2557 162.492 92.1366 157.969 92.2706 134.803L92.4343 107.219L114.439 107.041C128.93 106.922 137.724 107.1 140.164 107.562C169.28 113.037 170.991 154.681 142.41 162.328C137.009 163.771 94.7999 164.396 92.9848 163.042L92.9847 163.027ZM135.804 148.268C145.386 142.838 144.359 124.612 134.272 121.22C131.192 120.193 112.52 120.267 111.85 121.309C111.27 122.217 111.151 147.227 111.716 148.7C112.386 150.455 132.576 150.098 135.804 148.268ZM161.826 163.132C161.35 161.882 173.014 135.815 181.525 119.107C186.643 109.049 190.333 106.922 202.786 106.818C219.122 106.684 219.122 106.699 238.955 150.649C245.546 165.274 245.992 163.935 234.551 163.92C223.511 163.905 224.24 164.203 221.592 158.653L219.524 154.309H186.673L181.718 163.608L171.943 163.771C164.177 163.905 162.094 163.771 161.841 163.102L161.826 163.132ZM212.739 141.558C213.275 140.695 203.708 121.16 202.756 121.16C201.893 121.16 192.416 140.904 192.892 141.677C193.398 142.51 212.218 142.391 212.724 141.558L212.739 141.558ZM265.393 163.265C243.269 160.052 234.194 131.545 250.203 115.506C257.88 107.814 262.12 106.832 286.922 107.056L305.698 107.219V120.238L270.169 120.863L267.833 122.752C260.379 128.793 261.019 143.344 268.964 148.149C270.824 149.265 272.475 149.399 288.35 149.682L305.713 149.994V163.637L287.428 163.727C277.37 163.771 267.461 163.563 265.423 163.266L265.393 163.265ZM314.759 163.117C314.238 162.492 314.089 154.844 314.209 134.744L314.373 107.234H332.971V163.652L324.223 163.831C317.349 163.965 315.325 163.815 314.76 163.146L314.759 163.117ZM339.204 163.384C338.356 162.016 360.197 115.313 363.262 111.965C370.002 104.586 392.2 105.047 398.017 112.68C401.529 117.292 422.388 162.492 421.436 163.444C421.138 163.742 416.6 163.905 411.333 163.801L401.767 163.623L396.812 154.324H363.961L361.953 158.281C358.888 164.307 359.766 163.935 349.038 163.935C343.816 163.935 339.382 163.682 339.189 163.37L339.204 163.384ZM390.311 141.305C390.311 139.907 381.19 121.16 380.506 121.16C379.553 121.16 378.944 122.231 374.599 131.515C369.094 143.269 368.529 142.243 380.387 142.243C388.823 142.243 390.311 142.109 390.311 141.305Z" fill="black"/>
</svg>
