<svg width="512" height="512" viewBox="0 0 512 512" fill="none" xmlns="http://www.w3.org/2000/svg">
<path d="M440.89 9.48143C410.623 6.56406 331.124 2.18799 256.002 2.18799C180.879 2.18799 101.38 6.56406 71.1126 9.48143C36.8334 13.1282 20.7878 30.6324 20.7878 64.547C20.7878 129.094 23.3405 230.108 27.7166 289.185C31.728 342.063 34.6454 383.635 100.286 423.385C147.329 451.829 194.007 476.262 254.907 507.989L256.002 508.718L257.096 507.989C317.996 476.627 365.039 451.829 411.717 423.385C477.358 383.271 480.64 341.698 484.286 289.185C488.662 229.744 491.215 129.094 491.215 64.547C491.215 30.6324 475.17 13.1282 440.89 9.48143ZM464.229 287.726C460.583 338.051 458.03 371.601 401.141 405.88C356.651 432.866 317.266 453.652 258.19 484.285L256.002 485.379L253.813 484.285C196.195 454.382 155.352 432.866 110.862 405.88C54.3377 371.601 51.785 338.416 48.1383 287.726C43.7622 229.014 41.2095 128.729 41.2095 64.547C41.2095 40.8433 49.2323 32.4558 73.3007 29.9031C103.204 26.9857 181.973 22.6096 256.002 22.6096C330.395 22.6096 408.799 26.9857 438.702 29.9031C462.771 32.4558 470.794 41.2079 470.794 64.547C470.794 128.729 468.605 229.014 464.229 287.726Z" fill="black"/>
<path d="M252.989 153.352L246.06 177.056C220.168 124.908 189.536 97.1927 152.704 97.1927C112.59 97.1927 93.2621 123.814 87.4273 132.566C97.6381 106.674 124.624 84.0645 160.726 84.0645C210.322 84.0645 238.402 123.084 252.989 153.352Z" fill="black"/>
<path d="M67.4666 207.117C67.4666 294.273 92.9936 336.211 130.92 336.211C148.424 336.211 161.187 325.271 161.187 307.037C161.187 291.721 154.623 279.686 151.706 274.581C152.8 279.686 153.529 285.157 153.529 291.721C153.529 306.672 143.318 311.778 134.931 311.778C110.133 312.142 84.6062 262.912 77.6774 207.117C74.3953 207.117 67.1019 207.117 67.4666 207.117Z" fill="black"/>
<path d="M351.426 84.0645C387.529 84.0645 414.514 106.674 425.09 132.566C419.255 124.178 399.563 97.1927 359.814 97.1927C322.617 97.1927 291.984 124.908 266.457 177.056L259.529 153.352C273.751 123.084 301.831 84.0645 351.426 84.0645Z" fill="black"/>
<path d="M434.54 207.117C427.611 262.912 402.084 312.142 376.921 312.142C368.534 312.142 358.688 307.402 358.688 292.085C358.688 285.521 359.417 280.051 360.511 274.946C357.958 279.686 351.03 292.085 351.03 307.402C351.03 325.271 363.429 336.575 381.297 336.575C419.223 336.211 444.75 294.273 444.75 207.117C445.115 207.117 437.822 207.117 434.54 207.117Z" fill="black"/>
<path d="M383.052 132.063C350.596 132.063 318.869 157.955 300.271 217.396L312.67 225.784L306.835 254.958L283.496 264.804L279.485 293.613L290.79 279.755L302.824 274.65L299.177 293.248L278.391 301.636L271.097 351.596L276.203 367.641L256.146 375.664L236.089 367.641L241.194 351.596L233.901 301.636L213.115 293.248L209.468 274.65L221.502 279.755L232.807 293.613L228.431 264.804L205.456 255.322L199.622 226.148L212.021 217.761C193.058 157.955 161.331 132.063 129.24 132.063C89.1259 132.063 72.7157 169.989 74.9037 201.351H84.3852C92.408 245.841 114.653 283.037 131.793 283.037C136.898 283.037 139.815 279.026 139.815 272.462C139.815 256.781 129.24 240.371 129.24 210.832C129.24 196.975 133.616 188.587 144.191 188.587C151.12 188.587 156.955 195.881 160.237 203.903C154.038 226.148 154.767 244.747 172.636 252.77C181.388 256.781 191.964 261.522 191.964 261.522C191.964 261.522 203.268 309.294 203.998 312.94C204.727 316.223 206.55 320.234 208.009 323.151C210.197 326.798 224.784 352.325 224.784 352.325C224.784 352.325 229.889 377.487 230.983 382.958C233.901 397.544 244.112 397.544 255.781 397.544C267.451 397.544 277.662 397.544 280.579 382.958C281.673 377.487 286.778 352.325 286.778 352.325C286.778 352.325 301.73 326.798 303.553 323.151C305.012 320.599 306.835 316.223 307.565 312.94C308.294 309.658 319.599 261.522 319.599 261.522C319.599 261.522 330.174 256.781 338.926 252.77C356.795 244.747 357.525 226.148 351.325 203.903C354.607 195.881 360.442 188.587 367.736 188.587C377.946 188.587 382.687 197.339 382.687 210.832C382.687 240.735 372.112 257.146 372.112 272.462C372.112 279.026 374.664 283.037 380.134 283.037C396.909 283.037 419.519 245.476 427.542 201.351H437.023C439.576 169.989 423.166 132.063 383.052 132.063ZM179.565 244.382C166.801 238.912 165.707 223.96 169.719 204.268L183.576 225.784L188.681 248.029C188.681 248.393 183.576 246.205 179.565 244.382ZM332.727 244.382C328.351 246.205 323.61 248.393 323.61 248.393L328.716 226.148L342.573 204.633C346.585 223.96 345.491 238.912 332.727 244.382Z" fill="black"/>
</svg>
