<svg width="512" height="512" viewBox="0 0 512 512" fill="none" xmlns="http://www.w3.org/2000/svg">
<path d="M236.401 20.3978L236.012 16.2199L230.052 8.99049L228.229 8.45801L226.959 10.2807L227.164 12.4516L225.157 14.2743L224.952 16.7934L227.308 18.0631L230.605 20.4183H236.401V20.3978Z" fill="black"/>
<path d="M282.296 406.098L279.839 401.428L276.541 394.649L273.92 387.563L271.995 379.597L271.155 372.756V366.121L271.852 358.297L272.732 354.365L271.688 351.027L269.537 349.307L265.216 346.112L262.164 343.941L261.591 339.763L260.157 335.298L257.454 330.916L254.546 327.188L250.9 323.707L246.272 320.205L241.07 316.313L238.305 314.982L235.561 314.143L233.247 314.532L231.24 315.863L230.359 318.034L230.953 321.966L232.96 330.772L236.442 342.385L239.35 349.327L243.241 358.175L246.006 363.377L250.225 371.057L255.283 379.617L259.277 385.126L262.615 389.591L262.758 392.049L262.308 394.056L260.444 394.793L254.833 395.08L245.002 394.486L236.892 393.441L229.765 392.171L221.102 389.714L216.719 387.789L213.811 386.519L210.514 385.925L206.725 386.068L204.718 386.949H201.953L195.42 385.925L191.693 384.655L187.617 384.369L181.125 384.225L176.21 383.775H171.684L167.219 384.061L164.168 385.331L161.997 385.925L161.26 386.949L161.403 388.977L163.471 392.315L167.363 397.681L169.677 398.664L173.322 401.265L177.5 403.579L182.026 405.053L188.518 405.197L194.314 404.603L199.229 403.476L203.407 402.145L205.169 403.026L206.008 404.746L207.483 405.197L211.067 405.053L215.593 405.361L217.907 406.098L220.652 405.361L229.601 406.487L235.704 407.368L245.678 409.538L252.948 411.689L260.137 414.146L266.465 417.055L268.923 418.816L275.456 419.103L278.938 418.222L280.801 414.433L282.808 409.805L282.296 406.098ZM180.06 391.25L179.61 392.274L178.831 393.216L178.196 393.421L176.865 393.462L175.677 393.113L175.145 392.663L174.367 391.68L174.408 390.799L174.858 390.164L176.374 389.673L178.135 389.325L179.466 389.284L180.101 389.673L180.244 390.41L180.06 391.25ZM250.511 400.241L249.979 400.937L248.3 401.039L245.391 400.548L242.831 400.097L240.169 399.954L237.609 399.749L231.752 398.274L227.123 396.841L223.826 395.755L223.334 394.813L223.478 393.789L224.113 393.544L228.434 394.916L230.359 395.694L232.366 396.145L234.824 396.493L238.899 396.943L242.442 397.476L245.78 397.721L248.484 398.315L249.999 398.705L250.45 399.298V400.241H250.511ZM270.582 397.353L270.049 398.336L269.066 399.114L267.633 399.462L266.854 399.114L266.609 398.274L266.854 397.332L268.186 396.349L269.169 396.104H270.254L270.602 396.554V397.353H270.582Z" fill="black"/>
<path d="M429.507 200.172L427.499 199.229V202.322L425.882 204.145L422.973 208.466L421.355 209.551L416.829 215.02L415.007 217.928L412.836 222.802L410.481 223.191L408.31 221.921L407.02 216.125L407.368 209.449L408.842 203.244L412.426 197.448L419.697 186.573L424.038 177.725L424.571 171.52L423.875 169.554L422.605 170.824L420.434 176.23L417.137 181.699L412.262 185.692L406.651 191.099L398.295 200.888L396.677 200.745L396.145 199.066L395.94 195.072L396.472 187.638L399.032 179.323L403.558 170.086L409.559 162.652L416.993 156.303L417.69 154.829L416.809 154.133L413.02 156.099L409.928 158.106L404.664 162.632L398.131 168.428L393.462 174.776L388.915 183.091L386.417 189.829L385.679 196.526L385.331 205.578L387.502 215.02L389.673 223.191L393.851 236.032L396.554 251.433L398.172 263.189V269.537L397.476 276.214L396.39 281.682L394.363 287.826L386.744 297.411L378.962 304.497L368.988 310.108L359.404 310.641L358.134 305.971L354.693 299.233L349.983 292.741L346.89 288.911L342.753 283.3L333.844 274.801L324.792 267.366L320.819 264.274L308.326 255.816L290.386 240.763L280.596 228.618L269.885 211.067L266.977 200.54L267.715 194.007L269.189 192.737L272.978 195.297L278.979 198.205L283.853 198.001L289.444 200.561L295.444 204.206L298.537 206.705L302.531 209.469L306.668 210.002L307.61 208.179L306.524 207.974L305.254 208.507L303.247 207.237L301.466 204.534L298.906 200.356L293.99 195.83L289.116 194.007L286.413 193.475L286.966 192.041H290.755L295.137 193.475L301.486 197.653L304.394 198.922L305.48 197.448L303.657 194.949L298.742 190.566L291.123 186.593L281.928 183.009L280.105 181.535L281.928 180.265L286.065 182.272L293.683 183.542L301.834 186.798L306.156 188.969L313.774 190.054L319.242 189.317L322.294 187.884L326.472 185.324L328.294 183.562L328.499 182.293L326.799 182.436L325.181 184.115L319.775 185.897L315.064 186.634L311.071 186.102L307.241 183.05L303.8 179.016L299.663 175.964L293.478 174.694L287.519 172.687L284.959 171.069L285.164 169.636L287.519 169.984H292.782L298.045 169.636H303.452L306.36 169.103L308.716 171.069L312.504 172.012H315.597L317.03 170.926L314.532 170.189L311.439 168.182L308.183 165.13L302.92 162.365L298.598 161.833L294.625 161.301L293.151 160.42L296.059 158.802H300.769L304.415 159.887L307.999 161.71L313.795 164.209L319.59 164.413L322.683 162.939L323.564 160.973L321.208 159.887L316.334 159.683L312.156 158.249L308.531 155.157L304.538 153.149L299.274 152.269L294.748 150.651L292.782 148.091L293.13 146.821L296.038 147.415L299.684 148.501L301.855 150.118L304.947 150.467L305.295 148.849L302.06 146.289L301.117 143.974L305.48 144.671L309.617 146.842L314.88 147.436L316.908 151.224L322.314 154.481L322.601 154.44L323.789 153.948L325.222 153.068L324.526 151.982L322.499 152.125L320.676 149.627L317.03 144.015L310.682 138.363L304.189 135.455L302.367 133.284L298.373 128.573L294.728 126.607L294.195 124.785L295.813 123.699L299.643 124.58L307.22 126.751L310.866 128.021L313.221 131.318L317.01 133.284H319.918L323.748 134.369L327.926 133.632L329.544 132.198L327.188 130.191L323.748 129.311L319.754 128.778L317.399 126.771L314.307 122.245L313.569 119.337L309.576 115.753L305.254 112.988L300.339 109.937L294.932 104.878L294.584 103.404H295.813L302.899 109.015L310.129 113.193L313.958 116.101L318.833 120.627L323.195 122.982L325.714 123.72L326.984 121.713L325.161 121.016L321.372 117.576L320.287 113.746L316.314 109.425L313.016 106.66L311.398 102.523L305.787 94.1671L298.168 87.4701L297.82 85.2992L300.524 85.6474L304.353 87.6135L310.497 90.1735L316.846 90.5216L321.556 92.7335L326.615 93.6141L330.936 92.3444L330.588 90.5216L325.673 89.4362L321.352 87.4701L312.648 83.2922L307.937 80.7322L305.418 77.6807L306.299 76.5952L307.569 77.4759L309.535 78.2132L312.095 78.418H316.273L319.857 78.0288L325.325 77.6807L329.503 79.2986L333.824 82.3911L335.647 82.9236L335.852 81.3056L334.377 79.8311L330.056 75.8375L323.318 72.3968L318.444 71.8644L309.207 71.3319L307.057 68.7719L302.346 64.0615L297.083 60.4775L295.117 58.6548L296.735 57.385L299.233 58.4704L303.759 60.8257L308.879 62.6484L315.761 64.2663H321.72L326.636 69.7345L330.629 72.0896L332.063 70.6151L326.656 62.6484L318.157 56.5044L311.071 54.825L305.07 48.5376L299.807 45.4452L292.577 43.6224L296.571 40.1818L303.657 37.8266L308.92 36.2087L310.149 34.5908L309.453 33.321L306.545 32.5837L303.8 32.0512L283.341 32.4404L279.695 28.4058L275.558 25.7024L270.295 23.3472L263.414 22.2618H257.454L255.836 20.0909L250.225 14.0903L243.487 7.94629L239.35 14.8276L239.145 16.9984L241.111 19.5584L241.316 21.7293L239.882 22.9991L235.315 23.3472L227 20.992L218.829 19.2308L215.04 19.3741L208.855 20.6439L209.592 22.8148L213.033 22.6714L214.467 22.9172L214.426 24.8423L212.419 25.2928L209.818 24.9447L205.885 25.7844L202.936 26.7264L200.581 26.8698L199.844 27.8938L200.684 29.3274L202.465 29.7165L204.145 29.225L206.07 28.3853L208.036 28.2829L212.214 28.4877L215.409 29.4708L219.197 30.4128L224.748 32.9114L225.239 34.0992L224.645 35.0413L222.044 35.9834L220.467 36.7207L217.661 38.5844L213.381 40.8576L208.179 44.544L202.138 46.9607L197.427 50.0532L193.147 51.9168L189.112 52.8999L185.569 53.0023L180.695 53.1047L178.831 53.5962L177.746 55.8695L176.906 58.3271L175.964 60.0064L173.609 63.5495L171.336 67.4817L169.82 69.4068L169.677 71.6186L169.82 74.7111V78.0084L171.827 79.8311L173.609 80.7732L175.718 80.6298L179.159 79.6877L183.05 78.4999L188.314 76.3904L190.423 76.4928L190.915 77.824L190.423 79.0938L188.641 80.0359L183.276 82.0429L179.241 83.2308L178.463 84.562L178.319 85.9956L179.651 87.1834L182.456 87.5316H184.73L187.576 87.4292L190.669 86.6919L195.154 84.3367L198.103 83.7428L200.602 83.2512L202.527 83.8861L205.332 83.7428L208.097 84.0909L210.371 85.4221L213.914 85.7703L218.542 87.2039L221.041 87.552L224.932 86.8557L229.908 87.2039L232.079 88.0436L233.267 90.0506L233.021 92.6516L232.428 95.8464L231.24 99.5328L229.56 104.161L227.881 109.22L226.099 113.848L224.911 117.043L220.877 123.331L216.003 129.475L211.62 135.516L206.07 141.066L200.95 145.388L197.693 148.828L195.973 154.481L193.597 157.286L190.546 159.457L186.86 162.509L181.207 165.949L176.435 168.346L173.384 171.827L171.213 174.653L169.042 175.985L165.99 177.5L164.024 177.05L160.133 175.268L155.812 172.462L149.463 169.656L142.336 165.929L138.65 163.123L134.083 159.437L129.065 155.3L123.658 153.334L118.886 152.494L112.783 153.764L108.462 156.181L104.735 158.781L102.81 163.553L101.478 167.24L99.9629 172.892L98.2426 176.333L96.5222 181.596L96.2765 187.884L94.761 191.57L93.0406 197.427L91.5251 203.285L88.7194 208.753L87.2038 214.159L86.3232 220.897L83.9066 226.55L82.391 229.786L82.1862 233.042L81.9814 238.51V248.054L80.896 251.986L81.5309 255.427L81.2851 261.079L83.2512 265.605L84.7667 266.691L87.5725 265.81L90.1734 263.455L93.9008 258.929L97.1571 253.727L98.4269 249.405L97.5872 245.924L96.5018 241.603L95.1706 236.401L93.9008 230.953L93.2045 226.816V222.925L94.0851 218.542L96.256 211.845L98.4269 208.364L100.393 206.602L101.908 204.247L104.714 204.001L106.045 203.162L108.012 201.38L110.182 199.455L112.148 196.854L112.988 193.802L113.684 191.201L113.889 187.72L114.524 184.668L116.04 182.743L117.555 182.293L119.521 182.927L122.327 184.443L125.379 187.925L128.635 192.696L132.321 197.018L136.253 200.499L139.735 203.305L143.176 204.821L144.261 206.991L143.176 208.077L139.489 207.237L134.287 206.787L127.549 205.455L121.057 204.186L113.234 203.94L108.667 204.186L105.185 206.357L101.499 209.592L98.4474 214.794L96.0922 220.693L95.8464 225.014L97.1776 232.837L100.229 242.811L101.745 250.634L103.67 258.253L105.001 263.619L105.636 268.636L107.356 274.289L108.687 282.952L109.957 286.003L113.254 288.604L116.306 291.656L119.747 296.878L122.163 302.981L125.85 308.388L131.256 313.59L135.168 316.006L137.769 316.211L139.94 315.576L141.271 312.525L142.746 309.924L143.626 306.237V297.779L142.541 295.363C142.336 295.363 142.336 293.847 142.336 293.642L141.885 292.127L140.104 289.526L136.847 286.269L130.806 283.669L128.594 282.972L128.205 279.286L128.41 276.931L124.273 272.159L121.672 266.056L119.501 257.393L117.74 249.385L114.749 243.098L113.664 235.479L115.384 230.912L118.436 229.192H120.791L124.273 232.243L129.29 235.295L134.492 237.22L147.087 243.323L153.19 246.805V250.04L158.802 253.276L165.99 255.693H180.982L179.896 258.499L179.261 260.014L181.187 263.66L184.873 269.128L190.771 274.985L197.898 282.808L204.001 288.215L215.409 296.96L224.645 301.916L231.588 305.603L240.497 311.644L248.709 317.501L255.795 323.502L263.168 333.476L263.516 337.654L265.196 341.975L269.722 345.231L273.859 346.849L276.419 346.501L278.446 344.535L281.354 341.443L282.051 337.265L285.491 331.305L286.228 326.738L286.781 321.679L287.13 317.686L288.256 315.187L290.57 314.061H292.782L292.925 315.74L291.308 317.501L289.874 321.331L288.788 323.686V326.595L288.399 332.739L287.519 335.831L284.815 340.501L281.17 346.501L277.545 353.034L275.395 361.533L274.309 370.442L275.395 380.375L276.828 386.171L280.269 393.789L284.652 402.842L288.092 409.928L292.803 417.362L298.414 424.243L299.5 426.598V428.216L298.762 430.223L296.796 433.48L293.704 437.801L287.355 445.973L281.006 452.854L275.21 459.203L272.712 460.677L267.592 462.643L264.54 465.551L262.922 468.849L259.277 473.375L255.16 477.901L250.102 483.164L247.009 488.571L245.187 494.039L244.101 498.565L244.306 502.211L246.477 504.525H254.444L257.884 504.177L261.489 502.026L266.199 499.855L266.936 498.033H268.554L271.053 496.947L273.408 494.735L274.698 486.072L273.961 484.25L273.613 482.427L274.903 482.775L276.316 483.164L277.791 482.079L280.146 480.604L282.644 477.348L285.737 472.965L287.355 468.992L287.703 465.736L289.731 464.261L292.639 462.643L294.994 461.21L296.96 457.237L301.138 452.874L308.941 445.645L314.88 441.672L320.881 438.374L322.294 436.941L322.847 435.466L324.116 433.848L323.236 431.698L323.052 427.704L322.253 423.977L321.311 421.806L319.242 418.263L315.945 414.126L314.327 411.034L313.979 407.777V403.415L314.716 400.917L316.682 394.179L318.689 390.922L320.86 389.653L324.833 387.154L329.544 383.119L335.892 377.713L340.214 373.187L344.576 368.128L349.102 363.008L352.358 357.253L355.062 352.338L357.622 346.726L359.444 340.521L359.997 334.766L360.346 330.383L361.82 328.95L363.438 328.561L364.872 329.503L366.141 332.554L366.49 336.732L367.084 340.705L366.694 343.409L366.346 347.587V356.495L367.432 363.52L368.701 365.343L369.787 365.199L370.319 363.93L369.582 361.021V356.106L371.057 351.969L371.753 345.969L372.49 341.791L373.432 339.825H374.518L375.398 340.705L376.279 344.146L377.016 347.443L376.668 352.645L375.583 359.731L372.285 366.613L369.234 373.146L367.411 378.757L367.063 382.198L367.411 386.171L368.681 390.001H371.036L372.265 388.321L371.569 386.499L371.036 383.242L373.187 380.334L375.706 376.893L377.385 373.658L381.358 367.309L384.614 361.513L386.048 355.164L387.318 346.808V338.534L385.7 332.739L382.444 328.213L382.054 326.062L383.529 325.325L385.352 326.205L387.707 329.114L390.615 334.377L391.844 340.521L392.581 348.693L394.404 354.345L394.609 354.488L397.107 360.1L398.725 360.694L399.462 359.219L399.278 358.339L398.049 354.161L397.865 349.983L398.049 343.839L399.135 336.957V333.517L398.746 330.609L395.837 324.792L393.339 320.614L394.22 318.997L397.66 318.259L402.371 316.109L407.429 313.405L411.955 309.432L417.751 301.609L421.048 295.117L423.752 288.932L424.632 278.999L424.837 270.09L423.403 259.072L421.724 251.105L420.291 242.934L419.41 234.435L420.106 229.028L421.581 222.29L424.632 215.593L428.995 208.712L430.612 204.329L430.961 202.158L429.507 200.172ZM183.112 69.0177L181.678 70.4512L179.671 71.5776L176.968 72.1716L176.026 71.5776L175.677 69.6525L176.476 66.9492L178.401 64.2868L179.978 63.5085L181.412 63.6519L183.132 65.0855L183.91 66.3553L183.112 69.0177ZM190.177 67.2564L189.686 67.5021L188.703 67.5431L187.924 67.154L187.29 66.4167L187.392 65.5361L188.129 64.3482L188.723 63.9591H189.501L190.198 64.1025L190.444 64.8397L190.546 66.13L190.177 67.2564ZM198.943 75.3255L198.205 75.6736H197.263L196.731 75.3869L196.444 74.5882L196.547 73.6052L197.079 73.0112L197.775 72.9703L198.513 73.1751L198.861 73.7076L199.107 74.5882L198.943 75.3255ZM215.695 49.9508L214.569 50.258L213.197 50.6061L211.681 51.8759L208.282 53.9444L203.612 55.2141L200.704 55.9514L197.898 56.1562L196.465 56.0128L198.738 54.0877L202.916 52.0807L207.094 50.217L211.067 48.3533L212.89 47.4727L214.262 47.2679L215.388 47.5136L216.269 48.9472L215.695 49.9508ZM89.088 253.768L87.6134 253.42L86.8762 251.986L88.3507 251.249L89.641 251.392L89.9891 252.662L89.088 253.768ZM108.114 177.746L107.09 181.576L105.759 185.897L103.404 189.542L102.134 189.891L101.683 188.908V186.982L101.929 184.381L102.871 179.466L104.94 175.882L106.025 174.613L107.602 174.162L108.196 175.043L108.114 177.746ZM118.6 163.328L116.244 164.209L113.992 164.454L112.62 163.922L112.271 162.939L112.66 161.608L113.848 160.768L116.306 160.481L117.576 160.379L118.456 160.625L119.235 161.362L119.276 162.202L118.6 163.328ZM137.81 189.256L137.318 189.297L136.131 188.559L134.472 187.617L133.038 186.429L131.707 185.098L131.113 184.361L130.97 183.276L131.256 182.743L131.748 182.784L132.588 182.927L133.53 183.767L134.615 184.75L136.335 185.774L137.359 187.003L137.994 187.945L138.035 188.785L137.81 189.256ZM105.513 215.061L104.632 216.289L103.752 216.637L103.158 216.146L103.199 214.385L104.673 211.825L105.124 211.087L105.861 210.739L106.557 211.19V212.664L106.107 213.688L105.513 215.061ZM111.657 260.751L111.37 261.202H111.022L110.387 260.669L109.896 259.727L109.117 258.007L107.991 255.754L106.865 252.211L106.271 248.873L106.168 244.982L106.701 241.152L106.988 240.701H107.52L108.052 241.193L108.585 243.507L108.626 245.862L109.568 248.853L110.694 252.047L111.186 254.853L111.882 259.42L111.657 260.751ZM133.591 302.592L134.185 302.449L135.619 302.756L136.253 303.452L136.397 304.292L136.253 305.275L135.414 305.91L134.39 305.725L133.652 305.029L133.345 303.514L133.591 302.592ZM147.804 236.36L146.33 236.462L144.404 236.175L143.073 235.581L139.981 233.656L136.929 231.383L133.489 229.315L132.301 228.434L133.878 228.393L135.598 229.028L138.547 229.765L141.251 231.096L144.404 232.469L146.657 233.493L147.845 234.578L148.05 235.561L147.804 236.36ZM164.168 193.966L162.099 199.762L160.276 205.312L157.082 209.285L155.464 210.514L153.743 211.149L152.76 210.453L152.658 209.183L154.03 207.708L155.464 205.353L157.286 201.38L158.372 197.591L159.355 193.864L161.28 190.28L162.57 188.457L163.656 188.15L164.639 188.539L164.946 189.727L164.168 193.966ZM243.036 78.9504L244.654 76.882L246.518 75.1207L248.197 73.9943L249.426 73.8919L250.266 74.4244V75.9399L249.815 77.6192L247.951 79.401L245.74 80.7732L243.487 81.3671L242.401 81.0189L242.258 80.1383L243.036 78.9504ZM236.462 40.7962L238.039 40.2637L239.124 39.7722L240.497 40.2637L240.947 41.2468L239.923 42.4346L238.49 42.9671L236.769 43.0695L236.134 41.8816L236.462 40.7962ZM222.781 53.5348L222.147 51.8144L223.089 49.8893L225.157 48.169L228.454 48.0256L230.871 48.4762L232.735 49.7664L233.677 51.9783L234.455 54.3335L234.312 56.402L232.243 57.1802H230.031L227.369 56.0948L225.014 54.825L222.781 53.5348ZM230.851 78.7661L228.045 79.401H225.526L225.075 78.5613L225.71 77.6807L226.447 77.2301L231.363 73.7485L234.353 71.8848L236.175 70.7584H236.81L236.913 72.0896L235.684 73.0727L235.09 75.1002L233.574 77.4554L230.851 78.7661ZM198.103 168.653L197.755 168.12L197.857 166.789L198.738 165.806L201.83 164.536L208.282 162.529L214.733 161.731H218.665L221.901 162.427L224.952 163.942L227.369 166.298L227.512 167.629L227.226 168.571L226.202 168.776L224.625 168.571L222.208 167.875L219.935 167.199L217.129 166.892H213.647L210.698 166.851L208.097 167.096L205.189 167.588L202.875 168.223L200.622 168.714L199.148 168.817L198.103 168.653ZM238.92 302.101L235.622 300.032L230.072 296.346L221.471 290.55L217.989 288.195L214.303 285.307L210.268 281.621L207.319 279.306L203.776 275.866L201.462 273.449L200.028 271.237L199.496 268.575L199.598 266.117L200.54 265.175L202.158 265.277L204.718 266.813L207.462 269.476L209.49 271.933L211.661 274.104L213.77 276.705L216.433 279.613L218.952 282.419L227.205 289.587L231.772 293.663L235.848 297.349L239.145 300.442L239.78 301.466L240.23 302.203L238.92 302.101ZM241.132 189.686L240.108 190.28L237.609 190.321L235.93 189.932L234.988 188.703L234.209 187.72V186.143L235.438 184.566L237.302 183.091L239.063 182.845L240.681 183.296L241.172 184.177L241.377 186.143L241.623 188.211L241.132 189.686ZM246.088 108.646L245.064 112.435L242.749 118.477L239.657 123.597L236.216 129.987L230.707 137.708L226.529 142.09L223.621 143.217L222.679 143.176L222.536 142.438L223.416 140.37L226.959 134.902L229.868 128.901L232.468 123.74L237.097 114.79L241.48 107.807L243.732 105.636L245.453 105.349L246.19 106.537L246.088 108.646ZM256.184 82.3911L255.652 83.7223L253.727 85.9751L251.064 87.2448L248.402 88.3303L245.637 88.3712H243.917L243.323 87.5725L243.958 86.4461L245.473 85.7498L248.136 84.4596L251.187 82.5959L252.621 81.5719L254.792 80.5274L256.164 80.8756V82.3911H256.184ZM270.582 165.356L269.599 165.642L268.329 165.54L267.489 164.7L267.694 163.963L268.534 163.369L269.804 163.267L270.889 164.147L270.93 164.885L270.582 165.356ZM272.056 160.543H270.582L269.783 160.092V159.007L270.131 158.269L270.909 158.024H271.954L272.937 158.659L273.039 159.437L272.056 160.543ZM274.76 153.109L273.756 153.6L272.732 153.743L271.647 153.498L271.299 152.76V151.88L272.179 151.245L273.265 151.04H274.309L274.944 151.573L275.087 152.412L274.76 153.109ZM276.132 146.862L274.801 147.251L273.326 147.21L272.548 146.678L272.507 146.084L272.753 145.203L273.92 144.671L275.21 144.486L276.296 145.019L276.685 146.043L276.132 146.862ZM279.327 138.117L278.589 139.1L277.893 139.981L276.521 140.268H275.149L273.961 139.674L273.859 138.732L274.698 137.851L275.333 137.114L276.275 136.765L277.791 136.315H278.979L279.511 136.95L279.327 138.117ZM281.293 130.785L280.658 131.809L279.532 132.014L278.344 132.321L276.869 132.28L276.234 131.543L276.337 130.458L276.828 129.72L277.811 129.024L279.327 128.819L280.699 129.106L281.293 129.946V130.785ZM283.361 125.379L281.846 126.013L280.658 126.403H279.183L278.589 126.3L277.852 126.054L277.463 125.317L277.647 124.375L278.63 123.494L279.47 123.044L280.412 122.655L281.743 122.614L283.034 123.064L283.566 124.088L283.361 125.379ZM283.566 116.961L283.034 117.842L282.092 118.62L280.719 119.112L279.101 119.255L277.77 119.071L277.422 118.272L277.627 117.637L278.159 117.248L280.515 116.019L281.641 115.773L283.034 115.917L283.566 116.408V116.961ZM278.979 97.0548H279.818L280.269 96.768L280.453 95.8874L280.637 95.2116L281.047 94.72L281.784 94.6791L282.665 94.9248L283.464 95.3754L283.566 96.3175L283.464 97.833L282.296 98.857L280.76 99.5943L280.125 99.4919L279.491 99.2461L278.856 98.4474L278.753 97.5668L278.979 97.0548ZM278.979 90.7674V90.0301L279.634 89.3952L280.658 89.0061L281.887 88.9652L282.624 89.2109L282.829 89.8458L282.419 90.4807L281.784 91.177L280.74 91.4228H279.654L278.979 90.7674ZM279.04 110.674L279.921 110.141L280.965 109.896L281.989 109.793L282.726 109.834L283.013 110.285V111.022L282.665 111.8L281.969 112.579L280.248 113.316L279.409 113.213L278.63 112.968L278.426 112.128L278.589 111.186L279.04 110.674ZM283.464 104.632L283.218 105.267L282.132 106.005L280.658 106.537L279.839 106.332L279.04 105.882L278.897 105.083L278.999 104.1L279.593 103.506L280.433 102.912L281.661 102.666L282.706 102.625L283.402 102.83L283.648 103.526L283.464 104.632ZM283.853 83.8247L283.709 84.6644L283.177 85.4016L282.296 85.7498L281.457 85.9546L280.719 86.057L279.736 85.9546L279.491 85.3607L279.736 84.5824L280.33 84.05L280.986 83.7018L282.071 82.9645L283.197 83.0055L283.853 83.8247ZM282.337 76.5952L282.931 76.9434L283.034 77.7831L282.972 78.5818L282.051 79.4215L281.17 79.7696L280.576 79.6672L280.125 79.4215V78.6228L280.166 77.7831L280.801 77.1072L281.395 76.7591L282.337 76.5952ZM281.19 72.5197L280.945 73.4004L280.289 73.8919L279.695 74.24L278.897 74.3424L278.262 73.9533L278.118 73.257L278.405 72.6631L278.999 71.8644L279.593 71.5776L280.371 71.5367L281.027 71.9258L281.19 72.5197ZM273.142 56.6272L274.575 56.5248L276.582 55.7466L278.405 55.3575L279.921 55.2551L280.699 55.9924L279.613 57.6103L278.528 57.897L276.726 58.5319L274.371 59.8631L272.118 61.0509L269.517 62.1364L268.636 62.2388L267.899 61.993L268.001 60.9076L267.612 59.8836V58.0199L268.452 55.9104L269.619 54.6407L270.377 53.6576L271.155 52.6746H272.343L273.162 53.5143L272.978 55.5828L273.142 56.6272ZM272.302 37.0688L272.835 37.417L272.65 37.9495L271.852 38.8916L270.766 38.994L269.476 38.8096L268.739 38.4615L268.206 37.8266L268.841 37.2941L269.763 36.905L271.196 36.864L272.302 37.0688ZM265.523 29.4503L267.981 29.2045L269.312 29.6551L270.356 30.1876L270.397 31.0682L269.517 31.4573L268.145 31.5597L266.813 31.4573L265.769 31.2525L264.888 30.6176L265.523 29.4503ZM284.549 284.795L283.361 285.88L282.276 287.109L281.19 289.382L280.842 290.959L280.105 291.553L278.671 291.369L277.975 290.529L278.221 287.539L278.999 283.791L279.388 281.723L280.33 279.122L281.027 278.344L282.051 278.139H283.423L284.017 278.692L285.041 280.207L285.245 283.116L284.549 284.795ZM286.904 249.242L280.699 245.985L277.463 242.893L272.056 237.486L267.141 231.281L262.82 224.256L259.379 215.552L257.946 209.551L258.621 206.111L260.588 205.578L262.595 206.52L263.885 210.104L264.97 215.368L266.936 220.836L272.056 228.803L278.938 238.94L286.904 249.242ZM287.355 355L285.962 358.83L285.286 360.694L283.996 363.602L283.013 367.002L282.726 367.985L282.378 368.62H281.436L280.699 366.408L280.658 363.889L281.19 360.448L282.419 355.738L284.447 352.829L286.269 350.577L287.887 350.372L288.338 351.846L287.355 355ZM294.523 406.446L294.175 406.487L293.54 406.2L292.352 404.48L290.591 401.572L289.751 399.647L289.26 396.984V394.527L289.362 393.052L289.71 392.602H290.488L291.328 392.95L292.413 394.22L293.212 396.431L293.745 399.381L293.786 401.736L293.827 402.575L294.277 403.702L294.728 405.975L294.523 406.446ZM258.191 491.459L257.454 492.892L256.573 494.223L255.14 495.165L253.768 495.452H253.174L252.539 494.961L252.334 493.937L252.58 492.646L253.317 491.172L255.324 489.165L256.84 488.223L257.925 488.182L258.478 488.632L258.621 489.656L258.191 491.459ZM271.667 469.729L270.909 470.753L269.988 471.286L268.861 471.675L268.022 471.429L267.53 470.549L267.633 469.668L268.472 468.623L270.152 467.599L271.38 467.395L271.974 467.743L272.138 468.623L271.667 469.729ZM301.752 439.726L299.581 442.921L296.673 446.321L293.376 449.516L289.894 453.161L286.638 456.11L284.078 458.424L282.644 459.366L281.702 459.325L281.252 458.588L281.457 457.359L285.45 452.936L291.041 446.894L297.841 440.054L299.11 438.682L301.036 437.453L301.732 437.596L302.305 438.333L301.752 439.726ZM314.286 430.039L315.126 429.732L316.211 429.773L316.703 430.019L316.744 430.551L316.314 431.247L315.331 432.128L314.45 433.111H313.856L313.18 432.722L313.016 431.882L313.303 431.043L314.286 430.039ZM350.577 331.059L350.372 332.677L349.88 334.193L349.573 335.565L348.549 336.159L347.607 335.913L347.136 335.032L346.829 331.94L344.76 329.093L344.576 326.738L345.743 325.263L346.972 324.874L348.16 324.977L349.143 325.857L350.269 327.291L350.577 328.909V331.059ZM411.812 274.862L411.709 277.176L410.788 282.235L409.498 286.556L408.023 290.345L405.811 294.461L403.292 298.005L399.503 302.428L395.182 306.565L392.97 307.098L391.782 306.565L391.598 304.988L392.54 302.879L393.81 300.565L396.124 297.513L398.623 294.113L400.978 290.427L403.292 286.638L405.053 282.952L406.098 279.163L406.979 274.842L407.183 270.029L407.368 265.708L407.081 261.919L406.63 257.536L406.241 253.399L405.996 251.085L407.265 249.815L408.105 250.266L408.74 252.273L410.01 256.246L411.054 261.018L411.791 265.585V274.862H411.812Z" fill="black"/>
</svg>
