<svg width="512" height="512" viewBox="0 0 512 512" fill="none" xmlns="http://www.w3.org/2000/svg">
<g clip-path="url(#clip0_3_6963)">
<path d="M3.0025 267.469C3.0025 260.085 3.0025 252.801 3.0025 245.417C3.19939 243.941 3.49472 242.563 3.6916 241.086C5.36513 228.781 6.05422 216.18 8.71217 204.071C33.0275 91.4531 129.895 9.25356 244.778 3.83922C307.387 0.885942 364.09 18.1134 413.705 56.6045C465.781 96.9659 497.578 149.83 508.899 214.9C510.376 223.268 511.262 231.734 512.345 240.2C512.345 251.127 512.345 261.956 512.345 272.883C512.049 274.163 511.754 275.442 511.557 276.722C508.702 292.768 507.127 309.208 502.796 324.664C469.03 443.779 355.427 520.368 231.389 507.668C171.93 501.663 120.641 477.25 78.2127 435.313C37.5559 395.149 13.339 346.419 5.56201 289.717C4.57758 282.333 3.79004 274.852 3.0025 267.469ZM253.834 32.5845C247.14 32.5845 240.249 32.486 233.555 32.5845C231.094 32.5845 228.535 32.9782 226.073 33.1751C176.557 37.1128 131.962 54.0449 91.8962 83.184C73.2905 96.6706 57.7366 112.914 50.3534 135.063C45.825 148.747 43.0686 163.218 41.1982 177.59C34.6026 227.796 38.8356 277.313 52.716 325.943C62.3634 360.201 77.5236 391.9 98.3934 420.744C115.129 443.681 138.164 457.561 164.35 466.716C222.53 486.897 281.497 487.98 340.365 471.048C380.136 459.628 412.721 438.956 432.409 399.677C459.087 346.518 474.739 291.292 475.232 231.635C475.429 208.108 473.46 184.58 469.719 161.347C464.009 126.302 447.274 98.1472 416.954 78.9509C367.339 47.4493 312.801 32.2891 253.834 32.5845Z" fill="black"/>
<path d="M79.9846 186.253C80.7722 168.041 80.6737 151.011 82.6426 134.276C84.9068 114.587 96.0308 100.51 114.735 92.8313C139.444 82.6917 165.433 77.0805 191.815 73.4381C220.561 69.402 249.503 67.9254 278.543 68.9098C313.687 70.0911 348.339 74.2257 381.514 86.531C388.701 89.189 395.592 92.3391 402.483 95.7846C420.596 104.841 428.964 120.789 431.917 139.887C433.59 150.322 433.689 160.954 433.984 171.487C435.756 241.775 425.518 310.389 403.861 377.33C399.529 390.522 394.804 403.319 389.98 416.314C389.291 418.184 388.012 419.858 386.535 421.236C372.556 433.935 355.525 440.629 337.609 445.551C305.024 454.411 271.751 455.986 238.28 453.919C213.276 452.442 188.567 448.701 164.941 440.235C159.329 438.168 153.718 435.707 148.304 433.049C137.377 427.733 129.797 419.661 124.973 408.045C101.74 352.818 86.9741 295.426 82.5441 235.573C81.1659 218.838 80.7722 201.906 79.9846 186.253ZM265.746 363.45C265.746 330.964 265.746 298.872 265.746 266.681C275.885 266.681 285.139 266.681 294.983 266.681C294.983 299.167 294.983 331.062 294.983 363.45C302.268 363.45 308.864 363.45 315.952 363.45C316.05 361.973 316.148 360.792 316.148 359.512C316.148 307.239 316.148 255.065 316.148 202.89C316.148 200.921 315.656 198.854 314.672 196.984C309.159 185.466 303.351 174.046 297.74 162.627C296.558 159.969 294.983 159.083 292.03 159.182C278.642 159.379 265.254 159.28 251.964 159.28C246.254 159.28 246.254 159.28 246.254 164.99C246.254 229.371 246.254 293.753 246.254 358.331C246.254 360.103 246.254 361.777 246.254 363.745C252.653 363.45 258.658 363.45 265.746 363.45ZM190.24 160.068C169.863 160.068 149.584 160.068 129.6 160.068C129.6 228.288 129.6 296.115 129.6 364.139C136.688 364.139 143.382 364.139 150.568 364.139C150.568 331.555 150.568 299.364 150.568 266.386C161.397 266.386 171.733 266.386 181.873 266.386C181.873 258.51 181.873 251.225 181.873 243.449C171.241 243.449 161.003 243.449 150.765 243.449C150.765 223.071 150.765 202.989 150.765 182.611C164.055 182.611 176.951 182.611 190.24 182.611C190.24 174.736 190.24 167.549 190.24 160.068ZM363.696 182.906C371.079 182.906 377.872 182.906 384.96 182.906C384.96 174.932 384.96 167.451 384.96 160.068C363.401 160.068 342.236 160.068 321.071 160.068C321.071 167.845 321.071 175.129 321.071 182.906C328.06 182.906 334.557 182.906 342.334 182.906C342.334 243.35 342.334 303.302 342.334 363.45C350.111 363.45 356.608 363.45 363.795 363.45C363.696 303.499 363.696 243.449 363.696 182.906ZM220.954 364.139C220.954 295.722 220.954 227.698 220.954 159.477C213.768 159.477 207.074 159.477 200.38 159.477C200.38 227.895 200.38 295.918 200.38 364.139C207.271 364.139 213.965 364.139 220.954 364.139Z" fill="black"/>
<path d="M294.786 238.723C284.844 238.723 275.59 238.723 266.238 238.723C266.238 219.822 266.238 201.118 266.238 181.922C271.652 181.922 276.968 181.823 282.383 182.02C283.269 182.02 284.45 183.497 284.844 184.481C287.994 191.963 291.046 199.346 294.097 206.828C294.393 207.517 294.688 208.304 294.688 208.994C294.786 218.739 294.786 228.682 294.786 238.723Z" fill="black"/>
</g>
<defs>
<clipPath id="clip0_3_6963">
<rect width="512" height="512" fill="white"/>
</clipPath>
</defs>
</svg>
