<svg width="512" height="512" viewBox="0 0 512 512" fill="none" xmlns="http://www.w3.org/2000/svg">
<path d="M256.788 160.295C116.578 160.295 3.93848 202.437 3.93848 255.212C3.93848 307.594 117.366 350.129 256.788 350.129C396.209 350.129 509.637 307.594 509.637 255.212C510.031 203.225 396.209 160.295 256.788 160.295ZM256.788 341.858C122.88 341.858 14.5723 303.262 14.5723 255.212C14.5723 207.557 123.274 168.566 256.788 168.566C390.695 168.566 499.003 207.163 499.003 255.212C499.397 303.262 390.695 341.858 256.788 341.858ZM356.431 274.511C356.431 274.905 356.431 275.298 356.431 275.298C356.431 275.692 357.218 276.086 357.612 276.48C357.612 276.48 358.006 276.874 357.612 277.268C356.037 280.812 354.462 282.782 352.492 285.538C350.523 288.295 348.554 290.265 346.191 292.234C342.646 295.385 337.132 298.535 332.8 296.566C330.831 295.385 330.043 293.022 330.043 290.658C330.043 284.751 332.8 278.449 337.92 272.148C343.828 264.665 350.917 260.726 355.249 263.089C359.975 265.058 358.794 270.572 356.431 274.511ZM231.188 235.126C230.794 232.763 231.582 230.006 233.945 228.037C235.126 226.855 236.702 226.855 237.883 227.643C239.065 228.431 238.277 230.794 237.489 232.763C236.308 234.732 234.338 236.308 232.369 236.308C231.582 235.914 231.188 235.914 231.188 235.126ZM256.788 176.049C127.606 176.049 22.8431 211.889 22.8431 255.606C22.8431 298.929 127.606 334.769 256.788 334.769C385.969 334.769 490.732 298.929 490.732 255.212C490.732 211.495 385.969 176.049 256.788 176.049ZM136.665 307.594C122.88 307.594 110.671 299.323 109.095 284.357C108.308 276.086 110.671 268.997 115.397 262.695C119.335 257.182 126.425 252.849 132.332 251.668C134.302 251.274 136.665 251.668 137.846 252.849C139.422 254.818 139.028 256.788 137.452 257.969C133.12 260.332 127.606 264.271 124.849 269.391C122.486 273.723 122.092 279.237 125.637 283.963C131.151 292.234 146.511 292.628 161.083 279.237C164.628 276.086 167.778 272.935 170.929 268.997C177.231 261.908 179.2 259.151 187.865 247.335V246.942C187.865 246.942 187.865 246.942 187.471 246.548C181.957 246.548 176.837 248.517 172.111 252.062C170.929 253.243 168.96 252.849 167.778 251.668C166.991 250.092 167.385 248.123 168.96 247.335C176.443 241.822 185.108 241.034 193.378 239.458C193.378 239.458 194.166 239.458 194.56 238.671C198.105 234.338 200.862 230.006 204.406 225.674C208.345 220.948 213.071 217.009 216.615 213.465C221.735 209.132 225.28 207.557 228.431 205.588C229.218 205.194 228.431 204.406 228.037 204.406C209.132 200.862 189.44 196.135 170.929 203.225C157.932 207.951 152.418 218.191 155.175 225.28C157.145 230.006 163.446 230.794 169.748 228.037C174.868 225.674 179.2 221.735 182.745 216.615C184.714 213.858 188.258 215.828 186.289 220.554C180.775 233.551 170.142 243.791 157.538 244.185C146.511 244.578 139.815 236.702 139.815 226.855C139.815 207.557 161.477 194.56 184.32 192.591C211.889 190.228 237.883 197.711 265.058 200.862C285.932 203.225 306.018 203.618 326.892 198.498C329.255 198.105 331.225 199.68 330.831 202.043C330.437 205.588 327.68 209.132 320.985 213.071C313.108 217.403 304.837 218.585 296.172 218.585C275.298 218.585 256 210.708 235.914 206.375C235.914 207.163 236.308 208.345 235.52 208.738C224.492 217.009 214.252 225.28 207.557 236.702C207.163 237.095 207.557 237.095 207.951 237.095C213.858 236.702 218.978 236.702 224.492 236.308C225.28 236.308 225.28 235.914 225.28 235.126C224.886 231.188 226.068 226.462 229.612 223.311C233.157 220.16 237.883 219.766 240.64 222.129C244.185 224.886 243.791 229.612 241.822 233.157C239.852 236.702 236.702 238.671 233.945 239.852C233.945 239.852 233.157 239.852 233.551 240.64C233.551 241.428 237.883 243.791 238.277 244.578C238.671 244.972 238.277 246.154 237.883 246.548C237.489 246.942 236.702 247.335 235.914 247.335C235.126 247.335 234.732 246.942 233.945 246.548C231.975 245.366 229.612 243.791 228.431 241.822C228.037 241.034 227.643 241.034 226.462 241.034C220.554 241.428 211.495 242.215 205.194 243.003C203.618 243.003 203.618 243.397 203.225 244.185C193.378 260.332 182.745 278.055 170.929 289.871C158.326 304.049 147.692 307.594 136.665 307.594ZM405.662 228.037C403.692 231.188 366.671 287.902 364.308 293.415C363.52 295.385 363.52 296.566 364.308 297.748C366.277 300.505 370.609 298.929 373.366 296.96C381.243 291.446 386.757 284.751 393.058 278.843C393.452 278.449 393.846 278.449 394.24 278.843C395.028 279.631 396.603 280.812 397.391 281.6C397.785 281.994 397.785 282.388 397.391 282.782C391.483 290.265 384.788 296.96 378.486 302.08C368.64 309.563 358.794 311.532 353.674 306.806C351.705 304.837 350.917 302.474 350.917 300.111C350.917 298.929 350.129 298.929 349.735 299.323C343.828 305.231 333.588 311.532 324.529 306.806C316.652 302.868 315.077 293.809 316.652 285.932C316.652 285.932 316.652 284.751 315.471 285.145C313.895 286.326 311.926 287.508 309.169 288.689C306.018 289.871 304.443 290.265 301.292 290.265C297.354 290.265 294.203 288.689 291.84 284.751C290.658 282.782 289.871 279.631 289.871 277.268C289.871 276.874 289.477 276.48 289.083 277.268C282.782 286.72 276.874 296.172 270.572 306.018C270.178 306.412 269.785 306.806 269.391 306.806C265.452 306.806 261.12 306.806 257.182 306.806C256.394 306.806 256 306.412 256.394 305.625C258.757 301.292 270.572 283.963 278.843 268.997C281.206 265.058 280.812 262.695 279.237 261.908C277.662 260.726 274.117 262.302 270.966 264.665C263.089 270.572 256.394 280.025 252.849 284.357C250.88 286.72 248.911 290.658 243.791 296.172C235.52 305.231 224.492 310.351 214.252 306.806C208.345 304.837 204.406 300.111 202.831 294.597C202.437 293.415 202.043 293.022 201.255 293.809C199.68 295.778 196.135 298.929 192.985 300.898C192.591 301.292 191.803 301.686 191.015 301.292C190.228 300.898 188.258 298.142 187.865 296.96C187.471 296.172 187.865 295.778 188.258 295.385C192.591 291.84 194.56 289.477 196.529 287.508C197.711 285.932 198.892 283.963 200.074 280.812C202.437 274.511 208.345 262.695 219.766 256.394C224.098 254.031 228.431 252.455 233.551 251.668C235.52 251.274 237.489 251.668 237.883 253.243C238.277 254.031 238.671 255.606 239.065 256.394C239.458 257.182 239.065 257.575 238.277 257.969C231.582 260.726 224.886 264.665 220.16 270.966C214.646 278.055 213.465 286.72 217.009 291.446C219.766 294.991 223.705 295.778 228.037 294.203C234.338 292.234 239.458 286.72 242.215 280.025C244.972 272.935 245.76 265.058 243.397 257.575C243.003 256.394 243.397 255.212 244.185 254.818C245.76 253.637 248.123 252.455 248.517 252.062C250.092 251.274 251.668 251.668 252.455 252.849C254.818 256 256 260.726 256 265.846C256 267.028 256.394 267.028 257.182 266.24C261.12 261.908 265.058 257.575 268.997 254.031C272.935 250.88 278.055 248.517 282.388 248.517C288.295 248.517 291.446 252.849 291.052 259.938C291.052 260.726 291.84 260.726 292.234 260.332C294.203 257.575 295.385 256.394 297.354 254.818C301.686 251.274 305.625 249.698 310.351 250.092C315.865 250.486 320.197 255.606 319.409 261.12C319.015 264.665 316.652 268.209 313.502 269.785C310.745 271.36 307.2 270.966 304.837 268.997C302.868 267.422 302.474 264.665 302.868 262.302C302.868 261.908 302.474 261.12 301.686 261.908C296.172 267.422 295.778 274.511 299.323 278.055C303.262 281.6 308.775 279.237 313.108 276.48C320.985 271.36 326.892 264.665 333.588 259.151C338.314 255.606 343.434 252.455 349.342 251.668C352.492 251.274 355.643 251.274 358.794 252.849C363.126 254.425 365.489 257.969 365.883 261.12C365.883 261.908 366.671 262.302 367.065 261.514C370.215 256.394 388.332 229.612 389.908 226.855C390.302 226.068 390.695 225.674 391.877 225.674C395.815 225.674 400.935 225.674 404.48 225.674C405.662 227.249 405.662 227.643 405.662 228.037Z" fill="black"/>
</svg>
