<svg width="512" height="512" viewBox="0 0 512 512" fill="none" xmlns="http://www.w3.org/2000/svg">
<g clip-path="url(#clip0_3_6914)">
<path d="M0 230.38C0 213.381 10.5677 201.912 30.5562 201.912H160.276V226.017H34.4474C30.9248 226.017 27.7914 227.82 27.7914 233.144V273.326C27.7914 278.2 29.8394 281.354 36.2701 281.354H124.887C129.556 281.354 133.161 279.695 133.161 273.551V264.151H81.2851V241.193H160.276V278.118C160.276 295.793 147.415 305.459 127.222 305.459H30.761C11.2435 305.459 0 294.892 0 277.197V230.38ZM275.988 305.459L320.307 226.918V305.459H348.078V201.912H305.357L263.107 276.275L220.856 201.892H178.156V305.439H205.926V226.918L250.245 305.459H275.988ZM512 305.459H395.837C376.279 305.459 365.076 294.892 365.076 277.217V230.38C365.076 213.381 375.603 201.912 395.592 201.912H512V227.942H399.503C395.981 227.942 392.827 229.724 392.827 235.049V271.401C392.827 276.296 394.895 279.429 401.326 279.429H512V305.459Z" fill="black"/>
</g>
<defs>
<clipPath id="clip0_3_6914">
<rect width="512" height="512" fill="white"/>
</clipPath>
</defs>
</svg>
