<svg width="512" height="512" viewBox="0 0 512 512" fill="none" xmlns="http://www.w3.org/2000/svg">
<g clip-path="url(#clip0_3_6959)">
<path d="M374.242 82.6548C362.762 135.462 358.17 159.57 347.839 197.453C337.507 235.336 331.767 267.48 319.139 284.7C309.955 297.327 295.031 305.363 278.96 306.511C264.036 307.659 247.964 307.659 233.04 306.511C216.969 305.363 202.045 297.327 192.861 284.7C180.233 268.628 173.345 234.188 164.161 197.453C154.978 160.718 149.238 135.462 137.758 82.6548L120.538 83.8028C113.65 83.8028 107.91 84.9508 102.17 86.0987C102.17 86.0987 109.058 194.009 112.502 239.928C115.946 288.144 121.686 368.502 126.278 430.493C126.278 430.493 136.61 431.641 152.682 432.789C168.753 433.937 177.937 433.937 177.937 433.937C184.825 406.386 194.009 369.65 203.193 353.579C208.933 344.395 219.265 338.655 230.744 338.655C238.78 337.507 246.816 337.507 256 337.507C264.036 337.507 272.072 337.507 281.256 338.655C292.735 338.655 303.067 344.395 308.807 353.579C319.139 369.65 327.175 406.386 334.063 433.937C334.063 433.937 342.099 433.937 359.318 432.789C376.538 431.641 385.722 430.493 385.722 430.493C391.462 369.65 397.202 288.144 399.498 239.928C402.942 194.009 409.83 86.0987 409.83 86.0987C404.09 84.9508 398.35 84.9508 391.462 83.8028L374.242 82.6548Z" fill="black"/>
<path d="M509.704 146.942C502.816 78.0629 456.897 64.2871 416.717 57.3992C390.314 53.9552 363.91 51.6593 337.507 50.5113C316.843 49.3633 269.776 48.2153 256 48.2153C242.224 48.2153 194.009 49.3633 174.493 50.5113C146.942 50.5113 120.538 52.8073 94.1345 57.3992C53.9552 64.2871 8.03588 79.2108 1.14798 146.942C-1.14798 169.901 -1.14798 192.861 -1.14798 215.821C-1.14798 246.816 1.14798 277.812 5.73991 308.807C8.03588 335.211 13.7758 360.466 20.6637 386.87C30.9955 416.718 40.1794 425.901 50.5112 433.937C68.8789 446.565 88.3946 453.453 110.206 456.897C206.637 467.229 303.067 467.229 399.498 456.897C421.309 453.453 440.825 446.565 459.193 433.937C470.673 424.753 479.856 416.718 489.04 386.87C495.928 361.614 501.668 335.211 503.964 308.807C507.408 277.812 509.704 246.816 510.852 215.821C512 192.861 510.852 169.901 509.704 146.942ZM484.448 261.74C483.3 299.623 477.561 336.359 468.377 373.094C464.933 390.314 455.749 405.238 443.121 417.866C425.901 431.641 405.238 439.677 384.574 440.825C298.475 450.009 212.377 450.009 126.278 440.825C104.466 439.677 84.9507 431.641 67.7309 417.866C55.1031 405.238 47.0673 390.314 42.4753 373.094C33.2915 336.359 28.6996 299.623 26.4036 261.74C24.1076 223.857 24.1076 184.825 27.5516 146.942C34.4395 103.318 55.1032 82.6548 101.022 74.6189C126.278 70.027 152.682 67.731 177.937 66.583C199.749 65.4351 235.336 64.2871 256 64.2871C276.664 64.2871 312.251 64.2871 334.063 66.583C359.318 67.731 385.722 70.027 410.978 74.6189C456.897 82.6548 477.561 104.466 483.3 146.942C485.596 184.825 486.744 223.857 484.448 261.74Z" fill="black"/>
</g>
<defs>
<clipPath id="clip0_3_6959">
<rect width="512" height="512" fill="white"/>
</clipPath>
</defs>
</svg>
