<svg width="512" height="512" viewBox="0 0 512 512" fill="none" xmlns="http://www.w3.org/2000/svg">
<g clip-path="url(#clip0_3_6974)">
<path d="M499.367 327.196H480.417C469.86 327.467 464.626 321.782 462.37 319.887C396.227 272.243 272.874 218.101 161.703 180.653C147.356 176.231 126.06 173.163 112.705 173.163C99.4403 173.163 93.0335 172.08 79.2274 172.622C65.9626 173.163 52.1565 175.419 44.3962 177.585C36.6359 179.841 19.2203 184.262 18.4082 194.82C11.7307 199.873 4.96299 206.641 2.2559 209.438C-0.54142 212.235 -1.44378 217.65 4.06063 223.695C9.56503 229.832 16.2425 235.877 20.6641 233.17C25.0857 230.463 24.0028 227.034 25.6271 223.695C27.2513 220.357 32.846 215.394 38.3504 221.44C43.8548 227.576 40.4258 230.192 37.2675 233.08C34.2897 235.787 28.4244 240.84 32.3045 245.803C36.1847 250.766 40.6063 252.481 46.6521 248.059C51.0737 244.811 63.0751 237.953 70.0233 234.073C71.7378 233.08 73.8132 230.553 81.393 233.621C89.5143 236.78 102.147 242.374 107.471 245.262L96.0113 250.496C89.9655 254.376 84.6415 265.294 84.1001 269.265C83.5587 275.401 85.7244 284.063 94.0261 291.282H111.893L122.721 275.762L121.909 274.137C135.715 272.513 173.344 283.883 191.03 276.935C203.212 281.898 224.778 284.695 264.572 280.815C271.791 280.274 281.627 278.74 287.673 286.68C293.989 294.892 324.85 327.467 334.866 330.806C344.883 334.145 386.301 334.145 397.129 336.04C406.424 337.754 410.123 336.04 417.884 344.883L434.487 359.591C436.382 361.847 442.247 366.088 448.835 366.088H460.295C466.972 365.547 470.491 360.854 472.206 355.26H500.45C509.293 355.26 512.09 347.319 512.09 340.1C512 333.062 507.127 327.196 499.367 327.196ZM499.547 348.673H472.838C471.304 336.852 462.641 335.227 457.588 334.957C452.715 334.686 449.015 332.701 446.759 331.347C446.759 331.347 428.802 315.285 423.839 309.961C418.876 304.728 415.538 303.013 410.845 303.013C410.845 303.013 397.851 303.013 394.513 303.013C391.174 303.013 387.294 303.284 381.789 295.794C376.285 288.305 362.118 276.393 358.599 273.867C355.079 271.34 354.177 274.137 356.343 276.123C358.238 278.108 367.442 283.883 372.946 293.087C378.451 302.201 383.143 306.983 387.023 308.878C390.362 311.134 400.558 310.864 406.694 310.864C412.74 310.864 414.996 311.405 419.959 316.368C424.922 321.331 436.292 331.347 439.36 334.686C442.428 338.025 447.662 341.093 455.151 341.093C462.641 341.093 466.25 345.785 465.98 350.207C465.709 354.357 463.453 359.05 460.204 359.05H448.293C446.398 359.05 441.977 356.252 440.804 355.17C436.924 352.372 427.268 344.071 421.674 338.205C416.079 332.34 410.575 330.716 403.175 329.633C395.776 328.55 364.735 327.106 357.786 326.835C350.838 326.565 340.371 326.565 332.881 321.872C325.572 317.27 296.336 285.237 291.373 279.461C285.597 272.784 276.845 273.596 271.611 273.506C219.906 279.191 201.497 273.957 195.993 270.618L201.407 261.324C217.559 265.114 239.758 261.504 242.735 260.602C245.803 259.79 245.262 256.722 242.194 257.263C235.246 258.075 205.107 254.466 202.129 253.925C201.858 246.164 184.443 222.883 182.187 218.372C179.931 213.95 181.916 211.153 184.082 209.258C186.338 207.272 186.338 204.836 184.353 204.836C176.321 205.648 174.427 212.055 176.051 219.815C177.675 227.576 194.82 250.044 193.737 255.368C192.654 260.602 187.421 268.001 184.353 271.069C169.373 274.679 136.257 265.836 117.127 266.377C109.817 266.558 111.081 272.874 113.698 275.13L107.652 283.973H98.8988C94.2066 282.62 92.4921 275.401 91.6799 271.791C91.8604 269.445 93.5749 262.678 99.4403 257.624C111.171 247.518 158.094 252.12 162.245 252.12C166.396 252.12 165.313 250.135 162.786 249.323C158.364 248.24 144.919 244.63 137.069 244.36C135.264 239.126 131.925 235.336 130.842 230.192C129.94 225.771 131.113 220.357 132.647 217.018C134.723 210.611 130.301 211.604 128.767 213.409C126.692 216.477 121.458 223.244 121.187 228.207C120.916 233.17 126.06 242.104 127.413 244.269C124.887 244.269 120.465 244.54 118.57 244.54C105.125 233.17 81.1223 225.5 76.43 223.876C77.2422 221.62 78.5055 219.274 79.3176 216.567C80.1297 213.77 81.8442 214.311 83.7392 214.943C86.5365 216.296 99.5305 221.079 103.681 222.703C107.832 224.327 111.712 223.515 113.607 221.891C115.502 220.267 121.909 214.672 124.706 210.792C127.504 206.912 123.082 206.641 121.368 208.536C116.134 213.409 108.374 216.025 104.223 215.213C100.072 214.401 86.8072 207.724 83.4685 205.468C75.9789 202.129 73.2718 207.453 72.3694 210.431C67.4967 224.417 59.6461 231.095 53.9612 235.246C52.337 236.599 44.8474 241.021 42.5915 242.465C40.6965 243.728 39.4332 241.652 40.2453 240.389C41.8696 239.126 48.0056 232.9 48.3666 230.644C49.7201 222.613 47.5545 219.996 44.2157 216.386C40.877 212.777 36.6359 211.514 31.6729 211.514C26.7099 211.514 22.0176 216.116 20.3031 217.74C18.5886 219.364 20.7543 222.703 17.957 224.688C15.1597 226.673 12.0014 221.53 10.3772 219.274C13.9866 215.123 13.7159 213.138 12.9038 209.258C14.0768 208.355 15.9718 206.19 18.3179 204.114C20.2129 205.197 24.0931 205.738 26.6197 205.197C40.0649 204.114 42.411 205.648 45.3888 207.002C48.4568 208.355 49.3592 206.46 48.2764 204.475C46.8326 201.858 45.6595 200.866 42.8622 198.068L48.2764 196.444C54.3222 196.444 60.4582 198.7 63.5263 198.971C66.5943 199.241 68.4892 199.241 69.5721 196.986C71.467 191.12 75.0765 190.037 77.6031 189.225C80.1297 188.413 82.0247 186.157 79.859 185.616H74.3546C69.6623 185.887 69.3916 187.601 67.9478 189.225C66.5943 190.85 64.8798 192.835 61.2704 192.293C57.6609 191.752 50.0811 190.489 45.6595 190.759C42.2305 190.94 37.2675 194.549 27.522 194.188C31.4022 184.443 67.3162 180.563 74.2644 180.292C120.195 178.307 129.85 180.563 150.875 184.984C171.9 189.406 203.483 199.783 264.121 223.876C321.692 246.796 433.404 303.103 459.212 326.114C460.656 327.557 469.138 333.513 478.613 333.513H498.555C503.518 333.513 504.871 338.115 504.871 340.281C504.962 342.717 503.698 348.673 499.547 348.673Z" fill="black"/>
</g>
<defs>
<clipPath id="clip0_3_6974">
<rect width="512" height="512" fill="white"/>
</clipPath>
</defs>
</svg>
