<svg width="512" height="512" viewBox="0 0 512 512" fill="none" xmlns="http://www.w3.org/2000/svg">
<path d="M186.655 189.44C170.332 189.44 154.522 194.642 143.872 205.046C133.222 215.429 127.857 229.806 127.857 248.177C127.857 287.007 156.57 307.098 189.911 307.098C211.681 307.098 234.598 295.055 243.507 272.364H211.026C208.753 279.552 196.362 283.32 190.28 283.32C182.804 283.32 176.517 280.904 171.479 276.05C166.441 271.237 163.84 264.458 163.615 255.775H245.248C246.047 214.487 224.543 189.399 186.655 189.44ZM162.284 236.892C162.222 228.864 164.475 222.556 169.021 217.907C173.568 213.238 179.343 210.903 186.348 210.903C192.881 210.903 198.451 213.115 203.018 217.518C207.565 221.942 209.94 228.393 210.166 236.892H162.284Z" fill="black"/>
<path d="M318.136 189.461C301.814 189.461 286.003 194.662 275.354 205.066C264.704 215.491 259.338 229.847 259.338 248.238C259.338 287.068 288.01 307.159 321.372 307.159C343.142 307.159 366.06 295.117 374.968 272.425H342.487C340.214 279.614 327.823 283.382 321.741 283.382C314.266 283.382 307.978 280.965 302.94 276.111C297.902 271.299 295.301 264.52 295.076 255.836H376.709C377.467 214.528 356.004 189.461 318.136 189.461ZM293.704 236.933C293.622 228.905 295.895 222.597 300.442 217.948C304.988 213.279 310.764 210.944 317.768 210.944C324.321 210.944 329.871 213.156 334.438 217.559C338.985 221.962 341.361 228.434 341.586 236.933H293.704Z" fill="black"/>
<path d="M73.3594 249.508C73.3594 267.797 71.4138 273.941 57.7946 274.227C35.9424 274.678 40.8576 259.338 40.0998 243.835H1.8432C1.92512 277.668 15.5853 309.105 53.2685 308.347C91.8938 307.569 110.899 289.853 110.899 247.48V147.907H73.3594V249.508Z" fill="black"/>
<path d="M460.493 187.597C446.341 187.597 432.415 194.806 423.67 207.585V191.304L392.212 191.898V344.842L427.008 345.436V289.608C437.33 299.807 448.143 306.975 462.09 306.975C492.38 306.975 509.358 284.242 509.358 246.682C509.358 213.647 490.23 187.597 460.493 187.597ZM466.002 273.736C460.493 279.224 457.789 281.334 449.515 281.334C432.968 281.334 426.312 262.799 425.718 245.432C425.308 232.653 431.677 212.562 448.881 212.562C457.257 212.562 460.083 215.368 465.736 220.979C471.429 226.611 474.296 235.233 474.296 246.866C474.296 259.297 471.511 268.288 466.002 273.736Z" fill="black"/>
</svg>
