<svg width="512" height="512" viewBox="0 0 512 512" fill="none" xmlns="http://www.w3.org/2000/svg">
<path d="M455.782 175.657C394.588 144.773 325.591 131.318 257.27 131.318C188.375 131.318 116.552 142.07 55.5827 175.657C30.0237 189.809 1.63843 214.569 1.63843 246.129C1.63843 277.34 29.5731 303.247 55.3779 316.252C116.675 347.239 185.795 360.591 254.218 360.591C323.093 360.591 394.936 349.839 455.885 316.375C481.219 302.469 509.727 277.811 509.727 246.354C509.727 214.794 482.017 188.785 455.782 175.657ZM165.642 305.623L124.006 255.509H122.757V305.623H90.3987V193.884H83.2717V186.409H122.757V228.373H124.006L158.167 186.409H194.58L149.34 242.053L201.83 305.623H165.642ZM269.251 305.623H236.913V194.335H229.908V186.081H269.271V305.623H269.251ZM394.363 305.623L367.78 227.697L341.094 305.623H305.807L344.596 193.864H338.268V186.511H388.157L428.769 305.623H394.363Z" fill="black"/>
</svg>
