<svg width="512" height="512" viewBox="0 0 512 512" fill="none" xmlns="http://www.w3.org/2000/svg">
<path d="M256 119.296C115.2 119.296 1.024 176.128 1.024 246.272C1.024 316.416 115.2 373.248 256 373.248C396.8 373.248 510.976 316.416 510.976 246.272C510.976 176.128 396.8 119.296 256 119.296ZM256 362.496C121.344 362.496 12.8 310.784 12.8 246.272C12.8 181.76 121.344 130.048 256 130.048C390.656 130.048 499.2 182.272 499.2 246.272C499.2 310.272 390.656 362.496 256 362.496Z" fill="black"/>
<path d="M256 134.656C123.904 134.656 16.896 184.832 16.896 246.272C16.896 307.712 123.904 357.888 256 357.888C388.096 357.888 495.104 307.712 495.104 246.272C495.104 184.832 388.096 134.656 256 134.656ZM357.376 220.672L381.952 209.92H360.448L366.08 194.048H407.552L402.432 209.92L355.84 225.792L357.376 220.672ZM323.584 169.472C329.216 169.472 335.36 171.008 340.48 173.568C345.088 176.64 348.672 181.76 349.184 187.392C349.696 195.072 348.672 202.752 345.6 209.92C342.528 217.088 337.408 223.232 331.264 227.84C325.632 231.936 318.976 233.984 311.808 233.984H282.112L302.08 175.616C302.592 173.568 302.592 171.52 302.08 168.96L323.584 169.472ZM238.592 176.128C239.616 174.08 239.616 171.52 238.592 169.472H258.048L263.68 198.656L273.92 169.472H292.352L268.8 233.984H250.88L245.76 205.824L234.496 233.984H218.112L238.592 176.128ZM190.976 169.472H210.944L214.528 233.984H196.096L195.072 225.792H176.64L170.496 233.984H152.064L189.952 175.616C190.976 174.08 191.488 171.52 190.976 169.472ZM128.512 176.128C129.024 174.08 129.024 171.52 128.512 169.472H150.528L133.632 219.648H152.576L146.432 234.496H108.032L128.512 176.128ZM125.952 269.824L119.808 285.696H77.824L83.968 269.824L130.56 253.952L128.512 259.072L103.936 269.312L125.952 269.824ZM194.56 272.896C193.024 276.992 190.464 280.064 186.88 282.624C183.808 285.184 179.712 286.72 175.616 287.232L188.416 311.296H169.472L157.184 288.256L148.992 311.296H130.048L151.04 252.928C152.064 250.88 152.064 248.32 151.04 246.272H177.152C181.248 246.272 185.344 247.296 189.44 249.344C192 250.368 194.048 252.416 195.584 254.976C197.632 261.12 197.632 267.776 194.56 272.896ZM251.392 297.472C247.296 302.592 242.176 306.688 236.032 309.76C230.4 312.32 224.256 312.832 218.112 312.32C208.896 310.272 201.728 303.104 199.68 293.888C198.144 287.232 198.144 280.576 200.192 274.432C204.288 261.632 214.016 251.392 226.304 246.784C233.984 244.224 242.176 245.76 248.832 249.856C253.952 253.44 257.536 258.56 258.56 264.704C261.632 275.968 259.072 288.256 251.392 297.472ZM266.752 311.808L265.728 253.44C265.728 251.392 265.216 248.832 264.192 246.784H284.16V281.6L307.712 246.784H329.216L281.088 312.32L266.752 311.808ZM351.744 311.808H310.784L330.752 254.976C331.776 252.416 331.776 249.344 330.752 246.784H374.272L369.664 261.12H348.16L344.576 272.384H360.96L355.84 286.72H339.968C338.432 290.304 337.408 293.888 336.384 297.984H357.888L351.744 311.808ZM424.96 272.896C423.424 276.992 420.864 280.576 417.28 282.624C414.208 285.184 410.112 286.72 406.016 287.232L418.816 311.296H399.872L387.584 288.256L379.392 311.296H360.448L381.44 252.928C382.464 250.88 382.464 248.32 381.44 246.272H407.552C411.648 246.272 415.744 247.296 419.328 249.344C421.888 250.368 423.936 252.416 425.472 254.976C427.52 261.12 427.52 267.264 424.96 272.896Z" fill="black"/>
<path d="M314.88 218.112C316.928 217.088 318.464 216.064 320 214.528C322.56 211.968 324.608 208.896 325.632 205.312C328.192 198.656 331.776 185.856 323.584 185.856H318.976L307.2 219.136H311.808C312.832 219.136 313.856 218.624 314.88 218.112Z" fill="black"/>
<path d="M401.408 262.656H397.312L393.728 273.408H398.848C405.504 273.408 412.16 262.656 401.408 262.656Z" fill="black"/>
<path d="M171.008 262.656H166.912L163.328 273.408H168.448C176.128 273.408 181.76 262.656 171.008 262.656Z" fill="black"/>
<path d="M195.072 211.456L194.048 197.632L185.856 211.456H195.072Z" fill="black"/>
<path d="M225.792 265.728C221.696 270.336 219.136 276.48 218.624 282.624C218.112 286.208 218.624 289.792 219.648 292.864C221.184 296.448 225.792 297.984 229.376 295.936C230.4 295.424 231.424 294.912 231.936 293.888C238.08 287.232 241.152 278.016 239.616 268.8C239.104 264.704 235.008 261.632 230.912 262.656C228.352 263.168 226.816 264.192 225.792 265.728Z" fill="black"/>
</svg>
