<svg width="512" height="512" viewBox="0 0 512 512" fill="none" xmlns="http://www.w3.org/2000/svg">
<g clip-path="url(#clip0_3_7288)">
<path d="M256 437.041C340.748 437.041 415.958 407.425 462.557 361.83L420.559 361.997C380.905 395.378 322.844 416.376 257.088 416.376C134.358 416.376 38.6509 343.258 38.6509 253.072C38.6509 148.999 134.442 89.7673 257.088 89.7673C264.868 89.7673 271.142 93.3647 266.457 100.141C240.941 130.844 168.324 229.647 155.106 251.064C129.004 293.229 129.589 345.182 193.589 348.863H462.64C476.361 348.863 479.874 342.421 484.81 335.728C502.797 311.383 512 282.855 511.916 253.156C511.833 175.603 457.286 117.542 377.056 88.9307L364.674 107.503C431.352 132.099 475.44 181.877 475.44 253.156C475.44 265.537 473.6 277.584 470.17 289.213C467.158 299.252 461.386 307.786 450.342 307.786H235.671C208.146 307.786 218.771 279.425 228.978 265.621C243.786 239.101 324.685 128.837 344.178 108.256C349.114 100.727 363.085 85.0823 343.843 79.1425C316.486 72.617 286.871 69.2706 256 69.2706C114.614 69.1869 0.0835838 141.804 -7.63335e-05 253.072C-0.0837365 365.427 114.614 437.041 256 437.041Z" fill="black"/>
</g>
<defs>
<clipPath id="clip0_3_7288">
<rect width="512" height="512" fill="white"/>
</clipPath>
</defs>
</svg>
