<svg width="512" height="512" viewBox="0 0 512 512" fill="none" xmlns="http://www.w3.org/2000/svg">
<path d="M289.688 156.926C289.688 145.555 280.591 144.702 280.591 144.702H257.564V150.672L270.641 150.956C270.641 150.956 274.337 146.976 278.317 151.809C282.297 156.358 282.865 158.632 282.865 158.632C282.865 158.632 283.434 167.161 275.758 159.769C267.514 152.662 257.848 155.789 257.848 155.789V170.856H280.875C280.591 171.141 289.688 169.151 289.688 156.926Z" fill="black"/>
<path d="M194.736 289.404C193.031 287.414 190.188 285.424 186.776 284.286C181.091 282.865 175.689 284.286 170.572 288.835C165.455 293.384 161.19 300.491 158.348 310.157C156.926 314.137 155.505 318.685 154.936 321.812C154.368 325.792 154.368 329.488 154.652 332.331C154.936 335.458 156.073 338.301 158.063 340.575C159.485 342.565 162.043 344.271 165.17 345.124C168.582 346.261 171.425 346.261 174.552 345.124C176.826 344.555 179.385 343.134 181.375 340.575C183.649 337.732 185.923 335.174 188.198 331.478C189.903 328.067 191.893 324.371 193.599 319.822C194.736 316.127 195.589 312.147 197.011 308.735C197.579 304.755 197.579 301.059 197.295 297.932C197.011 294.521 196.158 291.678 194.736 289.404Z" fill="black"/>
<path d="M234.252 164.033C230.272 168.582 230.272 171.141 230.272 171.141H241.928V158.916C241.928 158.632 237.095 159.485 234.252 164.033Z" fill="black"/>
<path d="M227.145 158.632C234.252 153.515 242.212 151.525 242.212 151.525C242.212 151.525 243.918 144.986 238.801 145.555C233.683 145.839 229.135 146.123 229.135 146.123C229.135 146.123 226.292 146.123 224.586 150.103C222.312 154.083 212.362 171.709 212.362 171.709L217.479 171.993C217.479 171.993 220.322 164.033 227.145 158.632Z" fill="black"/>
<path d="M258.132 181.943L258.701 210.088C258.701 210.088 269.219 212.078 277.179 205.539C285.139 199.001 283.149 199.853 283.149 199.853C283.149 199.853 284.286 198.716 286.845 200.422C289.688 202.412 285.708 207.529 285.708 207.529C285.708 207.529 282.865 211.793 275.758 216.058C268.082 219.753 260.122 220.322 260.122 220.322L259.838 224.302C259.838 224.302 264.955 227.145 272.915 227.145C280.591 226.861 282.581 226.008 282.581 226.008C282.581 226.008 297.648 221.459 297.648 203.833C297.648 186.208 280.022 182.512 280.022 182.512H258.132V181.943Z" fill="black"/>
<path d="M255.858 2.27441C116.273 2.27441 2.27429 116.273 2.27429 256.142C2.27429 395.727 116.273 509.726 255.858 509.726C395.727 509.726 509.726 395.727 509.726 256.142C509.726 116.273 395.727 2.27441 255.858 2.27441ZM258.985 409.941C104.049 413.353 38.9472 329.488 38.9472 329.488C38.9472 329.488 8.24431 280.022 40.0844 242.781C71.9245 206.108 180.806 85.5704 180.806 85.5704C180.806 85.5704 210.372 50.6031 252.731 49.466C295.942 48.3288 321.244 74.7675 321.244 74.7675L470.21 237.948C470.21 237.948 495.796 268.367 484.424 301.344C473.337 334.037 413.921 407.098 258.985 409.941Z" fill="black"/>
<path d="M315.558 88.129C315.558 88.129 293.668 62.5432 253.868 63.6804C214.352 64.2489 188.482 99.2162 188.482 99.2162C188.482 99.2162 85.8545 215.205 56.573 249.035C27.2915 282.865 56.573 321.812 56.573 321.812C56.573 321.812 116.557 396.864 259.269 394.306C401.697 390.894 458.554 326.645 468.504 296.511C479.023 266.945 450.878 240.507 451.731 240.791L315.558 88.129ZM151.809 229.135C151.809 229.135 164.033 228.851 168.013 222.312C171.993 216.342 177.963 206.961 177.963 206.961C177.963 206.961 174.268 186.492 175.12 177.679C175.689 169.151 182.228 123.381 217.763 108.313C253.299 93.5304 288.551 105.47 288.551 105.47C288.551 105.47 294.805 109.166 299.638 105.47C304.187 101.775 305.892 98.3633 309.588 105.186C312.715 112.009 319.822 123.381 319.822 123.381C319.822 123.381 323.234 133.331 308.735 125.086C293.952 116.558 270.356 111.725 270.356 111.725L258.985 111.156C258.985 111.156 233.684 107.176 214.352 127.361C195.589 146.976 197.295 173.415 197.295 173.415L214.068 149.251C214.068 149.251 216.058 147.829 215.205 144.702C214.068 141.859 214.068 141.006 214.068 141.006V136.458L287.129 135.889C287.129 135.889 306.745 135.036 306.745 155.221C306.745 175.405 293.099 176.542 293.099 176.542C293.099 176.542 314.137 181.091 314.137 204.402C314.137 228.282 289.119 234.537 289.119 234.537L234.252 233.968C234.252 233.968 229.704 230.272 234.536 228.282C239.654 226.577 242.212 225.439 242.212 222.881C242.212 220.038 242.212 220.038 242.212 220.038C242.212 220.038 230.556 218.901 222.028 208.382C213.783 198.432 215.773 181.944 215.773 181.944L204.971 181.659L198.148 192.178C198.148 192.178 201.559 218.048 214.068 229.704C226.292 241.359 235.105 251.878 264.955 250.457C294.805 249.319 316.695 233.968 316.695 233.968L322.381 228.851C322.381 228.851 324.371 224.302 328.919 227.145C333.184 229.135 324.371 238.232 324.371 238.232C324.371 238.232 306.177 262.681 259.838 265.239C215.205 267.798 183.649 223.165 183.365 218.048C181.943 220.322 177.679 226.861 181.375 228.851C186.492 231.694 183.649 235.674 183.649 235.674L150.388 235.958C150.388 235.958 148.398 237.095 148.398 232.547C148.113 228.851 151.809 229.135 151.809 229.135ZM87.5603 302.197C87.8445 303.334 88.6974 304.187 90.4031 305.892C91.8246 307.03 93.8146 308.167 96.3731 310.441C98.6474 312.147 101.49 314.137 104.333 315.558C106.607 316.695 108.882 317.548 110.587 317.264C113.43 317.264 115.989 316.127 119.969 314.99C123.665 313.568 126.223 312.147 129.066 310.441L132.762 312.715L118.263 331.763L54.583 285.992L56.8573 282.865C57.9945 283.434 59.7002 284.002 60.8373 285.14C62.8273 285.708 63.9645 286.561 64.5331 286.561C65.6702 286.845 66.8073 286.845 68.2288 286.561C69.0816 286.277 69.9345 285.424 71.0716 284.571L99.5003 240.791C100.353 239.654 100.637 239.085 100.922 237.948C100.922 236.811 100.637 235.958 99.5003 234.252C98.9317 233.115 97.7946 231.409 96.6574 230.557C95.5203 229.419 94.3831 228.567 93.246 227.714L95.236 224.018L133.33 251.594L130.772 255.289C129.635 255.005 128.782 254.152 126.792 253.299C125.37 252.731 123.949 252.162 122.812 251.594C121.39 251.025 119.969 251.025 119.116 251.309C117.979 251.878 117.41 252.447 116.842 253.584L90.1188 293.952C88.9817 295.658 88.1288 297.648 87.8445 298.501C87.276 299.922 87.276 301.06 87.5603 302.197ZM212.931 324.655C211.225 329.773 208.666 334.037 205.255 338.017C201.843 341.713 198.432 344.84 194.168 347.114C189.619 349.957 184.786 351.094 179.385 351.947C174.268 352.231 168.582 351.947 162.612 349.957C157.495 348.82 152.662 346.261 149.25 343.703C145.27 340.86 142.143 337.733 139.869 333.753C137.595 329.773 135.889 325.224 135.605 320.675C135.32 316.127 135.889 311.01 137.595 305.608C139.585 300.207 142.143 295.658 145.839 291.962C149.535 287.982 153.515 284.855 157.495 282.581C162.328 280.591 166.876 279.17 172.278 278.601C177.395 278.317 182.228 278.885 187.629 280.307C192.746 281.728 197.295 284.002 201.559 286.845C205.823 289.688 208.382 292.815 210.941 296.227C212.931 300.207 214.636 304.755 214.921 309.588C215.773 314.137 214.921 319.254 212.931 324.655ZM280.591 306.461C280.022 303.05 278.316 299.922 276.042 296.795C274.052 293.1 272.062 291.394 270.356 291.394C269.219 291.11 268.366 291.11 266.661 291.11C265.524 291.11 263.818 291.11 262.681 291.11H260.691L261.828 346.83C261.828 347.967 261.828 348.82 262.112 349.673C262.681 350.81 263.249 351.378 264.386 351.663C265.239 351.947 266.376 352.231 267.798 352.8C269.219 352.8 270.641 353.084 271.778 353.084V357.064L235.389 357.633V353.653C236.242 353.653 237.379 353.368 239.085 353.368C240.791 353.084 241.928 353.084 242.496 352.8C243.634 351.947 244.486 351.378 244.771 350.81C245.055 349.673 245.055 348.82 245.055 347.398L244.202 291.394H242.212C241.075 291.394 239.369 291.394 238.232 291.394C236.811 291.678 235.389 291.678 234.536 291.678C232.831 291.962 230.841 293.952 228.851 297.364C227.145 301.06 225.439 304.187 224.302 307.314H220.606L220.322 286.845L283.718 285.708L284.287 306.461H280.591ZM361.044 285.424L367.867 310.157C369.572 317.832 368.435 324.371 364.455 329.773C359.907 335.743 353.937 340.291 345.408 342.85C335.458 345.693 326.645 345.693 320.107 342.85C313.284 340.575 309.019 334.89 307.029 327.498L297.932 293.384C297.648 291.962 296.795 291.394 296.795 290.541C295.942 289.688 294.805 289.404 293.384 289.12C292.247 289.12 291.394 289.12 289.688 289.12C288.835 289.12 287.698 289.404 286.561 289.404L285.708 285.708L322.665 275.474L323.518 279.17C322.665 279.454 321.528 280.022 320.391 280.307C319.538 280.875 318.401 281.444 317.264 282.012C316.127 282.865 315.558 284.002 315.274 284.855C315.274 285.992 315.274 286.845 315.558 288.267L324.087 322.097C325.792 328.351 328.635 333.184 332.615 335.174C336.595 337.164 341.428 337.448 347.398 335.743C353.084 334.605 357.064 331.194 359.338 327.214C362.181 322.665 362.181 317.264 360.475 311.01L354.505 288.267C353.368 284.287 352.515 281.444 351.378 279.454C350.241 277.748 349.388 276.042 347.682 275.758C346.545 275.19 344.84 275.19 342.565 275.19C340.291 275.19 338.585 275.19 337.448 275.474L336.88 271.778L367.298 262.681L368.151 266.092C367.014 266.377 365.877 267.229 364.171 268.082C362.465 268.651 361.044 269.788 359.907 270.925C358.77 272.062 358.485 273.768 358.485 276.042C358.485 278.317 359.907 281.444 361.044 285.424ZM444.34 288.551C442.634 291.962 440.076 294.805 437.517 297.932C435.243 301.06 431.263 303.618 426.43 306.745C421.881 309.02 417.901 311.294 413.353 312.147C408.804 313.284 405.393 314.137 402.265 314.421L400.56 318.97L396.011 321.812L384.071 300.491L388.335 298.217C390.325 299.922 393.168 301.344 395.443 302.481C398.285 303.902 400.844 305.324 403.971 305.892C407.098 306.461 409.941 307.03 413.068 306.461C416.48 306.177 419.607 305.324 423.018 303.05C427.567 300.207 430.694 297.364 432.115 293.952C433.253 290.825 433.253 287.982 432.115 284.855C430.978 282.865 428.704 281.16 426.145 280.875C423.303 280.591 419.323 280.875 414.49 282.012C411.078 283.15 408.52 284.002 405.677 284.855C402.834 285.424 400.56 285.992 397.717 286.561C392.6 287.698 387.767 287.698 383.502 285.992C379.522 284.571 376.68 281.444 374.405 278.032C373.268 275.19 372.7 272.915 372.7 270.072C372.984 267.229 373.837 264.671 375.543 261.259C376.395 258.417 378.67 255.574 381.512 252.731C384.64 249.319 388.051 247.045 392.031 244.771C396.011 241.928 399.991 240.791 403.687 239.654C407.667 238.517 410.794 237.948 413.353 237.948L414.774 233.399L419.323 230.557L430.41 250.457L425.861 252.731C423.871 251.594 421.313 249.888 419.038 248.182C416.195 246.761 413.921 245.339 411.931 244.771C409.088 244.202 406.814 244.202 403.971 244.487C401.128 244.487 398.57 245.624 395.443 247.614C391.747 249.319 389.473 251.878 387.767 255.289C386.63 258.132 386.63 260.975 387.767 263.818C388.904 265.808 390.894 267.514 393.737 267.798C396.58 268.082 399.991 267.798 405.108 266.661C407.951 266.092 410.794 265.239 413.637 263.818C416.48 263.249 419.038 262.681 421.597 262.112C427.567 260.975 432.115 260.975 436.095 262.112C440.076 263.534 443.203 266.661 445.477 270.641C446.614 272.915 447.183 275.758 447.183 279.17C446.614 282.297 445.761 285.708 444.34 288.551Z" fill="black"/>
</svg>
