<svg width="512" height="512" viewBox="0 0 512 512" fill="none" xmlns="http://www.w3.org/2000/svg">
<path d="M300.314 426.439H212.027V448.256H300.314V426.439Z" fill="black"/>
<path d="M289.065 457.118H222.594V502.455H289.065V457.118Z" fill="black"/>
<path d="M386.557 325.539H125.103V336.106H386.557V325.539Z" fill="black"/>
<path d="M400.533 346.333H111.126V356.9H400.533V346.333Z" fill="black"/>
<path d="M400.533 305.768H111.126V316.335H400.533V305.768Z" fill="black"/>
<path d="M302.019 380.761C287.361 394.056 287.361 417.917 287.361 417.917H255.659H224.639C224.639 417.917 224.639 394.056 209.981 380.761C199.755 371.558 187.142 369.512 187.142 369.512C178.961 368.149 178.961 366.785 178.961 366.104H249.523H269.294H331.675C331.675 366.104 331.675 367.467 323.494 369.512C324.176 369.512 311.563 371.558 302.019 380.761Z" fill="black"/>
<path d="M126.466 367.126C129.875 367.126 153.736 367.126 157.486 367.126C157.486 385.875 145.214 394.397 126.466 389.965C126.466 377.353 126.466 372.581 126.466 367.126Z" fill="black"/>
<path d="M237.933 66.4712C250.546 41.9279 252.591 4.43121 255.659 4.09033C259.068 4.77209 260.772 42.2688 273.385 66.4712C285.656 89.6509 310.541 109.763 309.518 111.808C307.473 114.535 293.838 107.377 286.679 103.627C275.43 98.5138 265.885 94.4232 265.885 94.4232C265.885 94.4232 261.454 153.395 276.112 208.277C288.383 252.932 315.654 294.178 318.722 297.246H282.929C281.566 295.201 280.884 293.156 279.521 292.133C269.294 274.748 262.818 259.749 256.341 234.184C249.864 260.09 242.706 274.748 232.479 292.133C231.116 294.178 230.434 296.223 229.071 297.246H193.278C196.005 293.837 223.616 252.591 235.888 208.277C250.546 153.736 246.114 94.4232 246.114 94.4232C246.114 94.4232 236.911 98.5138 225.321 103.627C218.162 107.036 203.846 114.194 202.141 111.808C200.778 109.763 226.344 89.9918 237.933 66.4712Z" fill="black"/>
<path d="M125.103 297.587C125.103 293.156 122.375 233.161 108.399 185.779C93.0599 133.965 61.6991 103.627 63.7443 99.8775C65.7896 97.1505 91.0147 102.605 110.445 115.217C131.238 128.852 151.009 152.373 149.646 154.418C148.964 155.782 141.465 149.987 128.852 145.214C115.558 140.783 109.422 141.124 109.422 141.124C109.422 141.124 131.238 177.598 142.487 216.799C151.691 249.864 156.123 292.474 156.123 296.565H124.08V297.246L125.103 297.587Z" fill="black"/>
<path d="M386.897 297.587C386.897 293.156 389.625 233.161 403.601 185.779C418.94 133.965 450.301 103.627 448.256 99.8775C446.21 97.1505 420.985 102.605 401.555 115.217C380.762 128.852 360.991 152.373 362.354 154.418C363.036 155.782 370.535 149.987 383.148 145.214C396.442 140.783 402.578 141.124 402.578 141.124C402.578 141.124 380.762 177.598 369.513 216.799C360.309 249.864 355.878 292.474 355.878 296.565H387.92V297.246L386.897 297.587Z" fill="black"/>
<path d="M385.193 367.126C381.784 367.126 357.923 367.126 354.173 367.126C354.173 385.875 366.445 394.397 385.193 389.965C385.193 377.353 385.193 372.581 385.193 367.126Z" fill="black"/>
</svg>
