<svg width="512" height="512" viewBox="0 0 512 512" fill="none" xmlns="http://www.w3.org/2000/svg">
<g clip-path="url(#clip0_3_7152)">
<path d="M252.377 81.5869C215.964 94.0041 175.272 123.221 127.171 171.425C104.008 194.588 78.3405 224.534 59.037 251.034C41.2961 275.139 19.8041 316.038 11.4535 341.395C3.83769 364.035 2.99954 379.893 8.74246 390.432C12.4986 397.215 15.1062 399.404 27.839 406.502C66.2338 427.994 128.32 447.51 182.469 455.125C210.956 459.089 223.057 459.927 258.637 459.927C294.218 459.927 306.319 459.094 334.806 455.125C385.204 448.032 439.043 431.859 479.838 411.51C497.16 402.849 503.421 398.674 506.965 392.936C511.45 385.843 512.495 381.042 511.869 369.67C510.928 353.082 504.041 332.108 490.269 304.873C480.356 284.943 458.755 249.679 453.333 244.148C452.397 243.206 451.77 242.063 451.874 241.54C452.293 240.392 434.029 217.022 420.469 201.267C407.845 186.553 377.588 156.297 361.932 142.628C328.96 113.83 298.388 93.2746 275.54 84.6136C267.086 81.4834 256.759 80.1279 252.377 81.5869ZM274.914 101.413C293.695 110.7 349.308 151.288 371.323 171.735C411.704 209.194 449.054 260.947 478.271 320.105C501.956 368.102 503.938 380.933 489.017 390.743C468.565 404.308 425.581 420.27 377.061 432.268C334.698 442.807 306.63 446.247 261.768 446.247C228.272 446.351 215.752 445.518 187.27 441.135C131.238 432.475 54.5514 407.226 30.5501 389.485C17.8225 380.198 20.1145 366.948 42.6516 321.145C63.7297 278.368 90.2299 237.463 117.879 205.329C128.728 192.493 156.17 165.366 167.335 156.183C195.822 132.813 236.199 105.474 252.165 98.6915C259.889 95.4631 263.956 95.9856 274.914 101.413Z" fill="black"/>
<path d="M179.131 206.276L178.821 260.948L168.805 255.417C163.377 252.287 147.83 243 134.373 234.758C118.826 225.16 109.647 220.152 109.228 220.882C108.809 221.508 108.395 265.956 108.395 319.691V417.352L117.056 420.585C121.754 422.36 126.343 423.922 127.176 424.135C128.532 424.445 128.847 414.537 129.261 341.809L129.784 259.173L151.902 271.487C164.107 278.269 175.168 284.633 176.627 285.575L179.338 287.246V361.744V436.138L185.392 437.286C188.625 437.912 193.53 438.745 196.241 439.164L201.249 439.791L201.456 370.405L201.767 301.019L230.771 318.651L259.672 336.18L288.676 318.548L317.577 301.019L317.888 370.301C318.095 426.54 318.41 439.584 319.45 439.584C320.18 439.584 323.626 439.061 327.066 438.538C330.403 437.912 334.785 437.183 336.664 436.867L340.001 436.345V361.951C340.001 303.626 340.311 287.241 341.356 286.408C341.982 285.885 353.147 279.418 366.087 272.216L389.566 259.173L390.088 341.809C390.507 414.532 390.818 424.445 392.173 424.135C393.006 423.928 397.601 422.36 402.397 420.585L410.954 417.352V319.691C410.954 265.956 410.535 221.508 410.121 220.882C409.702 220.152 400.524 225.16 384.977 234.758C371.52 243 355.972 252.287 350.545 255.417L340.528 260.948L340.218 206.276C340.011 160.157 339.799 151.604 338.547 151.604C337.714 151.604 319.662 161.724 298.377 174.038L259.667 196.575L220.957 174.038C199.671 161.724 181.62 151.604 180.787 151.604C179.545 151.599 179.338 159.95 179.131 206.276ZM230.776 204.708C246.22 213.369 259.263 220.462 259.781 220.462C260.2 220.462 273.45 213.266 289.101 204.393L317.588 188.323L317.898 231.208C318.105 264.704 317.795 274.405 316.853 275.346C316.124 275.972 302.977 284.111 287.637 293.398L259.677 310.404L230.776 292.668L201.772 275.036L201.462 231.529C201.358 207.533 201.565 188.23 201.984 188.437C202.502 188.747 215.441 196.047 230.776 204.708Z" fill="black"/>
</g>
<defs>
<clipPath id="clip0_3_7152">
<rect width="512" height="512" fill="white"/>
</clipPath>
</defs>
</svg>
