<svg width="512" height="512" viewBox="0 0 512 512" fill="none" xmlns="http://www.w3.org/2000/svg">
<path d="M104.587 378.374C90.8478 369.962 86.3615 359.026 65.3319 350.615C44.5827 323.416 36.4513 289.208 36.4513 255.281C36.4513 230.325 40.6572 205.651 47.6671 183.219L68.6966 224.998C67.5751 234.251 67.0143 244.345 67.0143 255.281C67.0143 394.076 158.984 422.115 256.28 421.835C353.297 422.115 445.547 394.076 445.547 255.281C445.547 240.98 444.705 228.082 442.743 216.025L457.884 185.182C465.735 204.81 470.221 230.045 469.661 255.561C468.819 296.499 455.641 337.997 424.797 357.625L419.75 364.915L414.423 371.644L408.815 377.813L402.927 383.701L396.478 389.029L389.748 394.076L382.738 398.562L375.448 402.768L367.877 406.413L360.307 409.778L352.456 412.582L344.324 415.105L336.193 417.348L327.781 419.311L319.089 420.994L310.397 422.396L301.704 423.517L292.732 424.358L283.759 424.919L274.786 425.48L265.533 425.76H246.747L237.494 425.48L228.521 424.919L219.549 424.358L210.576 423.517L201.884 422.396L193.192 420.994L184.5 419.311L176.088 417.348L167.956 415.105L159.825 412.582L151.974 409.778L144.403 406.413L136.832 402.768L129.542 398.562L122.532 394.076L115.803 389.029L109.354 383.701L104.587 378.374Z" fill="black"/>
<path d="M461.529 119.289C410.497 63.7712 326.099 51.9946 256 51.9946C184.219 51.9946 97.8576 64.332 47.1063 122.934L47.9474 123.776L49.3494 124.897L49.9102 125.458C60.8456 136.113 72.9025 147.329 85.2399 153.778C87.2027 154.619 89.4458 154.899 91.689 154.058C125.617 101.624 189.547 88.7263 256 88.7263C321.332 88.4459 384.14 101.064 418.629 151.815L459.286 120.972L461.529 119.289ZM437.135 129.944C382.738 82.2772 324.977 70.5007 256 71.0614C186.182 70.5007 125.336 83.1184 71.5006 133.87L52.7141 122.374L58.0416 116.766L65.8927 109.475L74.0241 102.746L82.4359 96.5773L91.4086 90.9694L100.662 85.9223L110.195 81.436L120.009 77.2301L130.103 73.585L140.197 70.2203L150.572 67.4163L160.946 64.8928L171.601 62.6496L182.256 60.6869L192.911 59.2849L203.566 58.1633L214.221 57.3221L224.876 56.4809L235.531 55.9201L245.906 55.6398H256H266.094L276.469 55.9201L287.124 56.4809L297.779 57.3221L308.434 58.1633L319.089 59.2849L329.744 60.6869L340.399 62.6496L351.054 64.8928L361.428 67.4163L371.803 70.2203L381.897 73.585L391.991 77.2301L401.805 81.436L411.338 85.9223L420.591 91.5302L429.564 97.1381L437.976 103.307L446.107 110.036L453.958 117.327L455.641 119.009L437.135 129.944Z" fill="black"/>
<path d="M255.439 341.362C232.166 291.451 206.651 269.02 167.956 252.757L70.9398 219.951L57.4808 182.939C81.3143 201.164 116.644 213.782 150.011 226.68C201.884 246.588 229.923 271.543 255.439 323.136V341.362Z" fill="black"/>
<path d="M255.439 341.361C278.712 291.451 304.228 265.655 342.922 249.673L439.098 215.464L452.556 179.574C428.723 197.8 390.87 211.819 357.222 224.717C305.349 244.625 280.955 271.824 255.72 323.136L255.439 341.361Z" fill="black"/>
<path d="M467.137 125.738L464.333 128.542C463.772 143.964 461.249 159.666 459.006 174.527C469.941 197.8 474.988 225.839 475.829 255.281C477.512 342.203 433.209 433.611 256 439.5C144.683 438.658 74.5849 404.17 45.9847 332.669C26.9179 320.612 17.9453 298.461 8.97264 276.871L8.69224 270.983L8.41185 255.281L8.69224 239.578L9.81382 224.718L11.7766 210.698L14.5805 197.519L17.9453 184.902L21.8708 173.125L26.6375 162.19L31.965 151.815L37.8533 142.282L43.1807 134.711C45.1435 149.572 47.6671 168.919 52.4338 172.845C108.793 220.231 208.053 214.063 255.72 309.397C307.593 203.688 399.001 217.147 455.36 169.76L460.688 124.336C395.076 195.276 305.63 171.162 255.72 277.432C201.604 172.845 113.56 198.641 47.6671 128.542L44.8631 125.738C19.908 155.741 4.20593 197.519 4.20593 255.281C4.20593 430.247 146.927 458.566 255.72 458.566C364.513 458.566 507.233 430.247 507.233 255.281C507.514 197.519 492.092 155.741 467.137 125.738ZM327.22 203.968L333.389 200.604L340.118 197.239L353.577 191.07C365.073 186.023 376.85 181.256 388.346 176.49L402.366 170.041L409.376 166.676L416.386 163.031L423.395 158.825L430.405 154.619L437.135 149.852L443.864 144.805L450.594 139.197L455.36 134.711L451.435 167.237L447.509 170.321L442.182 174.247L436.574 177.892L430.686 181.256L424.797 184.341L418.629 187.145L412.46 189.949L406.011 192.472C392.832 197.8 379.374 202.566 365.915 207.894L352.175 213.502L345.165 216.586L338.156 219.951L331.426 223.596L324.697 227.522L317.967 231.727L311.238 236.214L304.508 240.98L300.302 244.626C303.387 230.606 311.518 217.427 327.22 203.968ZM288.526 234.251L290.208 232.569L296.096 226.961L301.985 221.633L308.153 216.867L308.995 216.306C301.144 227.802 296.377 238.737 294.694 249.673L291.89 252.196L285.722 258.365L280.955 263.692C280.394 254.159 282.918 244.626 288.526 234.251ZM51.3122 137.795L57.7612 143.684L64.4907 149.011L71.2202 154.058L77.9496 158.545L84.6791 162.75L91.689 166.676L98.6988 170.321L105.709 173.686L119.728 179.854C131.225 184.621 143.001 189.108 154.497 193.874L168.237 199.762C178.892 212.941 189.266 225.839 197.678 239.578L194.033 237.335L187.023 233.41L180.013 229.765L173.003 226.12L165.993 222.755L151.413 216.306C137.393 210.698 123.374 205.37 109.354 199.762L95.8949 194.155L89.4458 191.07L83.2771 187.986L77.1085 184.621L71.2202 181.256L65.6123 177.611L60.0044 173.686L54.9573 169.76L53.8357 168.358L52.7141 165.554L51.5926 161.348L50.1906 156.021L49.069 150.133C48.2278 144.525 47.3867 138.917 46.5455 133.309L51.3122 137.795Z" fill="black"/>
</svg>
