<svg width="512" height="512" viewBox="0 0 512 512" fill="none" xmlns="http://www.w3.org/2000/svg">
<path d="M481.563 220.924C485.875 220.164 490.259 220.055 494.607 219.982C498.955 219.946 503.485 220.417 507.362 222.555C510.913 224.004 512.87 228.353 511.565 232.012C509.862 237.629 505.84 242.122 501.746 246.144C491.382 256.833 478.519 264.515 466.163 272.632C468.228 269.624 469.931 266.327 471.199 262.921C472.178 260.239 473.12 257.449 473.229 254.551C473.374 251.579 472.758 248.391 470.837 246.035C468.917 243.861 466.163 242.557 463.409 241.796C459.423 240.673 455.22 240.564 451.089 240.564C441.704 240.636 432.392 242.158 423.224 244.042C419.999 244.622 416.847 245.6 413.55 245.745C416.34 244.84 418.804 243.209 421.449 241.905C433.805 235.636 446.596 230.201 459.822 226.07C466.924 223.823 474.207 222.193 481.563 220.924Z" fill="black"/>
<path d="M52.9393 249.913C53.4103 249.405 54.0988 249.514 54.7148 249.478C60.0051 249.514 65.2954 249.514 70.5857 249.478C70.6944 256.978 70.8393 264.479 70.948 271.98C80.4778 264.733 89.3916 256.689 98.8852 249.405C104.683 249.623 110.48 249.405 116.278 249.55C116.242 263.754 116.242 277.995 116.278 292.199C108.741 292.271 101.24 292.126 93.7398 292.271H93.5949C93.5224 285.604 93.5587 278.937 93.5587 272.306C85.7682 278.756 78.5211 285.785 70.7669 292.271H69.6436C62.5415 292.126 55.4757 292.307 48.3737 292.199C48.4824 285.532 48.3374 278.828 48.4461 272.161C40.7281 278.719 33.3362 285.676 25.6543 292.271H0.289871C1.01457 291.51 1.84797 290.894 2.71761 290.278C7.06581 287.053 11.0879 283.43 15.3998 280.133C27.9371 270.059 40.4744 260.022 52.9393 249.913Z" fill="black"/>
<path d="M184.472 249.442C191.937 249.514 199.437 249.478 206.902 249.478C207.01 260.421 206.938 271.364 206.938 282.307C211.975 282.307 217.047 282.307 222.084 282.307C222.012 285.604 221.975 288.865 222.084 292.163C209.511 292.163 196.937 292.235 184.363 292.126C184.436 277.922 184.327 263.682 184.472 249.442Z" fill="black"/>
<path d="M123.996 263.718C125.989 259.913 130.047 257.051 134.432 257.087C149.361 257.087 164.326 257.087 179.254 257.087C179.182 260.421 179.254 263.718 179.254 267.052C169.398 267.16 159.506 266.979 149.65 267.124C147.114 267.233 145.085 269.371 144.36 271.69C143.382 274.806 143.925 278.647 146.462 280.893C147.368 281.618 148.455 282.198 149.65 282.198C159.506 282.451 169.398 282.198 179.291 282.307C179.218 285.568 179.218 288.829 179.327 292.09C164.144 292.235 148.926 292.126 133.743 292.162C130.41 292.054 127.33 290.206 125.337 287.597C120.481 280.748 120.191 271.146 123.996 263.718Z" fill="black"/>
<path d="M229.73 257.051C244.477 257.123 259.189 257.051 273.936 257.087C276.98 257.087 280.024 258.283 282.198 260.457C285.821 263.972 287.488 269.117 287.524 274.117C287.561 278.792 286.582 283.683 283.611 287.416C281.618 290.025 278.611 291.8 275.349 292.271H233.063C229.911 291.764 228.135 288.611 227.556 285.749C226.831 282.234 227.121 278.393 228.932 275.204C229.947 273.393 231.976 272.233 234.042 272.233C244.332 272.306 254.623 272.197 264.914 272.306C264.914 270.566 264.914 268.827 264.914 267.088C253.174 267.16 241.434 267.088 229.73 267.124C229.621 263.754 229.657 260.384 229.73 257.051ZM247.159 277.27C247.159 278.973 247.159 280.64 247.159 282.343C253.065 282.343 259.008 282.27 264.914 282.415C264.95 280.676 264.986 278.973 264.986 277.234C259.044 277.197 253.101 277.161 247.159 277.27Z" fill="black"/>
<path d="M292.778 262.522C292.561 259.66 295.315 256.797 298.214 257.123C308.142 256.978 318.07 257.123 327.963 257.087C327.89 260.421 327.926 263.718 327.926 267.052C323.723 267.088 319.484 267.052 315.28 267.088C315.317 275.458 315.28 283.828 315.317 292.162C307.816 292.199 300.315 292.162 292.778 292.162C292.778 282.307 292.778 272.414 292.778 262.522Z" fill="black"/>
<path d="M337.529 259.116C339.667 257.594 342.348 257.087 344.957 257.087C358.364 257.123 371.771 257.123 385.178 257.087C387.823 257.703 389.562 260.312 390.323 262.776C391.301 266.255 391.229 270.168 389.562 273.429C388.547 275.495 386.518 277.306 384.091 277.198C373.764 277.198 363.437 277.198 353.146 277.198C353.146 278.901 353.146 280.604 353.146 282.307C364.922 282.379 376.699 282.27 388.475 282.343C388.439 285.64 388.475 288.938 388.403 292.235H342.891C339.34 291.836 336.043 289.771 334.086 286.8C330.825 281.908 329.883 275.639 331.043 269.951C331.876 265.747 333.941 261.58 337.529 259.116ZM353.146 267.124C353.146 268.791 353.182 270.458 353.146 272.125C359.016 272.306 364.886 272.125 370.756 272.233C370.756 270.53 370.756 268.791 370.792 267.088C364.886 267.124 359.016 267.052 353.146 267.124Z" fill="black"/>
<path d="M396.012 257.051C411.122 257.087 426.232 257.087 441.342 257.051C443.625 256.942 445.944 257.377 447.973 258.392C451.089 259.877 453.77 262.921 453.915 266.472C454.133 275.023 453.879 283.575 454.024 292.163C447.284 292.126 440.545 292.235 433.805 292.126C433.877 286.256 433.841 280.35 433.841 274.48C433.877 272.233 432.5 270.059 430.471 269.081C426.848 267.305 422.717 267.197 418.767 266.979C418.767 275.35 418.659 283.684 418.804 292.054C417.427 292.09 416.014 292.09 414.637 292.235H401.701C399.817 292.09 397.896 292.163 395.976 292.126C396.048 280.459 396.012 268.755 396.012 257.051Z" fill="black"/>
</svg>
