<svg width="512" height="512" viewBox="0 0 512 512" fill="none" xmlns="http://www.w3.org/2000/svg">
<g clip-path="url(#clip0_3_7148)">
<path d="M349.282 201.035L348.536 199.78L346.654 196.8L344.693 193.897L342.614 191.074L340.457 188.289L338.222 185.583L335.908 182.955L333.516 180.406L331.006 177.935L328.417 175.543L325.79 173.229L323.084 171.033L320.299 168.915L317.436 166.876L314.495 164.915L311.514 163.072L308.455 161.307L305.317 159.659L302.141 158.091L298.886 156.64L295.591 155.267L292.258 154.012L288.846 152.875L285.394 151.855L281.904 150.953L278.374 150.169L274.805 149.502L271.197 148.953L267.55 148.521L263.863 148.208L260.138 148.012L256.373 147.933L252.608 148.012L248.882 148.208L245.195 148.521L241.548 148.953L237.94 149.502L234.371 150.169L230.841 150.953L227.351 151.855L223.9 152.875L220.487 154.012L217.154 155.267L213.86 156.64L210.644 158.091L207.467 159.659L204.329 161.307L201.27 163.072L198.29 164.915L195.348 166.876L192.485 168.915L189.701 171.033L186.995 173.229L184.367 175.543L181.779 177.935L179.308 180.406L176.876 182.955L174.562 185.583L172.327 188.289L170.17 191.074L168.091 193.897L166.13 196.8L164.248 199.78L163.503 201.035H0.0784302L17.6876 225.939L25.7275 235.508L47.6115 260.412L57.4162 269.982L85.3791 294.886L97.6153 304.533L130.951 329.359H177.19L178.014 330.222L179.935 332.222L181.896 334.143L183.936 336.026L186.014 337.869L188.132 339.634L190.289 341.36L192.485 343.046L194.76 344.654L197.074 346.223L199.427 347.713L201.819 349.164L204.251 350.537L206.722 351.87L209.232 353.125L211.781 354.341L214.369 355.478L216.958 356.537L219.585 357.518L222.252 358.459L224.958 359.322L227.704 360.106L230.449 360.812L233.234 361.479L236.057 362.067L238.881 362.577L241.744 363.008L244.646 363.361L247.548 363.636L250.49 363.832L253.431 363.95L256.412 363.989L259.392 363.95L262.334 363.832L265.275 363.636L268.177 363.361L271.08 363.008L273.943 362.577L276.766 362.067L279.59 361.479L282.375 360.812L285.12 360.106L287.865 359.322L290.571 358.459L293.238 357.518L295.866 356.537L298.454 355.478L301.043 354.341L303.592 353.125L306.102 351.87L308.573 350.537L311.004 349.164L313.397 347.713L315.75 346.223L318.064 344.654L320.338 343.046L322.535 341.36L324.692 339.634L326.809 337.869L328.888 336.026L330.927 334.143L332.927 332.222L334.849 330.222L335.673 329.359H381.206L414.542 304.533L426.778 294.886L454.741 269.982L464.545 260.412L486.429 235.508L494.469 225.939L512.078 201.035H349.282ZM492.469 222.409H355.321C357.165 227.743 358.537 233.312 359.479 238.999H478.507L462.781 256.883H360.89C360.851 262.53 360.341 268.06 359.439 273.472H445.367L425.288 291.356H354.694C352.654 297.003 350.144 302.455 347.203 307.592L403.913 307.945L379.911 325.829H334.026C314.887 347.086 287.159 360.498 256.412 360.498C225.664 360.498 197.937 347.086 178.798 325.829H132.128L108.126 307.945L165.542 307.592C162.601 302.455 160.091 297.003 158.051 291.356H86.7125L66.6718 273.511H153.345C152.443 268.099 151.933 262.569 151.894 256.922H49.1802L33.4535 239.038H153.227C154.169 233.351 155.581 227.782 157.385 222.449H19.5309L6.86326 204.565H165.464C183.465 172.915 217.507 151.502 256.373 151.502C295.238 151.502 329.28 172.915 347.281 204.565H505.137L492.469 222.409Z" fill="black"/>
<path d="M256.373 177.229C212.997 177.229 177.582 212.605 177.582 256.02C177.582 299.396 212.957 334.81 256.373 334.81C299.788 334.81 335.163 299.435 335.163 256.02C335.163 212.605 299.748 177.229 256.373 177.229ZM236.528 280.728H225.076V246.058L216.173 280.728H205.82L196.956 246.058V280.728H185.465V235.234H203.898L211.036 262.922L218.134 235.234H236.528V280.728ZM256.765 280.728H244.293V235.234H256.765V280.728ZM307.396 280.728H294.532L277.982 255.745V280.728H265.158V235.234H277.904L294.532 260.412V235.234H307.396V280.728ZM315.279 280.728V235.234H327.751V280.728H315.279Z" fill="black"/>
</g>
<defs>
<clipPath id="clip0_3_7148">
<rect width="512" height="512" fill="white"/>
</clipPath>
</defs>
</svg>
