<svg width="512" height="512" viewBox="0 0 512 512" fill="none" xmlns="http://www.w3.org/2000/svg">
<g clip-path="url(#clip0_3_6957)">
<path d="M298.363 273.641C297.957 273.743 296.331 273.743 295.62 273.743H243.201V285.951H296.534C296.941 285.951 300.09 285.951 300.7 285.849C311.569 284.832 316.547 275.778 316.547 267.843C316.547 259.704 311.366 250.955 301.512 250.04C299.582 249.836 297.957 249.836 297.246 249.836H262.401C260.877 249.836 259.15 249.735 258.541 249.531C255.798 248.819 254.782 246.378 254.782 244.343C254.782 242.512 255.798 240.07 258.642 239.256C259.455 239.053 260.369 238.951 262.299 238.951H312.585V226.947H261.487C259.353 226.947 257.728 227.049 256.407 227.252C247.671 228.473 241.576 235.492 241.576 244.445C241.576 251.769 246.147 260.315 256.204 261.739C258.033 261.942 260.572 261.942 261.69 261.942H295.62C296.23 261.942 297.753 261.942 298.058 262.044C301.919 262.553 303.239 265.401 303.239 267.945C303.239 270.386 301.715 273.031 298.363 273.641Z" fill="white"/>
<path d="M199.01 273.641C198.604 273.743 196.978 273.743 196.369 273.743H143.848V285.951H197.182C197.588 285.951 200.737 285.951 201.347 285.849C212.217 284.832 217.194 275.778 217.194 267.843C217.194 259.704 212.013 250.955 202.159 250.04C200.229 249.836 198.604 249.836 197.893 249.836H163.048C161.524 249.836 159.797 249.735 159.188 249.531C156.445 248.819 155.429 246.378 155.429 244.343C155.429 242.512 156.445 240.07 159.289 239.256C160.102 239.053 161.016 238.951 162.947 238.951H213.232V226.947H162.134C160.001 226.947 158.375 227.049 157.055 227.252C148.318 228.473 142.223 235.492 142.223 244.445C142.223 251.769 146.794 260.315 156.851 261.739C158.68 261.942 161.22 261.942 162.337 261.942H196.267C196.877 261.942 198.401 261.942 198.705 262.044C202.566 262.553 203.886 265.401 203.886 267.945C203.886 270.386 202.464 273.031 199.01 273.641Z" fill="white"/>
<path d="M116.521 226.54H103.315V286.256H116.521V226.54Z" fill="white"/>
<path d="M74.159 286.256V226.54H60.9526V271.098L16.9651 226.54H0V286.256H13.2064V241.495L57.4986 286.256H74.159Z" fill="white"/>
<path d="M498.897 226.54V271.098L454.91 226.54H437.944V286.256H451.151V241.495L495.341 286.256H512.002V226.54H498.897Z" fill="white"/>
<path d="M369.17 226.54L331.989 286.256H348.039L354.643 275.574H398.021L404.624 286.256H420.573L383.392 226.54H369.17ZM391.214 264.282H361.449L376.382 240.274L391.214 264.282Z" fill="white"/>
<path d="M73.4479 192.664C100.064 114.839 173.41 62.5497 256.103 62.5497C338.795 62.5497 412.243 114.839 438.757 192.664L438.96 193.274H497.17V186.255L472.992 183.406C458.059 181.677 454.91 175.064 450.846 166.722L449.83 164.688C414.884 90.2205 338.795 42 256.103 42C173.309 42 97.321 90.2205 62.3748 164.891L61.359 166.926C57.2954 175.268 54.1462 181.88 39.2128 183.61L15.035 186.458V193.477H73.1431L73.4479 192.664Z" fill="black"/>
<path d="M438.96 319.624L438.757 320.234C412.141 398.059 338.795 450.247 256.103 450.247C173.41 450.247 99.9623 397.957 73.4479 320.133L73.2447 319.522H15.1366V326.542L39.3144 329.39C54.2478 331.12 57.397 337.732 61.4605 346.074L62.4764 348.109C97.4226 422.779 173.512 471 256.204 471C338.896 471 414.986 422.779 449.932 348.21L450.948 346.176C455.011 337.834 458.16 331.221 473.094 329.492L497.272 326.643V319.624H438.96Z" fill="black"/>
</g>
<defs>
<clipPath id="clip0_3_6957">
<rect width="512" height="512" fill="white"/>
</clipPath>
</defs>
</svg>
