<svg width="512" height="512" viewBox="0 0 512 512" fill="none" xmlns="http://www.w3.org/2000/svg">
<path d="M255.484 431.928C159.496 431.928 79.8815 352.345 79.8815 256.394C79.8815 251.405 80.1107 246.461 80.5332 241.57L227.465 250.734L163.914 294.622C163.053 295.228 162.486 296.225 162.486 297.352C162.486 299.188 163.979 300.68 165.816 300.68H425.295C405.342 375.644 336.206 431.928 255.484 431.928ZM255.484 80.8549C351.474 80.8549 431.088 160.444 431.088 256.394C431.088 261.345 430.869 266.256 430.449 271.115L283.66 261.788L347.356 218.16C348.222 217.554 348.782 216.558 348.782 215.431C348.782 213.594 347.297 212.102 345.466 212.102H85.6741C105.633 137.138 174.762 80.8549 255.484 80.8549ZM507.333 276L459.29 272.945C459.727 267.487 459.96 261.964 459.96 256.394C459.96 143.509 368.415 52 255.484 52C157.775 52 76.0822 120.516 55.8432 212.102H18.1148C15.6453 212.102 13.4361 213.275 12.0354 215.099L0.80775 230.594C0.302211 231.246 0 232.06 0 232.946C0 235.069 1.71405 236.782 3.83836 236.782L51.6927 239.765C51.2494 245.25 51.0149 250.793 51.0149 256.394C51.0149 369.274 142.56 460.782 255.484 460.782C353.194 460.782 434.886 392.267 455.132 300.68H493.05C495.525 300.68 497.728 299.507 499.129 297.684L510.363 282.188C510.868 281.537 511.171 280.722 511.171 279.837C511.171 277.713 509.451 276 507.333 276Z" fill="black"/>
</svg>
