<svg width="512" height="512" viewBox="0 0 512 512" fill="none" xmlns="http://www.w3.org/2000/svg">
<path fill-rule="evenodd" clip-rule="evenodd" d="M217.252 6.49809C207.204 9.95218 194.916 16.0401 189.944 20.0292C184.975 24.0182 172.076 31.2779 161.28 36.161C138.747 46.3551 137.423 50.5581 150.62 70.0014C163.932 89.6153 174.333 93.6349 184.806 83.2115C192.21 75.8448 208.924 76.7109 213.21 84.6813C217.395 92.4606 209.879 96.0599 191.923 94.8805C169.014 93.3751 163.535 101.753 176.023 119.204C186.796 134.256 194.304 137.038 206.794 130.611C219.766 123.937 222.825 126.25 216.522 137.967C209.047 151.868 206.766 151.407 154.127 125.348C83.4534 90.3591 48.0691 90.7743 28.4339 126.823C21.3197 139.883 31.273 153.101 46.4077 150.691C58.3603 148.791 59.8963 149.423 62.9862 157.508C65.2083 163.325 68.9485 166.42 73.7536 166.42C77.801 166.42 86.6714 169.841 93.463 174.021L105.812 181.622L83.6275 186.098C39.3318 195.036 28.1114 200.495 19.6275 217.238C4.4928 247.097 13.76 265.771 39.4086 257.108C50.1402 253.483 55.8899 253.017 58.9517 255.524C61.6371 257.719 83.264 258.812 115.732 258.389C171.346 257.663 181.629 259.727 199.572 275.217C207.985 282.479 207.99 282.502 201.659 293.231C158.28 366.74 150.211 384.897 148.972 411.76C148.303 426.264 147.535 438.132 147.264 438.134C136.625 438.234 87.2448 449.63 81.6538 453.275C74.007 458.26 71.1936 468.353 69.056 498.482L68.2675 509.585L145.068 510.189L221.868 510.79L220.685 486.864L219.502 462.935L259.274 418.485L299.046 374.033L325.309 393.519C367.314 424.682 372.339 427.752 385.953 430.567C401.795 433.842 404.908 440.534 391.923 443.405C357.294 451.059 352.3 456.513 348.547 490.774L346.314 511.152L411.011 511.017L475.704 510.882L491.292 494.228C499.866 485.068 506.88 475.554 506.88 473.085C506.88 465.456 464.095 385.22 444.009 355.183C420.907 320.637 420.92 324.692 443.825 302.187C476.69 269.89 476.257 260.239 438.328 179.399C410.184 119.411 405.768 103.34 412.813 86.5586C418.611 72.7499 431.788 69.5607 431.788 81.9684C431.788 112.332 480.499 170.578 491.323 153.154C493.361 149.873 479.363 92.7892 470.666 68.9111C458.214 34.7141 414.226 28.6695 389.614 57.772L380.188 68.9188L366.589 55.7061C359.112 48.4388 352.136 39.098 351.089 34.9485C349.652 29.2553 342.656 24.897 322.591 17.1966C273.628 -1.58947 248.284 -4.16475 217.252 6.49809ZM273.203 15.3295C314.519 25.7681 332.71 34.1155 335.107 43.734C336.325 48.6349 347.192 62.8385 359.252 75.2971C380.488 97.2367 381.276 98.6861 384.184 121.148C391.606 178.433 391.636 178.375 349.868 188.709C307.743 199.132 308.27 202.607 362.243 270.3C413.353 334.407 451.195 390.373 473.94 435.501L490.496 468.345L479.06 482.345L467.628 496.347L442.365 494.409C428.472 493.344 409.92 492.47 401.142 492.47C385.344 492.47 385.198 492.368 386.688 482.263C388.308 471.282 392.348 469.55 443.732 457.81C471.828 451.39 471.575 448.036 439.081 396.418C361.526 273.214 305.661 225.298 144.64 143.872C107.441 125.063 96.7706 121.173 78.3155 119.698C47.2576 117.217 50.2758 111.033 81.7741 112.617C106.412 113.855 109.663 115.119 183.319 152.105C276.792 199.043 273.902 198.704 290.931 164.724C313.59 119.502 312.53 110.556 279.562 68.8118C254.902 37.5849 226.867 34.3142 173.629 56.4448C162.266 61.17 155.308 60.4364 155.308 54.5089C155.308 52.9551 161.836 49.1062 169.812 45.9578C177.792 42.8093 188.16 36.729 192.852 32.4496C202.58 23.5749 230.833 12.6345 249.311 10.5839C251.261 10.3674 262.013 12.502 273.203 15.3295ZM207.708 27.1488C198.42 30.878 194.54 36.999 198.787 41.2275C203.236 45.6521 230.4 34.7167 230.4 28.5014C230.4 23.2387 219.123 22.5662 207.708 27.1488ZM430.41 234.218C436.769 249.036 430.454 259.352 408.046 270.749C390.034 279.911 388.861 279.351 363.036 249.247C336.786 218.644 337.382 214.625 369.723 204.288C388.513 198.279 395.635 194.262 398.472 188.07C402.396 179.498 414.328 196.743 430.41 234.218ZM163.663 234.155C169.574 240.653 168.986 240.77 125.048 241.796C76.7898 242.925 66.5933 235.278 110.17 230.634C148.275 226.577 157.312 227.17 163.663 234.155ZM238.648 286.363C244.337 290.503 242.834 293.552 218.166 327.968C177.221 385.09 167.949 404.63 170.678 428.035C173.412 451.474 171.581 453.298 139.884 458.696C109.737 463.829 105.183 466.279 102.405 478.858C99.7658 490.825 90.4525 492.758 90.4525 481.339C90.4525 465.775 99.0182 459.384 125.414 455.252C165.885 448.917 165.486 449.271 164.6 420.413C163.771 393.412 179.804 354.633 213.094 303.124C227.768 280.421 229.194 279.486 238.648 286.363Z" fill="black"/>
</svg>
