<svg width="512" height="512" viewBox="0 0 512 512" fill="none" xmlns="http://www.w3.org/2000/svg">
<g clip-path="url(#clip0_3_7082)">
<path d="M279.32 378.192C282.29 375.921 288.928 373.65 292.596 372.078C292.422 366.488 290.151 361.247 291.548 356.531C293.994 348.146 299.758 344.478 305.348 343.779C305.698 343.954 306.047 344.652 305.698 344.827C302.553 347.797 301.331 351.989 300.807 356.531C300.632 358.278 300.283 363.693 301.855 367.536C305.174 365.789 313.209 362.994 315.829 362.47C316.179 356.88 317.052 351.465 318.624 347.447C321.769 339.586 328.756 333.298 335.743 336.966C336.093 337.141 336.442 337.84 336.093 338.014C331.726 339.586 328.931 344.128 326.485 349.369C325.786 350.941 323.341 359.326 326.136 361.073C326.136 361.073 326.311 361.073 326.311 361.247C331.376 360.199 332.25 360.723 337.665 360.199C338.538 354.784 340.984 350.067 343.08 346.574C346.225 340.46 354.435 335.569 361.771 339.936C362.121 340.11 362.47 340.984 361.946 340.984C356.88 342.032 353.561 345.351 351.814 348.321C350.941 349.718 346.225 356.181 348.67 358.802C348.845 358.802 349.194 358.802 349.544 358.802C353.911 358.627 357.055 359.5 361.597 360.374C362.994 357.055 364.217 356.705 365.615 354.959C370.68 348.845 379.24 346.748 382.21 352.513C382.559 352.862 382.559 353.561 382.21 353.561C379.589 353.911 375.222 355.308 373.126 357.928C372.602 358.452 371.204 360.024 369.807 362.994C375.746 367.536 379.065 371.204 380.637 377.318C380.987 378.366 381.511 384.655 379.415 381.511C369.807 369.457 356.88 366.837 337.49 368.759C316.703 370.68 307.095 373.825 286.308 385.004C297.837 395.311 280.543 405.442 277.748 390.245C267.617 405.617 256.961 386.227 270.586 383.432C256.611 369.807 275.652 363.518 279.32 378.192Z" fill="black"/>
<path d="M314.781 311.812C322.293 309.366 330.503 306.746 334.695 305.872C335.394 293.645 346.923 278.447 360.549 283.688C361.073 283.862 361.422 284.561 360.898 284.736C357.404 285.784 346.225 296.44 350.068 303.252C352.863 303.427 360.549 303.252 362.82 303.427C365.789 289.976 377.493 280.543 390.769 286.657C391.293 286.832 391.643 287.705 391.118 287.705C385.878 288.579 373.999 296.964 375.397 304.126C377.842 304.3 384.48 306.571 388.673 308.842C390.245 305.523 391.992 304.3 393.564 302.553C399.329 296.44 411.207 295.915 414.701 301.855C415.05 302.204 415.05 302.903 414.701 302.903C409.635 302.728 405.093 303.427 400.726 307.27C400.027 307.794 398.63 309.89 397.058 312.86C401.25 315.131 405.967 319.498 406.84 323.69C407.539 325.786 407.888 327.533 407.539 329.63C407.364 330.154 406.316 329.63 405.967 329.28C394.962 317.227 370.68 309.716 347.098 312.685C331.376 314.607 316.004 318.974 303.252 324.564C307.619 320.721 311.462 316.528 314.781 311.812ZM280.194 339.063C279.146 340.111 278.098 340.984 277.224 342.032C282.814 349.718 273.905 355.832 271.285 348.146C264.647 355.308 259.406 346.923 263.774 343.43C269.363 342.556 274.953 341.159 280.194 339.063Z" fill="black"/>
<path d="M276.351 442.126C277.923 440.379 281.766 437.06 283.688 435.488C277.748 426.23 281.067 414.351 286.832 413.478C287.181 413.653 287.356 414.177 287.181 414.526C285.609 416.797 284.91 429.025 289.452 431.645C291.723 430.073 296.09 426.929 298.012 426.405C294.693 415.225 300.457 400.202 311.637 402.647C311.986 402.822 312.161 403.521 311.986 403.696C302.903 408.412 302.728 422.387 305.174 423.959C308.842 422.911 312.86 421.339 316.878 420.989C318.624 406.141 331.726 399.503 338.364 403.346C338.713 403.521 338.888 404.394 338.713 404.394C335.045 402.298 321.245 416.448 325.787 420.64C328.931 420.465 332.599 421.863 336.268 422.736C337.84 414.526 349.369 407.713 354.26 412.954C354.609 413.303 354.609 414.002 354.435 414.002C350.068 414.875 344.303 418.893 343.43 426.579C352.688 430.946 351.64 440.03 350.068 437.584C341.333 426.055 322.817 427.977 308.667 430.946C300.457 432.693 288.928 440.554 284.037 446.144C298.885 453.131 285.434 466.233 279.146 451.384C268.839 469.552 258.708 452.957 270.761 448.065C256.087 436.711 271.285 429.025 276.351 442.126Z" fill="black"/>
<path d="M126.821 428.326C112.147 411.382 99.7449 393.04 89.7878 374.523H250.497V428.326H126.821Z" fill="black"/>
<path d="M327.883 165.426H445.969V211.718H327.883V165.426Z" fill="black"/>
<path d="M445.969 95.203L411.033 82.8004L370.331 74.5902L324.564 64.6332L282.115 61.3142H249.799V110.051H445.795L445.969 95.203Z" fill="black"/>
<path d="M82.2764 40.5269C86.9929 38.9547 91.7094 37.5572 96.6005 36.1598C98.3474 35.6357 100.094 35.1117 102.016 34.7623C103.937 34.4129 105.859 34.2382 107.78 34.7623L108.479 35.1117C109.178 35.461 109.527 35.9851 109.877 36.6838C110.401 37.9066 110.575 39.1294 110.75 40.5269C111.099 43.3218 111.099 46.1168 110.75 48.9117C110.575 51.1826 110.226 53.4535 109.352 55.3751C109.003 56.2485 108.479 56.9472 107.78 57.6459C107.256 58.17 106.732 58.6941 106.208 59.0434C104.985 59.9168 103.937 60.6156 102.54 61.1396C99.3955 62.5371 96.2511 63.5852 92.9321 64.6333C87.3422 66.5549 81.7523 68.4764 76.1624 70.3979V80.7043C73.3675 81.7524 70.5725 82.9752 67.7776 84.0233V45.2434C72.6688 43.6712 77.3852 42.099 82.2764 40.5269ZM76.1624 63.4105C81.7523 61.489 87.3422 59.5675 93.1068 57.6459C94.8537 57.1219 96.6005 56.5978 98.1727 55.8991L99.3955 55.2004L99.9195 54.851L100.444 54.327L100.968 53.8029L101.317 53.2788L101.841 52.2307C102.016 51.532 102.19 51.0079 102.19 50.3092C102.365 48.5624 102.365 46.9902 101.841 45.2434L101.492 44.3699L101.142 43.6712L100.618 43.1471L99.9195 42.7978L99.2208 42.6231H98.522H97.8233C96.0765 42.7978 94.5043 43.3218 92.7575 43.8459C87.1676 45.5927 81.5777 47.5143 75.9878 49.2611L76.1624 63.4105ZM147.259 22.8838C151.102 22.185 154.77 21.4863 158.613 21.1369C159.836 20.9622 161.059 20.9622 162.282 20.9622C162.806 20.9622 163.505 21.1369 164.029 21.3116C164.553 21.4863 164.902 21.661 165.426 22.0103C165.776 22.3597 166.125 22.5344 166.474 22.8838C166.824 23.2331 166.998 23.7572 167.173 24.1065C167.522 24.8053 167.697 25.3293 167.697 26.0281C168.046 28.299 168.221 30.7446 168.396 33.1901C168.57 35.9851 168.57 38.6054 168.396 41.2256C168.396 42.2737 168.396 43.4965 168.221 44.5446C168.046 46.6408 168.046 48.737 167.522 50.8333C167.348 51.3573 167.173 51.8814 166.998 52.2307C166.649 52.9295 166.3 53.6282 165.776 54.327L164.727 55.8991L163.155 56.9472C162.457 57.2966 161.932 57.4713 161.234 57.8206C158.439 58.6941 155.644 59.2181 152.849 59.9168C147.084 61.1396 141.32 62.1877 135.555 63.4105C132.76 63.9346 129.965 64.4586 127.17 64.808C126.472 64.9827 125.598 64.9827 124.899 64.9827L123.153 64.808C122.628 64.6333 122.279 64.4586 121.93 64.284L121.056 63.5852L120.358 62.5371L119.309 56.7725V41.2256C119.484 39.4788 119.659 37.5572 120.008 35.8104L120.532 34.2382C120.882 33.3648 121.231 32.6661 121.755 31.9673L122.978 30.5699L124.026 29.6964C125.074 28.9977 126.297 28.299 127.694 27.7749L133.983 25.8534C138.001 24.6306 142.543 23.7572 147.259 22.8838ZM142.892 30.7446L133.808 32.8408C133.11 33.0154 132.411 33.3648 131.712 33.5395L131.013 34.0636L130.315 34.5876L129.791 35.1117L129.266 35.6357L128.742 36.1598L128.393 36.8585C128.044 37.3826 127.869 38.0813 127.694 38.6054C127.17 40.8762 127.17 43.1471 127.17 45.418C127.17 47.8636 127.17 50.3092 127.52 52.5801L127.869 53.4535L128.393 54.327L129.092 55.0257L129.791 55.5497L130.664 55.8991L131.537 56.0738H132.586C133.284 56.0738 133.808 56.0738 134.332 55.8991C137.826 55.3751 141.32 54.6763 144.813 53.9776C147.608 53.4535 150.578 52.7548 153.373 52.056C153.897 51.8814 154.596 51.7067 155.12 51.532L155.993 51.0079L156.867 50.4839L157.565 49.7852L158.264 49.0864L158.788 48.213L159.138 47.3396L159.487 46.4662C160.011 43.8459 159.836 41.4003 159.836 38.78C159.836 37.3826 159.836 35.9851 159.662 34.7623L159.487 33.7142C159.312 33.0154 159.138 32.3167 158.788 31.618L158.439 30.9192L158.089 30.3952L157.565 29.8711L157.216 29.6964L156.517 29.3471L155.819 29.1724L154.421 28.9977C152.849 28.9977 151.451 29.1724 150.054 29.3471C147.608 29.8711 145.163 30.3952 142.892 30.7446ZM200.538 16.4204C204.905 16.0711 209.272 15.7217 213.639 15.7217C214.512 15.7217 215.561 15.7217 216.434 15.7217C217.482 15.7217 218.356 15.8964 219.229 16.4204C219.578 16.5951 219.928 16.7698 220.102 16.9445C220.801 17.4685 221.325 17.9926 221.675 18.866C222.024 19.3901 222.199 20.0888 222.373 20.6129C222.723 22.0103 222.723 23.5825 222.723 24.98C222.723 26.9015 222.723 28.6483 222.548 30.5699C222.548 31.2686 222.373 31.9673 222.199 32.6661L221.849 33.3648C221.5 33.8889 221.325 34.2382 220.976 34.7623L220.102 35.461C219.753 35.6357 219.404 35.9851 218.88 36.1598C218.356 36.3345 217.657 36.5091 217.133 36.6838L212.416 37.7319L217.133 40.3522C217.831 40.8762 218.356 41.2256 218.88 41.7497L219.404 42.4484C220.102 43.4965 220.626 44.5446 221.151 45.7674C221.849 47.8636 222.199 49.9598 222.199 52.056C219.404 52.2307 216.609 52.2307 213.814 52.4054C213.639 50.8333 213.464 49.4358 212.94 47.8636L212.242 46.1168L211.892 45.2434L211.368 44.5446L210.844 43.8459L210.145 43.3218L209.272 42.7978C208.748 42.6231 208.224 42.4484 207.7 42.4484C206.652 42.2737 205.429 42.4484 204.381 42.4484C198.966 42.7978 193.725 43.3218 188.31 43.8459L186.214 44.0206V54.327C183.419 54.6763 180.624 55.0257 177.829 55.2004V18.5166C185.515 17.6432 193.026 16.9445 200.538 16.4204ZM186.388 37.7319C191.978 37.2079 197.568 36.6838 203.158 36.3345C205.08 36.1598 207.001 35.9851 208.923 35.8104C209.447 35.8104 209.971 35.6357 210.495 35.461L211.193 35.2863L211.892 34.937L212.416 34.5876L212.94 34.0636L213.29 33.5395L213.639 33.0154C213.814 32.4914 213.988 32.142 213.988 31.618C214.163 30.0458 214.163 28.4737 214.163 26.9015C214.163 26.3774 213.988 25.8534 213.814 25.1547L213.464 24.6306L213.115 24.1065L212.591 23.5825L212.067 23.2331L211.543 22.8838L210.844 22.7091C210.32 22.5344 209.796 22.5344 209.272 22.5344C206.477 22.5344 203.682 22.8838 201.062 23.0584C196.171 23.4078 191.454 23.9319 186.563 24.2812L186.388 37.7319ZM245.781 46.2915C248.925 46.2915 252.07 46.2915 255.389 46.2915C257.485 46.2915 259.756 46.2915 262.027 46.1168C262.551 46.1168 262.9 45.9421 263.424 45.9421C263.948 45.7674 264.298 45.5927 264.647 45.418L265.171 45.0687L265.52 44.5446L265.87 44.0206L266.044 43.4965L266.219 42.2737V40.5269L265.87 38.6054L265.695 38.0813L265.52 37.5572L265.171 37.0332L264.647 36.6838L264.123 36.3345L262.9 35.9851L260.804 35.6357H258.184H240.54C238.794 35.6357 237.047 35.6357 235.475 35.2863C234.951 35.1117 234.601 35.1117 234.252 34.937L233.728 34.5876L233.204 34.2382L232.854 33.8889L232.505 33.3648L232.156 32.8408C231.806 32.142 231.457 31.4433 231.282 30.7446C230.933 28.823 230.933 26.7268 230.933 24.8053C230.933 22.3597 231.107 19.9141 232.156 17.6432C232.33 17.2939 232.68 16.9445 232.854 16.5951C234.077 15.547 235.649 15.023 237.221 14.6736C238.794 14.3242 240.54 14.3242 242.113 14.3242C245.956 14.3242 249.799 14.3242 253.642 14.3242C259.93 14.3242 266.394 14.4989 272.682 14.6736V20.2635C264.298 20.0888 255.913 19.9141 247.528 19.9141C245.606 19.9141 243.685 19.9141 241.763 20.0888C241.414 20.0888 240.89 20.2635 240.54 20.2635L239.842 20.6129L239.318 21.1369L238.968 21.8356L238.794 22.5344L238.619 23.7572C238.619 24.8053 238.619 25.6787 238.619 26.7268L238.794 27.4255L238.968 28.1243L239.492 28.823L240.366 29.3471L241.239 29.5218C249.973 29.6964 258.882 29.8711 267.617 30.2205L268.665 30.3952C270.062 30.7446 271.46 31.2686 272.508 32.3167C273.032 32.8408 273.381 33.3648 273.556 33.8889C274.429 35.8104 274.604 38.0813 274.604 40.1775C274.604 42.6231 274.604 45.0687 273.905 47.3396C273.731 47.6889 273.731 48.0383 273.556 48.3877L273.032 49.0864C272.682 49.6105 272.333 49.9598 271.809 50.3092C270.936 50.8333 270.062 51.3573 269.189 51.532C267.791 51.8814 266.219 51.8814 264.822 52.056C260.454 52.2307 256.262 52.2307 251.895 52.2307C245.082 52.2307 238.27 52.4054 231.632 52.4054C231.632 50.4839 231.632 48.3877 231.632 46.4662C236.173 46.2915 240.715 46.2915 245.257 46.2915H245.781ZM303.602 53.9776C300.108 53.6282 296.439 53.4535 292.946 52.9295C291.374 52.7548 289.801 52.4054 288.404 51.8814C287.705 51.532 287.007 51.3573 286.308 50.8333C285.784 50.4839 285.434 50.1345 284.91 49.7852C284.561 49.4358 284.212 48.9117 283.862 48.5624C283.513 48.0383 283.338 47.5143 283.163 46.9902C282.639 45.0687 282.465 42.9725 282.465 40.8762C282.29 35.8104 282.29 30.9192 282.465 25.8534V24.6306C282.639 22.3597 282.814 20.0888 284.212 18.1673C284.736 17.6432 285.085 17.1192 285.784 16.7698C287.531 15.8964 289.627 15.547 291.548 15.3723C293.645 15.1976 295.566 15.1976 297.662 15.3723C301.68 15.547 305.872 15.7217 309.89 16.0711C315.829 16.5951 321.594 17.1192 327.533 17.8179V24.4559C319.672 23.7572 311.986 23.0584 304.126 22.5344C301.68 22.3597 299.06 22.185 296.439 22.3597L295.217 22.5344L294.343 22.7091L293.645 23.0584L292.946 23.5825L292.247 24.2812L291.723 24.98L291.374 25.8534C291.199 26.3774 291.024 26.9015 291.024 27.4255C290.675 29.8711 290.5 32.4914 290.675 35.1117C290.675 37.2079 290.675 39.3041 291.024 41.4003C291.199 41.9244 291.199 42.4484 291.374 42.9725L291.723 43.8459L292.247 44.5446L292.946 45.2434L293.645 45.7674L294.343 46.1168L295.217 46.4662C295.915 46.6408 296.614 46.8155 297.313 46.8155C299.584 47.1649 302.029 47.3396 304.3 47.5143C312.161 48.213 320.197 48.9117 328.057 49.7852C328.057 51.8814 328.057 53.8029 328.057 55.8991V56.5978C323.166 56.0738 318.1 55.5497 313.209 55.2004C310.24 54.5016 306.921 54.3269 303.602 53.9776ZM357.055 37.3826C363.518 38.6054 369.982 39.8281 376.445 41.0509V26.2028C379.415 26.9015 382.384 27.6002 385.529 28.1243V66.3802C382.559 65.6814 379.589 64.9827 376.445 64.284V49.2611C371.204 48.213 366.139 47.1649 360.898 46.1168C356.182 45.2434 351.29 44.3699 346.574 43.4965V58.3447C343.604 57.8206 340.635 57.4713 337.49 56.9472V19.7394C340.46 20.0888 343.604 20.4382 346.574 20.9622V35.6357C350.068 36.1598 353.561 36.6838 357.055 37.3826ZM425.706 39.8281C428.85 40.8762 431.995 41.9244 435.314 42.9725V49.2611C426.055 46.1168 416.622 43.1471 407.189 40.1775L404.045 39.3041V48.9117C410.858 51.0079 417.845 53.1042 424.658 55.3751C427.627 56.4232 430.772 57.2966 433.741 58.3447V63.9346C425.007 60.965 416.098 58.17 407.189 55.5497L404.045 54.6763V64.808C410.683 66.7295 417.321 68.8257 423.784 70.922C427.627 72.1448 431.471 73.5422 435.488 74.765V81.2283C422.911 77.0359 410.159 73.1929 397.232 69.5245L395.835 69.1751V30.7446C405.792 33.5395 415.749 36.6838 425.706 39.8281Z" fill="black"/>
<path d="M67.2535 320.895C61.6636 302.204 58.694 284.736 58.5193 269.713H175.558C175.907 289.452 184.117 307.619 197.044 320.895H67.2535Z" fill="black"/>
<path d="M53.2788 38.78L55.5497 37.9065C120.882 13.8001 186.039 1.22281 251.371 1.71537e-05C316.703 -1.04809 381.86 9.25829 447.192 31.2685L449.638 32.1419V34.5875C449.114 113.021 448.59 191.454 448.066 269.887C447.891 310.414 426.579 367.361 386.402 417.146C354.085 457.324 309.366 492.959 253.467 511.825H251.546C195.123 497.327 150.578 463.088 118.087 423.086C76.5118 371.554 55.2003 310.065 55.0257 268.315C54.6763 230.409 54.5016 192.502 54.1522 154.77L53.2788 38.78ZM129.441 426.23H248.227V378.541H95.9018C95.3778 377.668 94.8537 376.794 94.5043 375.921C102.714 390.594 112.322 405.093 123.327 418.893C125.423 421.339 127.345 423.784 129.441 426.23ZM248.401 432.169H134.856C164.203 464.311 202.11 491.038 248.401 503.965V432.169ZM132.411 429.549C132.236 429.374 132.236 429.374 132.236 429.2C132.236 429.374 132.411 429.549 132.411 429.549ZM92.5828 372.427H248.401V344.303C249.624 344.303 250.847 344.303 252.07 344.303C252.943 344.303 253.642 344.303 254.515 344.303V504.139C254.341 504.139 254.166 504.314 254.166 504.314C307.27 485.797 349.893 451.559 380.987 412.954C419.592 365.09 440.205 310.589 441.078 271.46C441.078 271.634 441.078 271.634 441.078 271.809H328.756C328.756 270.586 328.931 269.363 328.931 268.141V265.695H441.253C441.428 248.925 441.428 232.156 441.602 215.561H328.931V209.621H441.602C441.777 195.996 441.777 182.545 441.952 169.095H328.931V163.155H328.057V162.981H441.952C442.126 146.56 442.126 130.315 442.301 113.894H252.768V163.155H246.654V64.1092C184.467 65.1573 122.104 77.5599 59.5674 101.841L59.3928 95.5524C123.677 70.7472 187.96 58.5193 252.07 57.9952C315.655 57.4712 379.065 68.4763 442.301 90.3119C442.301 92.4081 442.301 94.5043 442.301 96.6005C442.476 76.6865 442.65 56.7725 442.65 37.0331C378.891 15.8963 315.131 5.93929 251.546 6.98739C186.912 8.0355 122.454 20.4381 57.9953 44.3699L61.1396 154.77C61.489 191.804 61.6637 228.837 62.013 266.044C62.013 266.044 62.013 266.044 62.013 265.87H175.733V268.315C175.733 269.538 175.733 270.761 175.907 271.984H61.8383C62.1877 285.958 65.1573 302.204 70.2232 319.323C70.2232 319.148 70.0485 318.974 70.0485 318.799H194.773C195.821 320.022 196.869 321.245 198.092 322.293L201.935 324.913H71.97C77.0359 340.285 83.8486 356.356 92.5828 372.427ZM71.6207 323.69C71.446 323.341 71.446 322.992 71.2713 322.817C71.446 323.166 71.6207 323.341 71.6207 323.69ZM70.9219 321.419C70.7472 321.07 70.7473 320.721 70.5726 320.371C70.7473 320.721 70.9219 321.07 70.9219 321.419ZM440.903 268.315V268.49C440.903 268.49 440.903 268.49 440.903 268.315ZM440.903 269.363V269.538C440.903 269.538 440.903 269.538 440.903 269.363ZM440.903 269.363C440.903 269.189 440.903 269.189 440.903 269.189V269.363ZM440.903 268.839C440.903 268.665 440.903 268.665 440.903 268.665V268.839ZM440.903 266.219C440.903 266.044 440.903 266.044 440.903 266.044V266.219ZM252.768 107.955H442.126C442.126 109.003 442.126 109.877 442.126 110.925C442.126 106.208 442.126 101.492 442.126 96.7752C379.065 74.765 316.004 63.7598 252.768 64.1092V107.955ZM252.419 504.838C252.244 504.838 252.244 504.838 252.07 505.013C252.244 505.013 252.244 505.013 252.419 504.838ZM249.973 504.489C249.449 504.314 249.1 504.314 248.576 504.139C249.1 504.139 249.624 504.314 249.973 504.489Z" fill="black"/>
<path d="M86.6435 135.38C89.9625 133.284 93.4562 131.188 96.9499 129.441C96.4259 124.026 95.9018 115.641 97.2993 111.099C99.9195 102.714 107.606 95.9018 116.689 97.474C117.213 97.6487 117.563 98.1727 117.213 98.3474C112.147 100.968 108.13 104.985 105.859 110.575C105.16 112.147 102.714 123.327 106.383 124.201C106.732 124.375 107.082 124.375 107.606 124.375C114.244 121.58 121.056 119.135 128.044 117.039C128.044 111.623 128.218 104.112 130.14 100.094C133.634 92.2334 142.368 86.4689 151.801 89.2638C152.325 89.4385 152.674 90.1372 152.325 90.3119C146.735 92.2334 142.193 95.5524 139.224 100.793C138.35 102.365 134.682 113.021 138.525 114.418H138.699C145.163 113.021 151.801 111.798 158.963 110.925C159.836 105.509 161.234 98.5221 163.679 94.8537C168.92 87.1676 179.401 81.9271 189.183 85.5954C189.707 85.7701 190.057 86.4689 189.533 86.6435C183.069 88.2157 177.479 91.1853 173.462 96.2512C172.414 97.6487 166.998 107.431 170.143 109.702C170.492 109.702 170.841 109.702 171.191 109.527C176.781 109.003 183.244 108.828 189.358 109.178C190.93 105.859 192.502 102.889 194.249 100.968C200.363 94.679 213.814 92.4081 217.832 97.8233C218.181 98.1727 218.356 98.8714 217.832 98.8714C212.067 99.0461 206.128 99.9196 201.761 103.937C201.062 104.636 198.616 107.082 197.219 109.877C206.477 111.449 214.338 114.593 216.783 120.532C217.657 122.454 218.181 124.201 217.832 126.297C217.832 126.821 216.609 126.472 216.259 125.948C204.556 115.117 185.864 113.894 160.884 118.261C135.555 122.629 114.418 130.14 91.7094 140.97C100.793 151.277 86.4688 159.138 81.7524 148.307C70.7472 161.408 60.6155 142.368 75.6384 140.097C67.0789 126.821 84.3726 126.297 86.6435 135.38Z" fill="black"/>
<path d="M89.7878 239.842C92.7575 237.571 96.6005 235.649 99.7448 233.728C96.6005 228.662 94.679 221.325 95.9018 216.609C97.998 208.224 103.239 204.206 109.702 204.555C110.226 204.555 110.575 205.254 110.226 205.429C105.684 208.398 104.985 212.241 103.588 218.006C102.889 221.15 104.636 226.391 106.907 228.312C112.671 225.168 112.497 225.692 118.611 223.421C116.864 218.006 117.213 210.669 119.484 206.128C122.978 198.791 128.742 195.996 134.507 197.219C135.031 197.393 135.38 197.917 134.856 198.092C130.315 200.014 121.056 207.35 127.17 221.15C132.76 219.229 133.11 218.879 140.272 217.307C140.796 211.892 140.97 205.429 143.067 201.586C147.434 193.725 157.74 190.057 162.457 191.978C162.981 192.153 163.33 192.851 162.806 193.026C160.186 194.773 156.692 196.17 153.198 201.411C151.277 204.206 147.958 210.669 148.831 215.036C153.897 214.338 160.535 213.988 166.3 214.163C167.522 210.844 169.968 206.826 171.54 204.905C172.588 203.682 173.986 202.634 175.383 202.11V221.674C165.776 221.15 155.12 222.198 144.988 224.644C122.104 230.059 116.165 234.252 95.7271 245.257C107.955 252.943 96.0765 264.647 88.565 253.118C75.289 268.315 66.7295 248.75 80.5296 245.781C70.0485 233.029 87.1676 226.216 89.7878 239.842Z" fill="black"/>
<path d="M83.8486 187.786C87.3423 185.69 92.0588 184.117 95.5525 182.371C95.2031 176.955 94.5044 172.064 96.0765 167.522C98.8715 159.312 103.239 155.12 110.226 155.819C110.75 155.993 111.099 156.517 110.75 156.867C105.684 159.487 106.907 162.981 104.636 168.396C103.937 169.968 102.191 176.606 105.859 177.654C106.208 177.829 106.558 177.829 107.082 177.829C113.72 175.209 111.274 175.383 118.087 173.636C118.261 168.396 118.611 161.234 120.358 157.391C124.026 149.879 130.839 146.211 137.127 147.783C137.651 147.958 138.7 149.181 138.175 149.355C133.11 150.927 124.375 161.234 128.044 169.269C132.411 168.571 135.381 167.173 143.241 166.125C144.289 160.71 146.036 155.295 148.657 151.626C154.072 144.115 162.457 142.543 167.348 144.813C167.872 144.988 168.571 146.386 168.047 146.56C161.583 147.958 161.409 147.259 157.216 152.325C154.945 154.945 150.403 162.107 153.722 165.426C159.312 165.077 163.155 164.378 169.269 164.902C170.841 161.758 172.064 157.391 173.811 155.644C179.925 149.355 190.581 148.831 194.075 153.024C194.424 153.373 194.599 154.072 194.075 154.072C188.31 154.246 186.214 155.819 181.672 159.836C181.148 160.186 180.1 161.583 178.877 163.33H175.558V174.16C166.125 173.287 155.819 173.636 146.211 175.034C120.882 178.877 111.623 184.642 90.6613 194.773C99.5702 205.254 85.0714 212.591 80.7043 201.586C69.5245 214.513 59.5675 195.123 74.9397 193.201C66.3802 179.401 81.4031 175.733 83.8486 187.786Z" fill="black"/>
<path d="M325.088 166.824V268.315C325.088 308.318 292.422 340.809 252.07 340.809C211.892 340.809 179.052 308.318 179.052 268.315V166.824H325.088ZM328.581 163.155H175.383V268.141C175.383 309.89 209.796 344.303 251.895 344.303C294.169 344.303 328.407 309.89 328.407 268.141L328.581 163.155Z" fill="black"/>
<path d="M248.751 237.571C249.449 238.27 251.021 237.396 251.546 236.697C252.768 234.776 252.594 232.33 252.768 229.885C252.943 227.265 252.943 224.994 252.07 222.548C250.672 218.356 248.751 215.037 244.034 214.338C243.51 214.163 242.462 215.211 242.811 215.561C245.956 218.88 247.178 218.705 248.052 223.771C248.925 228.662 248.401 237.222 248.751 237.571ZM215.735 298.536C216.434 298.71 218.006 296.614 218.53 295.391C219.054 294.343 218.88 292.247 218.88 292.072C218.705 291.723 216.958 292.422 216.085 292.422C215.211 292.422 214.512 292.247 213.29 292.072C212.067 291.898 212.242 289.103 212.067 287.531C211.718 283.513 211.543 279.495 211.718 275.477C211.718 274.429 212.067 273.032 212.94 272.333C214.163 271.634 215.91 271.809 217.307 271.984C220.102 272.508 222.723 273.905 225.692 274.429C227.264 274.779 229.011 274.604 230.583 274.08C231.981 273.731 233.029 272.682 234.252 272.158C234.951 271.984 235.824 271.809 236.348 272.158C238.619 273.381 240.191 275.652 242.462 276.526C245.432 277.399 248.576 277.05 251.72 277.224C254.166 277.224 256.611 276.875 259.057 277.224C260.105 277.399 261.852 277.574 262.201 278.796C262.551 280.369 259.93 281.766 260.28 283.338C260.979 285.784 263.773 287.007 264.996 289.103C265.52 289.976 265.346 291.024 264.996 291.898C264.647 292.596 263.424 292.771 262.9 293.47C262.201 294.518 262.027 295.741 261.328 296.789C260.629 297.837 259.581 298.71 258.533 299.584C256.262 301.331 253.991 303.078 251.371 304.475C250.497 304.999 248.925 303.951 248.576 304.824C247.877 306.397 247.178 308.318 246.48 309.366C245.781 310.414 244.908 310.589 244.383 311.113C243.859 311.812 243.161 313.035 243.51 313.209C243.859 313.384 247.178 313.384 248.401 313.209C249.624 313.035 250.323 312.86 250.672 312.685C251.021 312.336 250.497 311.288 250.148 309.191C249.973 307.095 255.738 306.222 258.533 304.65C261.503 302.728 264.472 300.632 267.442 298.885C268.665 298.186 270.411 298.012 271.46 296.964C271.984 296.44 271.809 295.566 271.809 294.867C271.809 293.121 271.46 291.374 271.46 289.627C271.46 288.753 271.46 287.705 272.158 287.181C272.682 286.657 273.73 286.483 274.255 286.832C275.303 287.356 275.477 288.928 276.351 289.627C277.748 290.675 279.495 291.024 281.067 291.723C282.465 292.422 284.91 292.422 285.085 293.819C285.434 296.44 283.687 298.885 282.639 301.156C282.115 302.379 280.893 303.078 280.194 304.3C279.844 304.999 279.844 305.872 279.32 306.397C277.923 307.794 276.001 308.667 274.604 310.065C273.556 311.113 272.682 312.161 272.158 313.384C271.809 314.083 271.634 314.781 271.285 315.48C270.761 316.179 269.887 316.354 269.363 317.402C268.839 318.45 267.617 321.245 268.665 321.07C269.713 320.895 275.827 319.847 276.001 319.148C276.176 318.624 275.652 317.052 275.303 315.131C274.953 313.209 279.32 311.812 281.417 310.589C282.639 309.89 284.386 310.24 285.434 309.366C286.133 308.842 285.784 307.619 285.958 306.921C286.482 305.698 286.832 304.3 287.88 303.252C289.103 301.855 291.199 301.331 292.247 299.933C293.295 298.186 294.518 296.09 294.169 294.169C293.819 292.596 291.898 292.072 290.85 290.85C289.976 289.976 289.103 288.928 288.753 287.705C288.229 285.958 287.88 284.212 288.404 282.465C289.103 280.369 291.199 278.971 292.422 277.224C293.47 275.652 295.042 274.429 295.566 272.682C296.09 270.586 295.042 268.315 294.867 266.219C294.867 265.87 294.518 265.346 294.867 264.996C296.265 263.774 297.837 262.201 299.758 261.852C301.505 261.677 302.903 263.424 304.65 263.774C306.396 263.948 308.493 264.123 310.24 263.424C310.764 263.25 310.938 262.027 310.589 261.503C309.366 260.455 306.746 260.804 306.222 259.406C305.872 258.184 308.318 257.834 309.017 256.611C309.89 255.039 310.589 253.292 310.589 251.371C310.589 250.672 309.191 250.672 308.667 251.022C307.794 251.546 307.794 252.768 307.095 253.467C306.571 253.991 305.698 254.166 304.999 254.166C304.3 254.166 303.252 253.817 302.903 253.292C302.379 252.768 302.029 251.546 302.553 251.196C303.951 250.323 305.872 250.672 307.445 250.323C308.143 250.148 309.017 249.973 309.366 249.449C309.89 248.401 309.89 247.179 309.366 246.13C309.191 245.606 308.318 245.606 307.794 245.781C307.095 245.956 306.746 247.004 305.872 247.004C304.824 247.004 303.776 246.48 303.077 245.781C302.553 245.082 302.379 244.034 302.728 243.335C303.252 242.113 304.999 241.763 305.523 240.541C306.222 238.968 306.746 237.047 306.396 235.3C306.222 234.601 304.824 234.252 304.3 234.776C303.427 235.3 303.602 236.523 303.077 237.222C302.379 238.27 302.029 239.842 300.981 240.366C300.283 240.715 299.06 240.016 298.885 239.143C298.536 237.746 299.409 236.348 299.758 235.125C300.283 233.728 300.981 232.33 301.855 231.108C302.728 229.885 304.475 229.361 305.174 227.963C305.698 226.915 306.222 225.518 305.523 224.644C304.999 223.946 303.776 224.47 303.077 224.994C302.553 225.343 302.728 226.566 302.204 226.915C300.632 227.614 298.71 227.09 297.313 227.789C296.09 228.487 295.566 229.71 294.867 230.933C293.645 233.029 293.47 236.697 292.946 237.047C292.422 237.571 291.199 237.396 290.85 236.697C290.325 235.824 291.199 234.427 290.5 233.553C289.976 233.029 288.579 233.029 288.055 233.553C287.356 234.252 287.181 235.3 287.181 236.348C287.181 237.92 287.356 239.492 288.055 240.89C289.277 243.161 291.199 244.908 292.771 247.004C294.343 249.1 296.265 251.022 297.138 253.467C297.662 255.039 297.837 256.961 297.138 258.358C296.614 259.756 295.217 261.153 293.819 261.153C291.898 260.979 290.5 258.882 288.928 257.834C287.356 256.786 285.784 255.389 284.037 255.039C280.019 254.341 275.827 255.039 271.634 255.039C267.966 255.039 264.123 255.563 260.454 255.039C258.708 254.865 256.786 254.166 255.563 252.943C254.341 251.72 253.467 249.973 253.467 248.401C253.292 246.13 254.166 244.034 255.039 241.938C255.738 240.541 256.786 239.143 258.184 238.27C259.232 237.571 260.979 237.222 262.027 237.571C263.249 238.095 266.568 242.637 267.267 242.462C267.966 242.287 267.442 238.27 267.092 237.047C266.394 235.125 264.298 234.077 263.773 232.156C263.599 231.632 264.472 230.933 264.996 230.933C266.044 230.933 267.267 231.632 268.141 232.505C268.665 232.854 270.936 236.173 271.46 235.999C271.984 235.824 271.11 231.282 270.586 229.885C269.713 227.963 266.918 226.566 266.743 226.042C266.568 225.692 266.743 225.343 267.267 225.168C268.315 225.168 269.363 225.692 270.411 226.042C271.285 226.391 272.682 227.439 273.206 227.265C273.73 227.09 273.206 225.518 272.682 224.819C270.761 222.548 268.141 221.151 266.219 219.054C265.171 218.006 264.123 216.609 264.123 215.037C264.123 214.163 265.171 213.29 266.044 212.94C267.617 212.242 269.713 211.892 271.11 211.019C271.634 210.669 271.285 210.32 270.761 210.145C268.49 209.272 266.044 208.923 263.599 208.923C262.201 208.923 260.979 209.796 259.581 210.145C258.708 210.495 257.834 211.019 256.786 211.019C255.039 211.019 253.118 211.194 251.895 210.145C251.196 209.447 252.07 208.049 252.594 207.001C253.118 206.128 253.991 205.604 254.69 204.905C255.214 204.381 256.786 203.857 256.262 203.682C255.738 203.507 252.943 203.507 251.371 204.031C249.973 204.381 248.751 204.905 247.703 205.953C246.829 206.826 247.004 208.748 245.781 209.272C243.685 210.495 242.637 210.145 240.366 211.194C239.842 211.543 238.619 212.94 238.095 213.115C235.3 213.464 229.71 212.067 229.535 212.591C229.186 213.115 233.902 215.735 234.776 218.181C235.125 219.229 232.505 217.657 231.457 217.832C229.71 218.006 227.963 218.356 226.566 219.054C225.168 219.753 223.945 220.976 222.897 222.199C221.849 223.247 221.325 224.644 220.102 225.518C219.578 225.867 218.356 225.343 218.006 225.867C217.482 226.566 217.307 228.138 218.181 228.138L223.072 228.487C223.945 228.487 222.199 230.409 222.723 231.282C223.072 231.806 224.295 231.632 224.819 231.282C225.518 230.933 225.867 229.885 226.74 229.361C227.614 228.837 228.487 228.138 229.535 228.138C230.758 228.138 232.33 228.662 232.854 229.71C233.378 230.758 232.156 231.981 231.981 233.029C231.806 234.252 232.505 235.824 231.632 236.697C229.011 239.143 228.138 237.047 224.295 241.938C221.15 245.781 222.548 243.685 221.5 248.751C221.325 249.799 221.15 250.847 220.277 251.546C219.404 252.07 218.006 252.419 217.133 251.895C215.386 251.022 214.338 249.275 213.115 247.528C212.416 246.654 212.766 245.082 211.892 244.384C210.669 243.685 208.923 243.685 207.525 244.034C206.477 244.384 205.953 245.606 205.429 246.48C204.031 248.401 202.983 250.672 201.76 252.594C200.712 254.166 199.315 255.563 198.441 257.136C197.917 258.009 198.267 259.057 197.743 259.93C196.695 262.376 195.821 264.647 194.598 266.918C194.074 267.791 193.026 268.315 192.677 269.363C192.502 270.412 192.852 272.682 193.376 272.682C193.9 272.682 195.647 271.46 196.695 270.761C197.917 270.237 200.188 269.538 200.363 269.189C200.538 268.839 199.14 267.617 198.441 266.743C197.219 265.171 199.839 262.9 200.887 261.153C201.236 260.455 202.11 260.28 202.459 259.581C203.158 258.184 203.333 256.437 204.031 255.039C204.905 253.118 205.953 251.196 207.35 249.799C208.049 249.1 209.272 248.576 210.145 249.275C211.543 250.148 211.718 252.07 212.591 253.642C213.29 254.69 214.163 255.738 214.512 256.961C214.862 258.009 213.814 259.406 214.512 260.28C215.386 261.328 217.133 261.677 218.53 261.852L221.675 262.201L222.024 266.569C222.199 268.141 218.705 266.918 217.133 267.267C215.735 267.617 214.338 268.141 212.766 268.49C211.368 268.839 208.748 267.617 208.399 269.189C207.176 275.303 208.748 281.417 209.097 287.531C209.097 289.103 208.224 291.723 209.796 292.422L212.766 293.645C213.29 294.867 213.639 296.44 214.338 297.313C214.163 298.186 215.037 298.361 215.735 298.536Z" fill="black"/>
<path d="M311.986 182.021C311.986 180.798 311.113 180.274 309.541 180.274H303.602C302.029 180.274 301.156 180.798 301.156 182.021C301.156 183.244 302.029 183.768 303.602 183.768H304.824V194.773C304.824 196.695 305.348 197.568 306.571 197.568C307.794 197.568 308.318 196.695 308.318 194.773V183.768H309.541C311.288 183.768 311.986 183.244 311.986 182.021ZM295.042 185.864C295.042 187.262 294.343 187.961 292.946 187.961H291.374V183.768H292.946C294.343 183.768 295.042 184.467 295.042 185.864ZM298.885 195.821C298.885 195.123 298.536 194.424 297.837 193.55L295.042 190.057C297.313 189.533 298.71 187.786 298.71 185.34C298.71 182.196 296.614 179.925 292.946 179.925H290.326C288.404 179.925 287.88 180.798 287.88 182.72V194.599C287.88 196.52 288.404 197.393 289.627 197.393C290.85 197.393 291.374 196.52 291.374 194.599V190.406L295.391 196.171C296.09 197.044 296.614 197.568 297.313 197.568C298.186 197.568 298.885 196.869 298.885 195.821ZM280.369 190.406H276.7L278.622 184.117L280.369 190.406ZM285.26 195.647C285.26 195.297 285.26 194.948 285.085 194.424L281.242 182.196C280.718 180.798 279.845 179.925 278.622 179.925C277.399 179.925 276.526 180.798 276.001 182.371L271.984 194.424C271.809 194.773 271.809 195.123 271.809 195.472C271.809 196.52 272.508 197.393 273.381 197.393C274.08 197.393 274.779 196.869 275.128 195.647L275.652 193.9H281.242L281.591 195.472C281.941 196.695 282.465 197.393 283.338 197.393C284.561 197.568 285.26 196.869 285.26 195.647ZM269.363 189.533C269.363 187.611 268.665 186.912 267.267 186.912H264.996C263.599 186.912 262.9 187.436 262.9 188.659C262.9 189.882 263.599 190.406 264.996 190.406H266.044C266.044 192.502 264.996 193.9 263.249 193.9C261.328 193.9 259.93 191.804 259.93 188.485C259.93 185.166 261.328 183.244 263.249 183.244C265.171 183.244 266.044 184.816 266.918 184.816C267.617 184.816 268.315 183.943 268.315 183.069C268.315 181.323 266.394 179.576 263.424 179.576C259.232 179.576 256.611 183.069 256.611 188.659C256.611 194.074 259.232 197.743 263.075 197.743C266.918 197.743 269.363 194.249 269.363 189.533ZM255.738 182.021C255.738 180.798 254.865 180.274 253.292 180.274H247.353C245.781 180.274 244.908 180.798 244.908 182.021C244.908 183.244 245.781 183.768 247.353 183.768H248.576V194.773C248.576 196.695 249.1 197.568 250.323 197.568C251.546 197.568 252.07 196.695 252.07 194.773V183.768H253.292C254.865 183.768 255.738 183.244 255.738 182.021ZM244.209 182.021C244.209 180.798 243.335 180.274 241.763 180.274H235.824C234.252 180.274 233.378 180.798 233.378 182.021C233.378 183.244 234.252 183.768 235.824 183.768H237.047V194.773C237.047 196.695 237.571 197.568 238.794 197.568C240.016 197.568 240.541 196.695 240.541 194.773V183.768H241.763C243.335 183.768 244.209 183.244 244.209 182.021ZM231.282 189.882V182.72C231.282 180.798 230.758 179.925 229.535 179.925C228.313 179.925 227.789 180.798 227.789 182.72V189.533C227.789 192.502 226.74 194.074 224.819 194.074C222.897 194.074 221.849 192.502 221.849 189.533V182.72C221.849 180.798 221.325 179.925 220.102 179.925C218.88 179.925 218.356 180.798 218.356 182.72V189.882C218.356 194.948 220.801 197.743 224.819 197.743C228.662 197.743 231.282 194.948 231.282 189.882ZM216.958 182.021C216.958 180.798 216.085 180.274 214.513 180.274H208.573C207.001 180.274 206.128 180.798 206.128 182.021C206.128 183.244 207.001 183.768 208.573 183.768H209.796V194.773C209.796 196.695 210.32 197.568 211.543 197.568C212.766 197.568 213.29 196.695 213.29 194.773V183.768H214.513C216.085 183.768 216.958 183.244 216.958 182.021ZM204.905 191.978C204.905 189.358 203.507 187.786 200.712 186.738C198.966 186.039 197.918 185.864 197.918 184.642C197.918 183.768 198.616 183.244 199.664 183.244C200.538 183.244 201.586 183.768 202.285 183.768C203.333 183.768 203.857 183.069 203.857 182.196C203.857 180.798 202.285 179.75 199.664 179.75C196.345 179.75 194.249 182.021 194.249 185.166C194.249 187.786 195.647 189.009 198.442 190.057C200.014 190.581 201.062 191.105 201.062 192.502C201.062 193.55 200.363 194.249 199.315 194.249C197.743 194.249 196.52 193.376 195.647 193.376C194.599 193.376 193.9 194.074 193.9 195.123C193.9 196.52 195.996 197.918 198.791 197.918C202.634 197.743 204.905 195.297 204.905 191.978Z" fill="black"/>
</g>
<defs>
<clipPath id="clip0_3_7082">
<rect width="512" height="512" fill="white"/>
</clipPath>
</defs>
</svg>
