<svg width="512" height="512" viewBox="0 0 512 512" fill="none" xmlns="http://www.w3.org/2000/svg">
<path fill-rule="evenodd" clip-rule="evenodd" d="M191.637 5.40627C190.047 8.27347 179.628 26.9824 168.485 46.983C157.342 66.9812 143.486 91.8551 137.693 102.256C131.9 112.654 120.774 132.617 112.968 146.618C105.162 160.619 92.942 182.547 85.8089 195.347C78.6758 208.147 68.2426 226.867 62.6223 236.951L52.4032 255.286L57.0531 263.619C59.6108 268.202 74.4076 294.642 89.9351 322.376C105.465 350.11 129.464 392.981 143.265 417.648C166.533 459.229 183.573 489.667 192.328 505.286L195.928 511.709L255.66 511.697L315.394 511.688L317.882 507.213C322.586 498.751 348.902 451.686 408.357 345.407C420.217 324.205 436.403 295.256 444.328 281.074L458.731 255.29L444.079 228.955C423.498 191.96 345.777 52.2147 329.998 23.8313L316.858 0.193176H255.693H194.53L191.637 5.40627ZM330.924 33.7687C340.203 50.3692 355.533 77.8054 364.993 94.7386C374.454 111.672 386.278 132.836 391.273 141.77C433.801 217.847 453.883 253.864 454.123 254.487C454.377 255.144 448.535 255.225 400.589 255.225H346.771L344.625 251.466C343.447 249.4 339.307 242.255 335.427 235.588C321.808 212.187 297.23 169.893 283.159 145.648C275.344 132.182 268.13 119.775 267.127 118.077L265.302 114.991L266.736 111.625C267.525 109.773 271.784 100.252 276.201 90.4681C291.184 57.2812 304.97 26.0096 304.97 25.2114C304.97 25.0508 303.607 24.9274 301.94 24.9367L298.91 24.953L289.627 41.2998C284.521 50.2924 266.873 81.3219 250.41 110.255C215.496 171.615 212.866 176.24 187.464 220.891C176.891 239.474 168.243 254.801 168.243 254.95C168.243 255.102 173.424 255.23 179.759 255.237L191.274 255.248L197.281 266.024C202.875 276.056 244.04 349.663 252.253 364.316C254.268 367.916 256.077 370.86 256.27 370.86C256.461 370.86 265.782 354.497 276.983 334.497C288.182 314.496 302.72 288.533 309.29 276.801L321.233 255.467L333.95 255.337C340.945 255.267 346.666 255.325 346.666 255.469C346.666 255.611 331.683 281.742 313.37 313.537C295.056 345.332 277.246 376.255 273.79 382.255C270.334 388.254 259.647 406.8 250.04 423.466C240.433 440.134 228.485 460.861 223.49 469.527L214.407 485.285L211.142 485.43C208.614 485.541 207.937 485.432 208.137 484.945C208.279 484.599 217.253 464.403 228.077 440.066C238.904 415.73 247.815 395.655 247.88 395.453C247.971 395.176 189.731 293.378 170.566 260.315L167.754 255.467L112.251 255.225L56.7482 254.983L70.8282 229.769C78.5711 215.903 86.5047 201.721 88.455 198.256C90.4076 194.788 99.2628 178.97 108.134 163.102C135.117 114.844 153.418 82.1202 161.694 67.3466C166.028 59.6131 174.75 44.0111 181.083 32.6796C187.413 21.3458 193.676 10.1632 195 7.83129L197.406 3.58867H255.732H314.056L330.924 33.7687ZM259.207 151.596C260.573 154.058 273.855 177.783 288.726 204.316C303.597 230.849 316.093 253.247 316.495 254.089L317.228 255.621L306.797 274.211C301.058 284.435 287.693 308.291 277.094 327.224C266.496 346.159 257.462 362.24 257.019 362.964L256.216 364.279L245.848 345.751C217.802 295.636 205.961 274.495 200.883 265.479C197.827 260.052 195.426 255.358 195.544 255.046C195.663 254.736 207.162 234.193 221.096 209.399C235.029 184.602 248.602 160.442 251.257 155.709C253.91 150.975 256.228 147.107 256.405 147.112C256.582 147.116 257.843 149.134 259.207 151.596Z" fill="black"/>
</svg>
