<svg width="512" height="512" viewBox="0 0 512 512" fill="none" xmlns="http://www.w3.org/2000/svg">
<path d="M269.508 461.361H360.736C346.771 453.922 341.812 434.215 341.029 415.291C332.023 329.805 284.386 263.244 272.771 246.016C326.933 213.518 350.817 163.793 350.817 117.853C350.817 41.3726 283.473 5.2207 225.134 5.2207H71.3902C77.1328 13.443 81.3092 16.7058 81.3092 35.6301V425.209C81.3092 444.134 73.0869 453.139 67.3444 461.361H137.168C131.426 453.139 123.204 444.134 123.204 425.209V282.168C170.319 281.385 209.603 273.685 241.187 261.155C289.215 312.708 294.958 387.491 295.872 407.982C296.524 428.472 285.953 446.614 269.508 461.361ZM123.204 246.93V32.3673H213.649C276.164 32.3673 296.655 71.782 295.872 113.676C291.695 229.571 176.583 246.93 123.204 246.93Z" fill="black"/>
<path d="M205.296 327.456C226.961 327.064 247.712 325.368 266.115 322.235C263.635 313.882 254.63 295.872 250.062 288.302C233.226 291.173 217.695 292.087 205.296 292.087V283.082C199.553 285.17 174.103 288.824 163.401 290.129V470.497C163.401 489.422 155.179 498.427 149.437 506.649H219.261C213.518 498.427 205.296 489.422 205.296 470.497V327.456Z" fill="black"/>
<path d="M279.296 76.3497H205.296V223.437C195.899 226.7 176.975 232.834 163.401 234.139V79.6125C163.401 60.6882 159.356 57.4254 153.483 49.2031H255.804C264.157 54.1626 275.251 66.0392 279.296 76.3497Z" fill="black"/>
<path d="M361.78 102.583C374.309 117.592 379.138 137.691 378.616 158.442C376.398 221.218 341.551 255.021 301.745 272.901C307.618 281.776 314.926 298.482 319.494 307.618C320.669 307.226 324.193 305.921 325.237 305.529C373.265 357.082 377.833 432.257 378.616 452.747C379.399 473.238 368.697 491.379 352.383 506.127H443.611C429.647 498.688 424.687 478.98 423.904 460.056C414.899 374.571 367.262 308.009 355.646 290.782C409.809 258.284 433.692 208.559 433.692 162.618C433.692 102.322 390.493 66.6918 344.161 54.5542C347.946 60.5578 358.126 80.7872 361.78 102.583Z" fill="black"/>
</svg>
