<svg width="512" height="512" viewBox="0 0 512 512" fill="none" xmlns="http://www.w3.org/2000/svg">
<g clip-path="url(#clip0_3_7291)">
<path d="M512 256.911C512 398.303 397.392 512.911 256 512.911C114.608 512.911 0 398.303 0 256.911C0 115.519 114.608 0.911133 256 0.911133C397.392 0.911133 512 115.519 512 256.911ZM256 13.3012C121.532 13.3012 12.39 122.443 12.39 256.911C12.39 391.379 121.532 500.521 256 500.521C390.468 500.521 499.61 391.562 499.61 256.911C499.61 122.261 390.468 13.3012 256 13.3012ZM257.275 23.8691C150.685 23.8691 64.1367 105.133 64.1367 205.347V308.476C64.1367 408.689 150.685 489.953 257.275 489.953C363.866 489.953 450.414 408.689 450.414 308.476V205.347C450.414 105.133 364.048 23.8691 257.275 23.8691ZM437.478 270.941C440.393 283.149 441.851 295.721 441.851 308.658C441.851 404.134 359.311 481.389 257.275 481.389C155.24 481.389 72.8826 403.952 72.8826 308.476C72.8826 295.539 74.3402 282.967 77.2555 270.759C105.315 338.54 175.283 386.642 257.458 386.642C339.451 386.824 409.418 338.722 437.478 270.941ZM441.851 205.347V254.907C417.435 180.931 344.006 127.18 257.275 127.18C170.545 127.18 97.116 180.931 72.7004 254.907V205.347C72.7004 109.871 155.24 32.615 257.275 32.615C359.311 32.4328 441.851 109.871 441.851 205.347ZM81.0818 256.911C104.586 186.762 174.554 135.744 257.275 135.744C339.997 135.744 409.964 186.762 433.469 256.911C409.964 327.061 339.997 378.078 257.275 378.078C174.554 378.078 104.586 327.243 81.0818 256.911Z" fill="black"/>
<path d="M321.23 394.112C323.234 393.748 333.984 389.74 335.624 388.646L335.26 444.948C333.62 446.041 319.772 450.961 318.132 450.961C315.946 448.957 298.636 428.367 297.179 425.816L296.632 457.156C295.174 457.702 280.78 460.071 278.776 459.707C277.318 460.253 264.746 460.8 262.013 460.618L259.826 453.694C257.64 454.058 238.873 452.601 236.686 452.054L233.224 459.342C230.491 458.978 218.83 457.338 216.461 456.427L220.47 446.77C208.444 460.982 191.317 451.69 182.935 447.317C174.736 442.944 165.626 431.283 164.168 419.257V422.537C162.71 435.291 149.045 431.465 139.023 423.265C123.354 411.422 118.616 397.939 118.616 386.095C120.074 388.1 131.371 398.303 134.651 400.672C134.104 410.693 140.663 414.337 144.854 414.702C149.045 415.248 148.68 410.693 147.587 408.325C146.494 405.956 135.379 395.57 133.011 392.655C127.909 387.189 121.532 377.896 120.621 372.612C118.616 362.044 121.532 357.307 125.722 356.76C129.913 356.031 137.748 359.311 147.952 369.15C164.715 384.82 164.35 393.201 163.257 398.121C159.431 396.846 148.68 389.193 147.223 387.917C148.68 383.909 144.307 375.892 140.299 373.341C134.833 370.061 133.193 374.616 134.833 379.172C136.108 382.998 145.036 391.744 148.316 394.477C152.507 398.485 163.257 408.507 164.35 412.698V408.689C164.715 379.718 189.677 389.375 199.88 394.112C218.83 402.676 223.567 414.337 223.567 423.265C221.927 422.901 207.351 419.986 205.347 419.075C205.347 414.337 199.516 403.952 190.223 404.134C180.931 404.498 181.113 414.155 181.113 417.435C181.113 420.715 182.571 435.656 191.681 439.3C200.791 442.944 205.529 434.562 204.982 433.469L224.296 437.295L240.148 402.858C241.241 403.405 257.822 403.952 260.008 403.587L279.14 457.52L283.149 402.13C284.242 401.583 299.73 399.579 301.187 399.214C302.645 400.307 320.137 423.63 321.23 425.088V394.112ZM255.453 442.033L248.894 417.617L240.695 441.304C242.152 441.486 252.538 442.033 255.453 442.033ZM386.095 358.4L401.765 396.846C400.307 399.579 393.566 405.774 391.926 406.867L389.193 400.125C387.917 401.401 375.163 412.698 372.976 414.155L371.154 425.088C369.15 426.727 347.468 440.939 341.637 442.579L341.819 386.278C344.188 385.002 355.485 380.083 356.213 378.989L356.942 431.465L369.697 370.608C373.159 368.421 384.091 360.404 386.095 358.4ZM385.549 391.562L379.354 375.71L375.345 400.49C377.349 398.85 384.091 393.019 385.549 391.562Z" fill="black"/>
<path d="M369.697 108.413C371.519 108.777 377.167 110.053 379.172 108.777C388.282 102.582 376.074 89.6455 371.154 85.8191C354.574 72.1536 328.7 62.1323 322.141 60.6746C321.777 64.501 318.497 105.862 318.497 109.142L296.814 53.7508C292.623 52.1109 274.221 49.7423 270.394 49.9245L251.809 93.4718L231.767 51.1999C227.211 51.5643 212.088 54.4796 206.986 56.3017L190.224 103.311C191.499 99.1202 189.13 95.4761 186.579 93.2896C181.478 88.37 170.727 93.2896 167.812 94.3828C164.897 95.4761 156.698 100.031 153.418 98.2092C150.138 96.3871 150.502 90.9209 154.875 87.6412C163.621 81.6284 168.359 85.0903 168.541 87.2768C172.367 85.2725 184.757 80.1707 188.401 78.8953C188.401 76.891 187.855 69.9672 180.384 69.4205C169.816 68.6917 160.524 73.9757 146.494 83.8149C132.464 93.654 129.184 104.586 133.193 115.154C137.201 125.722 164.532 108.048 167.812 110.599C171.092 113.15 167.448 118.981 163.439 121.167C159.431 123.354 153.053 125.358 152.325 122.625C148.863 123.9 133.193 133.557 130.278 136.29C131.006 145.401 137.93 143.032 145.765 140.481C153.418 137.748 173.278 125.722 176.011 124.265C178.562 122.807 184.94 116.976 186.762 114.243L184.94 120.256C188.219 118.981 200.609 114.79 203.525 114.061L207.351 103.858C209.902 102.764 229.398 99.849 233.406 99.1202L237.962 107.684C239.966 107.137 249.987 106.773 251.809 106.773C253.631 106.773 262.559 106.773 266.204 106.773L269.483 98.3914C272.399 98.027 294.081 101.307 296.632 101.671L300.276 110.964C335.806 117.523 360.222 134.833 365.142 137.384C367.51 138.841 373.523 141.392 376.621 141.392C381.722 141.756 384.638 136.655 384.638 128.82C385.184 121.714 375.892 111.146 369.697 108.413ZM211.724 91.8319L219.012 67.9629L228.122 88.9166C226.665 89.0988 215.004 90.5565 211.724 91.8319ZM274.221 88.7344L283.695 67.2341L292.441 91.4675C290.619 90.9209 275.678 88.9166 274.221 88.7344ZM339.997 79.2597C347.103 81.8106 359.311 88.5522 362.044 91.1031C363.866 92.743 364.595 94.565 363.866 97.4803C363.137 100.396 359.311 99.4846 357.125 98.027C355.667 97.1159 346.374 91.8319 339.997 90.0099V79.2597ZM365.142 120.985C364.413 123.9 360.586 123.354 358.4 121.896C356.942 120.985 344.188 113.697 338.54 112.057V100.942C347.468 103.858 362.044 112.786 363.32 113.879C365.142 115.701 365.87 118.07 365.142 120.985Z" fill="black"/>
<path d="M187.49 219.559C192.957 212.271 199.334 210.995 204.253 210.813C212.27 210.631 217.19 216.826 217.19 216.826C217.19 216.826 219.923 208.262 222.11 205.165C223.021 203.889 224.114 202.978 225.389 202.432C225.207 202.432 225.025 202.432 224.66 202.614L202.431 150.503C213.546 150.138 226.847 156.88 217.919 169.27C217.737 169.817 218.283 169.999 218.648 169.634C220.288 167.995 222.474 166.901 225.025 166.901C229.762 166.901 233.589 170.728 233.589 175.465C233.589 180.202 229.762 184.029 225.025 184.029C224.478 184.029 223.932 184.029 223.203 183.847C223.749 187.309 243.792 195.326 251.627 180.02C250.169 181.113 248.347 181.66 246.525 181.66C241.788 181.66 237.962 177.834 237.962 173.096C237.962 168.359 241.788 164.533 246.525 164.533C248.165 164.533 249.805 165.079 251.08 165.808C249.441 164.168 248.347 161.982 248.347 159.613C248.347 154.876 252.174 151.049 256.911 151.049C261.648 151.049 265.475 154.876 265.475 159.613C265.475 161.982 264.564 163.986 263.106 165.444C264.381 164.897 265.657 164.533 267.115 164.533C271.852 164.533 275.678 168.359 275.678 173.096C275.678 177.834 271.852 181.66 267.115 181.66C264.928 181.66 263.106 180.931 261.466 179.656C263.106 185.486 276.954 196.601 290.801 183.847C290.255 184.029 289.708 184.029 288.979 184.029C284.242 184.029 280.416 180.202 280.416 175.465C280.416 170.728 284.242 166.901 288.979 166.901C291.53 166.901 293.717 167.995 295.357 169.634C295.721 169.999 296.268 169.817 296.085 169.27C287.157 156.88 300.458 150.138 311.573 150.503L289.344 202.796C288.979 202.796 288.797 202.432 288.433 202.432C290.255 203.16 290.984 204.254 291.895 206.258C291.895 206.258 305.56 199.516 315.035 200.974C315.035 200.974 314.306 207.716 312.12 213.364C309.933 219.012 307.2 222.839 307.2 222.839C307.2 222.839 322.87 239.055 320.865 257.458C319.772 267.479 318.315 269.848 318.315 269.848C313.577 263.835 306.836 262.56 306.836 262.56C306.836 262.56 318.679 274.221 316.492 287.522C315.581 293.353 313.942 300.641 313.031 303.192C311.573 307.383 311.026 317.951 311.026 317.951C311.026 317.951 305.742 307.2 301.005 303.556C301.005 303.556 306.836 319.773 297.543 333.074C293.534 338.722 285.153 347.468 285.153 347.468C285.153 347.468 282.238 335.625 276.589 331.434C276.589 331.434 276.771 345.828 273.127 351.659C266.021 363.32 245.068 370.426 245.068 370.426C245.068 370.426 243.974 334.713 242.152 329.794C242.152 329.794 238.326 337.993 237.233 346.193C236.504 351.476 236.322 357.854 236.322 357.854C236.322 357.854 219.923 335.26 217.919 332.345C211.359 322.323 223.385 306.471 223.385 306.471C217.919 307.2 211.177 317.039 211.177 317.039C211.177 317.039 210.448 303.192 210.448 297.179C210.631 290.62 217.008 283.331 217.008 283.331C211.359 286.793 206.804 286.975 201.338 282.42C195.507 277.865 194.232 263.289 194.232 263.289C194.232 263.289 204.436 268.937 211.906 266.204C219.376 263.653 228.851 253.632 228.851 253.632L209.72 248.165C209.72 248.165 208.626 238.873 199.152 238.873C190.223 238.873 181.66 247.254 181.66 247.254C181.66 247.254 180.567 228.669 187.49 219.559ZM159.066 243.975C164.897 255.454 172.367 260.555 180.567 261.467C188.766 262.378 202.431 255.636 206.44 255.636C210.448 255.636 216.097 257.822 218.101 258.733C213.546 250.534 206.44 249.441 200.974 248.712C195.507 247.983 186.215 252.721 177.833 253.085C169.452 253.632 162.892 247.619 159.066 243.975ZM232.131 233.225C236.868 233.225 240.695 229.398 240.695 224.661H235.957C235.957 227.394 234.5 229.216 231.949 229.216C229.398 229.216 228.305 227.394 228.305 224.661H223.567C223.567 229.398 227.394 233.225 232.131 233.225ZM216.461 241.788L244.157 250.17C244.157 250.17 225.754 270.395 215.55 272.763C210.995 273.857 208.444 273.674 203.707 271.852C203.525 271.67 207.351 281.509 216.279 278.594C225.936 275.496 236.868 272.763 223.567 288.251C221.745 290.437 219.012 294.81 219.012 297.361C219.012 298.09 219.012 299.001 219.012 300.094C220.47 299.365 221.745 299.001 223.385 298.819C233.042 297.543 237.779 301.37 230.491 311.209C227.394 315.217 222.838 324.328 225.207 328.154C225.936 329.065 228.669 332.891 231.949 337.629C233.589 331.434 235.957 326.696 235.957 326.514C243.792 310.116 246.89 319.044 250.169 326.879C251.809 330.887 252.72 344.735 253.267 358.765C258.733 355.849 264.746 352.023 267.479 347.65C268.937 345.281 269.848 337.264 269.848 331.434C269.665 316.493 274.403 317.951 282.238 325.239C284.606 327.425 286.975 329.976 288.615 333.074C289.89 331.434 291.166 329.976 292.077 328.701C298.818 318.862 294.628 306.107 294.628 306.107C285.882 281.874 301.187 293.353 306.471 297.361C306.836 297.543 307.018 297.908 307.382 298.09C308.111 295.175 309.204 290.437 309.751 286.247C311.026 278.776 304.102 271.123 302.28 268.026C296.996 258.733 295.903 250.899 313.942 256.547C315.217 243.61 304.831 231.038 302.827 228.669C297.179 235.047 290.984 241.059 290.984 241.059C292.441 242.699 293.899 262.013 291.53 269.848C286.064 287.158 279.322 289.709 279.322 289.709C279.322 289.709 278.594 277.501 273.856 269.484C273.856 269.484 273.127 282.967 268.754 290.802C261.648 303.374 255.271 305.378 255.271 305.378C257.822 295.904 255.453 280.598 255.453 280.598C250.716 291.713 241.241 294.628 241.241 294.628L238.873 278.047L245.068 273.492L246.343 282.602C246.343 282.602 248.712 282.056 250.352 277.318C252.538 271.306 255.818 256.547 260.737 272.399C262.013 276.59 262.559 286.611 262.559 286.611C262.559 286.611 267.115 278.776 267.115 267.844C267.115 261.102 269.119 244.886 277.136 259.644C279.505 264.017 282.602 270.941 282.602 270.941C282.602 270.941 287.522 253.085 281.509 238.509C281.509 238.509 296.814 225.207 304.102 211.906C304.102 211.906 286.428 219.195 277.318 228.123L272.581 221.017C272.581 221.017 277.136 216.644 284.789 211.906C284.789 211.906 283.331 209.538 278.776 209.538C279.14 209.538 231.038 209.538 231.038 209.538C227.758 209.72 226.3 214.093 225.025 217.919H254.36V224.661H246.89C246.89 232.678 240.33 239.237 232.313 239.237C224.296 239.237 217.737 232.86 217.737 224.843C215.368 225.025 212.999 223.932 211.359 221.928C211.359 221.928 208.444 218.648 204.618 218.83C201.338 219.012 197.512 219.741 193.868 224.479C192.41 226.483 191.317 229.763 190.77 233.225C193.685 232.131 196.783 231.402 200.063 231.402C208.626 231.038 213.91 236.504 216.461 241.788ZM229.398 194.232L231.949 201.521H283.695L286.064 194.232H229.398Z" fill="black"/>
</g>
<defs>
<clipPath id="clip0_3_7291">
<rect width="512" height="512" fill="white"/>
</clipPath>
</defs>
</svg>
