<svg width="512" height="512" viewBox="0 0 512 512" fill="none" xmlns="http://www.w3.org/2000/svg">
<g clip-path="url(#clip0_3_7157)">
<path d="M173.107 33.0472C268.593 29.7059 364.175 33.0235 459.494 39.1018C469.529 39.9667 479.696 39.8956 489.576 41.9928C494.922 43.2724 500.697 45.2985 503.824 50.1209C506.676 55.3698 506.735 61.4954 507.475 67.2775C509.742 95.6783 510.411 124.198 512.547 152.598C508.418 153.096 504.289 152.468 500.16 152.338C426.643 148.558 353.065 145.418 279.428 145.323C241.291 145.43 203.106 145.063 165.005 146.899C155.769 148.25 145.316 151.319 139.982 159.494C168.812 164.577 197.581 170.063 226.399 175.241C321.909 192.99 417.49 210.348 513 228.073C512.916 246.059 512.952 264.045 512.988 282.031C459.279 273.204 405.665 263.678 351.991 254.567C236.518 234.803 121.081 214.767 5.57143 195.194C5.79815 175.229 6.65731 155.276 7.07496 135.3C7.80285 119.482 7.34941 103.451 10.9531 87.9175C13.3755 76.9577 17.8622 65.9386 26.227 58.1068C40.6657 43.9123 61.548 39.9193 80.9865 37.9169C111.618 35.097 142.38 34.1728 173.107 33.0472ZM1 222.867C166.381 253.12 331.703 283.882 497.06 314.313C500.675 315.188 504.54 315.259 508.011 316.572L508.429 317.518C507.522 344.413 506.997 371.331 506.019 398.226C505.387 414.819 503.621 432.181 495.009 446.799C485.776 461.914 468.574 470.276 451.552 473.434C426.466 478.105 400.842 478.413 375.434 479.797C266.106 484.717 156.552 481.996 47.4031 474.545C38.6832 473.942 29.8081 473.789 21.3387 471.388C16.9488 470.016 12.4159 467.804 9.93469 463.783C7.27456 458.508 7.10756 452.488 6.45148 446.74C4.11342 415.363 2.87283 383.927 1.21472 352.514C57.5188 356.063 113.918 358.05 170.33 359.291C224.797 360.167 279.264 360.155 333.731 360.687C345.481 361.172 358.185 358.948 367.096 350.764C368.396 349.286 370.507 347.914 370.293 345.702C345.743 342.048 321.337 337.506 296.835 333.508C198.255 316.797 99.6276 300.239 1.05964 283.433C0.940356 263.244 1.0835 243.056 1 222.867Z" fill="black"/>
</g>
<defs>
<clipPath id="clip0_3_7157">
<rect width="512" height="512" fill="white"/>
</clipPath>
</defs>
</svg>
