<svg width="512" height="512" viewBox="0 0 512 512" fill="none" xmlns="http://www.w3.org/2000/svg">
<path fill-rule="evenodd" clip-rule="evenodd" d="M228.134 1.34992C174.386 8.29254 127.147 29.1743 89.5706 62.6013C86.4104 65.4087 82.8387 68.5444 81.6334 69.566C80.4257 70.59 75.558 75.6218 70.8152 80.7491C-45.2201 206.238 -9.15965 406.719 143.159 482.924C314.363 568.58 515.285 441.952 511.848 250.564C511.476 229.893 511.064 225.275 508.014 207.693C487.532 89.6393 382.778 1.89867 260.287 0.205883C242.921 -0.0341938 237.291 0.166687 228.134 1.34992ZM284.807 12.4988C438.358 31.2982 535.437 180.91 489.837 328.481C466.912 402.665 405.472 464.044 330.718 487.431C211.456 524.749 84.1321 466.726 33.5201 352.001C-0.0489868 275.907 10.3404 176.157 58.3558 113.532C58.6791 113.11 60.9011 110.183 63.2945 107.025C114.61 39.3139 201.383 2.28573 284.807 12.4988ZM244.976 24.8186C96.2192 33.3046 -5.97741 178.651 36.8003 320.889C81.0111 467.88 253.942 531.309 382.775 447.782C388.814 443.867 392.001 441.599 398.833 436.344C413.363 425.171 429.681 408.667 440.22 394.488C442.096 391.962 443.84 389.723 444.095 389.512C445.665 388.211 458.852 366.724 462.346 359.77C538.668 207.87 432.329 29.2527 262.967 24.8725C255.809 24.6863 247.712 24.6643 244.976 24.8186ZM277.511 45.8106C453.47 62.4078 530.868 278.996 405.394 403.674C290.571 517.769 99.0953 465.817 54.1177 308.364C47.5254 285.285 45.4333 243.95 49.7449 221.958C50.127 220.008 51.0016 215.483 51.69 211.904C71.4522 108.98 170.998 35.7642 277.511 45.8106ZM241.15 68.711C233.35 69.4337 221.716 71.3959 212.877 73.4758C195.809 77.4909 195.706 78.8138 211.365 92.944C227.428 107.442 241.835 123.718 252.257 139.139C258.923 149.002 258.957 149.129 254.937 149.129C248.389 149.129 242.558 145.859 232.181 136.364C212.527 118.382 179.996 95.4256 169.815 92.3536C164.105 90.6315 143.666 104.416 126.395 121.641C113.662 134.338 112.52 136.812 118.098 139.639C136.491 148.965 184.499 183.539 184.499 187.461C184.499 192.076 173.468 190.251 158.852 183.215C129.32 168.997 101.146 159.992 95.5578 162.983C91.8538 164.965 80.4036 192.414 76.266 209.224C70.7246 231.743 71.1141 232.781 86.1581 235.706C146.378 247.409 182.372 278.342 192.527 327.119C194.785 337.959 193.997 342.082 189.246 344.292C185.317 346.119 184.141 345.715 159.019 333.902L145.408 327.504H116.28H87.1551L84.9161 329.74C80.6437 334.015 81.065 335.017 93.9067 351.026C99.1957 357.619 107.145 368.542 111.577 375.303C121.77 390.864 119.605 389.512 134.338 389.512C148.36 389.512 146.018 390.252 162.297 380.668L172.632 374.583L261.855 374.382C365.688 374.15 354.451 373.067 354.451 383.299C354.451 393.378 357.16 393.882 377.033 387.506C393.189 382.322 416.886 366.999 418.463 360.715C420.658 351.977 382.52 329.98 361.34 327.768C355.634 327.173 354.701 328.273 354.326 336.046C353.959 343.684 352.81 345.11 347.023 345.11C343.682 345.11 342.545 344.76 341.048 343.263C337.344 339.559 337.361 339.368 343.253 316.276C365.23 230.16 354.637 159.328 311.58 104.443C304.713 95.6927 280.917 71.8099 277.129 69.8697C274.052 68.2945 252.977 67.6159 241.15 68.711ZM300.862 278.609C315.537 285.392 319.304 303.687 308.467 315.544C293.795 331.6 267.943 321.59 267.943 299.856C267.943 282.531 285.221 271.38 300.862 278.609Z" fill="black"/>
</svg>
