<svg width="512" height="512" viewBox="0 0 512 512" fill="none" xmlns="http://www.w3.org/2000/svg">
<path d="M362.4 58.7202C414.88 92.6402 490.4 198.72 510.56 257.12C490.24 315.84 414.72 421.44 362.4 455.52V58.7202Z" fill="black"/>
<path d="M250.24 134.08C277.6 134.08 312.64 144.96 340 164.64V45.1201C312.64 28.1601 279.36 18.0801 240.48 18.0801C108.32 18.0801 1.44 125.12 1.44 257.12C1.44 389.44 108.32 496 240.48 496C279.52 496 312.8 486.4 340 469.28V349.6C312.64 369.28 277.6 380.48 250.24 380.48C175.84 380.48 121.28 326.08 121.28 257.28C121.12 188 175.84 134.08 250.24 134.08Z" fill="black"/>
</svg>
