<svg width="512" height="512" viewBox="0 0 512 512" fill="none" xmlns="http://www.w3.org/2000/svg">
<g clip-path="url(#clip0_3_7269)">
<path d="M255.414 99.4721C189.156 99.4721 127.749 117.208 82.7399 143.812C36.6431 171.002 7.69673 207.645 7.69673 244.873C7.69673 281.517 36.6431 317.574 82.1542 344.764C127.665 371.368 188.57 388.518 255.414 388.518C322.259 388.518 383.749 371.368 429.26 344.764C475.357 317.574 504.387 281.517 504.387 244.873C504.387 207.645 475.441 171.002 428.675 143.812C383.665 117.208 322.175 99.4721 255.414 99.4721ZM78.6405 137.287C125.323 110.097 187.399 91.7754 255.414 91.7754C323.43 91.7754 386.091 110.097 432.774 137.287C481.297 165.647 512 204.717 512 244.873C512 283.859 481.297 322.928 432.774 351.289C386.677 378.479 323.43 396.215 255.414 396.215C187.399 396.215 124.737 378.479 78.6405 351.289C30.1176 322.928 0 283.943 0 244.873C0 205.302 30.7033 165.647 78.6405 137.287Z" fill="black"/>
<path d="M186.227 189.323L301.511 214.756L187.399 238.348L162.552 301.093L137.788 237.177L32.5438 214.756L137.788 192.251L161.38 131.932L186.227 189.323Z" fill="black"/>
<path d="M312.722 248.471L361.83 258.51L312.722 269.72L302.682 295.739L291.472 268.549L246.546 258.51L291.472 248.471L301.511 223.624L312.722 248.471Z" fill="black"/>
<path d="M431.603 248.471L480.627 258.51L431.603 269.72L421.563 295.739L410.269 268.549L366.599 258.51L410.269 248.471L421.563 223.624L431.603 248.471Z" fill="black"/>
<path d="M400.23 174.515L449.339 184.554L400.23 194.677L390.191 221.867L378.98 194.677L334.055 184.554L378.98 174.515L389.02 149.668L400.23 174.515Z" fill="black"/>
<path d="M354.133 306.949L404.413 318.243L355.305 328.282L344.094 354.886L332.884 328.282L289.129 318.243L332.884 308.12L344.094 283.357L354.133 306.949Z" fill="black"/>
<path d="M225.297 315.817L273.736 327.111L225.297 337.151L215.174 363.755L203.963 335.979L159.038 327.111L203.963 316.989L214.003 290.97L225.297 315.817Z" fill="black"/>
</g>
<defs>
<clipPath id="clip0_3_7269">
<rect width="512" height="512" fill="white"/>
</clipPath>
</defs>
</svg>
