<svg width="512" height="512" viewBox="0 0 512 512" fill="none" xmlns="http://www.w3.org/2000/svg">
<path d="M256 508.8L327.04 109.28C394.72 109.28 416.16 116.8 419.2 147.04C419.2 147.04 464.64 130.08 487.52 95.6803C398.08 54.2403 308.32 52.3203 308.32 52.3203L255.84 116.16H256L203.52 52.3203C203.52 52.3203 113.76 54.2403 24.3199 95.6803C47.1999 130.08 92.6399 147.04 92.6399 147.04C95.8399 116.8 117.12 109.28 184.32 109.28L256 508.8Z" fill="black"/>
<path d="M256 33.9202C328.32 33.2802 410.88 45.1202 495.68 82.0802C507.04 61.7602 509.92 52.6402 509.92 52.6402C429.12 20.4802 343.04 3.6802 256 3.2002C168.96 3.6802 82.88 20.4802 2.07996 52.6402C6.23996 62.7202 10.88 72.4802 16.32 82.0802C100.96 45.1202 183.68 33.4402 256 33.9202Z" fill="black"/>
</svg>
