<svg width="512" height="512" viewBox="0 0 512 512" fill="none" xmlns="http://www.w3.org/2000/svg">
<path d="M255.346 93.0569C115.761 93.0569 1.86859 165.933 1.86859 255.346C1.86859 344.759 115.761 417.635 255.346 417.635C394.931 417.635 508.823 344.759 508.823 255.346C508.823 165.933 394.931 93.0569 255.346 93.0569ZM325.512 123.142C347.936 127.439 368.958 133.793 387.831 141.828C404.088 150.237 413.618 160.14 413.618 170.885C413.618 192.561 374.75 211.34 319.253 219.562C315.422 177.705 305.144 141.921 291.317 119.031C303.276 119.965 314.674 121.366 325.512 123.142ZM255.346 117.629C276.368 117.629 294.026 162.196 298.978 222.085C285.057 223.393 270.482 224.14 255.346 224.14C240.21 224.14 225.542 223.393 211.714 222.085C216.666 162.102 234.417 117.629 255.346 117.629ZM122.861 141.828C141.734 133.793 162.756 127.533 185.18 123.142C195.924 121.366 207.416 119.965 219.375 119.031C205.547 141.921 195.27 177.799 191.439 219.562C135.942 211.247 97.0744 192.561 97.0744 170.885C97.0744 160.14 106.604 150.143 122.861 141.828ZM24.3854 255.346C24.3854 222.739 43.2584 192.747 74.7445 169.016C74.6511 170.137 74.5576 171.258 74.5576 172.38C74.5576 204.239 122.581 231.615 190.038 242.546C189.851 247.124 189.851 251.702 189.851 256.374C189.851 312.806 201.25 362.698 218.628 392.315C108.753 381.758 24.3854 324.298 24.3854 255.346ZM260.952 394.091C259.083 394.091 257.215 394.091 255.346 394.091C253.477 394.091 251.609 394.091 249.74 394.091C227.504 385.588 210.219 327.007 210.219 256.374C210.219 252.636 210.312 248.993 210.406 245.349C224.794 246.844 239.836 247.685 255.346 247.685C270.855 247.685 285.898 246.844 300.286 245.349C300.38 248.993 300.473 252.73 300.473 256.374C300.38 327.007 283.095 385.588 260.952 394.091ZM292.064 392.409C309.442 362.791 320.841 312.899 320.841 256.467C320.841 251.796 320.747 247.218 320.654 242.639C388.111 231.708 436.134 204.333 436.134 172.473C436.134 171.352 436.041 170.231 435.947 169.11C467.434 192.841 486.307 222.832 486.307 255.439C486.307 324.298 401.939 381.758 292.064 392.409Z" fill="black"/>
</svg>
