<svg width="512" height="512" viewBox="0 0 512 512" fill="none" xmlns="http://www.w3.org/2000/svg">
<path d="M255.806 3.59473C116.779 3.59473 3.40039 116.973 3.40039 256C3.40039 395.027 116.779 508.405 255.806 508.405C394.833 508.405 508.211 395.027 508.211 256C508.114 116.973 394.736 3.59473 255.806 3.59473ZM255.806 479.259C132.809 479.259 32.5465 378.997 32.5465 256C32.5465 133.003 132.809 32.7408 255.806 32.7408C378.802 32.7408 479.065 133.003 479.065 256C479.065 378.997 378.705 479.259 255.806 479.259Z" fill="black"/>
<path d="M183.523 426.602C117.167 398.33 70.5336 332.46 70.5336 256C70.5336 236.569 73.5453 217.819 79.1803 200.137L183.523 426.602Z" fill="black"/>
<path d="M307.2 433.986C290.878 438.746 273.585 441.272 255.709 441.272C237.832 441.272 220.636 438.746 204.314 433.986L255.709 314.001L307.2 433.986Z" fill="black"/>
<path d="M432.431 200.234C438.066 217.819 441.078 236.569 441.078 256C441.078 332.46 394.347 398.33 328.088 426.505L432.431 200.234Z" fill="black"/>
<path d="M349.17 96.085C371.807 109.395 391.335 127.271 406.588 148.548L314.292 344.701L283.203 269.796H228.408L197.319 344.701L105.023 148.548C120.276 127.271 139.804 109.298 162.441 96.085L227.145 247.159H284.466L349.17 96.085Z" fill="black"/>
<path d="M255.806 70.728C273.876 70.728 291.461 73.3512 307.977 78.2089L255.806 203.829L203.634 78.2089C220.15 73.3512 237.638 70.728 255.806 70.728Z" fill="black"/>
</svg>
