<svg width="512" height="512" viewBox="0 0 512 512" fill="none" xmlns="http://www.w3.org/2000/svg">
<g clip-path="url(#clip0_3_7171)">
<path d="M461.312 102.4L473.6 90.112C482.304 101.376 489.472 113.664 497.152 126.464H506.88V5.632H385.536V15.36C398.336 22.016 409.6 29.696 420.864 38.912L408.576 51.2C366.08 18.432 313.344 0 256 0C114.176 0 0 114.176 0 256C0 397.824 114.176 512 256 512C397.824 512 512 397.824 512 256C512 198.144 492.544 144.896 461.312 102.4ZM442.88 302.08C421.888 385.536 346.112 448.512 256 448.512C165.888 448.512 89.6 386.56 69.12 302.08H442.88ZM68.608 209.408C89.6 125.44 165.376 62.976 255.488 62.976C345.6 62.976 421.888 124.928 442.368 209.408H68.608ZM392.704 254.976C392.704 246.272 397.312 238.08 404.992 238.08C412.16 238.08 416.256 246.272 416.256 256C416.256 264.704 412.16 273.92 403.968 273.92C395.776 272.896 392.704 264.192 392.704 254.976ZM180.224 254.976C180.224 246.272 184.832 238.08 192.512 238.08C199.68 238.08 203.776 246.272 203.776 256C203.776 264.704 199.68 273.92 191.488 273.92C183.296 272.896 180.224 264.192 180.224 254.976ZM192.512 230.4C215.04 230.4 226.304 241.664 226.304 255.488C226.304 269.312 215.04 280.576 192.512 280.576C169.984 280.576 158.72 268.8 158.72 254.976C158.72 241.152 169.984 230.4 192.512 230.4ZM123.392 268.288L139.264 238.592H129.536V231.424H162.304V238.592H151.04L129.536 279.04H103.936L81.408 238.592H70.144V231.424H118.272V238.592H107.008L123.392 268.288ZM404.992 230.4C427.52 230.4 438.784 241.664 438.784 255.488C438.784 269.312 427.52 280.576 404.992 280.576C382.464 280.576 371.2 269.312 371.2 255.488C371.2 241.664 382.464 230.4 404.992 230.4ZM294.4 239.104H283.136V231.936H331.264V239.104H320L335.872 268.8L351.744 239.104H343.04V231.936H375.808V239.104H364.544L343.04 279.552H317.44C316.928 279.552 294.4 239.104 294.4 239.104ZM239.616 239.104H228.352V231.936H272.384V239.104H261.12V271.872H271.36C281.088 271.872 286.72 265.216 286.72 257.536H293.888V280.064H228.352V272.896H239.616V239.104Z" fill="black"/>
</g>
<defs>
<clipPath id="clip0_3_7171">
<rect width="512" height="512" fill="white"/>
</clipPath>
</defs>
</svg>
