<svg width="512" height="300" viewBox="0 0 512 300" fill="none" xmlns="http://www.w3.org/2000/svg">
<path d="M0 0H512V299.733H0V0Z" fill="white"/>
<path d="M101.243 91.0113L141.728 30.3371L151.849 37.0787L111.364 97.7529L101.243 91.0113ZM116.425 101.124L156.91 40.4495L167.032 47.1911L126.546 107.865L116.425 101.124ZM131.607 111.236L172.092 50.5619L182.214 57.3034L141.728 117.978L131.607 111.236Z" fill="black"/>
<path d="M323.913 239.326L364.399 178.652L374.52 185.393L334.035 246.067L323.913 239.326ZM339.095 249.438L379.581 188.764L389.702 195.506L349.217 256.18L339.095 249.438ZM354.278 259.551L394.763 198.876L404.884 205.618L364.399 266.292L354.278 259.551Z" fill="black"/>
<path d="M339.095 205.618L389.702 239.326Z" fill="black"/>
<path d="M339.095 205.618L389.702 239.326" stroke="white" stroke-width="12.5"/>
<path d="M192.335 107.865C203.073 91.7734 219.768 80.6023 238.75 76.8094C257.731 73.0166 277.443 76.9126 293.549 87.6405C309.655 98.3683 320.836 115.049 324.632 134.014C328.429 152.978 324.529 172.672 313.792 188.764L192.335 107.865Z" fill="#CD2E3A"/>
<path d="M192.335 107.865C181.598 123.957 177.698 143.651 181.494 162.616C185.291 181.58 196.472 198.261 212.578 208.989C228.684 219.717 248.396 223.613 267.377 219.82C286.359 216.027 303.054 204.856 313.792 188.764C319.16 180.718 321.11 170.871 319.212 161.389C317.314 151.907 311.723 143.566 303.67 138.202C295.617 132.838 285.761 130.89 276.271 132.787C266.78 134.683 258.432 140.269 253.063 148.315L192.335 107.865Z" fill="#0047A0"/>
<path d="M253.064 148.315C264.243 131.56 259.712 108.923 242.942 97.7528C226.172 86.583 203.515 91.1105 192.335 107.865C181.155 124.62 185.687 147.257 202.457 158.427C219.226 169.597 241.884 165.069 253.064 148.315Z" fill="#CD2E3A"/>
<path d="M141.728 266.292L101.243 205.618L111.364 198.876L151.849 259.551L141.728 266.292ZM156.91 256.18L116.425 195.506L126.546 188.764L167.031 249.438L156.91 256.18ZM172.092 246.067L131.607 185.393L141.728 178.652L182.214 239.326L172.092 246.067Z" fill="black"/>
<path d="M364.399 117.977L323.913 57.3033L334.035 50.5617L374.52 111.236L364.399 117.977ZM379.581 107.865L339.095 47.191L349.217 40.4494L389.702 101.124L379.581 107.865ZM394.763 97.7528L354.277 37.0786L364.399 30.337L404.884 91.0112L394.763 97.7528Z" fill="black"/>
<path d="M134.137 227.528L149.319 217.416ZM339.095 91.0112L356.808 79.2135ZM371.99 69.1011L387.172 58.9887Z" fill="black"/>
<path d="M134.137 227.528L149.319 217.416M339.095 91.0112L356.808 79.2135M371.99 69.1011L387.172 58.9887" stroke="white" stroke-width="12.5"/>
</svg>
