<svg width="512" height="300" viewBox="0 0 512 300" fill="none" xmlns="http://www.w3.org/2000/svg">
<rect width="512" height="300" fill="white"/>
<rect x="227" width="285" height="23" fill="#B22234"/>
<rect x="227" width="285" height="23" fill="#B22234"/>
<rect x="227" width="285" height="23" fill="#B22234"/>
<rect x="227" y="46" width="285" height="23" fill="#B22234"/>
<rect x="227" y="46" width="285" height="23" fill="#B22234"/>
<rect x="227" y="46" width="285" height="23" fill="#B22234"/>
<rect x="227" y="92" width="285" height="23" fill="#B22234"/>
<rect x="227" y="92" width="285" height="23" fill="#B22234"/>
<rect x="227" y="92" width="285" height="23" fill="#B22234"/>
<rect x="227" y="138" width="285" height="23" fill="#B22234"/>
<rect x="227" y="138" width="285" height="23" fill="#B22234"/>
<rect x="227" y="138" width="285" height="23" fill="#B22234"/>
<rect y="185" width="512" height="23" fill="#B22234"/>
<rect y="185" width="512" height="23" fill="#B22234"/>
<rect y="185" width="512" height="23" fill="#B22234"/>
<rect y="231" width="512" height="23" fill="#B22234"/>
<rect y="231" width="512" height="23" fill="#B22234"/>
<rect y="231" width="512" height="23" fill="#B22234"/>
<rect y="277" width="512" height="23" fill="#B22234"/>
<rect y="277" width="512" height="23" fill="#B22234"/>
<rect y="277" width="512" height="23" fill="#B22234"/>
<rect width="227" height="161" fill="#3C3B6E"/>
<path d="M19 7L21.0206 13.2188H27.5595L22.2694 17.0623L24.2901 23.2812L19 19.4377L13.7099 23.2812L15.7306 17.0623L10.4405 13.2188H16.9794L19 7Z" fill="white"/>
<path d="M57 7L59.0206 13.2188H65.5595L60.2694 17.0623L62.2901 23.2812L57 19.4377L51.7099 23.2812L53.7306 17.0623L48.4405 13.2188H54.9794L57 7Z" fill="white"/>
<path d="M95 7L97.0206 13.2188H103.56L98.2694 17.0623L100.29 23.2812L95 19.4377L89.7099 23.2812L91.7306 17.0623L86.4405 13.2188H92.9794L95 7Z" fill="white"/>
<path d="M133 7L135.021 13.2188H141.56L136.269 17.0623L138.29 23.2812L133 19.4377L127.71 23.2812L129.731 17.0623L124.44 13.2188H130.979L133 7Z" fill="white"/>
<path d="M171 7L173.021 13.2188H179.56L174.269 17.0623L176.29 23.2812L171 19.4377L165.71 23.2812L167.731 17.0623L162.44 13.2188H168.979L171 7Z" fill="white"/>
<path d="M209 7L211.021 13.2188H217.56L212.269 17.0623L214.29 23.2812L209 19.4377L203.71 23.2812L205.731 17.0623L200.44 13.2188H206.979L209 7Z" fill="white"/>
<path d="M38 23L40.0206 29.2188H46.5595L41.2694 33.0623L43.2901 39.2812L38 35.4377L32.7099 39.2812L34.7306 33.0623L29.4405 29.2188H35.9794L38 23Z" fill="white"/>
<path d="M76 23L78.0206 29.2188H84.5595L79.2694 33.0623L81.2901 39.2812L76 35.4377L70.7099 39.2812L72.7306 33.0623L67.4405 29.2188H73.9794L76 23Z" fill="white"/>
<path d="M114 23L116.021 29.2188H122.56L117.269 33.0623L119.29 39.2812L114 35.4377L108.71 39.2812L110.731 33.0623L105.44 29.2188H111.979L114 23Z" fill="white"/>
<path d="M152 23L154.021 29.2188H160.56L155.269 33.0623L157.29 39.2812L152 35.4377L146.71 39.2812L148.731 33.0623L143.44 29.2188H149.979L152 23Z" fill="white"/>
<path d="M190 23L192.021 29.2188H198.56L193.269 33.0623L195.29 39.2812L190 35.4377L184.71 39.2812L186.731 33.0623L181.44 29.2188H187.979L190 23Z" fill="white"/>
<path d="M19 40L21.0206 46.2188H27.5595L22.2694 50.0623L24.2901 56.2812L19 52.4377L13.7099 56.2812L15.7306 50.0623L10.4405 46.2188H16.9794L19 40Z" fill="white"/>
<path d="M57 40L59.0206 46.2188H65.5595L60.2694 50.0623L62.2901 56.2812L57 52.4377L51.7099 56.2812L53.7306 50.0623L48.4405 46.2188H54.9794L57 40Z" fill="white"/>
<path d="M95 40L97.0206 46.2188H103.56L98.2694 50.0623L100.29 56.2812L95 52.4377L89.7099 56.2812L91.7306 50.0623L86.4405 46.2188H92.9794L95 40Z" fill="white"/>
<path d="M133 40L135.021 46.2188H141.56L136.269 50.0623L138.29 56.2812L133 52.4377L127.71 56.2812L129.731 50.0623L124.44 46.2188H130.979L133 40Z" fill="white"/>
<path d="M171 40L173.021 46.2188H179.56L174.269 50.0623L176.29 56.2812L171 52.4377L165.71 56.2812L167.731 50.0623L162.44 46.2188H168.979L171 40Z" fill="white"/>
<path d="M209 40L211.021 46.2188H217.56L212.269 50.0623L214.29 56.2812L209 52.4377L203.71 56.2812L205.731 50.0623L200.44 46.2188H206.979L209 40Z" fill="white"/>
<path d="M38 56L40.0206 62.2188H46.5595L41.2694 66.0623L43.2901 72.2812L38 68.4377L32.7099 72.2812L34.7306 66.0623L29.4405 62.2188H35.9794L38 56Z" fill="white"/>
<path d="M76 56L78.0206 62.2188H84.5595L79.2694 66.0623L81.2901 72.2812L76 68.4377L70.7099 72.2812L72.7306 66.0623L67.4405 62.2188H73.9794L76 56Z" fill="white"/>
<path d="M114 56L116.021 62.2188H122.56L117.269 66.0623L119.29 72.2812L114 68.4377L108.71 72.2812L110.731 66.0623L105.44 62.2188H111.979L114 56Z" fill="white"/>
<path d="M152 56L154.021 62.2188H160.56L155.269 66.0623L157.29 72.2812L152 68.4377L146.71 72.2812L148.731 66.0623L143.44 62.2188H149.979L152 56Z" fill="white"/>
<path d="M190 56L192.021 62.2188H198.56L193.269 66.0623L195.29 72.2812L190 68.4377L184.71 72.2812L186.731 66.0623L181.44 62.2188H187.979L190 56Z" fill="white"/>
<path d="M19 71L21.0206 77.2188H27.5595L22.2694 81.0623L24.2901 87.2812L19 83.4377L13.7099 87.2812L15.7306 81.0623L10.4405 77.2188H16.9794L19 71Z" fill="white"/>
<path d="M57 71L59.0206 77.2188H65.5595L60.2694 81.0623L62.2901 87.2812L57 83.4377L51.7099 87.2812L53.7306 81.0623L48.4405 77.2188H54.9794L57 71Z" fill="white"/>
<path d="M95 71L97.0206 77.2188H103.56L98.2694 81.0623L100.29 87.2812L95 83.4377L89.7099 87.2812L91.7306 81.0623L86.4405 77.2188H92.9794L95 71Z" fill="white"/>
<path d="M133 71L135.021 77.2188H141.56L136.269 81.0623L138.29 87.2812L133 83.4377L127.71 87.2812L129.731 81.0623L124.44 77.2188H130.979L133 71Z" fill="white"/>
<path d="M171 71L173.021 77.2188H179.56L174.269 81.0623L176.29 87.2812L171 83.4377L165.71 87.2812L167.731 81.0623L162.44 77.2188H168.979L171 71Z" fill="white"/>
<path d="M209 71L211.021 77.2188H217.56L212.269 81.0623L214.29 87.2812L209 83.4377L203.71 87.2812L205.731 81.0623L200.44 77.2188H206.979L209 71Z" fill="white"/>
<path d="M38 87L40.0206 93.2188H46.5595L41.2694 97.0623L43.2901 103.281L38 99.4377L32.7099 103.281L34.7306 97.0623L29.4405 93.2188H35.9794L38 87Z" fill="white"/>
<path d="M76 87L78.0206 93.2188H84.5595L79.2694 97.0623L81.2901 103.281L76 99.4377L70.7099 103.281L72.7306 97.0623L67.4405 93.2188H73.9794L76 87Z" fill="white"/>
<path d="M114 87L116.021 93.2188H122.56L117.269 97.0623L119.29 103.281L114 99.4377L108.71 103.281L110.731 97.0623L105.44 93.2188H111.979L114 87Z" fill="white"/>
<path d="M152 87L154.021 93.2188H160.56L155.269 97.0623L157.29 103.281L152 99.4377L146.71 103.281L148.731 97.0623L143.44 93.2188H149.979L152 87Z" fill="white"/>
<path d="M190 87L192.021 93.2188H198.56L193.269 97.0623L195.29 103.281L190 99.4377L184.71 103.281L186.731 97.0623L181.44 93.2188H187.979L190 87Z" fill="white"/>
<path d="M19 104L21.0206 110.219H27.5595L22.2694 114.062L24.2901 120.281L19 116.438L13.7099 120.281L15.7306 114.062L10.4405 110.219H16.9794L19 104Z" fill="white"/>
<path d="M57 104L59.0206 110.219H65.5595L60.2694 114.062L62.2901 120.281L57 116.438L51.7099 120.281L53.7306 114.062L48.4405 110.219H54.9794L57 104Z" fill="white"/>
<path d="M95 104L97.0206 110.219H103.56L98.2694 114.062L100.29 120.281L95 116.438L89.7099 120.281L91.7306 114.062L86.4405 110.219H92.9794L95 104Z" fill="white"/>
<path d="M133 104L135.021 110.219H141.56L136.269 114.062L138.29 120.281L133 116.438L127.71 120.281L129.731 114.062L124.44 110.219H130.979L133 104Z" fill="white"/>
<path d="M171 104L173.021 110.219H179.56L174.269 114.062L176.29 120.281L171 116.438L165.71 120.281L167.731 114.062L162.44 110.219H168.979L171 104Z" fill="white"/>
<path d="M209 104L211.021 110.219H217.56L212.269 114.062L214.29 120.281L209 116.438L203.71 120.281L205.731 114.062L200.44 110.219H206.979L209 104Z" fill="white"/>
<path d="M19 136L21.0206 142.219H27.5595L22.2694 146.062L24.2901 152.281L19 148.438L13.7099 152.281L15.7306 146.062L10.4405 142.219H16.9794L19 136Z" fill="white"/>
<path d="M57 136L59.0206 142.219H65.5595L60.2694 146.062L62.2901 152.281L57 148.438L51.7099 152.281L53.7306 146.062L48.4405 142.219H54.9794L57 136Z" fill="white"/>
<path d="M95 136L97.0206 142.219H103.56L98.2694 146.062L100.29 152.281L95 148.438L89.7099 152.281L91.7306 146.062L86.4405 142.219H92.9794L95 136Z" fill="white"/>
<path d="M133 136L135.021 142.219H141.56L136.269 146.062L138.29 152.281L133 148.438L127.71 152.281L129.731 146.062L124.44 142.219H130.979L133 136Z" fill="white"/>
<path d="M171 136L173.021 142.219H179.56L174.269 146.062L176.29 152.281L171 148.438L165.71 152.281L167.731 146.062L162.44 142.219H168.979L171 136Z" fill="white"/>
<path d="M209 136L211.021 142.219H217.56L212.269 146.062L214.29 152.281L209 148.438L203.71 152.281L205.731 146.062L200.44 142.219H206.979L209 136Z" fill="white"/>
<path d="M38 120L40.0206 126.219H46.5595L41.2694 130.062L43.2901 136.281L38 132.438L32.7099 136.281L34.7306 130.062L29.4405 126.219H35.9794L38 120Z" fill="white"/>
<path d="M76 120L78.0206 126.219H84.5595L79.2694 130.062L81.2901 136.281L76 132.438L70.7099 136.281L72.7306 130.062L67.4405 126.219H73.9794L76 120Z" fill="white"/>
<path d="M114 120L116.021 126.219H122.56L117.269 130.062L119.29 136.281L114 132.438L108.71 136.281L110.731 130.062L105.44 126.219H111.979L114 120Z" fill="white"/>
<path d="M152 120L154.021 126.219H160.56L155.269 130.062L157.29 136.281L152 132.438L146.71 136.281L148.731 130.062L143.44 126.219H149.979L152 120Z" fill="white"/>
<path d="M190 120L192.021 126.219H198.56L193.269 130.062L195.29 136.281L190 132.438L184.71 136.281L186.731 130.062L181.44 126.219H187.979L190 120Z" fill="white"/>
</svg>
