<svg width="142" height="32" viewBox="0 0 142 32" fill="none" xmlns="http://www.w3.org/2000/svg">
<g clip-path="url(#clip0_158_62)">
<path d="M44.112 4.94621C43.8533 3.99009 43.3486 3.11845 42.6482 2.41809C41.9478 1.71773 41.0761 1.21311 40.12 0.954483C36.6195 0 22.5329 0 22.5329 0C22.5329 0 8.44574 0.0289655 4.94588 0.983448C3.9898 1.24211 3.11818 1.74676 2.41782 2.44711C1.71747 3.14747 1.21282 4.01909 0.954157 4.97517C-0.104601 11.1945 -0.51536 20.6706 0.983123 26.6408C1.24179 27.5969 1.74643 28.4685 2.44679 29.1689C3.14714 29.8692 4.01877 30.3739 4.97485 30.6326C8.47498 31.587 22.5619 31.587 22.5619 31.587C22.5619 31.587 36.6488 31.587 40.1489 30.6326C41.105 30.3739 41.9766 29.8692 42.677 29.1689C43.3773 28.4685 43.882 27.5969 44.1406 26.6408C45.2571 20.413 45.6013 10.9426 44.1117 4.94648" fill="#FF0000"/>
<path d="M18.0493 22.5623L29.7354 15.7937L18.0493 9.0249V22.5623Z" fill="white"/>
<path d="M135.518 9.16969C137.051 9.16969 138.208 9.45879 139.018 10.0083C139.828 10.558 140.406 11.4259 140.754 12.6119C141.101 13.7978 141.245 15.4174 141.245 17.5002V20.8847H133.811V21.9258L133.927 24.7896C134.014 25.426 134.159 25.8889 134.39 26.178C134.621 26.4673 134.997 26.6119 135.489 26.6119C136.154 26.6119 136.617 26.3518 136.848 25.8312C137.109 25.3104 137.224 24.4425 137.253 23.2566L141.101 23.488C141.13 23.6616 141.13 23.893 141.13 24.1821C141.13 26.0044 140.638 27.3642 139.625 28.2607C138.613 29.1573 137.224 29.6202 135.402 29.6202C133.204 29.6202 131.671 28.9261 130.803 27.5667C129.935 26.2069 129.472 24.0662 129.472 21.2028V17.7027C129.571 12.7854 130.436 9.18404 135.518 9.16969ZM82.0339 9.54569V24.0376C82.0339 24.9054 82.1205 25.5418 82.323 25.9178C82.7337 26.722 83.7983 26.5164 84.3768 26.1203C84.7106 25.8945 84.9798 25.5854 85.1577 25.2238V9.54541H89.5834V29.3018H86.1122L85.7362 26.872H85.6496C84.6951 28.6944 83.2774 29.6199 81.3974 29.6199C78.5036 29.6127 77.7955 27.5278 77.627 25.4102L77.6159 25.261C77.5951 24.9403 77.5828 24.6191 77.5792 24.2977V9.54569H82.0339ZM104.856 9.54569V24.0376C104.856 24.9054 104.943 25.5418 105.146 25.9178C105.557 26.722 106.621 26.5164 107.199 26.1203C107.533 25.8945 107.802 25.5854 107.98 25.2238V9.54541H112.406V29.3018H108.935L108.559 26.872H108.472C107.518 28.6944 106.1 29.6199 104.22 29.6199C101.326 29.6127 100.618 27.5278 100.45 25.4102L100.439 25.261C100.418 24.9403 100.405 24.6191 100.402 24.2977V9.54569H104.856ZM69.1905 9.16969C70.6369 9.16969 71.8228 9.45879 72.6907 10.0662C73.5583 10.6737 74.2237 11.5995 74.6286 12.872C75.0336 14.1449 75.2361 15.8513 75.2361 17.9631V20.8265C75.2361 22.9382 75.0336 24.616 74.6286 25.8886C74.2237 27.1617 73.5872 28.0872 72.6907 28.6947C71.7941 29.2731 70.579 29.5912 69.075 29.5912C67.5128 29.6202 66.2979 29.3021 65.4013 28.7236C64.5048 28.1162 63.8681 27.1904 63.4923 25.9178C63.1161 24.645 62.9425 22.9672 62.9425 20.8558V17.9918C62.9425 15.88 63.145 14.1446 63.579 12.8718C64.0129 11.5702 64.678 10.6444 65.6038 10.0662C66.5293 9.48748 67.7152 9.16941 69.1905 9.16941M119.348 1.2439V11.6571H119.377C119.782 10.9051 120.303 10.2977 121.026 9.83479C121.702 9.38088 122.497 9.13918 123.311 9.14072C124.381 9.14072 125.191 9.42983 125.799 9.97934C126.406 10.5581 126.84 11.4547 127.1 12.6985C127.353 13.9035 127.496 15.57 127.505 17.6715L127.505 17.8764V21.0003C127.505 23.9217 127.129 26.0913 126.435 27.4798C125.712 28.8682 124.613 29.5625 123.109 29.5625C122.27 29.5625 121.518 29.36 120.824 28.984C120.21 28.6261 119.701 28.1131 119.348 27.4966L119.29 27.3929H119.204L118.741 29.2731H115.067V1.24417L119.348 1.2439ZM101.645 2.25631V5.84279H97.2487V29.3018H92.91V5.84307H88.4843V2.25659L101.645 2.25631ZM53.9464 2.25631L53.9492 2.26734C53.9914 2.45521 54.5762 5.05521 55.2195 8.08445L55.2703 8.32445L55.347 8.68721L55.3983 8.93079L55.4239 9.053L55.4752 9.29797L55.5009 9.42072L55.5519 9.66652L55.6264 10.026C56.0609 12.1236 56.4755 14.2273 56.7235 15.7358H56.8394C57.0769 14.3827 57.422 12.6511 57.79 10.8831L57.8865 10.4213C57.9349 10.1899 57.9836 9.95893 58.0328 9.72831L58.1083 9.37052C58.6081 7.02757 59.1227 4.68785 59.6523 2.35148L59.6606 2.31424L59.6739 2.25631H64.0995L58.9795 20.5087V29.2731H54.6118V20.5374H54.5828L49.5208 2.25603L53.9464 2.25631ZM69.1037 12.2356C68.4962 12.2356 68.0912 12.554 67.8311 13.2193C67.571 13.8847 67.4551 14.8969 67.4551 16.3145V22.4756C67.4551 23.922 67.5707 24.992 67.8021 25.6287C68.0337 26.265 68.4675 26.5832 69.1037 26.5832C69.7111 26.5832 70.145 26.265 70.4054 25.6287C70.6659 24.992 70.7814 23.922 70.7814 22.4756V16.3142C70.7814 14.8969 70.6656 13.8555 70.4054 13.2191C70.145 12.554 69.7111 12.2356 69.1037 12.2356ZM120.129 12.8144C119.777 13.1399 119.526 13.5413 119.377 14.0431L119.348 14.1449V25.368C119.707 25.9755 120.216 26.3804 121.113 26.4094C121.575 26.4094 121.952 26.2359 122.241 25.8889C122.53 25.5418 122.733 24.9633 122.848 24.1531C122.959 23.3758 123.017 22.305 123.022 20.941V18.1945C123.022 16.6326 122.964 15.4467 122.877 14.6078C122.761 13.7689 122.617 13.1614 122.357 12.8144C121.853 12.0911 120.766 12.0999 120.129 12.8144ZM135.431 12.149C134.939 12.1779 134.592 12.3225 134.39 12.5829C134.159 12.872 134.014 13.306 133.927 13.9424C133.842 14.5658 133.813 16.7451 133.811 16.8323V18.2524H137.051V17V17.024C137.049 17.4618 137.04 16.77 137.02 15.9206L137.017 15.8064C136.999 15.0599 136.973 14.2276 136.935 13.9424C136.848 13.277 136.704 12.8141 136.472 12.554C136.241 12.2936 135.894 12.149 135.431 12.149" fill="white"/>
</g>
<defs>
<clipPath id="clip0_158_62">
<rect width="141.25" height="32" fill="white"/>
</clipPath>
</defs>
</svg>
